<?xml version="1.0" encoding="utf-8"?>
<!-- Generator: Adobe Illustrator 22.0.0, SVG Export Plug-In . SVG Version: 6.00 Build 0)  -->
<svg version="1.1" id="Layer_1" xmlns="http://www.w3.org/2000/svg" xmlns:xlink="http://www.w3.org/1999/xlink" x="0px" y="0px"
	 viewBox="0 0 346.6 259.6" style="enable-background:new 0 0 346.6 259.6;" xml:space="preserve">
<style type="text/css">
	.st0{fill:#FFFFFF;}
	.st1{fill:#EE5451;}
	.st2{fill:#FAFBFB;}
	.st3{opacity:0.25;}
	.st4{fill:#767576;}
	.st5{fill:#7B7B7B;}
	.st6{fill:#999999;}
	.st7{fill:#E9E9E9;}
	.st8{fill:#F4F5F5;}
</style>
<g>
	<g>
		<path class="st0" d="M74.6,144.5l-26.1-26.1l26.1-26.1c53.6-53.6,140.5-53.6,194.1,0l26.1,26.1l-26.1,26.1
			C215,198.1,128.2,198.1,74.6,144.5z"/>
		<path class="st1" d="M171.6,189.5c-37.9,0-73.6-14.8-100.5-41.6l-29.5-29.5l29.5-29.5C98,62.1,133.6,47.3,171.6,47.3
			c37.9,0,73.6,14.8,100.5,41.6l29.5,29.5l-29.5,29.5C245.2,174.8,209.5,189.5,171.6,189.5z M55.3,118.4L78,141.1
			c25,25,58.3,38.8,93.6,38.8c35.4,0,68.6-13.8,93.6-38.8l22.7-22.7l-22.7-22.7c-25-25-58.3-38.8-93.6-38.8
			C136.2,57,103,70.7,78,95.7L55.3,118.4z"/>
	</g>
	<g>
		<circle class="st2" cx="171.6" cy="118.4" r="66.3"/>
		<path class="st1" d="M171.6,186.3c-37.4,0-67.9-30.5-67.9-67.9c0-37.4,30.5-67.9,67.9-67.9c37.4,0,67.9,30.5,67.9,67.9
			C239.5,155.8,209,186.3,171.6,186.3z M171.6,53.7c-35.7,0-64.7,29-64.7,64.7c0,35.7,29,64.7,64.7,64.7c35.7,0,64.7-29,64.7-64.7
			C236.3,82.7,207.3,53.7,171.6,53.7z"/>
	</g>
	<g>
		<circle class="st1" cx="171.6" cy="118.4" r="34.8"/>
	</g>
	<g>
		<circle class="st0" cx="194.4" cy="101.7" r="14.9"/>
		<path class="st1" d="M194.4,117.3c-8.6,0-15.5-7-15.5-15.5c0-8.6,7-15.5,15.5-15.5c8.6,0,15.5,7,15.5,15.5
			C209.9,110.3,203,117.3,194.4,117.3z M194.4,87.4c-7.9,0-14.3,6.4-14.3,14.3c0,7.9,6.4,14.3,14.3,14.3s14.3-6.4,14.3-14.3
			C208.7,93.8,202.3,87.4,194.4,87.4z"/>
	</g>
	<g>
		<circle class="st0" cx="160.1" cy="135.6" r="5.8"/>
		<path class="st1" d="M160.1,141.6c-3.3,0-6-2.7-6-6c0-3.3,2.7-6,6-6c3.3,0,6,2.7,6,6C166.1,138.9,163.4,141.6,160.1,141.6z
			 M160.1,130.1c-3.1,0-5.5,2.5-5.5,5.5s2.5,5.5,5.5,5.5c3.1,0,5.5-2.5,5.5-5.5S163.1,130.1,160.1,130.1z"/>
	</g>
	<g class="st3">
		<g>
			<g>
				<path class="st4" d="M236.6,25.9v22.6c0,2.5,2,4.5,4.5,4.5h52.1c2.5,0,4.5-2,4.5-4.5V25.9c0-2.5-2-4.5-4.5-4.5h-52.1
					C238.6,21.3,236.6,23.4,236.6,25.9z"/>
			</g>
		</g>
	</g>
	<g>
		<g>
			<g>
				<g>
					<path class="st0" d="M299.6,22.7v25.4c0,1.7-1.4,3.2-3.2,3.2h-54.9c-1.7,0-3.2-1.4-3.2-3.2V22.7c0-1.7,1.4-3.2,3.2-3.2h54.9
						C298.2,19.5,299.6,21,299.6,22.7z"/>
				</g>
			</g>
			<g>
				<g>
					<path class="st4" d="M298.9,50.5c-0.7,0.7-1.5,1-2.4,1h-54.9c-1.9,0-3.4-1.5-3.4-3.4l0-25.4c0-0.9,0.4-1.8,1-2.4s1.5-1,2.4-1
						l54.9,0c0.9,0,1.8,0.4,2.4,1c0.6,0.6,1,1.5,1,2.4l0,25.4C299.9,49,299.5,49.8,298.9,50.5z M239.5,20.7c-0.5,0.5-0.8,1.3-0.8,2
						l0,25.4c0,1.6,1.3,2.9,2.9,2.9l54.9,0c0.8,0,1.5-0.3,2-0.8c0.5-0.5,0.8-1.3,0.8-2V22.7c0-0.8-0.3-1.5-0.8-2
						c-0.5-0.5-1.3-0.8-2-0.8l-54.9,0C240.8,19.8,240.1,20.1,239.5,20.7z"/>
				</g>
			</g>
		</g>
	</g>
	<g>
		<g>
			<g>
				
					<rect x="255.4" y="11.5" transform="matrix(6.123234e-17 -1 1 6.123234e-17 234.0643 304.827)" class="st2" width="28" height="47.8"/>
			</g>
			<g>
				<path class="st4" d="M293.5,49.5l-48,0V21.3l48,0V49.5z M245.7,49.3l47.5,0V21.5l-47.5,0V49.3z"/>
			</g>
		</g>
	</g>
	<g>
		<g>
			<g>
				<path class="st0" d="M242.8,32.2v5.5c0,0.2-0.2,0.4-0.4,0.4l0,0c-0.2,0-0.4-0.2-0.4-0.4v-5.5c0-0.2,0.2-0.4,0.4-0.4l0,0
					C242.6,31.8,242.8,32,242.8,32.2z"/>
			</g>
			<g>
				<path class="st1" d="M242.8,38.1c-0.1,0.1-0.2,0.2-0.4,0.2c-0.3,0-0.5-0.2-0.5-0.5v-5.5c0-0.3,0.3-0.5,0.5-0.5
					c0.3,0,0.5,0.2,0.5,0.5v5.5C242.9,37.8,242.9,38,242.8,38.1z M242.2,32c-0.1,0.1-0.1,0.1-0.1,0.2v5.5c0,0.2,0.1,0.3,0.3,0.3
					c0.2,0,0.3-0.1,0.3-0.3v-5.5c0-0.2-0.1-0.3-0.3-0.3C242.3,31.9,242.2,31.9,242.2,32z"/>
			</g>
		</g>
	</g>
	<g>
		<path class="st0" d="M190.8,227.9l-5.9-0.8l0.8-5.9c0.1-1,1.1-1.7,2.2-1.6l2,0.3c1.1,0.1,1.8,1.1,1.6,2.1L190.8,227.9z"/>
		<path class="st1" d="M191.1,228.3l-6.5-0.9l0.9-6.2c0.2-1.2,1.3-2,2.6-1.9l2,0.3c0.6,0.1,1.2,0.4,1.5,0.9c0.3,0.5,0.5,1,0.4,1.6
			L191.1,228.3z M185.3,226.8l5.2,0.7l0.8-5.6c0.1-0.4,0-0.8-0.3-1.1c-0.3-0.3-0.6-0.6-1.1-0.6l-2-0.3c-0.9-0.1-1.7,0.5-1.9,1.3
			L185.3,226.8z"/>
	</g>
	<g>
		<path class="st0" d="M182.9,241.6l5.9,0.8l-0.8,5.9c-0.1,1-1.1,1.7-2.2,1.6l-2-0.3c-1.1-0.1-1.8-1.1-1.6-2.1L182.9,241.6z"/>
		<path class="st1" d="M186,250.2c-0.1,0-0.2,0-0.3,0l-2-0.3c-0.6-0.1-1.2-0.4-1.5-0.9c-0.3-0.5-0.5-1-0.4-1.6l0.9-6.2l6.5,0.9
			l-0.9,6.2C188.1,249.4,187.1,250.2,186,250.2z M183.2,242l-0.8,5.6c-0.1,0.4,0,0.8,0.3,1.1c0.3,0.3,0.6,0.6,1.1,0.6l2,0.3
			c0.9,0.1,1.7-0.5,1.9-1.3l0.8-5.6L183.2,242z"/>
	</g>
	<g>
		<path class="st0" d="M193.7,238.7l0.8-5.8l5.9,0.8c1.1,0.1,1.8,1.1,1.6,2.1l-0.3,2.2c-0.1,1-1.1,1.7-2.2,1.6L193.7,238.7z"/>
		<path class="st1" d="M199.9,239.9c-0.1,0-0.2,0-0.3,0l-6.2-0.9l0.9-6.5l6.2,0.9c0.6,0.1,1.2,0.4,1.5,0.9c0.3,0.5,0.5,1,0.4,1.6
			l-0.3,2.2C202,239.1,201,239.9,199.9,239.9z M194.1,238.4l5.5,0.8c0.9,0.1,1.7-0.5,1.9-1.3l0.3-2.2c0.1-0.4,0-0.8-0.3-1.1
			c-0.3-0.3-0.6-0.6-1.1-0.6l-5.6-0.8L194.1,238.4z"/>
	</g>
	<g>
		<path class="st0" d="M180,230.8l-0.8,5.8l-5.9-0.8c-1.1-0.1-1.8-1.1-1.6-2.1l0.3-2.2c0.1-1,1.1-1.7,2.2-1.6L180,230.8z"/>
		<path class="st1" d="M179.4,237l-6.2-0.9c-0.6-0.1-1.2-0.4-1.5-0.9c-0.3-0.5-0.5-1-0.4-1.6l0.3-2.2c0.2-1.2,1.3-2,2.6-1.9l6.2,0.9
			L179.4,237z M173.9,230.3c-0.8,0-1.5,0.6-1.6,1.3l-0.3,2.2c-0.1,0.4,0,0.8,0.3,1.1c0.3,0.3,0.6,0.6,1.1,0.6l5.6,0.8l0.7-5.2
			l-5.5-0.8C174,230.3,173.9,230.3,173.9,230.3z"/>
	</g>
	<g>
		<path class="st0" d="M194.5,232.7L191,228l4.7-3.5c0.9-0.7,2.1-0.5,2.8,0.4l1.3,1.7c0.6,0.8,0.4,1.9-0.4,2.5L194.5,232.7z"/>
		<path class="st1" d="M194.5,233.2l-3.9-5.2l4.9-3.7c0.4-0.3,0.9-0.5,1.4-0.5c0.7,0,1.4,0.3,1.8,0.9l1.3,1.7c0.3,0.5,0.5,1,0.4,1.6
			c-0.1,0.6-0.4,1.1-0.9,1.4L194.5,233.2z M191.4,228.1l3.2,4.2l4.6-3.4c0.3-0.2,0.5-0.6,0.6-1c0.1-0.4,0-0.8-0.3-1.1l-1.3-1.7
			c-0.5-0.7-1.6-0.8-2.3-0.3L191.4,228.1z"/>
	</g>
	<g>
		<path class="st0" d="M179.2,236.8l3.6,4.7l-4.7,3.5c-0.9,0.7-2.1,0.5-2.8-0.4l-1.3-1.7c-0.6-0.8-0.4-1.9,0.4-2.5L179.2,236.8z"/>
		<path class="st1" d="M176.8,245.7c-0.7,0-1.4-0.3-1.8-0.9l-1.3-1.7c-0.3-0.5-0.5-1-0.4-1.6c0.1-0.6,0.4-1.1,0.9-1.4l5.1-3.8
			l3.9,5.2l-4.9,3.7C177.8,245.6,177.4,245.7,176.8,245.7z M179.1,237.3l-4.6,3.4c-0.3,0.2-0.5,0.6-0.6,1c-0.1,0.4,0,0.8,0.3,1.1
			l1.3,1.7c0.5,0.7,1.6,0.8,2.3,0.3l4.4-3.3L179.1,237.3z"/>
	</g>
	<g>
		<path class="st0" d="M188.9,242.4l4.7-3.5l3.6,4.8c0.6,0.8,0.4,1.9-0.4,2.5l-1.7,1.2c-0.9,0.7-2.1,0.5-2.8-0.4L188.9,242.4z"/>
		<path class="st1" d="M194,248.2c-0.7,0-1.4-0.3-1.8-0.9l-3.7-4.9l5.3-3.9l3.8,5.1c0.3,0.5,0.5,1,0.4,1.6c-0.1,0.6-0.4,1.1-0.9,1.4
			l-1.7,1.2C195,248,194.5,248.2,194,248.2z M189.4,242.5l3.3,4.4c0.5,0.7,1.6,0.8,2.3,0.3l1.7-1.2c0.3-0.2,0.5-0.6,0.6-1
			c0.1-0.4,0-0.8-0.3-1.1l-3.4-4.6L189.4,242.5z"/>
	</g>
	<g>
		<path class="st0" d="M184.8,227.1l-4.7,3.5l-3.6-4.8c-0.6-0.8-0.4-1.9,0.4-2.5l1.7-1.2c0.9-0.7,2.1-0.5,2.8,0.4L184.8,227.1z"/>
		<path class="st1" d="M180,231.1l-3.8-5.1c-0.3-0.5-0.5-1-0.4-1.6c0.1-0.6,0.4-1.1,0.9-1.4l1.7-1.2c0.4-0.3,0.9-0.5,1.4-0.5
			c0.7,0,1.4,0.3,1.8,0.9l3.7,4.9L180,231.1z M179.7,222c-0.4,0-0.7,0.1-1,0.3l-1.7,1.2c-0.3,0.2-0.5,0.6-0.6,1
			c-0.1,0.4,0,0.8,0.3,1.1l3.4,4.6l4.2-3.1l-3.3-4.4C180.7,222.3,180.2,222,179.7,222z"/>
	</g>
	<g>
		<g>
			<g>
				<path class="st0" d="M188.2,225.3c-5.4-0.8-10.5,3-11.2,8.4c-0.8,5.4,3,10.4,8.4,11.2c5.4,0.8,10.5-3,11.2-8.4
					C197.4,231.1,193.6,226.1,188.2,225.3z M185.9,241.5c-3.6-0.5-6.1-3.8-5.6-7.3c0.5-3.6,3.8-6,7.4-5.5s6.1,3.8,5.6,7.3
					C192.8,239.5,189.5,242,185.9,241.5z"/>
			</g>
		</g>
		<g>
			<g>
				<path class="st1" d="M186.8,245.3L186.8,245.3c-0.5,0-1,0-1.5-0.1c-2.7-0.4-5.1-1.8-6.8-4c-1.6-2.2-2.3-4.8-1.9-7.5
					c0.7-5,5.1-8.7,10.1-8.7c0.5,0,1,0,1.5,0.1c2.7,0.4,5.1,1.8,6.8,4c1.6,2.2,2.3,4.8,1.9,7.5C196.2,241.5,191.9,245.3,186.8,245.3
					z M186.8,225.5c-4.7,0-8.8,3.5-9.5,8.2c-0.4,2.5,0.3,5,1.8,7c1.5,2.1,3.8,3.4,6.3,3.7c0.5,0.1,0.9,0.1,1.4,0.1
					c4.7,0,8.8-3.5,9.5-8.2c0.4-2.5-0.3-5-1.8-7c-1.5-2.1-3.8-3.4-6.3-3.7C187.7,225.6,187.3,225.5,186.8,225.5z M186.8,241.9
					c-0.3,0-0.7,0-1-0.1c-1.8-0.3-3.4-1.2-4.5-2.7c-1.1-1.5-1.5-3.2-1.3-5c0.5-3.3,3.4-5.9,6.8-5.9c0.3,0,0.7,0,1,0.1
					c1.8,0.3,3.4,1.2,4.5,2.7c1.1,1.5,1.6,3.2,1.3,5C193.1,239.4,190.2,241.9,186.8,241.9z M186.8,228.9c-3.1,0-5.7,2.3-6.1,5.3
					c-0.2,1.6,0.2,3.2,1.2,4.6c1,1.3,2.5,2.2,4.1,2.4c0.3,0,0.6,0.1,0.9,0.1c3.1,0,5.7-2.3,6.1-5.3c0.2-1.6-0.2-3.2-1.2-4.6
					c-1-1.3-2.5-2.2-4.1-2.4C187.4,228.9,187.1,228.9,186.8,228.9z"/>
			</g>
		</g>
	</g>
	<g>
		
			<rect x="5.9" y="130.9" transform="matrix(-1 -1.224647e-16 1.224647e-16 -1 25.6652 268.373)" class="st0" width="13.9" height="6.5"/>
		<path class="st4" d="M20.1,137.8H5.5v-7.3h14.6V137.8z M6.3,137.1h13.1v-5.8H6.3V137.1z"/>
	</g>
	<g>
		
			<rect x="5.9" y="124.8" transform="matrix(-1 -1.224647e-16 1.224647e-16 -1 25.6652 252.8782)" class="st0" width="13.9" height="3.3"/>
		<path class="st4" d="M20.1,128.4H5.5v-4h14.6V128.4z M6.3,127.7h13.1v-2.5H6.3V127.7z"/>
	</g>
	<g>
		<polygon class="st0" points="12.8,161 24.8,148.3 19.8,148.3 19.8,140.7 5.9,140.7 5.9,148.3 0.8,148.3 		"/>
		<path class="st4" d="M12.8,161.5L0,147.9h5.5v-7.6h14.6v7.6h5.5L12.8,161.5z M1.7,148.6l11.1,11.8L24,148.6h-4.6v-7.6H6.3v7.6H1.7
			z"/>
	</g>
	<g class="st3">
		<g>
			<path class="st4" d="M60.6,51.8c1.2,0,2.4,0.1,3.6,0.3c2.7-5.5,8.8-9.4,15.9-9.4c9.6,0,17.4,7,17.4,15.7c0,0,0,0,0,0.1
				c8.1,0.7,14.4,6.8,14.4,14.3c0,7.9-7.1,14.3-15.9,14.3H59.9v0c-10.5-0.3-18.8-8.1-18.8-17.6C41.1,59.7,49.8,51.8,60.6,51.8z"/>
		</g>
	</g>
	<g>
		<path class="st0" d="M40,66c0-9.7,8.7-17.6,19.5-17.6c1.2,0,2.4,0.1,3.6,0.3c2.7-5.5,8.8-9.4,15.9-9.4c9.6,0,17.4,7,17.4,15.7
			c0,0,0,0,0,0.1c8.1,0.7,14.4,6.8,14.4,14.3c0,7.9-7.1,14.3-15.9,14.3H58.9v0C48.4,83.3,40,75.5,40,66z"/>
		<path class="st1" d="M95,84.4H58.1v0C47.5,83.7,39.3,75.7,39.3,66c0-10.1,9.1-18.4,20.3-18.4c1.1,0,2.1,0.1,3.2,0.2
			c3-5.7,9.4-9.3,16.4-9.3c9.8,0,17.7,7,18.1,15.8c8.3,1,14.4,7.3,14.4,15C111.6,77.6,104.2,84.4,95,84.4z M59.3,82.9H95
			c8.3,0,15.1-6.1,15.1-13.6c0-7.1-5.9-12.9-13.7-13.5l-0.7-0.1l0-0.8c0-8.2-7.4-14.9-16.6-14.9c-6.6,0-12.6,3.5-15.2,9l-0.2,0.5
			L63,49.4c-1.1-0.2-2.3-0.3-3.5-0.3c-10.3,0-18.8,7.6-18.8,16.9c0,9.1,8,16.5,18.1,16.9L59.3,82.9z"/>
	</g>
	<g class="st3">
		<g>
			<path class="st4" d="M142.6,2.2c4.5,0,8.5,2.4,10.8,5.9c0.9-0.3,1.8-0.4,2.8-0.4c5.6,0,10.1,4.5,10.1,10.1s-4.5,10.1-10.1,10.1
				h-13.6c-7.1,0-12.8-5.7-12.8-12.8S135.5,2.2,142.6,2.2z"/>
		</g>
	</g>
	<g>
		<path class="st0" d="M140.6,0.7c4.5,0,8.5,2.4,10.8,5.9c0.9-0.3,1.8-0.4,2.8-0.4c5.6,0,10.1,4.5,10.1,10.1s-4.5,10.1-10.1,10.1
			h-13.6c-7.1,0-12.8-5.7-12.8-12.8C127.8,6.5,133.5,0.7,140.6,0.7z"/>
		<path class="st1" d="M154.2,27.2h-13.6c-7.5,0-13.6-6.1-13.6-13.6S133.1,0,140.6,0c4.5,0,8.6,2.2,11.1,5.8
			c0.8-0.2,1.7-0.3,2.5-0.3c6,0,10.8,4.9,10.8,10.8C165,22.3,160.2,27.2,154.2,27.2z M140.6,1.5c-6.7,0-12.1,5.4-12.1,12.1
			c0,6.7,5.4,12.1,12.1,12.1h13.6c5.1,0,9.3-4.2,9.3-9.3c0-5.1-4.2-9.3-9.3-9.3c-0.9,0-1.7,0.1-2.6,0.4l-0.5,0.2l-0.3-0.5
			C148.5,3.6,144.7,1.5,140.6,1.5z"/>
	</g>
	<g class="st3">
		
			<rect x="239.8" y="166" transform="matrix(0.7041 -0.7101 0.7101 0.7041 -66.1804 250.9353)" class="st5" width="56.4" height="77.6"/>
	</g>
	<g>
		<g>
			
				<rect x="236.4" y="166.8" transform="matrix(0.7041 -0.7101 0.7101 0.7041 -67.7102 248.7446)" class="st0" width="56.4" height="77.6"/>
			<path class="st6" d="M272.3,253.7l-55.9-55.4l40.4-40.8l55.9,55.4L272.3,253.7z M217.9,198.3l54.4,53.9l39-39.3L256.9,159
				L217.9,198.3z"/>
		</g>
		<g>
			<g>
				<g>
					
						<rect x="222.2" y="182" transform="matrix(0.7041 -0.7101 0.7101 0.7041 -58.3587 226.4356)" class="st0" width="40.7" height="2.4"/>
				</g>
				<g>
					<path class="st7" d="M229,198.9l-2.1-2.1l29-29.3l2.1,2.1L229,198.9z M227.7,196.8l1.3,1.3l28.3-28.5l-1.3-1.3L227.7,196.8z"/>
				</g>
			</g>
		</g>
		<g>
			<g>
				
					<rect x="228.7" y="185.4" transform="matrix(0.7041 -0.7101 0.7101 0.7041 -58.5168 231.6088)" class="st7" width="39.9" height="1.3"/>
			</g>
			<g>
				
					<rect x="230.3" y="187" transform="matrix(0.7041 -0.7101 0.7101 0.7041 -59.1728 233.2214)" class="st7" width="39.9" height="1.3"/>
			</g>
			<g>
				
					<rect x="231.9" y="188.6" transform="matrix(0.7041 -0.7101 0.7101 0.7041 -59.8287 234.8342)" class="st7" width="39.9" height="1.3"/>
			</g>
			<g>
				
					<rect x="233.5" y="190.2" transform="matrix(0.7041 -0.7101 0.7101 0.7041 -60.4846 236.4474)" class="st7" width="39.9" height="1.3"/>
			</g>
			<g>
				
					<rect x="231.3" y="201.7" transform="matrix(0.7041 -0.7101 0.7101 0.7041 -75.2974 225.3071)" class="st7" width="2.7" height="2.5"/>
			</g>
		</g>
		<g>
			<g>
				
					<rect x="235.9" y="192.5" transform="matrix(0.7041 -0.7101 0.7101 0.7041 -61.4663 238.8608)" class="st7" width="39.9" height="1.3"/>
			</g>
			<g>
				
					<rect x="237.5" y="194.1" transform="matrix(0.7041 -0.7101 0.7101 0.7041 -62.1222 240.474)" class="st7" width="39.9" height="1.3"/>
			</g>
			<g>
				
					<rect x="239.1" y="195.7" transform="matrix(0.7041 -0.7101 0.7101 0.7041 -62.7782 242.0868)" class="st7" width="39.9" height="1.3"/>
			</g>
			<g>
				
					<rect x="240.7" y="197.3" transform="matrix(0.7041 -0.7101 0.7101 0.7041 -63.4342 243.6994)" class="st7" width="39.9" height="1.3"/>
			</g>
			<g>
				
					<rect x="238.6" y="208.9" transform="matrix(0.7041 -0.7101 0.7101 0.7041 -78.2469 232.5594)" class="st7" width="2.7" height="2.5"/>
			</g>
		</g>
		<g>
			<g>
				
					<rect x="243.1" y="199.7" transform="matrix(0.7041 -0.7101 0.7101 0.7041 -64.4158 246.1134)" class="st7" width="39.9" height="1.3"/>
			</g>
			<g>
				
					<rect x="244.7" y="201.3" transform="matrix(0.7041 -0.7101 0.7101 0.7041 -65.0717 247.7263)" class="st7" width="39.9" height="1.3"/>
			</g>
			<g>
				
					<rect x="246.3" y="202.9" transform="matrix(0.7041 -0.7101 0.7101 0.7041 -65.7277 249.3391)" class="st7" width="39.9" height="1.3"/>
			</g>
			<g>
				
					<rect x="248" y="204.5" transform="matrix(0.7041 -0.7101 0.7101 0.7041 -66.3836 250.9523)" class="st7" width="39.9" height="1.3"/>
			</g>
			<g>
				
					<rect x="245.8" y="216.1" transform="matrix(0.7041 -0.7101 0.7101 0.7041 -81.1961 239.8168)" class="st7" width="2.7" height="2.5"/>
			</g>
		</g>
		<g>
			<g>
				
					<rect x="250.4" y="206.9" transform="matrix(0.7041 -0.7101 0.7101 0.7041 -67.3653 253.3657)" class="st7" width="39.9" height="1.3"/>
			</g>
			<g>
				
					<rect x="252" y="208.5" transform="matrix(0.7041 -0.7101 0.7101 0.7041 -68.0212 254.9785)" class="st7" width="39.9" height="1.3"/>
			</g>
			<g>
				
					<rect x="253.6" y="210.1" transform="matrix(0.7041 -0.7101 0.7101 0.7041 -68.6772 256.591)" class="st7" width="39.9" height="1.3"/>
			</g>
			<g>
				
					<rect x="255.2" y="211.7" transform="matrix(0.7041 -0.7101 0.7101 0.7041 -69.3332 258.2039)" class="st7" width="39.9" height="1.3"/>
			</g>
			<g>
				
					<rect x="255.2" y="211.7" transform="matrix(0.7041 -0.7101 0.7101 0.7041 -69.3332 258.2039)" class="st7" width="39.9" height="1.3"/>
			</g>
			<g>
				<g>
					
						<rect x="254" y="215.9" transform="matrix(0.7041 -0.7101 0.7101 0.7041 -72.1638 260.3792)" class="st7" width="44.6" height="1.8"/>
				</g>
				<g>
					
						<rect x="256.4" y="218.2" transform="matrix(0.7041 -0.7101 0.7101 0.7041 -73.1225 262.7365)" class="st7" width="44.6" height="1.8"/>
				</g>
				<g>
					
						<rect x="258.7" y="220.5" transform="matrix(0.7041 -0.7101 0.7101 0.7041 -74.0812 265.0937)" class="st7" width="44.6" height="1.8"/>
				</g>
				<g>
					
						<rect x="261.1" y="222.9" transform="matrix(0.7041 -0.7101 0.7101 0.7041 -75.0399 267.451)" class="st7" width="44.6" height="1.8"/>
				</g>
				<g>
					
						<rect x="263.4" y="225.2" transform="matrix(0.7041 -0.7101 0.7101 0.7041 -75.9986 269.8082)" class="st7" width="44.6" height="1.8"/>
				</g>
				<g>
					
						<rect x="268.7" y="234.6" transform="matrix(0.7041 -0.7101 0.7101 0.7041 -84.0673 269.2737)" class="st7" width="24.6" height="1.8"/>
				</g>
			</g>
			<g>
				
					<rect x="253" y="223.2" transform="matrix(0.7041 -0.7101 0.7101 0.7041 -84.146 247.0639)" class="st7" width="2.7" height="2.5"/>
			</g>
		</g>
	</g>
	<g>
		<path class="st0" d="M128.9,209.7l-15.5-20.2l-19.3,14.8l-0.7-0.7c-2.1-2.1-5-3.1-7.8-2.9H68c-0.2,0-0.3,0-0.5,0.1
			c-0.2,0.1-0.5,0.2-0.6,0.4c-0.3,0.3-0.5,0.7-0.5,1.1c0,0.4,0,0.7,0.1,1.1c3.6-1.6,8-0.9,11,1.9l-15.9,15.9
			c-3.9,3.9-3.9,10.3,0,14.3l14.1,14.1c3.9,3.9,10.3,3.9,14.3,0l17.6-17.6c2.2-2.2,3.2-5.2,2.9-8.1L128.9,209.7z"/>
		<path class="st4" d="M82.8,252.9c-2.8,0-5.4-1.1-7.3-3l-14.1-14.1c-4-4.1-4-10.7,0-14.7L77,205.4c-1.8-1.6-4.1-2.5-6.5-2.5
			c-1.4,0-2.7,0.3-3.9,0.8l-0.4,0.2l-0.1-0.4c-0.1-0.4-0.1-0.7-0.1-1.1c0-0.5,0.2-1,0.6-1.4c0.2-0.2,0.5-0.4,0.8-0.5
			c0.2-0.1,0.4-0.1,0.6-0.1h17.6c0.2,0,0.4,0,0.7,0c2.8,0,5.4,1.1,7.3,3l0.5,0.5l19.3-14.8l15.8,20.7l-0.2,0.2L110.7,224
			c0.3,3.1-0.8,6-3,8.2l-17.6,17.6C88.2,251.8,85.6,252.9,82.8,252.9z M70.5,202.3c2.7,0,5.2,1,7.2,2.9l0.2,0.2l-16.1,16.1
			c-3.8,3.8-3.8,10,0,13.9l14.1,14.1c1.8,1.9,4.3,2.9,6.9,2.9c2.6,0,5.1-1,6.9-2.9l17.6-17.6c2.1-2.1,3.1-5,2.8-7.9l0-0.2l0.1-0.1
			l18.2-14l-15.1-19.7l-19.3,14.8l-0.9-0.9c-2-2-4.7-3-7.6-2.8L68,201c-0.1,0-0.3,0-0.4,0.1c-0.2,0.1-0.4,0.2-0.5,0.3
			c-0.2,0.2-0.4,0.6-0.4,0.9c0,0.2,0,0.4,0,0.7C67.9,202.5,69.2,202.3,70.5,202.3z"/>
	</g>
	<g>
		<g>
			<path class="st0" d="M106.2,241.1c-2,2-5.1,2-7.1,0l-1.7-1.7c1,1,1.5,2.3,1.5,3.5c0,1.3-0.5,2.6-1.5,3.5c-2,2-5.1,2-7.1,0
				l-1.3-1.3c2,2,2,5.1,0,7.1c-2,2-5.1,2-7.1,0l-0.7-0.7c0,0-0.1,0.1-0.1,0.1c0.5,0.8,0.7,1.7,0.7,2.6c0,1.3-0.5,2.6-1.5,3.5
				c-2,2-5.1,2-7.1,0l-6.2-6.2c0,0,0,0,0,0l-17.6-17.6c-2.9-2.9-3.7-7.2-2.3-10.8c0.1-0.2,0.2-0.5,0.3-0.7l-15.9-15.9l18.9-18.9
				l16,16c0.1,0,0.1-0.1,0.2-0.2c0.5,3.9,3.9,7,7.9,6.9l8.1,0l0.6,0.6l12.1,12.1c0,0,0,0,0,0l10.8,10.8
				C108.2,235.9,108.2,239.1,106.2,241.1z"/>
			<path class="st4" d="M76.9,259.6c-1.4,0-2.8-0.6-3.8-1.6l-6.2-6.2c0,0,0,0-0.1,0l-17.6-17.6c-2.9-2.9-3.8-7.3-2.3-11.1
				c0.1-0.2,0.1-0.3,0.2-0.5l-16-16l19.3-19.3l16,16c0,0,0,0,0.1,0l0.4-0.2l0.1,0.4c0.5,3.8,3.8,6.7,7.6,6.7l8.2,0l0.7,0.7l23,23
				c2.1,2.1,2.1,5.4,0,7.5c-1,1-2.3,1.6-3.8,1.6c-1.4,0-2.7-0.5-3.7-1.5c0.2,0.5,0.2,1,0.2,1.6c0,1.4-0.6,2.8-1.6,3.8
				c-1,1-2.3,1.6-3.8,1.6c-1.2,0-2.4-0.4-3.3-1.2c0.6,1.8,0.2,4-1.3,5.4c-1,1-2.3,1.6-3.8,1.6c-1.4,0-2.6-0.5-3.6-1.4
				c0.2,0.5,0.3,1.1,0.3,1.6c0,1.4-0.6,2.7-1.5,3.8C79.6,259,78.3,259.6,76.9,259.6z M32,206.5l15.9,15.9l-0.1,0.2
				c-0.1,0.2-0.2,0.4-0.3,0.7c-1.4,3.6-0.5,7.7,2.2,10.5l23.8,23.9c0.9,0.9,2.1,1.4,3.3,1.4c1.3,0,2.4-0.5,3.3-1.4
				c0.9-0.9,1.4-2.1,1.4-3.3c0-0.9-0.2-1.7-0.7-2.4l-0.1-0.2l0.5-0.5l0.9,0.9c0.9,0.9,2.1,1.4,3.3,1.4c1.3,0,2.4-0.5,3.3-1.4
				c1.8-1.8,1.8-4.8,0-6.7l0.4-0.4l1.3,1.3c0.9,0.9,2.1,1.4,3.3,1.4c1.3,0,2.4-0.5,3.3-1.4c0.9-0.9,1.4-2.1,1.4-3.3
				c0-1.3-0.5-2.4-1.4-3.3l0.4-0.4l1.7,1.7c0.9,0.9,2.1,1.4,3.3,1.4c1.3,0,2.4-0.5,3.3-1.4c1.8-1.8,1.8-4.8,0-6.7l-23.5-23.5l-7.9,0
				c-4,0-7.4-2.9-8.2-6.7l0,0l-0.1-0.1L50.4,188L32,206.5z"/>
		</g>
		<g>
			<g>
				<polygon class="st8" points="40.5,219.3 32.8,210.1 57.4,189.3 65.2,198.5 				"/>
				<path class="st4" d="M40.5,219.8l-8.2-9.7l25.1-21.2l8.2,9.7L40.5,219.8z M33.2,210.1l7.4,8.8l24.2-20.4l-7.4-8.8L33.2,210.1z"
					/>
			</g>
		</g>
		<g>
			<g>
				<polygon class="st0" points="36.1,219.3 27,210.1 54,183 63.2,192.2 				"/>
				<path class="st4" d="M36.1,219.7l-9.6-9.6L54,182.6l9.6,9.6L36.1,219.7z M27.4,210.1l8.7,8.8l26.6-26.7l-8.7-8.8L27.4,210.1z"/>
			</g>
		</g>
	</g>
	<g>
		<path class="st0" d="M78,205.3c-1.2-1-1.8-1.6-2.6-2c-3.8-1.9-7.7-0.7-8.6-0.3c0,0.5,0.5,3.3,2.8,5.5c2.2,2,4.4,1.7,5,1.7
			c2.8,0,5.7,0,8.5,0C82,208.8,80.3,207.3,78,205.3z"/>
	</g>
	<g>
		<g>
			<path class="st0" d="M45.8,230l0.9-0.9c1.6-1.6,4.3-1.6,5.9,0l0,0c1.6,1.6,1.6,4.3,0,5.9l-0.9,0.9c-1.6,1.6-4.3,1.6-5.9,0v0
				C44.1,234.2,44.1,231.6,45.8,230z"/>
			<path class="st4" d="M48.7,237.4c-1.2,0-2.3-0.5-3.2-1.3c-1.7-1.7-1.7-4.6,0-6.3l0.9-0.9c0.8-0.8,2-1.3,3.2-1.3
				c1.2,0,2.3,0.5,3.2,1.3c1.7,1.7,1.7,4.6,0,6.3l-0.9,0.9C51,236.9,49.9,237.4,48.7,237.4z M49.6,228.2c-1,0-2,0.4-2.7,1.1
				l-0.9,0.9c-1.5,1.5-1.5,4,0,5.5c0.7,0.7,1.7,1.1,2.7,1.1s2-0.4,2.7-1.1l0.9-0.9c1.5-1.5,1.5-4,0-5.5
				C51.6,228.6,50.6,228.2,49.6,228.2z"/>
		</g>
	</g>
	<g>
		<g>
			<path class="st0" d="M51.9,239l2.3-2.3c1.6-1.6,4.3-1.6,5.9,0l0,0c1.6,1.6,1.6,4.3,0,5.9l-2.3,2.3c-1.6,1.6-4.3,1.6-5.9,0l0,0
				C50.3,243.2,50.3,240.6,51.9,239z"/>
			<path class="st4" d="M54.8,246.4c-1.2,0-2.3-0.5-3.2-1.3c-1.7-1.7-1.7-4.6,0-6.3l2.3-2.3c0.8-0.8,2-1.3,3.2-1.3
				c1.2,0,2.3,0.5,3.2,1.3c1.7,1.7,1.7,4.6,0,6.3l-2.3,2.3C57.1,245.9,56,246.4,54.8,246.4z M57.1,235.7c-1,0-2,0.4-2.7,1.1
				l-2.3,2.3c-1.5,1.5-1.5,4,0,5.5c0.7,0.7,1.7,1.1,2.7,1.1c1,0,2-0.4,2.7-1.1l2.3-2.3c1.5-1.5,1.5-4,0-5.5
				C59.1,236.1,58.2,235.7,57.1,235.7z"/>
		</g>
	</g>
	<g>
		<g>
			<g>
				<path class="st0" d="M55.1,238.1l0.9-0.9c0.5-0.5,1.2-0.5,1.7,0l1.8,1.8c0.5,0.5,0.5,1.2,0,1.7l-0.9,0.9c-1,1-2.5,1-3.5,0l0,0
					C54.2,240.7,54.2,239.1,55.1,238.1z"/>
				<path class="st4" d="M56.9,242.5c-0.7,0-1.3-0.3-1.8-0.8c-1-1-1-2.7,0-3.7l0.9-0.9c0.5-0.5,1.4-0.5,1.9,0l1.8,1.8
					c0.5,0.5,0.5,1.4,0,1.9l-0.9,0.9C58.2,242.2,57.5,242.5,56.9,242.5z M56.9,237.1c-0.3,0-0.5,0.1-0.7,0.3l-0.9,0.9
					c-0.9,0.9-0.9,2.4,0,3.2c0.4,0.4,1,0.7,1.6,0.7c0.6,0,1.2-0.2,1.6-0.7l0.9-0.9c0.4-0.4,0.4-1,0-1.4l-1.8-1.8
					C57.4,237.2,57.1,237.1,56.9,237.1z"/>
			</g>
		</g>
	</g>
	<g>
		<g>
			<path class="st0" d="M47.6,230.6l0.9-0.9c0.5-0.5,1.2-0.5,1.7,0l1.8,1.8c0.5,0.5,0.5,1.2,0,1.7L51,234c-1,1-2.5,1-3.5,0l0,0
				C46.6,233.1,46.6,231.5,47.6,230.6z"/>
			<path class="st4" d="M49.3,234.9c-0.7,0-1.3-0.3-1.8-0.8c-1-1-1-2.7,0-3.7l0.9-0.9c0.5-0.5,1.4-0.5,1.9,0l1.8,1.8
				c0.5,0.5,0.5,1.4,0,1.9l-0.9,0.9C50.7,234.6,50,234.9,49.3,234.9z M49.3,229.5c-0.3,0-0.5,0.1-0.7,0.3l-0.9,0.9
				c-0.9,0.9-0.9,2.4,0,3.3c0.4,0.4,1,0.7,1.6,0.7c0.6,0,1.2-0.2,1.6-0.7l0.9-0.9c0.4-0.4,0.4-1,0-1.4l-1.8-1.8
				C49.8,229.6,49.6,229.5,49.3,229.5z"/>
		</g>
	</g>
	<g>
		<g>
			<g>
				<g>
					<path class="st0" d="M73.3,203.6c-0.5,0.5-1.1,0.8-1.9,0.9l-1.7,0.2c-0.8,0.1-1.6-0.5-1.7-1.3l-0.3-2.6
						c0.2-0.1,0.3-0.1,0.5-0.1h6c0,0.1,0,0.1,0,0.2C74.3,201.9,73.9,202.9,73.3,203.6z"/>
				</g>
				<g>
					<path class="st4" d="M69.5,204.9c-0.9,0-1.6-0.6-1.7-1.5l-0.3-2.7l0.1,0c0.2-0.1,0.4-0.1,0.6-0.1h6.1l0,0.1c0,0.1,0,0.1,0,0.2
						c0.1,1-0.2,2.1-1,2.8c-0.5,0.5-1.2,0.9-2,1l-1.7,0.2C69.7,204.9,69.6,204.9,69.5,204.9z M67.8,200.9l0.3,2.4
						c0.1,0.8,0.8,1.3,1.6,1.2l1.7-0.2c0.7-0.1,1.3-0.4,1.8-0.9c0.7-0.7,1-1.6,0.9-2.6c0,0,0,0,0,0h-5.9
						C68.1,200.9,67.9,200.9,67.8,200.9z"/>
				</g>
			</g>
		</g>
	</g>
	<g>
		<g>
			<path class="st0" d="M58.7,246.2l2.8-2.8c1.5-1.5,3.9-1.5,5.4,0l0,0c1.5,1.5,1.5,3.9,0,5.5l-2.8,2.8c-1.5,1.5-3.9,1.5-5.4,0v0
				C57.2,250.2,57.2,247.7,58.7,246.2z"/>
			<path class="st4" d="M61.4,253.1c-1.1,0-2.2-0.4-2.9-1.2c-1.6-1.6-1.6-4.3,0-5.9l2.8-2.8c0.8-0.8,1.8-1.2,2.9-1.2
				c1.1,0,2.2,0.4,2.9,1.2c1.6,1.6,1.6,4.3,0,5.9l-2.8,2.8C63.6,252.7,62.5,253.1,61.4,253.1z M64.2,242.6c-0.9,0-1.8,0.4-2.5,1
				l-2.8,2.8c-1.4,1.4-1.4,3.6,0,5c0.7,0.7,1.6,1,2.5,1c0.9,0,1.8-0.4,2.5-1l2.8-2.8c1.4-1.4,1.4-3.6,0-5
				C66,243,65.1,242.6,64.2,242.6z"/>
		</g>
	</g>
	<g>
		<g>
			<path class="st0" d="M61.9,245l0.9-0.9c0.5-0.5,1.2-0.5,1.7,0l1.8,1.8c0.5,0.5,0.5,1.2,0,1.7l-0.9,0.9c-1,1-2.5,1-3.5,0l0,0
				C61,247.5,61,245.9,61.9,245z"/>
			<path class="st4" d="M63.7,249.3c-0.7,0-1.4-0.3-1.9-0.8c-1-1-1-2.7,0-3.7l0.9-0.9c0.5-0.5,1.4-0.5,1.9,0l1.8,1.8
				c0.5,0.5,0.5,1.4,0,1.9l-0.9,0.9C65,249,64.4,249.3,63.7,249.3z M63.7,243.8c-0.3,0-0.5,0.1-0.7,0.3l-0.9,0.9
				c-0.9,0.9-0.9,2.4,0,3.3c0.4,0.4,1,0.7,1.6,0.7c0.6,0,1.2-0.2,1.6-0.7l0.9-0.9c0.4-0.4,0.4-1.1,0-1.5l-1.8-1.8
				C64.2,244,63.9,243.8,63.7,243.8z"/>
		</g>
	</g>
	<g>
		<g>
			<path class="st0" d="M64.8,253.2l2.1-2.1c1.3-1.3,3.3-1.3,4.6,0l0.1,0.1c1.2,1.2,1.2,3.2,0,4.4l-2.2,2.2c-1.3,1.3-3.3,1.3-4.6,0
				l0,0C63.5,256.5,63.5,254.4,64.8,253.2z"/>
			<path class="st4" d="M67.1,259c-1,0-1.8-0.4-2.5-1c-1.4-1.4-1.4-3.7,0-5l2.1-2.1c0.7-0.7,1.6-1,2.5-1c1,0,1.8,0.4,2.5,1l0.1,0.1
				c1.3,1.3,1.3,3.5,0,4.8l-2.2,2.2C68.9,258.7,68,259,67.1,259z M69.2,250.4c-0.8,0-1.5,0.3-2.1,0.9l-2.1,2.1c-1.2,1.2-1.2,3,0,4.2
				c0.6,0.6,1.3,0.9,2.1,0.9c0.8,0,1.5-0.3,2.1-0.9l2.2-2.2c1.1-1.1,1.1-2.9,0-4l-0.1-0.1C70.7,250.7,70,250.4,69.2,250.4z"/>
		</g>
	</g>
	<g>
		<g>
			<g>
				<path class="st0" d="M67.5,252.3l0.7-0.7c0.4-0.4,1-0.4,1.3,0L71,253c0.4,0.4,0.4,1,0,1.3l-0.7,0.7c-0.8,0.8-2,0.8-2.8,0l0,0
					C66.7,254.3,66.7,253,67.5,252.3z"/>
				<path class="st4" d="M68.9,255.8c-0.6,0-1.1-0.2-1.5-0.6c-0.8-0.8-0.8-2.2,0-3l0.7-0.7c0.4-0.4,1.1-0.4,1.5,0l1.5,1.5
					c0.4,0.4,0.4,1.1,0,1.6l-0.7,0.7C70,255.6,69.5,255.8,68.9,255.8z M68.9,251.4c-0.2,0-0.4,0.1-0.6,0.2l-0.7,0.7
					c-0.7,0.7-0.7,1.9,0,2.6c0.3,0.3,0.8,0.5,1.3,0.5c0.5,0,0.9-0.2,1.3-0.5l0.7-0.7c0.3-0.3,0.3-0.8,0-1.1l-1.5-1.5
					C69.3,251.5,69.1,251.4,68.9,251.4z"/>
			</g>
		</g>
	</g>
	<g>
		<g>
			<polygon class="st8" points="120.4,219.7 129,211.1 106.1,188.3 97.6,196.9 			"/>
			<path class="st4" d="M120.4,220.1l-23.3-23.2l9-9l23.3,23.2L120.4,220.1z M98,196.9l22.4,22.4l8.1-8.2l-22.4-22.4L98,196.9z"/>
		</g>
	</g>
	<g>
		<g>
			<polygon class="st0" points="124.8,220 134.7,211.6 110,182.3 100.1,190.7 			"/>
			<path class="st4" d="M124.8,220.4l-0.2-0.2l-24.9-29.5l10.4-8.8l0.2,0.2l24.9,29.5L124.8,220.4z M100.6,190.8l24.3,28.8l9.4-8
				L110,182.8L100.6,190.8z"/>
		</g>
	</g>
	<g>
		<g>
			<path class="st8" d="M73.3,246.4c0,1.1-0.9,2-2,2c-1.1,0-2-0.9-2-2s0.9-2,2-2C72.4,244.4,73.3,245.3,73.3,246.4z"/>
			<path class="st1" d="M71.3,248.6c-1.2,0-2.1-1-2.1-2.1c0-1.2,1-2.1,2.1-2.1c1.2,0,2.1,1,2.1,2.1
				C73.4,247.6,72.5,248.6,71.3,248.6z M71.3,244.6c-1,0-1.8,0.8-1.8,1.8c0,1,0.8,1.8,1.8,1.8c1,0,1.8-0.8,1.8-1.8
				C73.1,245.4,72.3,244.6,71.3,244.6z"/>
		</g>
	</g>
	<g>
		<g>
			<ellipse class="st8" cx="94.2" cy="229.3" rx="2.6" ry="2.6"/>
			<path class="st1" d="M94.2,232.1c-1.5,0-2.7-1.2-2.7-2.7c0-1.5,1.2-2.7,2.7-2.7c1.5,0,2.7,1.2,2.7,2.7
				C97,230.8,95.7,232.1,94.2,232.1z M94.2,226.9c-1.3,0-2.4,1.1-2.4,2.4c0,1.3,1.1,2.4,2.4,2.4c1.3,0,2.4-1.1,2.4-2.4
				C96.7,228,95.6,226.9,94.2,226.9z"/>
		</g>
	</g>
	<g>
		<g>
			<path class="st8" d="M88.2,233.1c0,1.4-1.2,2.6-2.6,2.6c-1.4,0-2.6-1.2-2.6-2.6c0-1.4,1.2-2.6,2.6-2.6
				C87,230.5,88.2,231.7,88.2,233.1z"/>
			<path class="st1" d="M85.6,235.8c-1.5,0-2.7-1.2-2.7-2.7c0-1.5,1.2-2.7,2.7-2.7c1.5,0,2.7,1.2,2.7,2.7
				C88.3,234.6,87.1,235.8,85.6,235.8z M85.6,230.6c-1.3,0-2.4,1.1-2.4,2.4c0,1.3,1.1,2.4,2.4,2.4s2.4-1.1,2.4-2.4
				C88,231.7,86.9,230.6,85.6,230.6z"/>
		</g>
	</g>
	<g>
		<g>
			<path class="st8" d="M79.3,238.8c0,1.4-1.2,2.6-2.6,2.6c-1.4,0-2.6-1.2-2.6-2.6c0-1.4,1.2-2.6,2.6-2.6
				C78.2,236.2,79.3,237.3,79.3,238.8z"/>
			<path class="st1" d="M76.7,241.5c-1.5,0-2.7-1.2-2.7-2.7c0-1.5,1.2-2.7,2.7-2.7c1.5,0,2.7,1.2,2.7,2.7
				C79.5,240.3,78.2,241.5,76.7,241.5z M76.7,236.3c-1.3,0-2.4,1.1-2.4,2.4c0,1.3,1.1,2.4,2.4,2.4s2.4-1.1,2.4-2.4
				C79.2,237.4,78.1,236.3,76.7,236.3z"/>
		</g>
	</g>
	<g class="st3">
		<path class="st5" d="M259.8,143.1v68.1c16.9,0.5,33.8-0.1,50.7,0.4v-68.5H259.8z"/>
	</g>
	<g>
		<g>
			<path class="st0" d="M308.1,141.2v68.5c-16.9-0.5-33.8,0.1-50.7-0.4v-68.1H308.1z"/>
		</g>
		<g>
			<path class="st6" d="M308.8,210.5l-0.7,0c-6.5-0.2-13-0.2-17.9-0.2c-2.5,0-4.9,0-7.4,0c-2.5,0-4.9,0-7.4,0c-4.9,0-11.5,0-18-0.2
				l-0.7,0v-69.4h52.1V210.5z M290.2,208.8c4.8,0,11,0,17.3,0.2v-67.1h-49.3v66.8c6.3,0.2,12.5,0.2,17.3,0.2c2.5,0,4.9,0,7.4,0
				C285.2,208.9,287.7,208.8,290.2,208.8z"/>
		</g>
	</g>
	<g>
		<g>
			<g>
				<rect x="268.3" y="199.8" class="st0" width="28.5" height="2.9"/>
			</g>
			<g>
				<path class="st7" d="M297.1,203H268v-3.6h29.1V203z M268.7,202.3h27.8v-2.2h-27.8V202.3z"/>
			</g>
		</g>
		<g>
			<g>
				<rect x="268.3" y="189.5" class="st0" width="28.5" height="2.9"/>
			</g>
			<g>
				<path class="st7" d="M297.1,192.8H268v-3.6h29.1V192.8z M268.7,192.1h27.8v-2.2h-27.8V192.1z"/>
			</g>
		</g>
		<g>
			<g>
				<rect x="265.7" y="194.7" class="st0" width="33.8" height="2.9"/>
			</g>
			<g>
				<path class="st7" d="M299.8,197.9h-34.5v-3.6h34.5V197.9z M266,197.2h33.1V195H266V197.2z"/>
			</g>
		</g>
		<g>
			<g>
				<rect x="268.3" y="179.3" class="st0" width="28.5" height="2.9"/>
			</g>
			<g>
				<path class="st7" d="M297.1,182.5H268V179h29.1V182.5z M268.7,181.8h27.8v-2.2h-27.8V181.8z"/>
			</g>
		</g>
		<g>
			<g>
				<rect x="265.7" y="184.4" class="st0" width="33.8" height="2.9"/>
			</g>
			<g>
				<path class="st7" d="M299.8,187.7h-34.5v-3.6h34.5V187.7z M266,187h33.1v-2.2H266V187z"/>
			</g>
		</g>
		<g>
			<g>
				<rect x="268.3" y="169.1" class="st0" width="28.5" height="2.9"/>
			</g>
			<g>
				<path class="st7" d="M297.1,172.3H268v-3.6h29.1V172.3z M268.7,171.6h27.8v-2.2h-27.8V171.6z"/>
			</g>
		</g>
		<g>
			<g>
				<rect x="265.7" y="174.2" class="st0" width="33.8" height="2.9"/>
			</g>
			<g>
				<path class="st7" d="M299.8,177.4h-34.5v-3.6h34.5V177.4z M266,176.7h33.1v-2.2H266V176.7z"/>
			</g>
		</g>
		<g>
			<g>
				<rect x="268.3" y="158.8" class="st0" width="28.5" height="2.9"/>
			</g>
			<g>
				<path class="st7" d="M297.1,162H268v-3.6h29.1V162z M268.7,161.4h27.8v-2.2h-27.8V161.4z"/>
			</g>
		</g>
		<g>
			<g>
				<rect x="265.7" y="164" class="st0" width="33.8" height="2.9"/>
			</g>
			<g>
				<path class="st7" d="M299.8,167.2h-34.5v-3.6h34.5V167.2z M266,166.5h33.1v-2.2H266V166.5z"/>
			</g>
		</g>
		<g>
			<g>
				<rect x="268.3" y="148.6" class="st0" width="28.5" height="2.9"/>
			</g>
			<g>
				<path class="st7" d="M297.1,151.8H268v-3.6h29.1V151.8z M268.7,151.1h27.8v-2.2h-27.8V151.1z"/>
			</g>
		</g>
		<g>
			<g>
				<rect x="265.7" y="153.7" class="st0" width="33.8" height="2.9"/>
			</g>
			<g>
				<path class="st7" d="M299.8,156.9h-34.5v-3.6h34.5V156.9z M266,156.3h33.1v-2.2H266V156.3z"/>
			</g>
		</g>
	</g>
	<g class="st3">
		<g>
			<path class="st5" d="M346.6,126.3L346.6,126.3l-4.4,2l-6,2.7l-0.3-0.3L274,192.7l0.8,0.8l-3.5,3.5c-1.3,1.3-1.3,3.3,0,4.5
				c1.3,1.3,3.3,1.3,4.5,0l3.5-3.5l0.8,0.8l61.9-61.9l-0.3-0.3l2.7-6L346.6,126.3L346.6,126.3L346.6,126.3z"/>
		</g>
	</g>
	<g>
		<g>
			<g>
				
					<rect x="260.6" y="159.7" transform="matrix(0.7071 -0.7071 0.7071 0.7071 -26.9027 263.2424)" class="st0" width="87.5" height="8.8"/>
			</g>
			<g>
				<path class="st6" d="M276.5,198.8l-6.9-6.9l0.3-0.3l62.2-62.2l6.9,6.9l-0.3,0.3L276.5,198.8z M271,191.9l5.5,5.5l61.2-61.2
					l-5.5-5.5L271,191.9z"/>
			</g>
		</g>
		<g>
			<g>
				<path class="st0" d="M267.6,196.2l3.5-3.5l4.5,4.5l-3.5,3.5c-1.3,1.3-3.3,1.3-4.5,0l0,0C266.4,199.5,266.4,197.5,267.6,196.2z"
					/>
			</g>
			<g>
				<path class="st6" d="M269.9,202.2c-1,0-1.9-0.4-2.6-1.1c-1.4-1.4-1.4-3.8,0-5.2l3.8-3.8l5.2,5.2l-3.8,3.8
					C271.8,201.8,270.9,202.2,269.9,202.2z M271.1,193.4l-3.1,3.1c-1.1,1.1-1.1,2.8,0,3.8c0.5,0.5,1.2,0.8,1.9,0.8
					c0.7,0,1.4-0.3,1.9-0.8l3.1-3.1L271.1,193.4z"/>
			</g>
		</g>
		<g>
			<path class="st0" d="M335.2,133.2c-20.6,20.6-41.2,41.2-61.9,61.9"/>
			
				<rect x="260.6" y="163.6" transform="matrix(0.7071 -0.7071 0.7071 0.7071 -26.9031 263.2436)" class="st6" width="87.5" height="1"/>
		</g>
		<g>
			<polygon class="st0" points="338.1,136 332.4,130.3 338.4,127.6 342.8,125.6 340.8,130 			"/>
			<path class="st6" d="M338.2,136.9l-6.7-6.7l12.3-5.6L338.2,136.9z M333.2,130.5l4.7,4.7l3.9-8.6L333.2,130.5z"/>
		</g>
		<g>
			<polygon class="st6" points="340.6,129.8 338.6,127.8 342.8,125.6 			"/>
		</g>
	</g>
	<g>
		<g>
			<path class="st0" d="M302.1,60.6l-7.2-7.2c0-0.2,0.1-0.3,0.1-0.5v0c0,0,0,0,0,0v0c0-0.1,0-0.1,0.1-0.2c0.1-0.4,0.1-0.7,0.2-1.1v0
				c0.2-1.6,0-3.3-0.5-4.8c-0.1-0.2-0.1-0.4-0.2-0.6c0-0.1-0.1-0.3-0.2-0.4c-0.1-0.1-0.1-0.3-0.2-0.4c-0.1-0.2-0.1-0.3-0.2-0.5
				c-0.1-0.2-0.2-0.3-0.3-0.5c-0.1-0.1-0.2-0.3-0.3-0.5c0-0.1-0.4-0.6-0.8-1.1c-0.1-0.1-0.3-0.3-0.4-0.4c-0.1-0.1-0.1-0.1-0.1-0.1
				c0,0-0.1-0.1-0.1-0.1l-8.9-8.9l-0.2-0.2c-0.5-0.5-1.2-0.8-1.9-0.9l-0.3,0c-0.7,0-1.3,0.3-1.8,0.8l0,0c-1.1,1.1-1,2.9,0.1,4
				l0.2,0.2l-0.4,0.4l-1.7-1.7c-1.1-1.1-2.9-1.1-3.9,0c-0.5,0.5-0.8,1.3-0.8,2c0,0.7,0.3,1.4,0.8,2l1.7,1.7l0,0l-0.4,0.4l-3.1-3.1
				c-1.1-1.1-2.9-1.1-3.9,0c-0.5,0.5-0.8,1.3-0.8,2c0,0.7,0.3,1.4,0.8,2l3.1,3.1l-0.4,0.4l-9.1-9.1c-1.1-1.1-2.9-1.1-3.9,0
				c-0.5,0.5-0.8,1.3-0.8,2c0,0.7,0.3,1.4,0.8,2l9.1,9.1l0,0l1,1l0.5,0.5l0,0l6.9,6.9l0.5,0.5c0.1,0.1,0.3,0.3,0.4,0.4c0,0,0,0,0,0
				c0.1,0.1,0.1,0.1,0.2,0.2c0,0,0.1,0.1,0.1,0.1c0.1,0,0.1,0.1,0.2,0.1c0.3,0.2,0.6,0.5,0.9,0.7c0.2,0.1,0.4,0.2,0.6,0.4
				c0.4,0.3,0.9,0.5,1.3,0.6c0.4,0.2,0.9,0.3,1.3,0.5c0.7,0.2,1.4,0.3,2.1,0.4c0.4,0,0.8,0,1.3,0c0.1,0,0.2,0,0.3,0h0
				c0.2,0,0.4,0,0.6,0l8,8L302.1,60.6z"/>
			<path class="st4" d="M292.4,70.6l-8-8c-0.2,0-0.4,0-0.5,0c-0.1,0-0.2,0-0.3,0c-0.4,0-0.8,0-1.3,0c-0.7-0.1-1.4-0.2-2.1-0.4
				c-0.4-0.1-0.9-0.3-1.4-0.5c-0.5-0.2-1-0.4-1.3-0.7c-0.2-0.1-0.4-0.2-0.6-0.4c-0.3-0.2-0.6-0.4-0.9-0.7c0,0-0.1-0.1-0.1-0.1
				l-0.2-0.2c-0.1,0-0.1-0.1-0.2-0.1c-0.2-0.2-0.3-0.3-0.5-0.4l-9-9l0,0l-9-9c-0.6-0.6-0.9-1.3-0.9-2.1c0-0.8,0.3-1.5,0.9-2.1
				c0.6-0.6,1.3-0.9,2.1-0.9c0.8,0,1.5,0.3,2.1,0.9l9,9l0.1-0.1l-2.9-2.9c-0.6-0.6-0.9-1.3-0.9-2.1c0-0.8,0.3-1.5,0.9-2.1
				c0.6-0.6,1.3-0.9,2.1-0.9c0.8,0,1.5,0.3,2.1,0.9l2.9,2.9l0.1-0.1L273,40c-0.6-0.5-0.9-1.3-0.9-2.1c0-0.8,0.3-1.5,0.9-2.1
				c0.6-0.6,1.3-0.9,2.1-0.9c0.8,0,1.5,0.3,2.1,0.9l1.6,1.6l0.1-0.1l-0.1-0.1c-0.6-0.6-0.9-1.4-0.9-2.2c0-0.8,0.3-1.5,0.8-2l0,0
				c0.5-0.5,1.2-0.8,1.9-0.8l0.3,0c0.8,0.1,1.5,0.4,2,0.9l0.2,0.2l8.9,8.9c0,0,0.1,0.1,0.1,0.1l0.1,0.1c0.1,0.1,0.3,0.3,0.4,0.4
				c0.4,0.5,0.7,1,0.8,1.1c0.1,0.2,0.2,0.3,0.3,0.5l0.1,0.1c0.1,0.1,0.2,0.3,0.2,0.4l0,0c0.1,0.1,0.2,0.3,0.2,0.4
				c0.1,0.1,0.1,0.3,0.2,0.4c0.1,0.1,0.1,0.3,0.2,0.4c0.1,0.2,0.2,0.4,0.2,0.6c0.5,1.6,0.7,3.2,0.5,4.9c0,0.3-0.1,0.7-0.2,1.1
				c0,0.1,0,0.1-0.1,0.2c0,0,0,0,0,0c0,0,0,0,0,0.1c0,0.1-0.1,0.3-0.1,0.4l7.3,7.3L292.4,70.6z M284.4,62.2l7.9,7.9l9.5-9.5
				l-7.2-7.2l0-0.1c0-0.2,0.1-0.3,0.1-0.5l0-0.1c0-0.1,0-0.1,0.1-0.2c0.1-0.3,0.1-0.7,0.2-1c0.2-1.6,0-3.2-0.5-4.8
				c-0.1-0.2-0.1-0.4-0.2-0.6c0-0.1-0.1-0.3-0.2-0.4c-0.1-0.1-0.1-0.3-0.2-0.4c-0.1-0.1-0.1-0.3-0.2-0.4l0,0
				c-0.1-0.1-0.1-0.3-0.2-0.4l-0.1-0.1c-0.1-0.1-0.2-0.3-0.3-0.5c0-0.1-0.4-0.6-0.8-1c-0.1-0.1-0.3-0.3-0.4-0.4l-0.1-0.1
				c0-0.1-0.1-0.1-0.1-0.1l-9.1-9.1c-0.5-0.5-1.1-0.8-1.8-0.8l-0.3,0c-0.6,0-1.2,0.3-1.7,0.7l0,0c-0.5,0.5-0.7,1.1-0.7,1.8
				c0,0.7,0.3,1.4,0.8,1.9l0.3,0.4l-0.6,0.6l-1.8-1.8c-0.5-0.5-1.2-0.8-1.9-0.8c-0.7,0-1.4,0.3-1.9,0.8c-0.5,0.5-0.8,1.2-0.8,1.9
				c0,0.7,0.3,1.4,0.8,1.9l1.8,1.8l-0.6,0.6l-3.2-3.2c-0.5-0.5-1.2-0.8-1.9-0.8c-0.7,0-1.4,0.3-1.9,0.8c-0.5,0.5-0.8,1.2-0.8,1.9
				c0,0.7,0.3,1.4,0.8,1.9l3.2,3.2l-0.6,0.6l-9.3-9.3c-0.5-0.5-1.2-0.8-1.9-0.8c-0.7,0-1.4,0.3-1.9,0.8c-0.5,0.5-0.8,1.2-0.8,1.9
				c0,0.7,0.3,1.4,0.8,1.9l9.3,9.3l0,0l1.4,1.4l7.4,7.4c0.1,0.1,0.3,0.3,0.4,0.4l0,0c0,0,0.1,0.1,0.1,0.1l0.2,0.2
				c0,0,0.1,0.1,0.1,0.1c0.3,0.3,0.6,0.5,0.9,0.7c0.2,0.1,0.4,0.2,0.6,0.3c0.4,0.2,0.8,0.4,1.3,0.6c0.5,0.2,0.9,0.3,1.3,0.4
				c0.7,0.2,1.4,0.3,2,0.4c0.4,0,0.8,0,1.3,0c0.1,0,0.2,0,0.3,0C284,62.2,284.2,62.2,284.4,62.2L284.4,62.2z"/>
		</g>
		<g>
			<g>
				<path class="st4" d="M304,59.2c-0.1-0.5-0.4-1-0.8-1.4l-3-3c-1.1-1.1-2.9-1.1-4,0c0,0,0,0,0,0L291,60l-4.2,4.2l-0.2,0.2
					c0,0,0,0,0,0c-0.3,0.3-0.6,0.8-0.7,1.2c-0.3,1,0,2.1,0.7,2.8l3,3c0.8,0.8,1.8,1,2.8,0.7c0.3-0.1,0.6-0.2,0.8-0.4
					c0.1-0.1,0.3-0.2,0.4-0.3l9.7-9.7c0.1-0.1,0.2-0.2,0.3-0.3c0,0,0,0,0-0.1c0.2-0.3,0.4-0.7,0.5-1C304.1,60,304.1,59.6,304,59.2z
					 M290.2,70.8l-3-3c-0.4-0.3-0.5-0.8-0.5-1.3c0-0.5,0.2-1,0.5-1.4l0.3-0.3l9.2-9.2l0.2-0.2c0,0,0,0,0,0c0.7-0.7,1.9-0.7,2.7,0
					l3,3c0.7,0.7,0.7,1.9,0,2.7l-9.7,9.7c-0.4,0.4-0.9,0.6-1.4,0.5C291,71.3,290.6,71.2,290.2,70.8z"/>
			</g>
			<g>
				<path class="st0" d="M299.9,55.2l3,3c0.9,0.9,0.9,2.4,0,3.4l-9.7,9.7c-0.9,0.9-2.4,0.9-3.4,0l-3-3c-0.9-0.9-0.9-2.4,0-3.4
					l9.7-9.7C297.5,54.2,299,54.2,299.9,55.2z"/>
			</g>
		</g>
	</g>
	<g>
		<g>
			<path class="st0" d="M283.8,37.5l-0.8,0.8c-0.3,0.3-0.7,0.3-0.9,0l0,0c-0.3-0.3-0.3-0.7,0-0.9l0.8-0.8c0.3-0.3,0.7-0.3,0.9,0l0,0
				C284.1,36.8,284.1,37.2,283.8,37.5z"/>
			<path class="st1" d="M282.6,38.5c-0.2,0-0.4-0.1-0.5-0.2c-0.1-0.1-0.2-0.3-0.2-0.5c0-0.2,0.1-0.4,0.2-0.5l0.8-0.8
				c0.3-0.3,0.8-0.3,1.1,0c0.1,0.1,0.2,0.3,0.2,0.5c0,0.2-0.1,0.4-0.2,0.5l-0.8,0.8C282.9,38.4,282.8,38.5,282.6,38.5z M283.3,36.4
				c-0.2,0-0.3,0.1-0.4,0.2l-0.8,0.8c-0.1,0.1-0.2,0.3-0.2,0.4c0,0.2,0.1,0.3,0.2,0.4c0.2,0.2,0.6,0.2,0.8,0l0.8-0.8
				c0.1-0.1,0.2-0.3,0.2-0.4c0-0.2-0.1-0.3-0.2-0.4C283.6,36.5,283.5,36.4,283.3,36.4z"/>
		</g>
		<g>
			<path class="st0" d="M279.8,41.4l-0.8,0.8c-0.3,0.3-0.7,0.3-0.9,0l0,0c-0.3-0.3-0.3-0.7,0-0.9l0.8-0.8c0.3-0.3,0.7-0.3,0.9,0l0,0
				C280.1,40.8,280.1,41.2,279.8,41.4z"/>
			<path class="st1" d="M278.6,42.5c-0.2,0-0.4-0.1-0.5-0.2c-0.1-0.1-0.2-0.3-0.2-0.5c0-0.2,0.1-0.4,0.2-0.5l0.8-0.8
				c0.3-0.3,0.8-0.3,1.1,0c0.1,0.1,0.2,0.3,0.2,0.5c0,0.2-0.1,0.4-0.2,0.5l-0.8,0.8C279,42.4,278.8,42.5,278.6,42.5z M279.4,40.4
				c-0.2,0-0.3,0.1-0.4,0.2l-0.8,0.8c-0.1,0.1-0.2,0.3-0.2,0.4c0,0.2,0.1,0.3,0.2,0.4c0.2,0.2,0.6,0.2,0.8,0l0.8-0.8
				c0.1-0.1,0.2-0.3,0.2-0.4c0-0.2-0.1-0.3-0.2-0.4C279.7,40.5,279.5,40.4,279.4,40.4z"/>
		</g>
		<g>
			<path class="st0" d="M275.4,45.6l-0.8,0.8c-0.3,0.3-0.7,0.3-0.9,0l0,0c-0.3-0.3-0.3-0.7,0-0.9l0.8-0.8c0.3-0.3,0.7-0.3,0.9,0l0,0
				C275.6,44.9,275.6,45.4,275.4,45.6z"/>
			<path class="st1" d="M274.1,46.7c-0.2,0-0.4-0.1-0.5-0.2c-0.3-0.3-0.3-0.8,0-1.1l0.8-0.8c0.3-0.3,0.8-0.3,1.1,0
				c0.1,0.1,0.2,0.3,0.2,0.5c0,0.2-0.1,0.4-0.2,0.5l-0.8,0.8C274.5,46.6,274.3,46.7,274.1,46.7z M274.9,44.6c-0.2,0-0.3,0.1-0.4,0.2
				l-0.8,0.8c-0.2,0.2-0.2,0.6,0,0.8c0.2,0.2,0.6,0.2,0.8,0l0.8-0.8c0.1-0.1,0.2-0.3,0.2-0.4c0-0.2-0.1-0.3-0.2-0.4
				C275.2,44.6,275.1,44.6,274.9,44.6z"/>
		</g>
		<g>
			<path class="st0" d="M270.9,49.8l-0.8,0.8c-0.3,0.3-0.7,0.3-0.9,0l0,0c-0.3-0.3-0.3-0.7,0-0.9l0.8-0.8c0.3-0.3,0.7-0.3,0.9,0l0,0
				C271.1,49.1,271.1,49.5,270.9,49.8z"/>
			<path class="st1" d="M269.6,50.9c-0.2,0-0.4-0.1-0.5-0.2c-0.1-0.1-0.2-0.3-0.2-0.5c0-0.2,0.1-0.4,0.2-0.5l0.8-0.8
				c0.3-0.3,0.8-0.3,1.1,0c0.1,0.1,0.2,0.3,0.2,0.5c0,0.2-0.1,0.4-0.2,0.5l-0.8,0.8C270,50.8,269.8,50.9,269.6,50.9z M270.4,48.8
				c-0.2,0-0.3,0.1-0.4,0.2l-0.8,0.8c-0.1,0.1-0.2,0.3-0.2,0.4c0,0.2,0.1,0.3,0.2,0.4c0.2,0.2,0.6,0.2,0.8,0l0.8-0.8
				c0.1-0.1,0.2-0.3,0.2-0.4c0-0.2-0.1-0.3-0.2-0.4C270.7,48.8,270.6,48.8,270.4,48.8z"/>
		</g>
	</g>
</g>
</svg>
