<?xml version="1.0" encoding="utf-8"?>
<!-- Generator: Adobe Illustrator 22.0.0, SVG Export Plug-In . SVG Version: 6.00 Build 0)  -->
<svg version="1.1" id="Layer_1" xmlns="http://www.w3.org/2000/svg" xmlns:xlink="http://www.w3.org/1999/xlink" x="0px" y="0px"
	 viewBox="0 0 457.3 305.5" style="enable-background:new 0 0 457.3 305.5;" xml:space="preserve">
<style type="text/css">
	.st0{fill:#F2F2F2;}
	.st1{fill:#FFFFFF;}
	.st2{fill:#FBDCDC;}
	.st3{fill:#EE5451;}
	.st4{fill:#E4E4E4;}
	.st5{fill:#767576;}
	.st6{fill:#AAAAAA;}
	.st7{fill:#F69A80;}
</style>
<g>
	<path class="st0" d="M117.9,300.3c-9.7-1.6-126.1-15.6-117.5-118.9S19.8,47.1,65,35.7c45.2-11.4,155.2-65.1,241.5-14
		s179.4,97,142.5,178.7s-43,108.9-139.4,104.7C213.2,300.9,164,307.7,117.9,300.3z"/>
	<g id="XMLID_120_">
		<path id="XMLID_125_" class="st1" d="M423.5,182.8H293.4c-5.8,0-10.6-4.8-10.6-10.6v0c0-5.8,4.8-10.6,10.6-10.6h130.1
			c5.8,0,10.6,4.8,10.6,10.6v0C434,178.1,429.3,182.8,423.5,182.8z"/>
		<path id="XMLID_124_" class="st1" d="M436.2,154.4h-53.6c-4.6,0-8.4-3.8-8.4-8.4l0,0c0-4.6,3.8-8.4,8.4-8.4h53.6
			c4.6,0,8.4,3.8,8.4,8.4l0,0C444.6,150.6,440.8,154.4,436.2,154.4z"/>
		<path id="XMLID_123_" class="st1" d="M446.2,206.3h-53.6c-4.6,0-8.4-3.8-8.4-8.4l0,0c0-4.6,3.8-8.4,8.4-8.4h53.6
			c4.6,0,8.4,3.8,8.4,8.4l0,0C454.6,202.5,450.8,206.3,446.2,206.3z"/>
		<path id="XMLID_122_" class="st1" d="M418.1,190.1c-2.6,0-4.7-1.6-4.7-3.6s2.1-3.6,4.7-3.6h-20.6c2.6,0,4.7,1.6,4.7,3.6
			s-2.1,3.6-4.7,3.6H418.1z"/>
		<path id="XMLID_121_" class="st1" d="M424.7,161.9c-2.7,0-4.9-1.7-4.9-3.8c0-2.1,2.2-3.8,4.9-3.8h-21.5c2.7,0,4.9,1.7,4.9,3.8
			c0,2.1-2.2,3.8-4.9,3.8H424.7z"/>
	</g>
	<g id="XMLID_109_">
		<path id="XMLID_119_" class="st1" d="M45.6,73.6h130.1c5.8,0,10.6,4.8,10.6,10.6v0c0,5.8-4.8,10.6-10.6,10.6H45.6
			C39.8,94.7,35,90,35,84.1l0,0C35,78.3,39.8,73.6,45.6,73.6z"/>
		<path id="XMLID_116_" class="st1" d="M32.9,102h53.6c4.6,0,8.4,3.8,8.4,8.4l0,0c0,4.6-3.8,8.4-8.4,8.4H32.9
			c-4.6,0-8.4-3.8-8.4-8.4l0,0C24.5,105.8,28.2,102,32.9,102z"/>
		<path id="XMLID_115_" class="st1" d="M22.9,50.2h53.6c4.6,0,8.4,3.8,8.4,8.4l0,0c0,4.6-3.8,8.4-8.4,8.4H22.9
			c-4.6,0-8.4-3.8-8.4-8.4l0,0C14.4,54,18.2,50.2,22.9,50.2z"/>
		<path id="XMLID_111_" class="st1" d="M51,66.4c2.6,0,4.7,1.6,4.7,3.6c0,2-2.1,3.6-4.7,3.6h20.6c-2.6,0-4.7-1.6-4.7-3.6
			c0-2,2.1-3.6,4.7-3.6H51z"/>
		<path id="XMLID_110_" class="st1" d="M44.3,94.5c2.7,0,4.9,1.7,4.9,3.8S47,102,44.3,102h21.5c-2.7,0-4.9-1.7-4.9-3.8
			s2.2-3.8,4.9-3.8H44.3z"/>
	</g>
	<g>
		<path id="XMLID_108_" class="st1" d="M308.2,274c10,0,17.5,7.9,17.5,17.6l-17.5-0.1V274z"/>
		<path id="XMLID_107_" class="st2" d="M312,277.8c10,0,17.5,7.9,17.5,17.6l-17.5-0.1V277.8z"/>
		<path id="XMLID_105_" class="st1" d="M162.9,262.9c-15.9,0-27.9,12.9-27.9,28.7l27.9-0.1V262.9z"/>
		<path id="XMLID_101_" class="st2" d="M167.1,265.6c-16.9,0-29.8,13.3-29.8,29.7l29.8-0.1V265.6z"/>
		<polygon id="XMLID_100_" class="st1" points="149.5,210.5 149.5,213.2 163.3,213.2 163.3,291.5 308.5,291.5 308.5,213.2 
			321.8,213.2 321.8,210.5 236.4,157.4 		"/>
		<polygon id="XMLID_98_" class="st1" points="153.3,214.3 153.3,217 167.1,217 167.1,295.3 312.3,295.3 312.3,217 325.5,217 
			325.5,214.3 240.2,161.2 		"/>
		<g id="XMLID_99_">
			<path class="st3" d="M249,292.5h-27.2c-0.4,0-0.8-0.3-0.8-0.8v-55.3c0-0.4,0.3-0.8,0.8-0.8H249c0.4,0,0.8,0.3,0.8,0.8v55.3
				C249.8,292.1,249.4,292.5,249,292.5z M222.6,291h25.6v-53.8h-25.6V291z"/>
		</g>
		<g id="XMLID_97_">
			<path class="st3" d="M308.2,292.5c-0.4,0-0.8-0.3-0.8-0.8v-77.5H163.7v77.5c0,0.4-0.3,0.8-0.8,0.8s-0.8-0.3-0.8-0.8v-78.3
				c0-0.4,0.3-0.8,0.8-0.8h145.3c0.4,0,0.8,0.3,0.8,0.8v78.3C308.9,292.1,308.6,292.5,308.2,292.5z"/>
		</g>
		<g id="XMLID_96_">
			<path class="st3" d="M321.4,214.2H149.2c-0.4,0-0.8-0.3-0.8-0.8v-2.8c0-0.3,0.1-0.5,0.4-0.6l87.3-53c0.2-0.1,0.6-0.1,0.8,0l85,53
				c0.2,0.1,0.4,0.4,0.4,0.6v2.8C322.2,213.8,321.8,214.2,321.4,214.2z M149.9,212.7h170.7v-1.6l-84.2-52.6l-86.5,52.6V212.7z"/>
		</g>
		<g>
			<rect id="XMLID_95_" x="261.7" y="236.4" class="st1" width="31.1" height="27.9"/>
			<rect id="XMLID_94_" x="265.5" y="240.2" class="st4" width="31.1" height="27.9"/>
			<g id="XMLID_93_">
				<path class="st3" d="M292.8,265.1h-31.1c-0.4,0-0.8-0.3-0.8-0.8v-27.9c0-0.4,0.3-0.8,0.8-0.8h31.1c0.4,0,0.8,0.3,0.8,0.8v27.9
					C293.6,264.8,293.2,265.1,292.8,265.1z M262.5,263.6H292v-26.4h-29.6V263.6z"/>
			</g>
		</g>
		<g>
			<rect id="XMLID_92_" x="177.2" y="236.4" class="st1" width="31.1" height="27.9"/>
			<rect id="XMLID_91_" x="181" y="240.1" class="st4" width="31.1" height="27.9"/>
			<g id="XMLID_90_">
				<path class="st3" d="M208.3,265.1h-31.1c-0.4,0-0.8-0.3-0.8-0.8v-27.9c0-0.4,0.3-0.8,0.8-0.8h31.1c0.4,0,0.8,0.3,0.8,0.8v27.9
					C209.1,264.8,208.8,265.1,208.3,265.1z M178,263.6h29.6v-26.4H178V263.6z"/>
			</g>
		</g>
		<g id="XMLID_104_">
			<rect x="240.5" y="265.4" class="st3" width="4" height="1.5"/>
		</g>
		<g id="XMLID_183_">
			<path class="st3" d="M326.3,291.6h-1.5c0-9.3-7.5-16.8-16.8-16.8v-1.5C318.1,273.3,326.3,281.5,326.3,291.6z"/>
		</g>
		<g>
			<g id="XMLID_89_">
				<rect x="119.1" y="233" class="st3" width="1.5" height="58.7"/>
			</g>
			<ellipse id="XMLID_88_" class="st1" cx="120.1" cy="227.9" rx="19.7" ry="32.3"/>
			<ellipse id="XMLID_102_" class="st2" cx="121.9" cy="230.6" rx="19.7" ry="32.3"/>
			<g id="XMLID_188_">
				<path class="st3" d="M119.4,260.9c-11.3,0-20.5-14.8-20.5-33.1c0-18.2,9.2-33.1,20.5-33.1c11.3,0,20.5,14.8,20.5,33.1
					C139.9,246.1,130.7,260.9,119.4,260.9z M119.4,196.2c-10.4,0-19,14.2-19,31.6s8.5,31.6,19,31.6s19-14.2,19-31.6
					S129.8,196.2,119.4,196.2z"/>
			</g>
		</g>
		<g id="XMLID_192_">
			<path class="st3" d="M134.9,291.8h-1.5c0-16.7,13.3-30.2,29.5-30.2v1.5C147.5,263.1,134.9,276,134.9,291.8z"/>
		</g>
		<g>
			<g>
				<path class="st3" d="M236.4,203.3c-2.2,0-4.2-0.8-5.7-2.4c-1.5-1.5-2.4-3.6-2.4-5.7c0-0.4,0.3-0.8,0.8-0.8c0,0,0,0,0,0
					c0.4,0,0.8,0.3,0.8,0.8c0,1.8,0.7,3.4,1.9,4.6c1.2,1.2,2.9,1.9,4.6,1.9c0,0,0,0,0,0c1.8,0,3.4-0.7,4.6-1.9
					c1.2-1.2,1.9-2.9,1.9-4.6c0-0.4,0.3-0.8,0.8-0.8c0,0,0,0,0,0c0.4,0,0.8,0.3,0.8,0.8c0,2.2-0.8,4.2-2.4,5.7
					C240.6,202.4,238.6,203.3,236.4,203.3C236.4,203.3,236.4,203.3,236.4,203.3z"/>
			</g>
			<g>
				<circle class="st3" cx="219.5" cy="188.8" r="2.1"/>
				<circle class="st3" cx="253.4" cy="188.8" r="2.1"/>
			</g>
		</g>
		<g id="XMLID_195_">
			<path class="st3" d="M202.3,261.7c-0.4,0-0.8-0.3-0.8-0.8v-20.5c0-0.4,0.3-0.8,0.8-0.8s0.8,0.3,0.8,0.8v20.5
				C203.1,261.4,202.8,261.7,202.3,261.7z"/>
		</g>
		<g id="XMLID_196_">
			<path class="st3" d="M287.2,261.7c-0.4,0-0.8-0.3-0.8-0.8v-20.5c0-0.4,0.3-0.8,0.8-0.8c0.4,0,0.8,0.3,0.8,0.8v20.5
				C287.9,261.4,287.6,261.7,287.2,261.7z"/>
		</g>
		<g>
			<g id="XMLID_103_">
				<path class="st3" d="M357.9,292.5h-8.4c-0.4,0-0.8-0.3-0.8-0.8c0-0.4,0.3-0.8,0.8-0.8h8.4c0.4,0,0.8,0.3,0.8,0.8
					C358.7,292.1,358.3,292.5,357.9,292.5z"/>
			</g>
			<g id="XMLID_185_">
				<path class="st3" d="M341.2,292.5h-42c-0.4,0-0.8-0.3-0.8-0.8c0-0.4,0.3-0.8,0.8-0.8h42c0.4,0,0.8,0.3,0.8,0.8
					C342,292.1,341.6,292.5,341.2,292.5z"/>
			</g>
			<g id="XMLID_85_">
				<path class="st3" d="M291,292.5h-17.8c-0.4,0-0.8-0.3-0.8-0.8c0-0.4,0.3-0.8,0.8-0.8H291c0.4,0,0.8,0.3,0.8,0.8
					C291.8,292.1,291.5,292.5,291,292.5z"/>
			</g>
			<g id="XMLID_182_">
				<path class="st3" d="M264.4,292.5H85c-0.4,0-0.8-0.3-0.8-0.8c0-0.4,0.3-0.8,0.8-0.8h179.4c0.4,0,0.8,0.3,0.8,0.8
					C265.1,292.1,264.8,292.5,264.4,292.5z"/>
			</g>
			<g id="XMLID_32_">
				<path class="st3" d="M78.4,292.5H66.5c-0.4,0-0.8-0.3-0.8-0.8c0-0.4,0.3-0.8,0.8-0.8h11.9c0.4,0,0.8,0.3,0.8,0.8
					C79.1,292.1,78.8,292.5,78.4,292.5z"/>
			</g>
		</g>
	</g>
	<g>
		<path class="st1" d="M157,132.7c-0.3-56.5,45.2-102.6,101.7-102.9c56.5-0.3,102.6,45.2,102.9,101.7L157,132.7z"/>
		<path class="st1" d="M161.8,136.3C161.5,79.8,207,33.8,263.5,33.4c56.5-0.3,102.6,45.2,102.9,101.7L161.8,136.3z"/>
		<g>
			<path class="st5" d="M157,133.5c-0.4,0-0.8-0.3-0.8-0.8c-0.2-27.5,10.4-53.5,29.8-73.1c19.4-19.6,45.2-30.5,72.7-30.6
				c27.5-0.2,53.5,10.4,73.1,29.8c19.6,19.4,30.5,45.2,30.6,72.7c0,0.2-0.1,0.4-0.2,0.5c-0.1,0.1-0.3,0.2-0.5,0.2L157,133.5
				C157,133.5,157,133.5,157,133.5z M259.3,30.6c-0.2,0-0.4,0-0.6,0c-27.1,0.2-52.6,10.9-71.6,30.2c-18.9,19.1-29.3,44.4-29.3,71.2
				l203.1-1.2c-0.4-26.8-11-52-30.2-70.9C311.5,41,286.2,30.6,259.3,30.6z"/>
		</g>
		<g>
			<path class="st5" d="M321.1,119.2c-0.4,0-0.8-0.3-0.8-0.8c0-5.9-0.5-11.9-1.4-17.6c-0.1-0.4,0.2-0.8,0.6-0.9
				c0.4-0.1,0.8,0.2,0.9,0.6c0.9,5.8,1.4,11.8,1.4,17.8C321.9,118.8,321.6,119.2,321.1,119.2C321.1,119.2,321.1,119.2,321.1,119.2z"
				/>
		</g>
		<g>
			<path class="st5" d="M312.5,76.3c-0.3,0-0.6-0.2-0.7-0.5C301.5,52.1,283,36,259.7,30.5c-0.4-0.1-0.7-0.5-0.6-0.9
				c0.1-0.4,0.5-0.7,0.9-0.6c23.8,5.6,42.7,22,53.2,46.2c0.2,0.4,0,0.8-0.4,1C312.7,76.3,312.6,76.3,312.5,76.3z"/>
		</g>
		<g>
			<path class="st5" d="M281.8,90.7c-0.4,0-0.7-0.3-0.8-0.7c-1.7-21.8-5.8-36.6-13.4-48c-0.2-0.3-0.1-0.8,0.2-1.1
				c0.3-0.2,0.8-0.1,1.1,0.2c7.7,11.7,11.9,26.7,13.7,48.8C282.6,90.3,282.3,90.7,281.8,90.7C281.8,90.7,281.8,90.7,281.8,90.7z"/>
		</g>
		<g>
			<path class="st5" d="M233.5,104.2C233.5,104.2,233.5,104.2,233.5,104.2c-0.4,0-0.8-0.4-0.8-0.8c0.4-22.1,2.5-36.6,6.9-48.5
				c0.1-0.4,0.6-0.6,1-0.4c0.4,0.1,0.6,0.6,0.4,1c-4.4,11.7-6.4,26.1-6.8,48C234.3,103.9,233.9,104.2,233.5,104.2z"/>
		</g>
		<g>
			<path class="st5" d="M212.4,63.8c-0.1,0-0.3,0-0.4-0.1c-0.4-0.2-0.5-0.7-0.3-1c10.9-17.8,26.7-29.7,44.5-33.5
				c0.4-0.1,0.8,0.2,0.9,0.6c0.1,0.4-0.2,0.8-0.6,0.9C239.1,34.3,223.7,46,213,63.4C212.9,63.6,212.6,63.8,212.4,63.8z"/>
		</g>
		<g>
			<path class="st5" d="M197.4,120.3c-0.4,0-0.8-0.3-0.8-0.8c-0.1-15.3,2.9-30.6,8.6-44.1c0.2-0.4,0.6-0.6,1-0.4
				c0.4,0.2,0.6,0.6,0.4,1c-5.6,13.3-8.6,28.4-8.5,43.5C198.1,119.9,197.8,120.3,197.4,120.3C197.4,120.3,197.4,120.3,197.4,120.3z"
				/>
		</g>
		<g>
			<path class="st5" d="M259.8,220.4c-0.4,0-0.8-0.3-0.8-0.8l-0.5-87.5c0-0.4,0.3-0.8,0.8-0.8c0,0,0,0,0,0c0.4,0,0.8,0.3,0.8,0.8
				l0.5,87.5C260.6,220,260.2,220.4,259.8,220.4C259.8,220.4,259.8,220.4,259.8,220.4z"/>
		</g>
		<g>
			<path class="st5" d="M259,85.3c-0.4,0-0.8-0.3-0.8-0.8l-0.1-22.8c0-0.4,0.3-0.8,0.8-0.8c0,0,0,0,0,0c0.4,0,0.8,0.3,0.8,0.8
				l0.1,22.8C259.8,84.9,259.4,85.3,259,85.3C259,85.3,259,85.3,259,85.3z"/>
		</g>
		<g>
			<path class="st5" d="M258.7,30.6c-0.4,0-0.8-0.3-0.8-0.8l-0.1-11.1c0-0.4,0.3-0.8,0.8-0.8c0,0,0,0,0,0c0.4,0,0.8,0.3,0.8,0.8
				l0.1,11.1C259.4,30.3,259.1,30.6,258.7,30.6C258.7,30.6,258.7,30.6,258.7,30.6z"/>
		</g>
		<g>
			<path class="st5" d="M248.1,233.3c-3.6,0-7-1.4-9.6-3.9c-2.6-2.6-4-6-4-9.6c0-1,0.8-1.9,1.9-1.9c0,0,0,0,0,0c1,0,1.9,0.8,1.9,1.9
				c0,2.6,1.1,5.1,2.9,6.9c1.9,1.8,4.3,2.8,7,2.8c2.6,0,5.1-1,6.9-2.9c1.8-1.9,2.8-4.3,2.8-7l0-7.2l3.8,0l0,7.2
				c0,3.6-1.4,7.1-3.9,9.6C255.2,231.8,251.8,233.2,248.1,233.3C248.2,233.3,248.1,233.3,248.1,233.3z"/>
		</g>
	</g>
	<g>
		<g id="XMLID_191_">
			<g id="XMLID_201_">
				<g id="XMLID_202_">
					<rect x="376.6" y="25.3" class="st6" width="2.1" height="5.3"/>
				</g>
			</g>
			<g id="XMLID_199_">
				<g id="XMLID_200_">
					<rect x="376.6" y="35.9" class="st6" width="2.1" height="5.3"/>
				</g>
			</g>
			<g id="XMLID_197_">
				<g id="XMLID_198_">
					<rect x="369.6" y="32.1" class="st6" width="5.3" height="2.1"/>
				</g>
			</g>
			<g id="XMLID_193_">
				<g id="XMLID_194_">
					<rect x="380.3" y="32.1" class="st6" width="5.3" height="2.1"/>
				</g>
			</g>
		</g>
		<g id="XMLID_178_">
			<g id="XMLID_189_">
				<g id="XMLID_190_">
					<rect x="147" y="33.2" class="st6" width="2.1" height="5.3"/>
				</g>
			</g>
			<g id="XMLID_186_">
				<g id="XMLID_187_">
					<rect x="147" y="43.9" class="st6" width="2.1" height="5.3"/>
				</g>
			</g>
			<g id="XMLID_181_">
				<g id="XMLID_184_">
					<rect x="140" y="40.1" class="st6" width="5.3" height="2.1"/>
				</g>
			</g>
			<g id="XMLID_179_">
				<g id="XMLID_180_">
					<rect x="150.7" y="40.1" class="st6" width="5.3" height="2.1"/>
				</g>
			</g>
		</g>
		<g id="XMLID_169_">
			<g id="XMLID_176_">
				<g id="XMLID_177_">
					<rect x="364.7" y="235" class="st7" width="2.1" height="5.3"/>
				</g>
			</g>
			<g id="XMLID_174_">
				<g id="XMLID_175_">
					<rect x="364.7" y="245.7" class="st7" width="2.1" height="5.3"/>
				</g>
			</g>
			<g id="XMLID_172_">
				<g id="XMLID_173_">
					<rect x="357.8" y="241.9" class="st7" width="5.3" height="2.1"/>
				</g>
			</g>
			<g id="XMLID_170_">
				<g id="XMLID_171_">
					<rect x="368.5" y="241.9" class="st7" width="5.3" height="2.1"/>
				</g>
			</g>
		</g>
		<g id="XMLID_156_">
			<g id="XMLID_167_">
				<g id="XMLID_168_">
					<rect x="58" y="178.7" class="st7" width="2.1" height="5.3"/>
				</g>
			</g>
			<g id="XMLID_165_">
				<g id="XMLID_166_">
					<rect x="58" y="189.4" class="st7" width="2.1" height="5.3"/>
				</g>
			</g>
			<g id="XMLID_160_">
				<g id="XMLID_164_">
					<rect x="51.1" y="185.6" class="st7" width="5.3" height="2.1"/>
				</g>
			</g>
			<g id="XMLID_157_">
				<g id="XMLID_159_">
					<rect x="61.8" y="185.6" class="st7" width="5.3" height="2.1"/>
				</g>
			</g>
		</g>
		<g id="XMLID_142_">
			<g id="XMLID_154_">
				<g id="XMLID_155_">
					<rect x="69.2" y="77.3" class="st7" width="2.1" height="5.3"/>
				</g>
			</g>
			<g id="XMLID_150_">
				<g id="XMLID_152_">
					<rect x="69.2" y="88" class="st7" width="2.1" height="5.3"/>
				</g>
			</g>
			<g id="XMLID_145_">
				<g id="XMLID_146_">
					<rect x="62.2" y="84.2" class="st7" width="5.3" height="2.1"/>
				</g>
			</g>
			<g id="XMLID_143_">
				<g id="XMLID_144_">
					<rect x="72.9" y="84.2" class="st7" width="5.3" height="2.1"/>
				</g>
			</g>
		</g>
		<g id="XMLID_133_">
			<g id="XMLID_140_">
				<g id="XMLID_141_">
					<rect x="365.8" y="138.3" class="st6" width="2.1" height="5.3"/>
				</g>
			</g>
			<g id="XMLID_138_">
				<g id="XMLID_139_">
					<rect x="365.8" y="149" class="st6" width="2.1" height="5.3"/>
				</g>
			</g>
			<g id="XMLID_136_">
				<g id="XMLID_137_">
					<rect x="358.9" y="145.2" class="st6" width="5.3" height="2.1"/>
				</g>
			</g>
			<g id="XMLID_134_">
				<g id="XMLID_135_">
					<rect x="369.6" y="145.2" class="st6" width="5.3" height="2.1"/>
				</g>
			</g>
		</g>
		<g id="XMLID_86_">
			<g id="XMLID_131_">
				<g id="XMLID_132_">
					<rect x="137.2" y="147.2" class="st6" width="2.1" height="5.3"/>
				</g>
			</g>
			<g id="XMLID_129_">
				<g id="XMLID_130_">
					<rect x="137.2" y="157.9" class="st6" width="2.1" height="5.3"/>
				</g>
			</g>
			<g id="XMLID_127_">
				<g id="XMLID_128_">
					<rect x="130.2" y="154.1" class="st6" width="5.3" height="2.1"/>
				</g>
			</g>
			<g id="XMLID_87_">
				<g id="XMLID_126_">
					<rect x="140.9" y="154.1" class="st6" width="5.3" height="2.1"/>
				</g>
			</g>
		</g>
	</g>
</g>
</svg>
