<?xml version="1.0" encoding="utf-8"?>
<!-- Generator: Adobe Illustrator 22.0.0, SVG Export Plug-In . SVG Version: 6.00 Build 0)  -->
<svg version="1.1" id="Layer_1" xmlns="http://www.w3.org/2000/svg" xmlns:xlink="http://www.w3.org/1999/xlink" x="0px" y="0px"
	 viewBox="0 0 233.9 233.9" style="enable-background:new 0 0 233.9 233.9;" xml:space="preserve">
<style type="text/css">
	
		.st0{fill-rule:evenodd;clip-rule:evenodd;fill:#E9E8E7;stroke:#7C7C7C;stroke-linecap:round;stroke-linejoin:round;stroke-miterlimit:10;}
	
		.st1{fill-rule:evenodd;clip-rule:evenodd;fill:#FFFFFF;stroke:#7C7C7C;stroke-linecap:round;stroke-linejoin:round;stroke-miterlimit:10;}
	.st2{fill-rule:evenodd;clip-rule:evenodd;fill:#E9E8E7;}
	.st3{fill:none;stroke:#7C7C7C;stroke-linecap:round;stroke-linejoin:round;stroke-miterlimit:10;}
	.st4{opacity:0.4;}
	.st5{fill:#7B86C2;}
	.st6{fill:#FAA629;}
	.st7{fill:#66BB6A;}
	.st8{fill:#F7F8F9;}
	.st9{fill:#EE5552;}
	.st10{fill:#10A598;}
	.st11{fill:#FFFFFF;}
</style>
<g>
	<g>
		<path class="st0" d="M12.1,0.5h209.6c6.4,0,11.6,5.2,11.6,11.6v209.6c0,6.4-5.2,11.6-11.6,11.6H12.1c-6.4,0-11.6-5.2-11.6-11.6
			V12.1C0.5,5.7,5.7,0.5,12.1,0.5z"/>
		<path class="st0" d="M233.4,221.7c0,6.4-5.2,11.6-11.6,11.6H12.1c-6.4,0-11.6-5.2-11.6-11.6H233.4z"/>
		<rect x="0.5" y="23.8" class="st1" width="232.9" height="198"/>
		<rect x="87.8" y="161" class="st2" width="11.6" height="11.6"/>
		<rect x="109.4" y="161" class="st2" width="36.7" height="11.6"/>
		<rect x="157.7" y="161" class="st2" width="11.6" height="11.6"/>
		<rect x="179.2" y="161" class="st2" width="36.7" height="11.6"/>
		<rect x="18" y="161" class="st2" width="11.6" height="11.6"/>
		<rect x="39.5" y="161" class="st2" width="36.7" height="11.6"/>
		<line class="st3" x1="15.1" y1="12.1" x2="160.6" y2="12.1"/>
		<line class="st3" x1="172.3" y1="12.1" x2="218.8" y2="12.1"/>
		<g>
			<line class="st3" x1="157.7" y1="181" x2="215.9" y2="181"/>
			<line class="st3" x1="87.8" y1="181" x2="146.1" y2="181"/>
			<line class="st3" x1="18" y1="181" x2="76.2" y2="181"/>
		</g>
		<g>
			<line class="st3" x1="157.7" y1="190.7" x2="215.9" y2="190.7"/>
			<line class="st3" x1="87.8" y1="190.7" x2="146.1" y2="190.7"/>
			<line class="st3" x1="18" y1="190.7" x2="76.2" y2="190.7"/>
		</g>
		<g>
			<line class="st3" x1="157.7" y1="200.4" x2="215.9" y2="200.4"/>
			<line class="st3" x1="87.8" y1="200.4" x2="146.1" y2="200.4"/>
			<line class="st3" x1="18" y1="200.4" x2="76.2" y2="200.4"/>
		</g>
		<g class="st4">
			<path class="st5" d="M26.3,133.7c-0.4,0-0.7-0.1-1-0.4l-2.8-2.8c-0.6-0.6-0.6-1.5,0-2l2.8-2.8c0.5-0.5,1.5-0.5,2,0l2.8,2.8
				c0.6,0.6,0.6,1.5,0,2l-2.8,2.8C27,133.5,26.7,133.7,26.3,133.7z M23.9,129.4l2.4,2.4l2.4-2.4l-2.4-2.4L23.9,129.4z"/>
			<path class="st6" d="M42.4,63.8h-6.2c-0.6,0-1.1-0.3-1.3-0.8c-0.3-0.5-0.3-1.1,0-1.6l3.1-5.4c0.3-0.5,0.8-0.8,1.3-0.8
				c0.6,0,1.1,0.3,1.3,0.8l3.1,5.4c0.3,0.5,0.3,1.1,0,1.6C43.4,63.6,42.9,63.8,42.4,63.8z M36.5,62.1h5.6l-2.8-4.8L36.5,62.1z"/>
			<path class="st7" d="M21.2,80.4h4.1c0.3,0,0.5-0.3,0.4-0.6l-2.1-3.6c-0.2-0.3-0.6-0.3-0.7,0l-2.1,3.6
				C20.7,80,20.9,80.4,21.2,80.4z"/>
			<path class="st6" d="M40.9,106.3l-0.6-0.6c-0.8-0.8-0.8-2,0-2.8l0.6-0.6c0.8-0.8,2-0.8,2.8,0l0.6,0.6c0.8,0.8,0.8,2,0,2.8
				l-0.6,0.6C43,107.1,41.7,107.1,40.9,106.3z"/>
			<g>
				<path class="st7" d="M185.9,113.2c-0.4,0-0.8-0.2-1.1-0.5l-3.1-3.1c-0.6-0.6-0.6-1.6,0-2.2l3.1-3.1c0.6-0.6,1.6-0.6,2.2,0
					l3.1,3.1c0.6,0.6,0.6,1.6,0,2.2l-3.1,3.1C186.7,113.1,186.3,113.2,185.9,113.2z M183.3,108.5l2.6,2.6l2.6-2.6l-2.6-2.6
					L183.3,108.5z"/>
				<path class="st5" d="M202.8,130.2h4.6c0.4,0,0.6-0.4,0.4-0.7l-2.3-4c-0.2-0.3-0.6-0.3-0.8,0l-2.3,4
					C202.2,129.8,202.4,130.2,202.8,130.2z"/>
				<path class="st6" d="M190.4,68c-1.2,0-2.3-0.4-3.2-1.3c-1.8-1.8-1.8-4.6,0-6.4c1.8-1.8,4.6-1.8,6.4,0c1.8,1.8,1.8,4.6,0,6.4
					C192.8,67.5,191.6,68,190.4,68z M190.4,60.8c-0.7,0-1.3,0.3-1.8,0.8c-1,1-1,2.7,0,3.7c1,1,2.7,1,3.7,0c1-1,1-2.7,0-3.7
					C191.8,61.1,191.1,60.8,190.4,60.8z"/>
				<circle class="st6" cx="209.3" cy="88.4" r="3.2"/>
			</g>
		</g>
		<g>
			<g>
				
					<image style="overflow:visible;opacity:0.1;" width="151" height="152" xlink:href="C27597223A7F15A1.png"  transform="matrix(1 0 0 1 37.605 15.9369)">
				</image>
				<g>
					<path class="st8" d="M167.6,92.3c0-30.1-24.4-54.5-54.5-54.5c-30.1,0-54.5,24.4-54.5,54.5c0,30.1,24.4,54.5,54.5,54.5
						C143.2,146.7,167.6,122.3,167.6,92.3z"/>
				</g>
			</g>
			<g>
				
					<image style="overflow:visible;opacity:0.1;" width="101" height="101" xlink:href="C27597223A7F15A3.png"  transform="matrix(1 0 0 1 62.605 41.9369)">
				</image>
				<g>
					<path class="st8" d="M160.4,92.3c0-26.1-21.2-47.3-47.3-47.3C87,45,65.9,66.2,65.9,92.3c0,26.1,21.2,47.3,47.3,47.3
						C139.2,139.5,160.4,118.4,160.4,92.3z"/>
				</g>
			</g>
			<g>
				
					<image style="overflow:visible;opacity:0.1;" width="87" height="87" xlink:href="C27597223A7F15A6.png"  transform="matrix(1 0 0 1 69.605 48.9369)">
				</image>
				<g>
					<path class="st8" d="M153.2,92.3c0-22.1-17.9-40-40-40c-22.1,0-40,17.9-40,40c0,22.1,17.9,40,40,40
						C135.2,132.3,153.2,114.4,153.2,92.3z"/>
				</g>
			</g>
			<g>
				<path class="st9" d="M90.9,90c0.1-5.3,1.3-9.9,3.9-14.2c0.4-0.7,1.4-2,1.4-2s1.4-0.7,2.2-1c10.6-4.6,20.5-3.4,29.4,4.1
					c3.9,3.2,6.6,7.3,7.4,12.4c1,6.5-3.2,14-9.1,17c-0.2,0.1-0.2,0.1-0.3,0.2c-4.5,7.9-16.2,11.4-25,4C94.3,105,91.1,98,90.9,90z
					 M112.7,86.6c0.7-0.3,1.1-0.5,1.6-0.7c0.4-0.2,0.5-0.4,0.1-0.7c-1-0.8-1.6-1.9-2.1-3.1c-0.3-1-1-1.7-1.8-2.3
					c-2.2-1.4-4.4-1.4-6.8-0.4c-0.3,0.1-0.9,0.3-0.9,0.3s-0.1,0.8,0,1.2c0.2,2.1-0.3,4.1-1.2,6c-2.2,4.5-2.8,9.1-1.8,14
					c0.5,2.3,1.2,4.5,3,6.2c3.6,3.1,7.7,4.4,12.5,3.2c2-0.5,3.7-1.4,5.3-2.8c-0.3-0.1-0.5-0.1-0.6-0.2c-7.3-1.5-12.3-9.1-10.3-17
					c0.2-0.6,0.5-1.3,0.5-1.3s0.7,0.1,1.3,0.2c7,1.4,11.8,5.4,14.2,12.1c0.4,1,0.4,1,1.2,0.4c4.8-3.9,6.2-11.3,3.1-16.6
					c-6.2-10.6-18.8-13.8-29.2-9.1c-0.6,0.3-1.9,0.8-1.9,0.8s-0.1,0.3-0.3,0.7c-2.9,4.4-3.9,9.4-3.5,14.6c0.1,1.7,0.4,3.3,1.1,5
					c0.1-0.1,0.2-0.2,0.2-0.2c0.1-3.9,1.3-7.5,3-11c1-2.2,1.4-4.5,0.9-6.9c-0.1-0.3-0.2-0.9-0.2-0.9s0.5-0.1,0.7-0.2
					c2-1.1,4.1-1.7,6.3-1.4c2.9,0.3,5.6,1.4,6.9,4.3c0.9,1.8,1.7,3.6,3.5,4.7c0.4,0.3,0.4,0.3,0.4,0.3s-0.2,0.2-0.3,0.3
					C115.9,86.5,114.5,87,112.7,86.6z M111.8,94c0,1.8,0.4,3.6,1.3,5.2c2,3.3,4.7,5.4,8.7,5.2c0.6,0,1.2-0.2,1.2-0.2
					s0.1-0.7-0.1-1.3c-1.3-5-4.4-8.3-9.2-10.2c-1.1-0.4-1.8-0.4-1.8-0.4S111.8,93,111.8,94z"/>
				<path class="st9" d="M111.2,81.6c0,0.7-0.4,1.1-1.1,1.1s-1.1-0.4-1.1-1c0-0.7,0.4-1.1,1.1-1.1C110.8,80.5,111.1,80.9,111.2,81.6
					z"/>
			</g>
		</g>
	</g>
	<g>
		<g>
			
				<image style="overflow:visible;opacity:0.1;" width="27" height="27" xlink:href="C27597223A7F15A7.png"  transform="matrix(1 0 0 1 133.605 43.9369)">
			</image>
			<g>
				<path class="st10" d="M157.4,57.2c0-5.6-4.5-10.1-10.1-10.1c-5.6,0-10.1,4.5-10.1,10.1c0,5.6,4.5,10.1,10.1,10.1
					C152.9,67.3,157.4,62.8,157.4,57.2z"/>
			</g>
		</g>
		<path class="st11" d="M152.9,53.8c-0.2-0.6-0.7-0.5-1.2-0.4c-0.3,0.1-1.7,0.5-3.9,2.8c-0.9,1-1.5,1.7-1.9,2.3
			c-0.2-0.3-0.5-0.6-0.8-0.9c-0.9-0.9-1.9-1.5-1.9-1.5c-0.4-0.3-1-0.1-1.2,0.3c-0.3,0.4-0.1,1,0.3,1.2c0,0,0.9,0.5,1.6,1.3
			c0.8,0.8,1.4,1.8,1.4,1.8c0.2,0.3,0.4,0.4,0.7,0.4c0.1,0,0.1,0,0.2,0c0.3-0.1,0.6-0.3,0.7-0.7c0,0,0.4-1,2.2-3
			c1.5-1.6,2.5-2.1,2.9-2.2c0,0,0,0,0,0c0,0,0,0,0,0c0.1,0,0.1,0,0.1,0c0,0,0,0,0,0l0,0c0.2-0.1,0.5-0.2,0.5-0.2
			C152.9,54.8,153.1,54.3,152.9,53.8z"/>
	</g>
</g>
</svg>
