<?xml version="1.0" encoding="utf-8"?>
<!-- Generator: Adobe Illustrator 22.0.0, SVG Export Plug-In . SVG Version: 6.00 Build 0)  -->
<svg version="1.1" id="Layer_1" xmlns="http://www.w3.org/2000/svg" xmlns:xlink="http://www.w3.org/1999/xlink" x="0px" y="0px"
	 viewBox="0 0 422 204.3" style="enable-background:new 0 0 422 204.3;" xml:space="preserve">
<style type="text/css">
	.st0{fill:#F2F2F2;}
	.st1{fill:#FFFFFF;}
	.st2{fill:#EE5451;}
	.st3{fill:#767576;}
	.st4{fill:#DDDDDC;}
	.st5{fill:none;stroke:#EE5451;stroke-linecap:round;stroke-linejoin:round;stroke-miterlimit:10;}
	.st6{fill:#FADBDA;}
	.st7{fill:#FAA629;}
	.st8{fill:#66BB6A;}
	.st9{fill:#7B86C2;}
	.st10{fill:none;stroke:#767576;stroke-linecap:round;stroke-linejoin:round;stroke-miterlimit:10;}
	.st11{fill:#CCEAFA;}
</style>
<g>
	<g>
		<g>
			<g>
				<path class="st0" d="M38.2,200.8c5.8,0,10.6-4.7,10.6-10.6v-8.5c0-5.8-4.7-10.6-10.6-10.6h0c-5.8,0-10.6,4.7-10.6,10.6v8.5
					C27.6,196.1,38.2,200.8,38.2,200.8z"/>
				<path class="st0" d="M110.6,161.2v26.3c0,5.8,4.7,10.6,10.6,10.6l0,0c5.8,0,10.6-4.7,10.6-10.6v-125c0-5.8-4.7-10.6-10.6-10.6
					l0,0c-5.8,0-10.6,4.7-10.6,10.6v27.2c0,5.8-4.7,10.6-10.6,10.6l0,0c-5.8,0-10.6-4.7-10.6-10.6V53.5c0-5.8-4.7-10.6-10.6-10.6h0
					c-5.8,0-10.6,4.7-10.6,10.6v22.6c0,5.8-4.7,10.6-10.6,10.6h0c-5.8,0-10.6-4.7-10.6-10.6V42.8c0-5.8-4.7-10.6-10.6-10.6l0,0
					C30.7,32.3,26,37,26,42.8v97.5c0,5.8,4.7,10.6,10.6,10.6l0,0c5.8,0,10.6-4.7,10.6-10.6v-14.9c0-5.8,4.7-10.6,10.6-10.6h0
					c5.8,0,10.6,4.7,10.6,10.6v45.1c0,5.8,4.7,10.6,10.6,10.6h0c5.8,0,10.6-4.7,10.6-10.6v-9.4c0-5.8,4.7-10.6,10.6-10.6l0,0
					C105.9,150.6,110.6,155.4,110.6,161.2z"/>
				<path class="st0" d="M174.1,134.7v-69c0-5.8-4.7-10.6-10.6-10.6h0c-5.8,0-10.6,4.7-10.6,10.6v69c0,5.8,4.7,10.6,10.6,10.6h0
					C169.3,145.3,174.1,140.6,174.1,134.7z"/>
			</g>
		</g>
		<g>
			<rect x="41.4" y="48.5" class="st1" width="113.8" height="154.9"/>
			<g>
				<path class="st2" d="M155.2,190.2c-0.5,0-0.9-0.4-0.9-0.9v-10.9c0-0.5,0.4-0.9,0.9-0.9c0.5,0,0.9,0.4,0.9,0.9v10.9
					C156.2,189.8,155.7,190.2,155.2,190.2z"/>
			</g>
			<g>
				<path class="st2" d="M155.2,170c-0.5,0-0.9-0.4-0.9-0.9v-4.8c0-0.5,0.4-0.9,0.9-0.9c0.5,0,0.9,0.4,0.9,0.9v4.8
					C156.2,169.6,155.7,170,155.2,170z"/>
			</g>
			<g>
				<path class="st3" d="M155.2,155.9c-0.5,0-0.9-0.4-0.9-0.9V49.4h-112v20.1c0,0.5-0.4,0.9-0.9,0.9s-0.9-0.4-0.9-0.9v-21
					c0-0.5,0.4-0.9,0.9-0.9h113.8c0.5,0,0.9,0.4,0.9,0.9V155C156.2,155.5,155.7,155.9,155.2,155.9z"/>
			</g>
			<g>
				<path class="st3" d="M41.4,81.7c-0.5,0-0.9-0.4-0.9-0.9v-4.6c0-0.5,0.4-0.9,0.9-0.9s0.9,0.4,0.9,0.9v4.6
					C42.3,81.3,41.9,81.7,41.4,81.7z"/>
			</g>
			<g>
				<path class="st3" d="M41.4,196.1c-0.5,0-0.9-0.4-0.9-0.9V88.9c0-0.5,0.4-0.9,0.9-0.9s0.9,0.4,0.9,0.9v106.3
					C42.3,195.7,41.9,196.1,41.4,196.1z"/>
			</g>
			<g>
				<path class="st3" d="M197.9,204.3H2.2c-0.5,0-0.9-0.4-0.9-0.9c0-0.5,0.4-0.9,0.9-0.9h195.7c0.5,0,0.9,0.4,0.9,0.9
					C198.8,203.9,198.4,204.3,197.9,204.3z"/>
			</g>
			<g>
				<g>
					<path class="st4" d="M117.5,71.9H50c-0.5,0-0.9-0.4-0.9-0.9c0-0.5,0.4-0.9,0.9-0.9h67.5c0.5,0,0.9,0.4,0.9,0.9
						C118.4,71.5,118,71.9,117.5,71.9z"/>
				</g>
				<g>
					<path class="st4" d="M89.5,81.7H50c-0.5,0-0.9-0.4-0.9-0.9c0-0.5,0.4-0.9,0.9-0.9h39.5c0.5,0,0.9,0.4,0.9,0.9
						C90.4,81.3,90,81.7,89.5,81.7z"/>
				</g>
				<g>
					<path class="st4" d="M117.5,92.4H50c-0.5,0-0.9-0.4-0.9-0.9s0.4-0.9,0.9-0.9h67.5c0.5,0,0.9,0.4,0.9,0.9S118,92.4,117.5,92.4z"
						/>
				</g>
				<g>
					<path class="st4" d="M116.2,133.4H50c-0.5,0-0.9-0.4-0.9-0.9c0-0.5,0.4-0.9,0.9-0.9h66.2c0.5,0,0.9,0.4,0.9,0.9
						C117.1,133,116.7,133.4,116.2,133.4z"/>
				</g>
				<g>
					<path class="st4" d="M116.2,153.9H50c-0.5,0-0.9-0.4-0.9-0.9c0-0.5,0.4-0.9,0.9-0.9h66.2c0.5,0,0.9,0.4,0.9,0.9
						C117.1,153.5,116.7,153.9,116.2,153.9z"/>
				</g>
				<g>
					<path class="st4" d="M112.3,174.3H50c-0.5,0-0.9-0.4-0.9-0.9c0-0.5,0.4-0.9,0.9-0.9h62.3c0.5,0,0.9,0.4,0.9,0.9
						C113.2,173.9,112.8,174.3,112.3,174.3z"/>
				</g>
				<rect x="50" y="98.7" class="st0" width="66.2" height="24.3"/>
			</g>
		</g>
		<g>
			<path class="st1" d="M73.4,46.8L73.4,46.8c-3.3,1.8-7.4,1.8-10.7,0l0,0c-4.7-2.6-6.8-8.1-5.2-13.1l3.4-10.5c2.2-7,12.1-7,14.4,0
				l3.4,10.5C80.2,38.7,78,44.2,73.4,46.8z"/>
			<path class="st0" d="M73.5,46.9L73.5,46.9c-3.3,1.8-7.4,1.8-10.7,0l0,0c-4.7-2.6-6.8-8.1-5.2-13.1L61,23.4c2.2-7,12.1-7,14.4,0
				l3.4,10.5C80.3,38.9,78.2,44.4,73.5,46.9z"/>
			<path class="st5" d="M73.4,46.8L73.4,46.8c-3.3,1.8-7.4,1.8-10.7,0l0,0c-4.7-2.6-6.8-8.1-5.2-13.1l3.4-10.5c2.2-7,12.1-7,14.4,0
				l3.4,10.5C80.2,38.7,78,44.2,73.4,46.8z"/>
			<g>
				<path class="st1" d="M78.1,11c0,5.6-4.5,10.1-10.1,10.1c-5.6,0-10.1-4.5-10.1-10.1c0-5.6,4.5-10.1,10.1-10.1
					C73.6,0.9,78.1,5.4,78.1,11z"/>
				<path class="st0" d="M68.9,7.9c4.4,0,8,2.8,9.5,6.6c0.9-2.3,1-5-0.4-7.9c-1.5-3-4.4-5.2-7.7-5.7C64,0.2,58.7,5,58.7,11
					c0,1.2,0.3,2.4,0.7,3.5C60.8,10.7,64.5,7.9,68.9,7.9z"/>
				<g>
					<path class="st2" d="M68,22.1c-6.1,0-11-4.9-11-11c0-6.1,4.9-11,11-11c2.4,0,4.7,0.8,6.6,2.2c0.4,0.3,0.5,0.9,0.2,1.3
						c-0.3,0.4-0.9,0.5-1.3,0.2C71.9,2.4,70,1.8,68,1.8c-5.1,0-9.2,4.1-9.2,9.2s4.1,9.2,9.2,9.2c5,0,9-4,9.2-8.9
						c-0.7-0.8-3.3-3.2-6.7-3.4c-2.6-0.1-5.1,1.1-7.5,3.6c-0.3,0.4-0.9,0.4-1.3,0c-0.4-0.3-0.4-0.9,0-1.3c2.8-2.9,5.8-4.3,8.9-4.2
						c4.9,0.2,8.1,4.1,8.3,4.2C79,10.6,79,10.8,79,11C79,17.1,74.1,22.1,68,22.1z"/>
				</g>
			</g>
			<g>
				<path class="st2" d="M66.6,63.1c-0.1,0-0.2,0-0.3,0c-0.5-0.1-0.7-0.7-0.6-1.1l2.3-7.5c0.7-2.4-1-3.8-4-5.8l-0.6-0.4l-1.5-0.7
					c-0.5-0.2-0.7-0.7-0.4-1.2c0.2-0.5,0.7-0.7,1.2-0.4l1.7,0.8l0.8,0.5c2.8,1.9,5.9,4,4.7,7.8l-2.3,7.5
					C67.4,62.8,67,63.1,66.6,63.1z"/>
			</g>
			<g>
				<path class="st2" d="M74.3,62.3c-0.1,0-0.3,0-0.4-0.1c-0.4-0.2-0.6-0.8-0.4-1.2l3.4-6.6c0.7-1.3,0.7-2.9,0.2-4.2
					c-0.5-1.4-1.7-2.4-3-2.9c-0.5-0.2-0.7-0.7-0.6-1.2c0.2-0.5,0.7-0.7,1.2-0.6c1.9,0.7,3.4,2.1,4.1,4c0.7,1.9,0.6,3.9-0.3,5.7
					l-3.4,6.6C74.9,62.2,74.6,62.3,74.3,62.3z"/>
			</g>
			<g>
				<path class="st2" d="M70.6,16.5c-0.5,0-0.9-0.4-0.9-0.9v-3.4c0-0.5,0.4-0.9,0.9-0.9c0.5,0,0.9,0.4,0.9,0.9v3.4
					C71.5,16.1,71.1,16.5,70.6,16.5z"/>
			</g>
			<g>
				<path class="st2" d="M55.9,49.2c-0.2,0-0.4-0.1-0.5-0.2c-0.4-0.3-0.5-0.9-0.2-1.3c4.6-6,7.7-20.7,7.7-20.9
					c0.1-0.5,0.6-0.8,1.1-0.7c0.5,0.1,0.8,0.6,0.7,1.1c-0.1,0.6-3.2,15.3-8.1,21.6C56.4,49.1,56.1,49.2,55.9,49.2z"/>
			</g>
			<g>
				<path class="st2" d="M75.2,24.1c-0.3,0-0.7-0.2-0.8-0.5c-0.2-0.5,0-1,0.4-1.2c0.1-0.1,13.6-6.2,17-11.8c0.3-0.4,0.8-0.6,1.2-0.3
					c0.4,0.3,0.6,0.8,0.3,1.2c-3.7,6-17.2,12.3-17.8,12.5C75.4,24.1,75.3,24.1,75.2,24.1z"/>
			</g>
			<g>
				<g>
					<path class="st2" d="M86,22.6c-0.4,0-0.7-0.2-0.8-0.6c-0.2-0.5,0.1-1,0.5-1.2c0,0,3.9-1.5,8-5.9c0.3-0.4,0.9-0.4,1.3-0.1
						c0.4,0.3,0.4,0.9,0.1,1.3c-4.4,4.7-8.5,6.3-8.7,6.3C86.2,22.6,86.1,22.6,86,22.6z"/>
				</g>
				<g>
					<path class="st2" d="M88.2,25.7c-0.4,0-0.7-0.2-0.9-0.6c-0.2-0.5,0.1-1,0.6-1.1c0,0,2.5-0.9,3.9-1.5c0.4-0.2,1,0,1.2,0.4
						c0.2,0.5,0,1-0.4,1.2c-1.5,0.7-4,1.6-4.1,1.6C88.4,25.7,88.3,25.7,88.2,25.7z"/>
				</g>
			</g>
		</g>
		<g>
			<g>
				<path class="st1" d="M176.7,186.8L176.7,186.8c2.9,2.4,6.9,3.1,10.5,1.9l0,0c5-1.7,8.2-6.7,7.5-12l-1.4-10.9
					c-0.9-7.3-10.6-9-14.1-2.6l-5.2,9.7C171.4,177.7,172.5,183.5,176.7,186.8z"/>
				<g>
					<path class="st2" d="M183.7,190.3c-2.7,0-5.4-0.9-7.6-2.7c-4.4-3.6-5.7-9.9-3-15l5.2-9.7c0.2-0.4,0.8-0.6,1.2-0.4
						c0.4,0.2,0.6,0.8,0.4,1.2l-5.2,9.7c-2.3,4.3-1.3,9.6,2.5,12.7c2.7,2.2,6.3,2.9,9.7,1.8c4.6-1.5,7.5-6.2,6.9-11
						c-0.1-0.5,0.3-0.9,0.8-1c0.5-0.1,0.9,0.3,1,0.8c0.7,5.7-2.7,11.1-8.1,12.9C186.2,190.1,184.9,190.3,183.7,190.3z"/>
				</g>
				<g>
					<path class="st1" d="M178.4,150.8c-1,5.5,2.6,10.8,8.1,11.8c5.5,1,10.8-2.6,11.8-8.1c1-5.5-2.6-10.8-8.1-11.8
						C184.7,141.7,179.5,145.3,178.4,150.8z"/>
					<polygon class="st6" points="190.4,173.5 195.7,171.2 198.7,154.5 194,153.7 					"/>
					<path class="st6" d="M188.1,149.4c-4.3-0.8-8.4,1.3-10.5,4.8c-0.4-2.4-0.1-5.1,1.9-7.7c2-2.7,5.2-4.4,8.6-4.2
						c6.2,0.3,10.6,6,9.5,12c-0.2,1.2-0.7,2.3-1.3,3.3C195.5,153.6,192.4,150.2,188.1,149.4z"/>
					<g>
						<path class="st2" d="M190.4,174.4c-0.1,0-0.1,0-0.2,0c-0.5-0.1-0.8-0.6-0.7-1.1l1.9-10.1c-1.6,0.4-3.3,0.5-4.9,0.2
							c-2.9-0.5-5.4-2.2-7.1-4.6c-1.7-2.4-2.3-5.4-1.8-8.3c0-0.2,0.1-0.4,0.3-0.5c0.2-0.1,4.1-3.4,8.9-2.7c3.1,0.4,5.8,2.4,8,5.7
							c0.1,0.2,0.2,0.4,0.1,0.7l-3.7,19.8C191.2,174.1,190.8,174.4,190.4,174.4z M179.3,151.3c-0.3,2.3,0.2,4.6,1.5,6.6
							c1.4,2,3.5,3.4,5.9,3.8c1.7,0.3,3.4,0.2,4.9-0.4c0,0,0,0,0,0l1.4-7.4c-1.9-2.7-4.1-4.3-6.5-4.6
							C183.1,148.7,180.1,150.7,179.3,151.3z"/>
					</g>
					<g>
						<path class="st2" d="M195.3,172c-0.1,0-0.1,0-0.2,0c-0.5-0.1-0.8-0.6-0.7-1.1l3.1-16.6c0.9-5-2.4-9.8-7.4-10.7
							c-2-0.4-4-0.1-5.8,0.8c-0.4,0.2-1,0-1.2-0.4c-0.2-0.4,0-1,0.4-1.2c2.1-1.1,4.5-1.4,6.9-1c6,1.1,10,6.9,8.8,12.8l-3.1,16.6
							C196.1,171.7,195.7,172,195.3,172z"/>
					</g>
					<g>
						<path class="st2" d="M185.1,157.6c-0.1,0-0.1,0-0.2,0c-0.5-0.1-0.8-0.6-0.7-1.1l0.6-3.3c0.1-0.5,0.6-0.8,1.1-0.7
							c0.5,0.1,0.8,0.6,0.7,1.1l-0.6,3.3C185.9,157.2,185.5,157.6,185.1,157.6z"/>
					</g>
				</g>
			</g>
			<g>
				<path class="st2" d="M185.7,204.3c-0.5,0-0.9-0.4-0.9-0.9v-18.3c0-0.5,0.4-0.9,0.9-0.9c0.5,0,0.9,0.4,0.9,0.9v18.3
					C186.6,203.9,186.2,204.3,185.7,204.3z"/>
			</g>
			<g>
				<path class="st2" d="M177.1,204.3c-0.5,0-0.9-0.4-0.9-0.9v-16.3c0-0.5,0.4-0.9,0.9-0.9c0.5,0,0.9,0.4,0.9,0.9v16.3
					C178,203.9,177.6,204.3,177.1,204.3z"/>
			</g>
		</g>
		<g>
			<g>
				<g>
					<path class="st3" d="M125.4,198.8C125.4,198.8,125.4,198.8,125.4,198.8c-0.5,0-0.9-0.4-0.9-0.9l0.1-49.1c0-0.5,0.4-0.9,0.9-0.9
						c0,0,0,0,0,0c0.5,0,0.9,0.4,0.9,0.9l-0.1,49.1C126.3,198.4,125.9,198.8,125.4,198.8z"/>
				</g>
				<g>
					<path class="st3" d="M125.7,101.2C125.7,101.2,125.7,101.2,125.7,101.2c-0.5,0-0.9-0.4-0.9-0.9l0.2-59.3c0-0.5,0.4-0.9,0.9-0.9
						c0,0,0,0,0,0c0.5,0,0.9,0.4,0.9,0.9l-0.2,59.3C126.6,100.8,126.2,101.2,125.7,101.2z"/>
				</g>
				<g>
					<path class="st3" d="M143.7,199.3C143.7,199.3,143.7,199.3,143.7,199.3c-0.5,0-0.9-0.4-0.9-0.9l0.1-47.3c0-0.5,0.4-0.9,0.9-0.9
						c0,0,0,0,0,0c0.5,0,0.9,0.4,0.9,0.9l-0.1,47.3C144.6,198.9,144.2,199.3,143.7,199.3z"/>
				</g>
				<g>
					<path class="st3" d="M144,98C144,98,144,98,144,98c-0.5,0-0.9-0.4-0.9-0.9l0.2-55.5c0-0.5,0.4-0.9,0.9-0.9c0,0,0,0,0,0
						c0.5,0,0.9,0.4,0.9,0.9l-0.2,55.5C144.9,97.6,144.5,98,144,98z"/>
				</g>
				<g>
					<path class="st3" d="M125.8,54.6c-0.5,0-0.9-0.4-0.9-0.9c0-0.5,0.4-0.9,0.9-0.9l18.3-0.3c0.5,0,0.9,0.4,0.9,0.9
						c0,0.5-0.4,0.9-0.9,0.9L125.8,54.6C125.8,54.6,125.8,54.6,125.8,54.6z"/>
				</g>
				<g>
					<path class="st3" d="M125.5,67.1c-0.5,0-0.9-0.4-0.9-0.9c0-0.5,0.4-0.9,0.9-0.9l18.3-0.3c0.5,0,0.9,0.4,0.9,0.9
						c0,0.5-0.4,0.9-0.9,0.9L125.5,67.1C125.5,67.1,125.5,67.1,125.5,67.1z"/>
				</g>
				<g>
					<path class="st3" d="M125.1,79.6c-0.5,0-0.9-0.4-0.9-0.9c0-0.5,0.4-0.9,0.9-0.9l18.3-0.3c0.5,0,0.9,0.4,0.9,0.9
						c0,0.5-0.4,0.9-0.9,0.9L125.1,79.6C125.2,79.6,125.2,79.6,125.1,79.6z"/>
				</g>
				<g>
					<path class="st3" d="M124.8,92.1c-0.5,0-0.9-0.4-0.9-0.9c0-0.5,0.4-0.9,0.9-0.9l18.3-0.3c0.5,0,0.9,0.4,0.9,0.9
						c0,0.5-0.4,0.9-0.9,0.9L124.8,92.1C124.8,92.1,124.8,92.1,124.8,92.1z"/>
				</g>
				<g>
					<path class="st3" d="M123.1,154.6c-0.5,0-0.9-0.4-0.9-0.9c0-0.5,0.4-0.9,0.9-0.9l12.7-0.2c0.5,0,0.9,0.4,0.9,0.9
						c0,0.5-0.4,0.9-0.9,0.9L123.1,154.6C123.1,154.6,123.1,154.6,123.1,154.6z"/>
				</g>
				<g>
					<path class="st3" d="M122.8,167.1c-0.5,0-0.9-0.4-0.9-0.9c0-0.5,0.4-0.9,0.9-0.9l18.3-0.3c0.5,0,0.9,0.4,0.9,0.9
						c0,0.5-0.4,0.9-0.9,0.9L122.8,167.1C122.8,167.1,122.8,167.1,122.8,167.1z"/>
				</g>
				<g>
					<path class="st3" d="M122.5,179.6c-0.5,0-0.9-0.4-0.9-0.9c0-0.5,0.4-0.9,0.9-0.9l18.3-0.3c0.5,0,0.9,0.4,0.9,0.9
						c0,0.5-0.4,0.9-0.9,0.9L122.5,179.6C122.5,179.6,122.5,179.6,122.5,179.6z"/>
				</g>
				<g>
					<path class="st3" d="M122.1,192.1c-0.5,0-0.9-0.4-0.9-0.9c0-0.5,0.4-0.9,0.9-0.9l18.3-0.3c0.5,0,0.9,0.4,0.9,0.9
						c0,0.5-0.4,0.9-0.9,0.9L122.1,192.1C122.1,192.1,122.1,192.1,122.1,192.1z"/>
				</g>
			</g>
			<g>
				<path class="st1" d="M139.8,146.2L139.8,146.2c-3.4,1.8-7.4,1.7-10.7-0.2l0,0c-4.6-2.6-6.7-8.2-5-13.2l3.5-10.4
					c2.4-6.9,12.2-6.8,14.3,0.2l3.2,10.5C146.7,138.2,144.5,143.7,139.8,146.2z"/>
				<path class="st0" d="M142.3,148.8L142.3,148.8c-3.4,1.8-7.4,1.7-10.7-0.2v0c-4.6-2.6-6.7-8.2-5-13.2l3.5-10.4
					c2.4-6.9,12.2-6.8,14.3,0.2l3.2,10.5C149.2,140.8,147,146.3,142.3,148.8z"/>
				<path class="st5" d="M139.8,146.2L139.8,146.2c-3.4,1.8-7.4,1.7-10.7-0.2l0,0c-4.6-2.6-6.7-8.2-5-13.2l3.5-10.4
					c2.4-6.9,12.2-6.8,14.3,0.2l3.2,10.5C146.7,138.2,144.5,143.7,139.8,146.2z"/>
				<g>
					
						<ellipse transform="matrix(0.7168 -0.6973 0.6973 0.7168 -38.7396 125.3614)" class="st1" cx="134.9" cy="110.4" rx="10.1" ry="10.1"/>
					<path class="st0" d="M135.7,115c4.4,0.1,8.1-4.9,9.5-1c0.9-2.3,1.1-5-0.3-7.9c-1.5-3-4.3-5.3-7.6-5.8
						c-6.2-0.9-11.5,3.8-11.6,9.9c0,1.2,0.2,2.4,0.6,3.5C127.8,109.9,131.4,115,135.7,115z"/>
					<g>
						<path class="st2" d="M135,121.4c-0.1,0-0.1,0-0.2,0c-6.1-0.1-11-5.1-10.9-11.2c0-2.9,1.2-5.7,3.3-7.8c2.1-2.1,4.9-3.2,7.8-3.1
							c2.4,0,4.7,0.8,6.6,2.3c0.4,0.3,0.5,0.9,0.2,1.3c-0.3,0.4-0.9,0.5-1.3,0.2c-1.6-1.2-3.5-1.9-5.5-1.9c-2.4,0-4.8,0.9-6.6,2.6
							c-1.8,1.7-2.8,4-2.8,6.5c-0.1,5.1,4,9.3,9.1,9.4c2.5,0.1,4.8-0.9,6.6-2.6c1.8-1.7,2.8-4,2.8-6.5c0-0.5,0.4-0.9,0.9-0.9
							c0,0,0,0,0,0c0.5,0,0.9,0.4,0.9,0.9c0,2.9-1.2,5.7-3.3,7.8C140.6,120.3,137.8,121.4,135,121.4z"/>
					</g>
				</g>
				<g>
					<path class="st2" d="M128.3,154.3c-0.6,0-0.9-0.4-0.9-0.9l0-7.7c0-0.5,0.4-0.9,0.9-0.9c0,0,0,0,0,0c0.5,0,0.9,0.4,0.9,0.9
						l0,7.7C129.2,153.9,128.8,154.3,128.3,154.3z"/>
				</g>
				<g>
					<path class="st2" d="M140.4,166.8C140.4,166.8,140.3,166.8,140.4,166.8c-0.5,0-0.9-0.4-0.9-0.9l0.4-20c0-0.5,0.4-0.9,0.9-0.9
						c0.5,0,0.9,0.4,0.9,0.9l-0.4,20C141.3,166.4,140.8,166.8,140.4,166.8z"/>
				</g>
			</g>
		</g>
	</g>
	<g>
		<g>
			<g>
				<path class="st0" d="M311.2,157v31.6c0,7,5.7,12.7,12.7,12.7l0,0c7,0,12.7-5.7,12.7-12.7V38.4c0-7-5.7-12.7-12.7-12.7l0,0
					c-7,0-12.7,5.7-12.7,12.7v32.7c0,7-5.7,12.7-12.7,12.7l0,0c-7,0-12.7-5.7-12.7-12.7V27.7c0-7-5.7-12.7-12.7-12.7l0,0
					c-7,0-12.7,5.7-12.7,12.7v27.2c0,7-5.7,12.7-12.7,12.7h0c-7,0-12.7-5.7-12.7-12.7v-40c0-7-5.7-12.7-12.7-12.7h0
					c-7,0-12.7,5.7-12.7,12.7V132c0,7,5.7,12.7,12.7,12.7h0c7,0,12.7-5.7,12.7-12.7v-17.9c0-7,5.7-12.7,12.7-12.7h0
					c7,0,12.7,5.7,12.7,12.7v54.2c0,7,5.7,12.7,12.7,12.7l0,0c7,0,12.7-5.7,12.7-12.7V157c0-7,5.7-12.7,12.7-12.7l0,0
					C305.5,144.3,311.2,150,311.2,157z"/>
				<path class="st0" d="M387.4,166.9V84c0-7-5.7-12.7-12.7-12.7h0c-7,0-12.7,5.7-12.7,12.7v82.9c0,7,5.7,12.7,12.7,12.7h0
					C381.7,179.6,387.4,173.9,387.4,166.9z"/>
			</g>
			<g>
				<path class="st7" d="M207.5,114.3H201c-0.6,0-1.1-0.3-1.4-0.8c-0.3-0.5-0.3-1.1,0-1.6l3.2-5.6c0.3-0.5,0.8-0.8,1.4-0.8
					c0.6,0,1.1,0.3,1.4,0.8l3.2,5.6c0.3,0.5,0.3,1.1,0,1.6C208.6,114,208.1,114.3,207.5,114.3z M201.4,112.5h5.8l-2.9-5L201.4,112.5
					z"/>
				<path class="st8" d="M185.5,131.6h4.3c0.3,0,0.5-0.4,0.4-0.6l-2.2-3.7c-0.2-0.3-0.6-0.3-0.8,0l-2.2,3.7
					C185,131.2,185.2,131.6,185.5,131.6z"/>
				<path class="st7" d="M206.7,159.2l-1.9-1.9c-0.4-0.4-0.4-1.1,0-1.6l1.9-1.9c0.4-0.4,1.1-0.4,1.6,0l1.9,1.9
					c0.4,0.4,0.4,1.1,0,1.6l-1.9,1.9C207.8,159.6,207.1,159.6,206.7,159.2z"/>
				<path class="st7" d="M335.7,83.1l-1.9-1.9c-0.4-0.4-0.4-1.1,0-1.6l1.9-1.9c0.4-0.4,1.1-0.4,1.6,0l1.9,1.9c0.4,0.4,0.4,1.1,0,1.6
					l-1.9,1.9C336.8,83.5,336.1,83.5,335.7,83.1z"/>
				<path class="st8" d="M393.5,158.6c-0.4,0-0.8-0.1-1.1-0.4l-2.9-2.9c-0.6-0.6-0.6-1.5,0-2.1l2.9-2.9c0.6-0.6,1.5-0.6,2.1,0
					l2.9,2.9c0.6,0.6,0.6,1.5,0,2.1l-2.9,2.9C394.3,158.5,393.9,158.6,393.5,158.6z M391,154.2l2.5,2.5l2.5-2.5l-2.5-2.5L391,154.2z
					"/>
				<path class="st9" d="M409.3,174.6h4.3c0.3,0,0.5-0.4,0.4-0.6l-2.2-3.7c-0.2-0.3-0.6-0.3-0.8,0l-2.2,3.7
					C408.8,174.2,409,174.6,409.3,174.6z"/>
				<path class="st7" d="M397.7,116.2c-1.1,0-2.2-0.4-3-1.2c-1.7-1.7-1.7-4.4,0-6c1.7-1.7,4.4-1.7,6,0c1.7,1.7,1.7,4.4,0,6
					C399.9,115.8,398.8,116.2,397.7,116.2z M397.7,109.5c-0.6,0-1.2,0.2-1.7,0.7c-1,1-1,2.5,0,3.5c1,1,2.5,1,3.5,0c1-1,1-2.5,0-3.5
					C399,109.8,398.4,109.5,397.7,109.5z"/>
				<circle class="st7" cx="419.5" cy="133.2" r="2.5"/>
				<path class="st8" d="M4.4,158.6c-0.4,0-0.8-0.1-1.1-0.4l-2.9-2.9c-0.6-0.6-0.6-1.5,0-2.1l2.9-2.9c0.6-0.6,1.5-0.6,2.1,0l2.9,2.9
					c0.6,0.6,0.6,1.5,0,2.1l-2.9,2.9C5.2,158.5,4.8,158.6,4.4,158.6z M1.9,154.2l2.5,2.5l2.5-2.5l-2.5-2.5L1.9,154.2z"/>
				<path class="st9" d="M20.2,174.6h4.3c0.3,0,0.5-0.4,0.4-0.6l-2.2-3.7c-0.2-0.3-0.6-0.3-0.8,0l-2.2,3.7
					C19.7,174.2,19.9,174.6,20.2,174.6z"/>
				<path class="st7" d="M8.7,116.2c-1.1,0-2.2-0.4-3-1.2c-1.7-1.7-1.7-4.4,0-6c1.7-1.7,4.4-1.7,6,0c1.7,1.7,1.7,4.4,0,6
					C10.8,115.8,9.7,116.2,8.7,116.2z M8.7,109.5c-0.6,0-1.2,0.2-1.7,0.7c-1,1-1,2.5,0,3.5c1,1,2.5,1,3.5,0c1-1,1-2.5,0-3.5
					C9.9,109.8,9.3,109.5,8.7,109.5z"/>
				<circle class="st7" cx="30.5" cy="133.2" r="2.5"/>
			</g>
		</g>
		<g>
			<g>
				<g>
					<g>
						<g>
							<path class="st1" d="M390.9,193.8H207.5v0c0,5.3,4.3,9.6,9.6,9.6h164.2C386.6,203.4,390.9,199.1,390.9,193.8L390.9,193.8z"/>
							<g>
								<path class="st3" d="M389,200.4c-0.2,0-0.4-0.1-0.5-0.2c-0.4-0.3-0.5-0.9-0.2-1.3c0.9-1.3,1.5-2.7,1.7-4.3H208.5
									c0.1,1.4,0.7,2.8,1.5,4c0.3,0.4,0.2,1-0.2,1.3c-0.4,0.3-1,0.2-1.3-0.2c-1.2-1.8-1.8-3.8-1.8-6c0-0.5,0.4-0.9,0.9-0.9h183.4
									c0.2,0,0.5,0.1,0.6,0.3c0.2,0.2,0.3,0.4,0.3,0.6c0,2.3-0.7,4.5-2.1,6.3C389.6,200.3,389.3,200.4,389,200.4z"/>
							</g>
							<path class="st1" d="M372.5,80.9h-147c-4.1,0-7.4,3.3-7.4,7.4v105.6h161.7V88.2C379.8,84.2,376.5,80.9,372.5,80.9z"/>
							<g>
								<path class="st3" d="M379.8,194.7c-0.5,0-0.9-0.4-0.9-0.9V88.2c0-3.6-2.9-6.5-6.5-6.5h-147c-3.6,0-6.5,2.9-6.5,6.5
									c0,0.5-0.4,0.9-0.9,0.9c-0.5,0-0.9-0.4-0.9-0.9c0-4.6,3.7-8.3,8.3-8.3h147c4.6,0,8.3,3.7,8.3,8.3v105.6
									C380.7,194.3,380.3,194.7,379.8,194.7z"/>
							</g>
							<g>
								<path class="st3" d="M360.4,81.8h-94.5c-0.5,0-0.9-0.4-0.9-0.9s0.4-0.9,0.9-0.9h94.5c0.5,0,0.9,0.4,0.9,0.9
									S360.9,81.8,360.4,81.8z"/>
							</g>
							<g>
								<path class="st3" d="M379.8,186c-0.5,0-0.9-0.4-0.9-0.9V88.2c0-1.5-0.5-2.9-1.4-4c-0.3-0.4-0.2-1,0.1-1.3
									c0.4-0.3,1-0.3,1.3,0.1c1.2,1.5,1.8,3.3,1.8,5.2v96.8C380.7,185.6,380.3,186,379.8,186z"/>
							</g>
							<g>
								<path class="st3" d="M379.8,194.7H218.1c-0.5,0-0.9-0.4-0.9-0.9c0-0.5,0.4-0.9,0.9-0.9h161.7c0.5,0,0.9,0.4,0.9,0.9
									C380.7,194.3,380.3,194.7,379.8,194.7z"/>
							</g>
							<g>
								<path class="st3" d="M218.1,189.1c-0.5,0-0.9-0.4-0.9-0.9v-28.9c0-0.5,0.4-0.9,0.9-0.9c0.5,0,0.9,0.4,0.9,0.9v28.9
									C219,188.7,218.6,189.1,218.1,189.1z"/>
							</g>
							<g>
								<path class="st3" d="M218.1,151.8c-0.5,0-0.9-0.4-0.9-0.9V98.2c0-0.5,0.4-0.9,0.9-0.9c0.5,0,0.9,0.4,0.9,0.9v52.7
									C219,151.4,218.6,151.8,218.1,151.8z"/>
							</g>
							<path class="st10" d="M315,198.6h-32.1c-2.7,0-4.8-2.2-4.8-4.8l0,0h41.7l0,0C319.8,196.5,317.7,198.6,315,198.6z"/>
							<g>
								<path class="st3" d="M371.3,177.7c-0.5,0-0.9-0.4-0.9-0.9V95.4c0-1.3-0.4-2.6-1.2-3.7c-0.3-0.4-0.2-1,0.2-1.3
									c0.4-0.3,1-0.2,1.3,0.2c1,1.4,1.5,3,1.5,4.8v81.4C372.2,177.2,371.8,177.7,371.3,177.7z"/>
							</g>
							<g>
								<path class="st3" d="M360.4,88.9h-128c-0.5,0-0.9-0.4-0.9-0.9c0-0.5,0.4-0.9,0.9-0.9h128c0.5,0,0.9,0.4,0.9,0.9
									C361.3,88.5,360.9,88.9,360.4,88.9z"/>
							</g>
							<g>
								<path class="st3" d="M225.5,186c-0.5,0-0.9-0.4-0.9-0.9v-64.3c0-0.5,0.4-0.9,0.9-0.9c0.5,0,0.9,0.4,0.9,0.9v64.3
									C226.4,185.6,226,186,225.5,186z"/>
							</g>
						</g>
					</g>
					<g>
						<rect x="241" y="98.7" class="st0" width="65.2" height="23.9"/>
						<rect x="249.9" y="155.6" class="st0" width="65.2" height="23.9"/>
						<rect x="318.3" y="90.2" class="st0" width="36.3" height="23.9"/>
						<g>
							<path class="st4" d="M306.2,131H241c-0.5,0-0.9-0.4-0.9-0.9c0-0.5,0.4-0.9,0.9-0.9h65.2c0.5,0,0.9,0.4,0.9,0.9
								C307.1,130.6,306.7,131,306.2,131z"/>
						</g>
						<g>
							<path class="st4" d="M306.2,140.2H241c-0.5,0-0.9-0.4-0.9-0.9c0-0.5,0.4-0.9,0.9-0.9h65.2c0.5,0,0.9,0.4,0.9,0.9
								C307.1,139.8,306.7,140.2,306.2,140.2z"/>
						</g>
						<g>
							<path class="st4" d="M284.2,149.5H241c-0.5,0-0.9-0.4-0.9-0.9c0-0.5,0.4-0.9,0.9-0.9h43.2c0.5,0,0.9,0.4,0.9,0.9
								C285.1,149.1,284.7,149.5,284.2,149.5z"/>
						</g>
					</g>
				</g>
				<g>
					<g>
						<path class="st1" d="M338.7,177.3L338.7,177.3c-3.3,1.8-7.4,1.8-10.7,0l0,0c-4.6-2.6-6.8-8.1-5.2-13.1l3.4-10.4
							c2.2-6.9,12.1-6.9,14.3,0l3.4,10.4C345.5,169.2,343.3,174.7,338.7,177.3z"/>
						<path class="st5" d="M338.7,177.3L338.7,177.3c-3.3,1.8-7.4,1.8-10.7,0l0,0c-4.6-2.6-6.8-8.1-5.2-13.1l3.4-10.4
							c2.2-6.9,12.1-6.9,14.3,0l3.4,10.4C345.5,169.2,343.3,174.7,338.7,177.3z"/>
						<g>
							<circle class="st1" cx="333.3" cy="141.6" r="10.1"/>
							<path class="st6" d="M334.2,138.5c4.3,0,8,2.8,9.5,6.6c0.9-2.3,1-5-0.4-7.9c-1.5-3-4.4-5.2-7.7-5.7c-6.2-0.8-11.5,4-11.5,10
								c0,1.2,0.3,2.4,0.7,3.5C326.2,141.2,329.8,138.5,334.2,138.5z"/>
							<g>
								<path class="st2" d="M333.3,152.6c-6.1,0-11-4.9-11-11c0-6.1,4.9-11,11-11c2.4,0,4.7,0.8,6.6,2.2c0.4,0.3,0.5,0.9,0.2,1.3
									c-0.3,0.4-0.9,0.5-1.3,0.2c-1.6-1.2-3.5-1.8-5.5-1.8c-5.1,0-9.2,4.1-9.2,9.2c0,5.1,4.1,9.2,9.2,9.2c5.1,0,9.2-4.1,9.2-9.2
									c0-0.5,0.4-0.9,0.9-0.9c0.5,0,0.9,0.4,0.9,0.9C344.3,147.7,339.4,152.6,333.3,152.6z"/>
							</g>
						</g>
						<g>
							<path class="st2" d="M327.2,192.8c-0.5,0-0.9-0.4-0.9-0.9V177c0-0.5,0.4-0.9,0.9-0.9c0.5,0,0.9,0.4,0.9,0.9v14.9
								C328.1,192.4,327.7,192.8,327.2,192.8z"/>
						</g>
						<g>
							<path class="st2" d="M339.6,192.8c-0.5,0-0.9-0.4-0.9-0.9V177c0-0.5,0.4-0.9,0.9-0.9c0.5,0,0.9,0.4,0.9,0.9v14.9
								C340.5,192.4,340.1,192.8,339.6,192.8z"/>
						</g>
						<g>
							<path class="st2" d="M329.3,146c-0.5,0-0.9-0.4-0.9-0.9v-5.3c0-0.5,0.4-0.9,0.9-0.9s0.9,0.4,0.9,0.9v5.3
								C330.2,145.6,329.8,146,329.3,146z"/>
						</g>
					</g>
					<g>
						<path class="st2" d="M318.5,165.9c-2.9,0-6.1-0.4-9.8-1.5c-0.5-0.1-0.8-0.6-0.6-1.1c0.1-0.5,0.6-0.8,1.1-0.6
							c15.1,4.4,23.4-3.1,23.5-3.2c0.4-0.3,0.9-0.3,1.3,0c0.3,0.4,0.3,0.9,0,1.3C333.7,161.1,328.4,165.9,318.5,165.9z"/>
					</g>
				</g>
			</g>
			<g>
				<g>
					<g>
						<g>
							<path class="st1" d="M344,69.4c-2.3-7-12.2-7-14.4,0l-3.4,10.5h21.2L344,69.4z"/>
						</g>
						<g>
							<path class="st2" d="M326.2,80.8c-0.1,0-0.2,0-0.3,0c-0.5-0.2-0.7-0.7-0.6-1.1l3.4-10.5c1.2-3.6,4.3-5.9,8.1-5.9
								c3.8,0,6.9,2.3,8.1,5.9l3.4,10.5c0.2,0.5-0.1,1-0.6,1.1c-0.5,0.2-1-0.1-1.1-0.6l-3.4-10.5c-1.1-3.4-4-4.6-6.4-4.6
								c-2.3,0-5.2,1.2-6.4,4.6L327,80.2C326.9,80.6,326.6,80.8,326.2,80.8z"/>
						</g>
					</g>
					<g>
						<path class="st1" d="M326.4,59c0.4,5.5,5.1,9.8,10.7,9.4c5.5-0.4,9.8-5.1,9.4-10.7c-0.4-5.5-5.1-9.8-10.7-9.4
							C330.3,48.7,326.1,53.5,326.4,59z"/>
						<line class="st11" x1="346.9" y1="57.7" x2="342.1" y2="58"/>
						<path class="st6" d="M335.4,55.3c-4.3,0.3-7.8,3.3-9,7.2c-1-2.2-1.3-4.9-0.1-7.8c1.3-3.1,4-5.5,7.3-6.1
							c6.1-1.2,11.6,3.2,12,9.2c0.1,1.2-0.2,1.5-0.5,2.7C340.6,58.3,339.8,55,335.4,55.3z"/>
						<g>
							<path class="st2" d="M336.5,69.3c-5.7,0-10.6-4.5-10.9-10.3c0-0.2,0-0.4,0.2-0.6c0.1-0.2,3.1-4.2,7.9-4.7
								c3.1-0.3,6.1,0.9,9.1,3.6c0.4,0.3,0.4,0.9,0.1,1.3c-0.3,0.4-0.9,0.4-1.3,0.1c-2.6-2.3-5.2-3.4-7.7-3.1
								c-3.4,0.3-5.8,2.9-6.5,3.7c0.5,4.9,4.8,8.5,9.7,8.2c1.7-0.1,3.3-0.7,4.6-1.6c0.4-0.3,1-0.2,1.3,0.2c0.3,0.4,0.2,1-0.2,1.3
								c-1.6,1.1-3.6,1.8-5.6,1.9C337,69.3,336.7,69.3,336.5,69.3z"/>
						</g>
						<g>
							<path class="st2" d="M346.5,58.6c-0.5,0-0.9-0.4-0.9-0.8c-0.2-2.4-1.3-4.7-3.1-6.3c-1.8-1.6-4.2-2.4-6.6-2.3
								c-2,0.1-3.8,0.9-5.4,2.2c-0.4,0.3-0.9,0.3-1.3-0.1c-0.3-0.4-0.3-1,0.1-1.3c1.8-1.5,4-2.4,6.4-2.6c2.9-0.2,5.7,0.8,7.9,2.7
								c2.2,1.9,3.5,4.6,3.7,7.5C347.5,58.2,347.1,58.6,346.5,58.6C346.6,58.6,346.6,58.6,346.5,58.6z"/>
						</g>
						<g>
							<path class="st2" d="M334.2,63.9c-0.5,0-0.9-0.4-0.9-0.8l-0.2-3.3c0-0.5,0.3-0.9,0.8-1c0.5,0,0.9,0.3,1,0.8l0.2,3.3
								C335.2,63.5,334.8,63.9,334.2,63.9C334.3,63.9,334.3,63.9,334.2,63.9z"/>
						</g>
					</g>
				</g>
				<g>
					<path class="st2" d="M343.1,94.5c-0.5,0-0.9-0.4-0.9-0.9V74.3c0-0.5,0.4-0.9,0.9-0.9c0.5,0,0.9,0.4,0.9,0.9v19.3
						C344,94.1,343.6,94.5,343.1,94.5z"/>
				</g>
				<g>
					<path class="st2" d="M330.9,94.5c-0.5,0-0.9-0.4-0.9-0.9V74.3c0-0.5,0.4-0.9,0.9-0.9c0.5,0,0.9,0.4,0.9,0.9v19.3
						C331.9,94.1,331.4,94.5,330.9,94.5z"/>
				</g>
			</g>
			<g>
				<path class="st3" d="M408.8,204.3H188.2c-0.5,0-0.9-0.4-0.9-0.9c0-0.5,0.4-0.9,0.9-0.9h220.6c0.5,0,0.9,0.4,0.9,0.9
					C409.7,203.9,409.3,204.3,408.8,204.3z"/>
			</g>
		</g>
	</g>
</g>
</svg>
