<?xml version="1.0" encoding="utf-8"?>
<!-- Generator: Adobe Illustrator 22.0.0, SVG Export Plug-In . SVG Version: 6.00 Build 0)  -->
<svg version="1.1" id="Layer_1" xmlns="http://www.w3.org/2000/svg" xmlns:xlink="http://www.w3.org/1999/xlink" x="0px" y="0px"
	 viewBox="0 0 445.3 300.4" style="enable-background:new 0 0 445.3 300.4;" xml:space="preserve">
<style type="text/css">
	.st0{fill:#F2F2F2;}
	.st1{fill:#FFFFFF;}
	.st2{fill:#EE5451;}
	.st3{fill:#767576;}
	.st4{fill:#ED5652;}
	.st5{fill:#F69A80;}
	.st6{fill:#AAAAAA;}
</style>
<g>
	<g>
		<path class="st0" d="M110.3,295.3C101.3,293.8-7.6,280,0.4,178.4S18.5,46.3,60.8,35.1C103.1,23.9,206-29,286.8,21.3
			S454.6,116.7,420.1,197s-40.2,107.1-130.4,103C199.4,295.9,153.4,302.6,110.3,295.3z"/>
	</g>
	<g id="XMLID_28_">
		<g id="XMLID_36_">
			<path class="st1" d="M42.2,72.3h152.8c5.5,0,10.1,4.5,10.1,10.1v4c0,5.5-4.5,10.1-10.1,10.1H42.2c-5.5,0-10.1-4.5-10.1-10.1v-4
				C32.1,76.8,36.6,72.3,42.2,72.3z"/>
		</g>
		<g id="XMLID_35_">
			<path class="st1" d="M29.7,104.8h61.3c5.3,0,9.6,4.3,9.6,9.6l0,0c0,5.3-4.3,9.6-9.6,9.6H29.7c-5.3,0-9.6-4.3-9.6-9.6l0,0
				C20,109.1,24.3,104.8,29.7,104.8z"/>
		</g>
		<g id="XMLID_34_">
			<path class="st1" d="M18.2,45.5h61.3c5.3,0,9.6,4.3,9.6,9.6v0c0,5.3-4.3,9.6-9.6,9.6H18.2c-5.3,0-9.6-4.3-9.6-9.6v0
				C8.5,49.9,12.9,45.5,18.2,45.5z"/>
		</g>
		<g id="XMLID_33_">
			<path class="st1" d="M50.4,64c3,0,5.4,1.8,5.4,4.1s-2.4,4.1-5.4,4.1H74c-3,0-5.4-1.8-5.4-4.1S71,64,74,64H50.4z"/>
		</g>
		<g id="XMLID_30_">
			<path class="st1" d="M42.7,96.2c3.1,0,5.6,1.9,5.6,4.3s-2.5,4.3-5.6,4.3h24.6c-3.1,0-5.6-1.9-5.6-4.3s2.5-4.3,5.6-4.3H42.7z"/>
		</g>
	</g>
	<g id="XMLID_8_">
		<g id="XMLID_27_">
			<path class="st1" d="M411.7,203.9H258.9c-5.5,0-10.1-4.5-10.1-10.1v-4c0-5.5,4.5-10.1,10.1-10.1h152.8c5.5,0,10.1,4.5,10.1,10.1
				v4C421.8,199.4,417.3,203.9,411.7,203.9z"/>
		</g>
		<g id="XMLID_14_">
			<path class="st1" d="M424.2,171.4H363c-5.3,0-9.6-4.3-9.6-9.6l0,0c0-5.3,4.3-9.6,9.6-9.6h61.3c5.3,0,9.6,4.3,9.6,9.6l0,0
				C433.9,167.1,429.5,171.4,424.2,171.4z"/>
		</g>
		<g id="XMLID_13_">
			<path class="st1" d="M435.7,230.7h-61.3c-5.3,0-9.6-4.3-9.6-9.6l0,0c0-5.3,4.3-9.6,9.6-9.6h61.3c5.3,0,9.6,4.3,9.6,9.6l0,0
				C445.3,226.4,441,230.7,435.7,230.7z"/>
		</g>
		<g id="XMLID_10_">
			<path class="st1" d="M403.5,212.2c-3,0-5.4-1.8-5.4-4.1c0-2.3,2.4-4.1,5.4-4.1h-23.6c3,0,5.4,1.8,5.4,4.1c0,2.3-2.4,4.1-5.4,4.1
				H403.5z"/>
		</g>
		<g id="XMLID_9_">
			<path class="st1" d="M411.2,180c-3.1,0-5.6-1.9-5.6-4.3c0-2.4,2.5-4.3,5.6-4.3h-24.6c3.1,0,5.6,1.9,5.6,4.3
				c0,2.4-2.5,4.3-5.6,4.3H411.2z"/>
		</g>
	</g>
	<g>
		<g id="XMLID_106_">
			<path class="st1" d="M212.9,181.8c-0.4,0-23.3,0.1-23.3,0.1c-2.8,22.5-5.5,77-8.3,99.5c-0.1,1.2-0.3,2.4-1,3.3
				c-1.8,2.6-6.3,2.7-9,1.6c-2.5-1.1-4.4-3.6-4.4-6.3c0-6.2,4.8-4.6,8.7-5c2.4-0.2,3.9-3.1,3.2-5.4c-2.6-9.4-17.7-5.6-21.7,0.6
				c-2,3.1-3,7.3-6.4,9c-3.7,1.9-8.5-0.7-10-4.5c-1.5-3.8-0.5-8.2,1.5-11.8c3.1-5.5,8.5-9.6,14.6-11.4c6.4-1.9,14.5,1.9,20.1-0.9
				c3.2-1.6,4.5-5.7,3.7-9.1c-1.8-7.5-10-10.8-17-11.8c-20.8-3-46.6,7.7-51.1,29.8c-2.9,13.9,4.5,23.2,14.7,31.1l85.8,0L212.9,181.8
				z"/>
		</g>
		<g id="XMLID_57_">
			<path class="st1" d="M212.6,181.8c0.4,0,23.3,0.1,23.3,0.1c2.8,22.5,5.5,77,8.3,99.5c0.1,1.2,0.3,2.4,1,3.3
				c1.8,2.6,6.3,2.7,9,1.6c2.5-1.1,4.4-3.6,4.4-6.3c0-6.2-4.8-4.6-8.7-5c-2.4-0.2-3.9-3.1-3.2-5.4c2.6-9.4,17.7-5.6,21.7,0.6
				c2,3.1,3,7.3,6.4,9c3.7,1.9,8.5-0.7,10-4.5c1.5-3.8,0.5-8.2-1.5-11.8c-3.1-5.5-8.5-9.6-14.6-11.4c-6.4-1.9-14.5,1.9-20.1-0.9
				c-3.2-1.6-4.5-5.7-3.7-9.1c1.8-7.5,10-10.8,17-11.8c20.8-3,46.6,7.7,51.1,29.8c2.9,13.9-4.5,23.2-14.7,31.1l-85.8,0L212.6,181.8z
				"/>
		</g>
		<g>
			<g id="XMLID_82_">
				<path class="st2" d="M155.6,289.2c-0.3,0-0.5-0.1-0.6-0.4c-0.2-0.3,0-0.8,0.3-1c4.5-2.4,7.3-7,7.3-12c0-7.5-6.1-13.5-13.5-13.5
					c-0.7,0-1.4,0.1-2.1,0.2c-0.4,0.1-0.8-0.2-0.8-0.6c-0.1-0.4,0.2-0.8,0.6-0.8c0.8-0.1,1.6-0.2,2.4-0.2c8.3,0,15,6.7,15,15
					c0,5.6-3.1,10.7-8,13.3C155.8,289.2,155.7,289.2,155.6,289.2z"/>
			</g>
			<g id="XMLID_158_">
				<path class="st2" d="M172.9,247.5c-0.2,0-0.3-0.1-0.5-0.2c-0.9-0.8-1.9-1.5-2.8-2.1c-0.3-0.2-0.4-0.6-0.2-1
					c0.2-0.3,0.6-0.4,1-0.2c1,0.7,2.1,1.4,3,2.2c0.3,0.3,0.3,0.7,0.1,1C173.3,247.5,173.1,247.5,172.9,247.5z"/>
			</g>
			<g id="XMLID_81_">
				<path class="st2" d="M177.8,291.3h-56.6c-0.1,0-0.2,0-0.3-0.1c-6-3.2-9.7-9.3-9.7-16.1c0-10,8.1-18.2,18.2-18.2
					c0.7,0,1.5,0.1,2.3,0.2c4-10.4,13.6-17.1,24.7-17.1c3.6,0,7.2,0.7,10.5,2.1c0.4,0.2,0.5,0.6,0.4,0.9c-0.2,0.4-0.6,0.5-0.9,0.4
					c-3.1-1.3-6.5-2-9.9-2c-10.7,0-20,6.5-23.6,16.7c-0.1,0.3-0.4,0.5-0.8,0.5c-0.9-0.2-1.8-0.2-2.6-0.2c-9.2,0-16.7,7.5-16.7,16.7
					c0,6.2,3.4,11.8,8.8,14.7h56.4c0.4,0,0.7,0.3,0.7,0.7S178.2,291.3,177.8,291.3z"/>
			</g>
			<g id="XMLID_78_">
				<path class="st2" d="M189.5,291.3H186c-0.4,0-0.7-0.3-0.7-0.7s0.3-0.7,0.7-0.7h3.5c0.4,0,0.7,0.3,0.7,0.7
					S189.9,291.3,189.5,291.3z"/>
			</g>
			<g id="XMLID_77_">
				<path class="st2" d="M142.9,289.2c-0.3,0-0.5-0.1-0.6-0.4c-0.2-0.3,0-0.8,0.3-1c3-1.6,4.9-4.6,4.9-8c0-5-4.1-9-9-9
					c-0.5,0-0.9,0-1.4,0.1c-0.4,0.1-0.8-0.2-0.8-0.6c-0.1-0.4,0.2-0.8,0.6-0.8c0.6-0.1,1.1-0.2,1.7-0.2c5.8,0,10.5,4.7,10.5,10.5
					c0,3.9-2.1,7.4-5.6,9.3C143.2,289.2,143,289.2,142.9,289.2z"/>
			</g>
			<g id="XMLID_161_">
				<path class="st2" d="M211.3,263.1c-0.3,0-0.5-0.1-0.6-0.4c-2.4-4.5-7-7.3-12-7.3c-1.1,0-2.2,0.1-3.2,0.4
					c-0.4,0.1-0.8-0.1-0.9-0.5c-0.1-0.4,0.1-0.8,0.5-0.9c1.2-0.3,2.4-0.4,3.6-0.4c5.6,0,10.7,3.1,13.3,8c0.2,0.3,0,0.8-0.3,1
					C211.6,263.1,211.5,263.1,211.3,263.1z"/>
			</g>
			<g id="XMLID_149_">
				<path class="st2" d="M184.7,272c-0.3,0-0.6-0.2-0.7-0.6c-0.1-0.8-0.2-1.6-0.2-2.4c0-5.6,3.1-10.7,8.2-13.3c0.3-0.2,0.8,0,1,0.3
					c0.2,0.3,0,0.8-0.3,1c-4.6,2.3-7.4,7-7.4,12.1c0,0.7,0.1,1.4,0.2,2.1c0.1,0.4-0.2,0.8-0.6,0.8C184.7,272,184.7,272,184.7,272z"
					/>
			</g>
			<g id="XMLID_151_">
				<path class="st2" d="M161,262.9c-0.3,0-0.6-0.2-0.7-0.6c-0.1-0.6-0.2-1.2-0.2-1.8c0-6.2,5-11.2,11.2-11.2c4.2,0,8,2.3,10,6
					c0.2,0.3,0,0.8-0.3,1c-0.3,0.2-0.8,0-1-0.3c-1.7-3.3-5-5.3-8.7-5.3c-5.4,0-9.8,4.4-9.8,9.8c0,0.5,0,1,0.1,1.5
					c0.1,0.4-0.2,0.8-0.6,0.8C161,262.9,161,262.9,161,262.9z"/>
			</g>
			<g id="XMLID_153_">
				<path class="st2" d="M201.9,288.3c-0.1,0-0.1,0-0.2,0c-0.7-0.2-1.3-0.4-1.8-0.6c-3-1.3-5.2-3.7-6.4-6.8c-1.2-3-1.1-6.3,0.3-9.3
					c1.8-4.1,5.8-6.9,10.3-7.2c0.4,0,0.7,0.3,0.8,0.7c0,0.4-0.3,0.7-0.7,0.8c-4,0.3-7.5,2.7-9.1,6.3c-1.2,2.6-1.2,5.5-0.2,8.2
					c1,2.7,3,4.8,5.6,6c0.5,0.2,1,0.4,1.6,0.5c0.4,0.1,0.6,0.5,0.5,0.9C202.5,288.1,202.2,288.3,201.9,288.3z"/>
			</g>
		</g>
		<g>
			<g id="XMLID_148_">
				<path class="st2" d="M269.3,289.2c-0.1,0-0.2,0-0.3-0.1c-4.9-2.6-8-7.7-8-13.3c0-8.3,6.7-15,15-15c0.8,0,1.5,0.1,2.4,0.2
					c0.4,0.1,0.6,0.4,0.6,0.8s-0.4,0.6-0.8,0.6c-0.7-0.1-1.4-0.2-2.1-0.2c-7.5,0-13.5,6.1-13.5,13.5c0,5,2.8,9.6,7.3,12
					c0.3,0.2,0.5,0.6,0.3,1C269.8,289.1,269.5,289.2,269.3,289.2z"/>
			</g>
			<g id="XMLID_162_">
				<path class="st2" d="M303.6,291.3h-56.6c-0.4,0-0.7-0.3-0.7-0.7s0.3-0.7,0.7-0.7h56.4c5.4-2.9,8.8-8.6,8.8-14.7
					c0-9.2-7.5-16.7-16.7-16.7c-0.8,0-1.7,0.1-2.6,0.2c-0.3,0.1-0.7-0.1-0.8-0.5c-1.8-4.9-4.9-9.1-9-12c-0.3-0.2-0.4-0.7-0.2-1
					c0.2-0.3,0.7-0.4,1-0.2c4.2,3,7.5,7.2,9.3,12.2c0.8-0.1,1.5-0.2,2.3-0.2c10,0,18.2,8.1,18.2,18.2c0,6.8-3.7,12.9-9.7,16.1
					C303.9,291.2,303.7,291.3,303.6,291.3z"/>
			</g>
			<g id="XMLID_147_">
				<path class="st2" d="M251.9,247.5c-0.2,0-0.4-0.1-0.5-0.3c-0.3-0.3-0.2-0.7,0.1-1c4.7-4,10.8-6.2,17.1-6.2
					c3.8,0,7.4,0.8,10.8,2.3c0.4,0.2,0.5,0.6,0.4,0.9c-0.2,0.4-0.6,0.5-0.9,0.4c-3.2-1.4-6.7-2.2-10.2-2.2c-5.9,0-11.7,2.1-16.2,5.9
					C252.3,247.5,252.1,247.5,251.9,247.5z"/>
			</g>
			<g id="XMLID_75_">
				<path class="st2" d="M238.8,291.3h-3.5c-0.4,0-0.7-0.3-0.7-0.7s0.3-0.7,0.7-0.7h3.5c0.4,0,0.7,0.3,0.7,0.7
					S239.2,291.3,238.8,291.3z"/>
			</g>
			<g id="XMLID_68_">
				<path class="st2" d="M281.9,289.2c-0.1,0-0.2,0-0.3-0.1c-3.5-1.8-5.6-5.4-5.6-9.3c0-5.8,4.7-10.5,10.5-10.5c0.5,0,1.1,0,1.7,0.2
					c0.4,0.1,0.6,0.4,0.6,0.8c-0.1,0.4-0.4,0.6-0.8,0.6c-0.5-0.1-1-0.1-1.4-0.1c-5,0-9,4.1-9,9c0,3.4,1.9,6.4,4.9,8
					c0.3,0.2,0.5,0.6,0.3,1C282.4,289.1,282.2,289.2,281.9,289.2z"/>
			</g>
			<g id="XMLID_67_">
				<path class="st2" d="M240.2,272c0,0-0.1,0-0.1,0c-0.4-0.1-0.6-0.4-0.6-0.8c0.1-0.7,0.2-1.4,0.2-2.1c0-7.5-6.1-13.5-13.5-13.5
					c-5,0-9.6,2.8-12,7.3c-0.2,0.3-0.6,0.5-1,0.3c-0.3-0.2-0.5-0.6-0.3-1c2.6-4.9,7.7-8,13.3-8c8.3,0,15,6.7,15,15
					c0,0.8-0.1,1.5-0.2,2.4C240.8,271.7,240.5,272,240.2,272z"/>
			</g>
			<g id="XMLID_66_">
				<path class="st2" d="M263.9,262.9c0,0-0.1,0-0.1,0c-0.4-0.1-0.6-0.4-0.6-0.8c0.1-0.5,0.1-1,0.1-1.5c0-5.4-4.4-9.8-9.8-9.8
					c-3.7,0-7,2-8.7,5.3c-0.2,0.3-0.6,0.5-1,0.3c-0.3-0.2-0.5-0.6-0.3-1c2-3.7,5.8-6,10-6c6.2,0,11.2,5,11.2,11.2
					c0,0.6-0.1,1.2-0.2,1.8C264.5,262.6,264.2,262.9,263.9,262.9z"/>
			</g>
			<g id="XMLID_163_">
				<path class="st2" d="M223,288.3c-0.3,0-0.6-0.2-0.7-0.5c-0.1-0.4,0.1-0.8,0.5-0.9c0.6-0.1,1.1-0.3,1.6-0.5
					c4.8-2.2,7.4-7.6,5.9-12.7c-0.1-0.4,0.1-0.8,0.5-0.9c0.4-0.1,0.8,0.1,0.9,0.5c1.6,5.8-1.3,12-6.7,14.4c-0.6,0.3-1.2,0.5-1.8,0.6
					C223.1,288.3,223,288.3,223,288.3z"/>
			</g>
			<g id="XMLID_65_">
				<path class="st2" d="M227.7,268.8c-0.2,0-0.3-0.1-0.5-0.2c-1.8-1.6-4.1-2.6-6.6-2.8c-0.4,0-0.7-0.4-0.7-0.8
					c0-0.4,0.4-0.7,0.8-0.7c2.8,0.2,5.4,1.3,7.4,3.1c0.3,0.3,0.3,0.7,0,1C228.1,268.7,227.9,268.8,227.7,268.8z"/>
			</g>
		</g>
	</g>
	<g>
		<g>
			<path class="st3" d="M188.2,215.2c-0.4,0-0.7-0.3-0.7-0.7V204c0-0.4,0.3-0.7,0.7-0.7c0.4,0,0.7,0.3,0.7,0.7v10.5
				C188.9,214.9,188.6,215.2,188.2,215.2z"/>
		</g>
		<g>
			<path class="st3" d="M183.6,220.9c-0.4,0-0.7-0.3-0.7-0.7v-13c0-0.4,0.3-0.7,0.7-0.7c0.4,0,0.7,0.3,0.7,0.7v13
				C184.3,220.6,184,220.9,183.6,220.9z"/>
		</g>
		<g>
			<path class="st3" d="M177.7,217.9c-0.4,0-0.7-0.3-0.7-0.7v-8.5c0-0.4,0.3-0.7,0.7-0.7c0.4,0,0.7,0.3,0.7,0.7v8.5
				C178.4,217.6,178.1,217.9,177.7,217.9z"/>
		</g>
		<g>
			<path class="st3" d="M177.7,237c-0.4,0-0.7-0.3-0.7-0.7v-13c0-0.4,0.3-0.7,0.7-0.7c0.4,0,0.7,0.3,0.7,0.7v13
				C178.4,236.7,178.1,237,177.7,237z"/>
		</g>
		<g>
			<path class="st3" d="M183.6,232.5c-0.4,0-0.7-0.3-0.7-0.7v-5.7c0-0.4,0.3-0.7,0.7-0.7c0.4,0,0.7,0.3,0.7,0.7v5.7
				C184.3,232.2,184,232.5,183.6,232.5z"/>
		</g>
		<g>
			<path class="st3" d="M188.2,235.4c-0.4,0-0.7-0.3-0.7-0.7V229c0-0.4,0.3-0.7,0.7-0.7c0.4,0,0.7,0.3,0.7,0.7v5.7
				C188.9,235.1,188.6,235.4,188.2,235.4z"/>
		</g>
		<g>
			<path class="st3" d="M172.8,231.7c-0.4,0-0.7-0.3-0.7-0.7v-5.7c0-0.4,0.3-0.7,0.7-0.7c0.4,0,0.7,0.3,0.7,0.7v5.7
				C173.5,231.4,173.2,231.7,172.8,231.7z"/>
		</g>
		<g>
			<path class="st3" d="M172.8,215.2c-0.4,0-0.7-0.3-0.7-0.7v-10.6c0-0.4,0.3-0.7,0.7-0.7c0.4,0,0.7,0.3,0.7,0.7v10.6
				C173.5,214.9,173.2,215.2,172.8,215.2z"/>
		</g>
	</g>
	<g>
		<g>
			<path class="st3" d="M238.7,215.3c-0.4,0-0.7-0.3-0.7-0.7v-10.5c0-0.4,0.3-0.7,0.7-0.7c0.4,0,0.7,0.3,0.7,0.7v10.5
				C239.4,215,239.1,215.3,238.7,215.3z"/>
		</g>
		<g>
			<path class="st3" d="M243.3,221c-0.4,0-0.7-0.3-0.7-0.7v-13c0-0.4,0.3-0.7,0.7-0.7c0.4,0,0.7,0.3,0.7,0.7v13
				C244,220.7,243.7,221,243.3,221z"/>
		</g>
		<g>
			<path class="st3" d="M249.2,218c-0.4,0-0.7-0.3-0.7-0.7v-8.5c0-0.4,0.3-0.7,0.7-0.7c0.4,0,0.7,0.3,0.7,0.7v8.5
				C249.9,217.7,249.6,218,249.2,218z"/>
		</g>
		<g>
			<path class="st3" d="M249.2,237.2c-0.4,0-0.7-0.3-0.7-0.7v-13c0-0.4,0.3-0.7,0.7-0.7c0.4,0,0.7,0.3,0.7,0.7v13
				C249.9,236.8,249.6,237.2,249.2,237.2z"/>
		</g>
		<g>
			<path class="st3" d="M243.3,232.7c-0.4,0-0.7-0.3-0.7-0.7v-5.7c0-0.4,0.3-0.7,0.7-0.7c0.4,0,0.7,0.3,0.7,0.7v5.7
				C244,232.3,243.7,232.7,243.3,232.7z"/>
		</g>
		<g>
			<path class="st3" d="M238.7,235.5c-0.4,0-0.7-0.3-0.7-0.7v-5.7c0-0.4,0.3-0.7,0.7-0.7c0.4,0,0.7,0.3,0.7,0.7v5.7
				C239.4,235.2,239.1,235.5,238.7,235.5z"/>
		</g>
		<g>
			<path class="st3" d="M254.1,231.8c-0.4,0-0.7-0.3-0.7-0.7v-5.7c0-0.4,0.3-0.7,0.7-0.7c0.4,0,0.7,0.3,0.7,0.7v5.7
				C254.8,231.5,254.5,231.8,254.1,231.8z"/>
		</g>
		<g>
			<path class="st3" d="M254.1,215.3c-0.4,0-0.7-0.3-0.7-0.7V204c0-0.4,0.3-0.7,0.7-0.7c0.4,0,0.7,0.3,0.7,0.7v10.6
				C254.8,215,254.5,215.3,254.1,215.3z"/>
		</g>
	</g>
	<g>
		<g>
			<g>
				<path class="st1" d="M174.7,168.3h-41.8V165c0-9.3,2.8-18.3,7.8-25.2l34.1-47.5V168.3z"/>
			</g>
			<g>
				<path class="st1" d="M178.2,171.8h-41.8v-3.2c0-9.3,2.8-18.3,7.8-25.2l34.1-47.5V171.8z"/>
			</g>
			<g>
				<path class="st4" d="M174.7,169h-41.8c-0.4,0-0.7-0.3-0.7-0.7V165c0-9.4,2.8-18.5,7.9-25.6l34.1-47.5c0.2-0.3,0.5-0.4,0.8-0.3
					c0.3,0.1,0.5,0.4,0.5,0.7v76C175.4,168.7,175,169,174.7,169z M133.5,167.6h40.4V94.5l-32.8,45.7c-4.9,6.9-7.6,15.7-7.6,24.8
					V167.6z"/>
			</g>
		</g>
		<g>
			<path class="st1" d="M251,177.5h-76.4V78.9c-0.3-25,9.7-43.7,18.2-55C202,11.6,211.2,5.3,211.5,5l1.2-0.8l1.2,0.8
				c0.4,0.3,37.6,25.8,37.1,73.8L251,177.5z"/>
		</g>
		<g>
			<path class="st1" d="M254.6,181h-76.4V82.4c-0.3-25,9.7-43.7,18.2-55c9.2-12.3,18.3-18.5,18.7-18.8l1.2-0.8l1.2,0.8
				c0.4,0.3,37.6,25.8,37.1,73.8L254.6,181z"/>
		</g>
		<g>
			<g>
				<path class="st1" d="M250.8,168.3h41.8V165c0-9.3-2.8-18.3-7.8-25.2l-34.1-47.5V168.3z"/>
			</g>
			<g>
				<path class="st1" d="M254.3,171.8h41.8v-3.2c0-9.3-2.8-18.3-7.8-25.2l-34.1-47.5V171.8z"/>
			</g>
			<g>
				<path class="st4" d="M293,169h-41.8c-0.4,0-0.7-0.3-0.7-0.7v-76c0-0.3,0.2-0.6,0.5-0.7c0.3-0.1,0.6,0,0.8,0.3l34.1,47.5
					c5.1,7.1,7.9,16.2,7.9,25.6v3.2C293.7,168.7,293.4,169,293,169z M251.9,167.6h40.4V165c0-9.1-2.7-18-7.6-24.8l-32.8-45.7V167.6z
					"/>
			</g>
		</g>
		<g>
			<g>
				<path class="st4" d="M251,178.2h-76.4c-0.4,0-0.7-0.3-0.7-0.7V78.9c-0.3-25.2,9.8-44.1,18.3-55.4c9.3-12.4,18.5-18.7,18.9-19
					l1.2-0.8c0.2-0.2,0.6-0.2,0.8,0l1.2,0.8c0.4,0.3,38,26,37.4,74.4l0,98.6c0,0.2-0.1,0.4-0.2,0.5S251.2,178.2,251,178.2z
					 M175.4,176.8h75l0-97.9c0.5-47.6-36.4-73-36.8-73.2l-0.8-0.5l-0.8,0.5c-0.4,0.3-9.4,6.4-18.6,18.6c-8.4,11.2-18.3,29.8-18,54.6
					V176.8z"/>
			</g>
			<g>
				<path class="st4" d="M212.8,55.3c-11.7,0-23-2.6-31.9-7.4l-1-0.5c-0.3-0.2-0.5-0.5-0.3-0.9l0.3-0.9
					c9.7-26.9,30.4-40.8,31.3-41.3l1.1-0.8c0.2-0.2,0.5-0.2,0.8,0l1.1,0.8c0.9,0.6,21.7,14.3,31.5,41.3l0.3,0.9
					c0.1,0.3,0,0.7-0.3,0.9l-1,0.5C235.9,52.7,224.5,55.3,212.8,55.3z M181.1,46.5l0.4,0.2c8.7,4.7,19.8,7.2,31.3,7.2
					c11.4,0,22.6-2.6,31.3-7.2l0.4-0.2l-0.1-0.3c-9.7-26.6-30.1-40.1-30.9-40.6L212.7,5L212,5.5c-0.9,0.6-21.2,14.2-30.8,40.6
					L181.1,46.5z"/>
			</g>
		</g>
		<g>
			<g>
				<path class="st1" d="M216.8,112.8L216.8,112.8c-10.8,0-19.6-8.8-19.6-19.6c0-10.8,8.7-19.7,19.5-19.7c10.8,0,19.6,8.8,19.6,19.6
					C236.4,104,227.6,112.8,216.8,112.8z"/>
			</g>
			<g>
				<path class="st4" d="M213.3,110C213.3,110,213.3,110,213.3,110L213.3,110c-11.2,0-20.3-9.1-20.3-20.3c0-11.2,9.1-20.4,20.2-20.4
					c11.2,0,20.3,9.1,20.3,20.3C233.5,100.8,224.4,110,213.3,110z M213.2,70.7c-10.4,0-18.8,8.5-18.8,19c0,10.4,8.5,18.9,18.9,18.9
					l0,0.7l0-0.7c10.4,0,18.8-8.5,18.8-19C232.1,79.2,223.6,70.7,213.2,70.7z"/>
			</g>
		</g>
		<g>
			<g>
				<path class="st1" d="M216.3,165.5c-4.8,0-8.7-3.9-8.7-8.7v-20.5c0-4.8,3.9-8.7,8.7-8.7c4.8,0,8.7,3.9,8.7,8.7v20.5
					C224.9,161.6,221,165.5,216.3,165.5z"/>
			</g>
			<g>
				<path class="st4" d="M212.7,162.7c-5.2,0-9.4-4.2-9.4-9.4v-20.5c0-5.2,4.2-9.4,9.4-9.4s9.4,4.2,9.4,9.4v20.5
					C222.1,158.5,217.9,162.7,212.7,162.7z M212.7,124.9c-4.4,0-8,3.6-8,8v20.5c0,4.4,3.6,8,8,8c4.4,0,8-3.6,8-8v-20.5
					C220.7,128.4,217.1,124.9,212.7,124.9z"/>
			</g>
		</g>
		<g>
			<g>
				<path class="st1" d="M258.7,197.2v-20.9c0-6.1-5.5-11-12.3-11c-6.8,0-12.3,4.9-12.3,11v20.9H258.7z"/>
			</g>
			<g>
				<path class="st1" d="M261.1,199.7v-20.9c0-6.1-5.5-11-12.3-11c-6.8,0-12.3,4.9-12.3,11v20.9H261.1z"/>
			</g>
			<g>
				<path class="st4" d="M258.7,197.9h-24.5c-0.4,0-0.7-0.3-0.7-0.7v-20.5c0-6.7,5.8-12.1,13-12.1c7.2,0,13,5.4,13,12.1v20.5
					C259.4,197.6,259.1,197.9,258.7,197.9z M234.8,196.5H258v-19.8c0-5.9-5.2-10.7-11.6-10.7c-6.4,0-11.6,4.8-11.6,10.7V196.5z"/>
			</g>
			<g>
				<path class="st1" d="M192.8,197.7v-20.9c0-6.1-5.5-11-12.3-11c-6.8,0-12.3,4.9-12.3,11v20.9H192.8z"/>
			</g>
			<g>
				<path class="st1" d="M195.3,200.1h-24.5v-20.5c0-6.3,5.5-11.4,12.3-11.4s12.3,5.1,12.3,11.4V200.1z"/>
			</g>
			<g>
				<path class="st4" d="M192.8,198.4h-24.5c-0.4,0-0.7-0.3-0.7-0.7v-20.5c0-6.7,5.8-12.1,13-12.1c7.2,0,13,5.4,13,12.1v20.5
					C193.5,198.1,193.2,198.4,192.8,198.4z M168.9,197h23.1v-19.8c0-5.9-5.2-10.7-11.6-10.7c-6.4,0-11.6,4.8-11.6,10.7V197z"/>
			</g>
		</g>
	</g>
	<g>
		<g id="XMLID_4_">
			<ellipse class="st5" cx="192.8" cy="39.7" rx="2.7" ry="3.6"/>
		</g>
		<g id="XMLID_2_">
			<path class="st5" d="M235.4,39.7c0,2-1.2,3.6-2.7,3.6c-1.5,0-2.7-1.6-2.7-3.6c0-2,1.2-3.6,2.7-3.6
				C234.2,36.1,235.4,37.7,235.4,39.7z"/>
		</g>
		<g>
			<path class="st3" d="M205.8,33.7C205.8,33.7,205.8,33.7,205.8,33.7c-0.4,0-0.7-0.4-0.7-0.7c0.1-1.5-1.1-2.8-2.6-2.8
				c-0.7,0-1.4,0.2-1.9,0.7c-0.5,0.5-0.9,1.1-0.9,1.9c0,0.4-0.4,0.7-0.7,0.7c-0.4,0-0.7-0.4-0.7-0.7c0.1-2.3,2.1-4,4.3-3.9
				c1.1,0.1,2.1,0.5,2.8,1.4c0.7,0.8,1.1,1.9,1.1,3C206.5,33.4,206.2,33.7,205.8,33.7z"/>
		</g>
		<g>
			<path class="st3" d="M227.4,34.1C227.4,34.1,227.4,34.1,227.4,34.1c-0.4,0-0.7-0.4-0.7-0.7c0-0.7-0.2-1.4-0.7-1.9
				c-0.5-0.5-1.1-0.9-1.9-0.9c-1.5-0.1-2.8,1.1-2.8,2.6c0,0.4-0.4,0.7-0.7,0.7c-0.4,0-0.7-0.4-0.7-0.7c0.1-2.3,2.1-4,4.3-3.9
				c1.1,0.1,2.1,0.5,2.8,1.4c0.7,0.8,1.1,1.9,1.1,3C228.1,33.8,227.8,34.1,227.4,34.1z"/>
		</g>
		<g id="XMLID_1_">
			<path class="st3" d="M210.4,39.6c-0.6,0-1,0.8-0.8,1.6c0.4,2.4,1.9,4.1,3.6,4.2c1.7,0,3.2-1.7,3.7-4.1c0.2-0.8-0.2-1.7-0.8-1.7
				L210.4,39.6z"/>
		</g>
	</g>
	<g id="XMLID_79_">
		<g id="XMLID_117_">
			<g id="XMLID_118_">
				<rect x="352.6" y="12.3" class="st6" width="2.1" height="5.3"/>
			</g>
		</g>
		<g id="XMLID_113_">
			<g id="XMLID_114_">
				<rect x="352.6" y="22.9" class="st6" width="2.1" height="5.3"/>
			</g>
		</g>
		<g id="XMLID_84_">
			<g id="XMLID_112_">
				<rect x="345.6" y="19.1" class="st6" width="5.3" height="2.1"/>
			</g>
		</g>
		<g id="XMLID_80_">
			<g id="XMLID_83_">
				<rect x="356.3" y="19.1" class="st6" width="5.3" height="2.1"/>
			</g>
		</g>
	</g>
	<g id="XMLID_69_">
		<g id="XMLID_76_">
			<g id="XMLID_53_">
				<rect x="123" y="20.2" class="st6" width="2.1" height="5.3"/>
			</g>
		</g>
		<g id="XMLID_74_">
			<g id="XMLID_52_">
				<rect x="123" y="30.9" class="st6" width="2.1" height="5.3"/>
			</g>
		</g>
		<g id="XMLID_72_">
			<g id="XMLID_73_">
				<rect x="116" y="27.1" class="st6" width="5.3" height="2.1"/>
			</g>
		</g>
		<g id="XMLID_70_">
			<g id="XMLID_71_">
				<rect x="126.7" y="27.1" class="st6" width="5.3" height="2.1"/>
			</g>
		</g>
	</g>
	<g id="XMLID_60_">
		<g id="XMLID_50_">
			<g id="XMLID_51_">
				<rect x="340.7" y="242" class="st5" width="2.1" height="5.3"/>
			</g>
		</g>
		<g id="XMLID_7_">
			<g id="XMLID_49_">
				<rect x="340.7" y="252.7" class="st5" width="2.1" height="5.3"/>
			</g>
		</g>
		<g id="XMLID_63_">
			<g id="XMLID_64_">
				<rect x="333.8" y="248.9" class="st5" width="5.3" height="2.1"/>
			</g>
		</g>
		<g id="XMLID_61_">
			<g id="XMLID_62_">
				<rect x="344.5" y="248.9" class="st5" width="5.3" height="2.1"/>
			</g>
		</g>
	</g>
	<g id="XMLID_46_">
		<g id="XMLID_58_">
			<g id="XMLID_59_">
				<rect x="34" y="165.8" class="st5" width="2.1" height="5.3"/>
			</g>
		</g>
		<g id="XMLID_56_">
			<g id="XMLID_6_">
				<rect x="34" y="176.4" class="st5" width="2.1" height="5.3"/>
			</g>
		</g>
		<g id="XMLID_54_">
			<g id="XMLID_55_">
				<rect x="27.1" y="172.6" class="st5" width="5.3" height="2.1"/>
			</g>
		</g>
		<g id="XMLID_47_">
			<g id="XMLID_48_">
				<rect x="37.8" y="172.6" class="st5" width="5.3" height="2.1"/>
			</g>
		</g>
	</g>
	<g id="XMLID_37_">
		<g id="XMLID_44_">
			<g id="XMLID_45_">
				<rect x="295.2" y="64.3" class="st5" width="2.1" height="5.3"/>
			</g>
		</g>
		<g id="XMLID_42_">
			<g id="XMLID_43_">
				<rect x="295.2" y="75" class="st5" width="2.1" height="5.3"/>
			</g>
		</g>
		<g id="XMLID_40_">
			<g id="XMLID_41_">
				<rect x="288.2" y="71.2" class="st5" width="5.3" height="2.1"/>
			</g>
		</g>
		<g id="XMLID_38_">
			<g id="XMLID_39_">
				<rect x="298.9" y="71.2" class="st5" width="5.3" height="2.1"/>
			</g>
		</g>
	</g>
	<g id="XMLID_20_">
		<g id="XMLID_29_">
			<g id="XMLID_31_">
				<rect x="341.8" y="125.3" class="st6" width="2.1" height="5.3"/>
			</g>
		</g>
		<g id="XMLID_25_">
			<g id="XMLID_26_">
				<rect x="341.8" y="136" class="st6" width="2.1" height="5.3"/>
			</g>
		</g>
		<g id="XMLID_23_">
			<g id="XMLID_24_">
				<rect x="334.9" y="132.2" class="st6" width="5.3" height="2.1"/>
			</g>
		</g>
		<g id="XMLID_21_">
			<g id="XMLID_22_">
				<rect x="345.6" y="132.2" class="st6" width="5.3" height="2.1"/>
			</g>
		</g>
	</g>
	<g id="XMLID_3_">
		<g id="XMLID_18_">
			<g id="XMLID_19_">
				<rect x="103.2" y="204.2" class="st6" width="2.1" height="5.3"/>
			</g>
		</g>
		<g id="XMLID_16_">
			<g id="XMLID_17_">
				<rect x="103.2" y="214.9" class="st6" width="2.1" height="5.3"/>
			</g>
		</g>
		<g id="XMLID_12_">
			<g id="XMLID_15_">
				<rect x="96.2" y="211.1" class="st6" width="5.3" height="2.1"/>
			</g>
		</g>
		<g id="XMLID_5_">
			<g id="XMLID_11_">
				<rect x="106.9" y="211.1" class="st6" width="5.3" height="2.1"/>
			</g>
		</g>
	</g>
</g>
</svg>
