<?xml version="1.0" encoding="utf-8"?>
<!-- Generator: Adobe Illustrator 22.0.0, SVG Export Plug-In . SVG Version: 6.00 Build 0)  -->
<svg version="1.1" id="_x2014_ÎÓÈ_x5F_2" xmlns="http://www.w3.org/2000/svg" xmlns:xlink="http://www.w3.org/1999/xlink"
	 x="0px" y="0px" viewBox="0 0 1012.5 872.1" style="enable-background:new 0 0 1012.5 872.1;" xml:space="preserve">
<style type="text/css">
	.st0{opacity:0.7;}
	.st1{fill:#FFFFFF;}
	.st2{fill:#AAAAAA;}
	.st3{fill:#C4DDF4;}
	.st4{fill:#C5FFF9;}
	.st5{fill:#F4CAC1;}
	.st6{fill:#F9F9F9;}
	.st7{fill:#757575;}
	.st8{fill:#B0F5BE;}
	.st9{fill:#99E0A3;}
	.st10{fill:#D2FFD9;}
</style>
<g>
	<g class="st0">
		<g>
			<g>
				<path class="st1" d="M167.8,205.4c-4.6,6.5-6.6,23.7-6.6,23.7s-10.8-14.7-18.2-19.4c-7.6-4.8-24-8-24-8s13.3-7.8,17.7-14.1
					c4.5-6.3,9.1-23.8,9.1-23.8s8.5,12.1,16.2,16.9c6.7,4.2,24.6,8.4,24.6,8.4S172.9,198.2,167.8,205.4z"/>
				<g>
					<path class="st2" d="M165.2,205.3c-4.5,6.9-5.8,16.1-6.8,24.1c1.8-0.5,3.6-1,5.4-1.4c-5.1-6.9-10.9-14.6-18.1-19.3
						c-7.2-4.8-16.7-6.9-25-8.5c0,0.9,0.1,1.7,0.1,2.6c7-4.1,15.2-9.1,19.4-16.2c4.1-6.9,6.4-15.3,8.4-23c-1.8,0.5-3.6,1-5.4,1.4
						c4.9,6.9,10.8,14.3,18.4,18.3c7.1,3.7,15.4,5.7,23.2,7.6c0-0.9-0.1-1.7-0.1-2.6C177.6,193,170.3,198.4,165.2,205.3
						c-1.6,2.1,4.1,1.8,5.3,0.3c4.7-6.2,11.4-11.1,17.8-15.4c1.1-0.7,1.6-2.2-0.1-2.6c-7.4-1.8-15.3-3.7-22.1-7.2
						c-7.3-3.8-13-11.1-17.7-17.7c-1.1-1.6-5-0.2-5.4,1.4c-1.9,7.1-4,14.6-7.5,21.1c-3.8,6.9-11.6,11.6-18.3,15.6
						c-1.1,0.7-1.6,2.2,0.1,2.6c8,1.6,17.1,3.5,24,8.1c6.9,4.7,12.5,12.1,17.4,18.8c1.1,1.4,5.2,0.3,5.4-1.4
						c0.9-7.7,2.2-16.6,6.4-23.2C171.9,203.3,166.3,203.6,165.2,205.3z"/>
				</g>
			</g>
			<g>
				<path class="st1" d="M743.7,128.8c-7.9,0-23.1,8.3-23.1,8.3s5.8-17.3,5.3-26.1c-0.5-9-7.4-24.2-7.4-24.2s14,6.4,21.7,6.4
					c7.7,0,24.7-6.4,24.7-6.4s-4.9,14-4.5,23c0.4,7.9,7.3,24.9,7.3,24.9S752.4,128.8,743.7,128.8z"/>
				<g>
					<path class="st2" d="M744,127.1c-8.8,0.4-17.6,4.9-25.3,9c1.5,0.2,3.1,0.4,4.6,0.6c2.6-7.9,5.4-16.7,5.3-25.1
						c0-8.7-3.9-17.7-7.4-25.6c-1.7,0.7-3.3,1.5-5,2.2c7.7,3.4,16.6,7.2,25.2,6.5c8.4-0.7,16.8-3.8,24.6-6.7c-1.3-0.3-2.6-0.6-4-1
						c-2.7,7.8-5.3,16.7-4.3,25c1,8,4.2,15.9,7.2,23.3c1.7-0.7,3.3-1.5,5-2.2c-8-3-16.6-5.9-25.2-6.1c-2.3-0.1-5.9,3.3-2.1,3.4
						c7.8,0.2,15.7,2.8,22.9,5.5c1.1,0.4,5.9,0,5-2.2c-2.9-7.1-5.7-14.6-7-22.2c-1.4-8.3,1.4-17.5,4.1-25.3c0.7-1.9-3.3-1.2-4-1
						c-6.5,2.4-13.6,5-20.5,5.8c-7.5,0.8-15.8-2.9-22.6-5.9c-1.1-0.5-5.9,0.1-5,2.2c3.4,7.7,7.3,16.6,7.3,25.2
						c0,8.3-2.7,16.9-5.3,24.7c-0.7,2.2,3.9,1,4.6,0.6c6.3-3.4,13.8-7.2,21-7.5C746.2,130.3,747.9,126.9,744,127.1z"/>
				</g>
			</g>
			<g>
				<path class="st3" d="M931.6,142.2L909.4,123c-1.4-1.2-1.6-3.3-0.3-4.8l33.2-38.2c1.2-1.4,3.3-1.5,4.7-0.4l22.9,18.6
					c1.5,1.2,1.7,3.4,0.4,4.8l-33.9,38.8C935.1,143.2,933,143.4,931.6,142.2z"/>
				<g>
					<path class="st2" d="M962.5,108.3c-7.2,8.2-14.3,16.4-21.5,24.6c-1.4,1.6-5.8,7.9-7.3,7.6c-1.1-0.2-2.9-2.5-3.8-3.3
						c-2.7-2.4-5.4-4.7-8.2-7.1c-2.3-2-11.6-7.6-10.3-11.3c1.1-3,5.8-6.6,7.9-9c4.7-5.4,9.5-10.9,14.2-16.3c3-3.4,6.3-9.1,10.1-11.6
						c1.5-1,0.3-0.8,1.8,0c2.5,1.3,4.9,4.2,7.1,6c4.6,3.9,9.2,7.8,13.9,11.7c1.9,1.6,6.8-1.2,4.3-3.2c-4.9-4.1-9.8-8.3-14.7-12.4
						c-3.8-3.2-8.5-9.1-14-6.3c-3.5,1.8-6.3,6.4-8.8,9.3c-5.4,6.2-10.8,12.4-16.2,18.6c-3.3,3.8-7.3,7.6-10.2,11.8
						c-3.6,5.1,1.4,8.2,4.9,11.2c5.5,4.8,10.9,9.9,16.6,14.4c4.2,3.3,8.1,2.2,11.5-1.6c9.3-10.3,18.2-20.9,27.3-31.4
						C969.5,107.2,964.2,106.4,962.5,108.3L962.5,108.3z"/>
				</g>
			</g>
			<g>
				<path class="st4" d="M274.8,148.3l-25.4,1.8c-1.6,0.1-3-1.3-3.2-3.2l-3.5-50.5c-0.1-1.8,1-3.4,2.6-3.5l25.4-2.8
					c1.6-0.2,3.1,1.2,3.2,3.2l3.5,51.4C277.6,146.6,276.4,148.2,274.8,148.3z"/>
				<g>
					<path class="st2" d="M271.7,102.2c0.7,10.4,1.4,20.7,2.2,31.1c0.2,3.6-0.4,8.8,0.8,12.2c-0.7-2,0.3,3.2,0.6,1.3
						c-0.2,1.3,1.3-0.4,0.1,0.3c-0.5,0.3-1.7,0.1-2.4,0.2c-3.4,0.2-6.9,0.5-10.3,0.7c-2.9,0.2-5.8,0.4-8.8,0.6
						c-2.7,0.2-3.9,0.9-4.9-2.4c-0.9-3.2-0.5-7.3-0.7-10.6c-0.8-12.2-1.7-24.5-2.5-36.7c-0.1-0.8,0-1.7-0.2-2.4
						c-0.1-0.5-0.6-2.4-0.6-1.9c0.2-1.3-1.3,0.4-0.2-0.3c0.3-0.2,1.3-0.1,1.7-0.1c1.5-0.2,3-0.3,4.4-0.4c5.9-0.5,11.9-1,17.8-1.6
						c1.7-0.2,6-3,2.3-2.7c-6.3,0.6-12.5,1.1-18.8,1.7c-4.4,0.4-11.6,0-12.3,5.8c-0.4,3.8,0.5,8.1,0.8,11.9
						c0.5,7.9,1.1,15.8,1.6,23.7c0.3,4.8,0,10.1,1,14.8c1.2,5.5,7.1,3.9,11.4,3.6c6.2-0.4,12.6-0.5,18.7-1.4
						c5.3-0.8,6.9-3.4,6.5-8.3c-0.9-13.6-1.9-27.1-2.8-40.7C277.2,99.3,271.5,100.4,271.7,102.2L271.7,102.2z"/>
				</g>
			</g>
			<g>
				<circle class="st5" cx="82" cy="571.3" r="15.4"/>
				<g>
					<path class="st2" d="M81,558c13.2,0.7,19.5,19.8,6,25.6c-5.9,2.6-12.5-0.3-15.7-5.6c-3.6-5.9-2-12.8,2.8-17.4
						c2.5-2.5-2.9-3.6-4.7-1.8c-14.2,13.9,1.6,36,19.5,28.6c17.6-7.3,12.9-32.7-6-33.7C80.1,553.6,77.3,557.8,81,558L81,558z"/>
				</g>
			</g>
			<g>
				<circle class="st5" cx="25.1" cy="201.6" r="15.4"/>
				<g>
					<path class="st2" d="M23.3,187.2c12.3,0.6,20.9,18.7,9.2,26.6c-6.8,4.6-15.2,0.5-18.4-6.3c-2.9-6.1-1.4-13.1,3.4-17.8
						c1-1-4.1-0.4-5,0.6c-6.1,6-7.5,15.2-1.8,22c5.2,6.2,13.6,6.9,20.8,4.3c17.4-6.3,14.4-30.6-4.4-31.5
						C25.9,185,20.7,187.1,23.3,187.2L23.3,187.2z"/>
				</g>
			</g>
			<g>
				<circle class="st5" cx="715.3" cy="602.5" r="15.4"/>
				<g>
					<path class="st2" d="M713.5,588.1c12.3,0.6,20.9,18.7,9.2,26.6c-6.8,4.6-15.2,0.5-18.4-6.3c-2.9-6.1-1.4-13.1,3.4-17.8
						c1-1-4.1-0.4-5,0.6c-6.1,6-7.5,15.2-1.8,22c5.2,6.2,13.6,6.9,20.8,4.3c17.4-6.3,14.4-30.6-4.4-31.5
						C716.1,585.9,710.9,587.9,713.5,588.1L713.5,588.1z"/>
				</g>
			</g>
			<g>
				<circle class="st5" cx="684" cy="16.9" r="15.4"/>
				<g>
					<path class="st2" d="M682.8,2.8c12.8,0.6,20.2,21,6.8,27c-6.8,3-14.3-1.3-17.1-7.7c-2.6-6-0.7-12.5,3.8-16.9
						c1.5-1.4-4-1-5.2,0.1c-6.3,6.2-7.4,16.1-1.2,22.9C675.2,34.1,684,35,691,32c7-2.9,11.9-9.8,11.1-17.5
						c-0.9-8.9-8.6-14.1-17-14.5C683.2-0.1,679.1,2.6,682.8,2.8L682.8,2.8z"/>
				</g>
			</g>
			<g>
				<circle class="st1" cx="863.7" cy="58.7" r="15.4"/>
				<g>
					<path class="st2" d="M862.8,45.3c13.2,0.7,19.5,19.8,6,25.7c-6,2.6-12.9-0.4-15.9-6c-3.2-5.9-1.7-12.5,3-17
						c2.5-2.5-2.9-3.5-4.7-1.7c-14.2,13.9,1.6,35.9,19.5,28.5c17.6-7.3,12.9-32.7-5.9-33.6C861.9,41,859,45.1,862.8,45.3L862.8,45.3
						z"/>
				</g>
			</g>
			<g>
				<circle class="st1" cx="18.2" cy="428.2" r="15.4"/>
				<g>
					<path class="st2" d="M17,414.2c12.8,0.6,20.2,21,6.8,26.9c-6.8,3-14.3-1.2-17.1-7.7c-2.6-6-0.7-12.5,3.8-16.9
						c1.5-1.5-4-1.1-5.2,0.1c-6.3,6.2-7.4,16.2-1.2,23c5.3,5.8,14.1,6.7,21.1,3.8c7-2.9,11.9-9.8,11.1-17.5
						c-0.9-8.9-8.6-14.1-17-14.5C17.4,411.2,13.3,414,17,414.2L17,414.2z"/>
				</g>
			</g>
			<g>
				
					<ellipse transform="matrix(0.1595 -0.9872 0.9872 0.1595 249.7764 362.3846)" class="st1" cx="337.7" cy="34.5" rx="15.4" ry="15.4"/>
				<g>
					<path class="st2" d="M336.7,20.9c12.8,0.6,19.7,19.5,6.9,25.9c-6.2,3.2-13.5,0-16.7-5.9c-3.2-5.9-1.8-12.7,2.9-17.3
						c2.4-2.4-3-2.8-4.6-1.3c-14.1,13.8,1.3,35,19,28.1c17.9-6.9,13.6-32.2-5.4-33.1C336.3,17.1,332.9,20.7,336.7,20.9L336.7,20.9z"
						/>
				</g>
			</g>
			<g>
				
					<ellipse transform="matrix(0.6125 -0.7905 0.7905 0.6125 33.0089 958.5654)" class="st1" cx="994.2" cy="445.6" rx="15.4" ry="15.4"/>
				<g>
					<path class="st2" d="M991.9,432.1c12.8-1,20.1,15.7,10.3,24.3c-5.1,4.5-12.7,3.3-17.1-1.7c-4.7-5.3-4.5-13.1-0.3-18.6
						c2.1-2.7-3.2-3-4.6-1.3c-12.5,16,6.2,35.2,23.1,25.4c7-4,10.9-12.5,8.2-20.3c-2.8-8.2-10.9-12-19.1-11.4
						C989.6,428.7,988.1,432.4,991.9,432.1L991.9,432.1z"/>
				</g>
			</g>
			<g>
				<circle class="st1" cx="132.3" cy="67.1" r="15.4"/>
				<g>
					<path class="st2" d="M131.2,53.3c12.9,0.6,19.7,19.6,6.9,26.1c-6.3,3.2-13.5-0.1-16.7-6c-3.2-5.9-1.9-12.8,2.9-17.4
						c2.4-2.3-3.1-2.5-4.6-1.1c-14.1,13.8,1.3,34.7,19,27.9c17.9-6.9,13.6-32-5.4-33C131,49.8,127.4,53.1,131.2,53.3L131.2,53.3z"/>
				</g>
			</g>
			<g>
				<circle class="st5" cx="851.5" cy="236.5" r="15.4"/>
				<g>
					<path class="st2" d="M849.7,222.1c12.3,0.6,20.9,18.7,9.2,26.6c-6.8,4.6-15.2,0.5-18.4-6.3c-2.9-6.1-1.4-13.1,3.4-17.8
						c1-1-4.1-0.4-5,0.6c-6.1,6-7.5,15.2-1.8,22c5.2,6.2,13.6,6.9,20.8,4.3c17.4-6.3,14.4-30.6-4.4-31.5
						C852.2,219.9,847,221.9,849.7,222.1L849.7,222.1z"/>
				</g>
			</g>
			<g>
				<path class="st1" d="M979.4,286.7c-7.9,0.5-22.6,9.8-22.6,9.8s4.6-17.6,3.6-26.3c-1.1-8.9-8.9-23.7-8.9-23.7s14.4,5.4,22.1,4.9
					c7.7-0.5,24.2-8,24.2-8s-4,14.2-2.9,23.2c0.9,7.9,8.9,24.4,8.9,24.4S988.2,286.2,979.4,286.7z"/>
				<g>
					<path class="st2" d="M979.7,285c-8.8,1-17.3,6-24.6,10.6c1.5,0.1,3.1,0.2,4.6,0.3c2.1-8.1,4.2-17,3.6-25.4
						c-0.6-8.7-5-17.4-9.1-25c-1.6,0.8-3.2,1.7-4.9,2.5c7.9,2.9,17,6.1,25.5,4.9c8.3-1.2,16.5-4.9,24.1-8.3c-1.3-0.2-2.7-0.5-4-0.7
						c-2.2,7.9-4.2,17-2.6,25.2c1.5,7.9,5.2,15.6,8.7,22.8c1.6-0.8,3.2-1.7,4.9-2.5c-8.2-2.5-17-4.8-25.6-4.4
						c-2.3,0.1-5.7,3.7-1.9,3.5c7.8-0.3,15.8,1.8,23.2,4c1.1,0.3,5.9-0.4,4.9-2.5c-3.3-6.9-6.7-14.2-8.4-21.7
						c-1.9-8.2,0.3-17.5,2.5-25.5c0.5-2-3.4-1-4-0.7c-6.3,2.9-13.2,5.9-20.1,7.1c-7.5,1.3-15.9-1.8-22.9-4.4
						c-1.1-0.4-5.9,0.5-4.9,2.5c3.9,7.5,8.4,16.1,9,24.7c0.6,8.2-1.6,17-3.7,25c-0.6,2.3,4,0.7,4.6,0.3c6.1-3.8,13.3-8.1,20.5-8.9
						C982.1,288.1,983.5,284.6,979.7,285z"/>
				</g>
			</g>
			<g>
				<path class="st4" d="M143.1,363.7L124.5,381c-1.2,1.1-3.2,0.9-4.4-0.5l-34.3-37.2c-1.2-1.3-1.3-3.3-0.2-4.4l18.1-18
					c1.2-1.2,3.2-1,4.5,0.4l34.9,37.9C144.2,360.6,144.3,362.6,143.1,363.7z"/>
				<g>
					<path class="st2" d="M111.8,329.7c7,7.6,14.1,15.3,21.1,22.9c2.4,2.6,5.2,7.1,8.3,9c-1.8-1.1,2.2,2.3,1.3,0.7
						c0.7,1.1,0.7-1.1,0.3,0.1c-0.2,0.6-1.3,1.2-1.7,1.6c-2.5,2.3-5.1,4.7-7.6,7c-2.1,2-4.3,4-6.4,6c-2,1.8-2.5,3.2-5.3,1.2
						c-2.7-1.9-5-5.4-7.2-7.8c-8.3-9-16.6-18-24.9-27c-0.5-0.6-1.1-1.3-1.7-1.8c-0.4-0.3-1.9-1.5-1.7-1.1c-0.7-1.2-0.8,1.2-0.3-0.1
						c0.1-0.4,0.9-0.9,1.2-1.1c1-1.1,2.1-2.1,3.2-3.1c4.3-4.1,8.6-8.2,12.9-12.3c1.2-1.2,2.8-6.1,0.1-3.5c-4.5,4.3-9.1,8.7-13.6,13
						c-3.2,3.1-9.1,7.3-5.9,12.2c2.1,3.2,5.5,6,8,8.8c5.4,5.8,10.7,11.6,16.1,17.5c3.3,3.5,6.4,7.9,10.1,10.9
						c4.4,3.6,8-1.4,11.1-4.3c4.5-4.2,9.5-8.2,13.8-12.8c3.6-3.9,3.2-6.9-0.1-10.5c-9.2-10-18.4-20-27.7-30
						C114.3,324,110.6,328.3,111.8,329.7L111.8,329.7z"/>
				</g>
			</g>
			<g>
				<path class="st1" d="M226.9,487.1c-7.5,2.5-19.3,15.2-19.3,15.2s0-18.2-3.2-26.4c-3.3-8.4-14.6-20.7-14.6-20.7
					s15.3,1.6,22.6-0.8c7.3-2.4,21.4-13.9,21.4-13.9s-0.3,14.8,3,23.2c2.9,7.4,14.8,21.3,14.8,21.3S235.2,484.3,226.9,487.1z"/>
				<g>
					<path class="st2" d="M226.7,485.4c-8.2,3.1-15.2,10.2-21.1,16.5c1.5-0.3,3-0.6,4.6-0.9c0-8.4-0.2-17.5-2.9-25.5
						c-2.8-8.3-9.3-15.6-15.1-21.9c-1.4,1.2-2.7,2.4-4.1,3.7c8.4,0.8,18,1.6,25.9-1.8c7.7-3.3,14.7-8.9,21.2-14.1
						c-1.4,0.1-2.7,0.2-4.1,0.3c-0.1,8.2,0.2,17.5,3.8,25.1c3.4,7.2,9,13.8,14.2,19.9c1.4-1.2,2.7-2.4,4.1-3.7
						c-8.5-0.3-17.6-0.3-25.8,2.2c-2.2,0.7-4.6,5-0.9,3.9c7.4-2.2,15.8-2.3,23.5-2c1.2,0,5.6-1.9,4.1-3.7c-5-5.8-10.1-12-13.6-18.8
						c-3.9-7.4-4.2-17-4.1-25.3c0-2.1-3.5-0.1-4.1,0.3c-5.4,4.4-11.3,9-17.6,12c-6.9,3.2-15.9,2.3-23.3,1.5c-1.2-0.1-5.6,2-4.1,3.7
						c5.7,6.2,12.2,13.5,14.9,21.6c2.6,7.8,2.8,16.9,2.8,25.1c0,2.3,4-0.3,4.6-0.9c4.9-5.2,10.8-11.2,17.6-13.8
						C229.8,487.8,230.3,484,226.7,485.4z"/>
				</g>
			</g>
			<g>
				<path class="st3" d="M857.1,497.6l-25.4,1.8c-1.6,0.1-3-1.3-3.2-3.2l-3.5-50.5c-0.1-1.8,1-3.4,2.6-3.5l25.4-2.8
					c1.6-0.2,3.1,1.2,3.2,3.2l3.5,51.4C859.9,495.9,858.7,497.5,857.1,497.6z"/>
				<g>
					<path class="st2" d="M853.9,451.5c0.7,10.4,1.4,20.7,2.2,31.1c0.2,3.6-0.4,8.8,0.8,12.2c-0.7-2,0.3,3.2,0.6,1.3
						c-0.2,1.3,1.3-0.4,0.1,0.3c-0.5,0.3-1.7,0.1-2.4,0.2c-3.4,0.2-6.9,0.5-10.3,0.7c-2.9,0.2-5.8,0.4-8.8,0.6
						c-2.7,0.2-3.9,0.9-4.9-2.4c-0.9-3.2-0.5-7.3-0.7-10.6c-0.8-12.2-1.7-24.5-2.5-36.7c-0.1-0.8,0-1.7-0.2-2.4
						c-0.1-0.5-0.6-2.4-0.6-1.9c0.2-1.3-1.3,0.4-0.2-0.3c0.3-0.2,1.3-0.1,1.7-0.1c1.5-0.2,3-0.3,4.4-0.4c5.9-0.5,11.9-1,17.8-1.6
						c1.7-0.2,6-3,2.3-2.7c-6.3,0.6-12.5,1.1-18.8,1.7c-4.4,0.4-11.6,0-12.3,5.8c-0.4,3.8,0.5,8.1,0.8,11.9
						c0.5,7.9,1.1,15.8,1.6,23.7c0.3,4.8,0,10.1,1,14.8c1.2,5.5,7.1,3.9,11.4,3.6c6.2-0.4,12.6-0.5,18.7-1.4
						c5.3-0.8,6.9-3.4,6.5-8.3c-0.9-13.6-1.9-27.1-2.8-40.7C859.5,448.6,853.8,449.7,853.9,451.5L853.9,451.5z"/>
				</g>
			</g>
			<g>
				<path class="st1" d="M905.5,595.4c-6.6,4.5-14.5,19.8-14.5,19.8s-4.9-17.5-10.3-24.5c-5.4-7.2-19.7-15.9-19.7-15.9
					s15.2-2.6,21.5-6.9c6.4-4.3,16.8-19.1,16.8-19.1s3.7,14.3,9.2,21.5c4.8,6.3,20,16.5,20,16.5S912.8,590.5,905.5,595.4z"/>
				<g>
					<path class="st2" d="M904.9,593.8c-7.1,5.3-11.8,14-15.9,21.6c1.4-0.7,2.8-1.4,4.2-2.1c-2.3-8-4.9-16.8-9.7-23.8
						c-4.9-7.2-13.2-12.5-20.5-17c-1,1.5-2,3.1-2.9,4.6c8.3-1.5,17.8-3.4,24.5-8.7c6.6-5.3,11.8-12.6,16.6-19.4
						c-1.3,0.5-2.5,0.9-3.8,1.4c2.1,8,5,16.8,10.5,23.1c5.3,6,12.4,10.8,19,15.3c1-1.5,2-3.1,2.9-4.6c-8.3,2-17,4.5-24.3,9.1
						c-1.9,1.2-3,6.1,0.2,4c6.5-4.2,14.5-6.5,22.1-8.3c1.1-0.3,4.9-3.3,2.9-4.6c-6.4-4.3-12.9-8.8-18.2-14.4
						c-5.8-6.1-8.6-15.2-10.8-23.2c-0.5-2-3.4,0.9-3.8,1.4c-4,5.7-8.4,11.8-13.7,16.3c-5.8,4.9-14.7,6.5-22,7.8
						c-1.2,0.2-4.9,3.4-2.9,4.6c7.2,4.4,15.4,9.7,20.2,16.7c4.7,6.8,7.2,15.5,9.5,23.4c0.6,2.3,3.8-1.4,4.2-2.1
						c3.3-6.4,7.3-13.7,13.2-18C908.5,595.3,908,591.5,904.9,593.8z"/>
				</g>
			</g>
			<g>
				<path class="st4" d="M246.6,619.8l-23.8,9c-1.5,0.6-3.3-0.4-3.9-2.1L201,579.3c-0.6-1.7,0-3.5,1.5-4.1l23.5-9.9
					c1.5-0.6,3.3,0.3,4,2.1l18.1,48.3C248.7,617.3,248.1,619.2,246.6,619.8z"/>
				<g>
					<path class="st2" d="M230.3,576.5c3.7,9.7,7.3,19.4,11,29.1c1.3,3.3,2.2,8.5,4.3,11.4c-1.3-1.7,1.2,3,0.9,1.1
						c0.2,1.3,1.1-0.8,0.2,0.2c-0.4,0.4-1.6,0.6-2.2,0.8c-3.2,1.2-6.5,2.5-9.7,3.7c-2.7,1-5.5,2.1-8.2,3.1c-2.5,1-3.5,2-5.3-0.9
						c-1.8-2.8-2.6-6.9-3.7-9.9c-4.3-11.5-8.6-22.9-13-34.4c-0.3-0.7-0.5-1.6-0.9-2.3c-0.2-0.4-1.2-2.1-1.1-1.6
						c-0.2-1.3-1.1,0.8-0.2-0.2c0.3-0.3,1.2-0.5,1.5-0.6c1.3-0.6,2.8-1.1,4.1-1.6c5.5-2.2,11.1-4.4,16.6-6.6
						c1.6-0.6,4.9-4.6,1.5-3.2c-5.8,2.3-11.7,4.7-17.5,7c-4.1,1.6-11.2,3.3-10.1,9.1c0.7,3.7,2.8,7.6,4.2,11.2
						c2.8,7.4,5.6,14.8,8.4,22.2c1.7,4.5,2.9,9.7,5.2,13.9c2.7,5,8,1.7,11.9,0.1c5.8-2.2,11.9-4,17.6-6.7c4.8-2.2,5.6-5.2,3.9-9.8
						c-4.8-12.7-9.6-25.5-14.4-38.2C234.8,572.2,229.7,574.8,230.3,576.5L230.3,576.5z"/>
				</g>
			</g>
		</g>
	</g>
	<g>
		<g>
			<path class="st6" d="M833.6,859.8v-14.2c0-6.1-4.9-11-11-11H634.9c-6.1,0-11-4.9-11-11v-57.6c0-6.1-4.9-11-11-11H405.6
				c-6.1,0-11,4.9-11,11v23.7c0,6.1-4.9,11-11,11H196.5c-6.1,0-11,4.9-11,11v48c0,6.1,4.9,11,11,11h626.1
				C828.7,870.8,833.6,865.9,833.6,859.8z"/>
			<g>
				<path class="st7" d="M836,870.1c0-7.3,0-14.6,0-21.9c0-8-3.6-14.6-12.6-14.9c-7.9-0.3-15.9,0-23.8,0c-36.1,0-72.2,0-108.3,0
					c-14.6,0-29.1,0-43.7,0c-9.1,0-21,1.8-21.3-11.3c-0.3-16,0-32.1,0-48.1c0-5.8,1-12.6-3.9-16.9c-3.2-2.9-7.1-3.2-11.2-3.2
					c-27.9,0-55.8,0-83.6,0c-34.6,0-69.3,0-103.9,0c-6.6,0-14.3-1.1-20.8,0.4c-5,1.2-9.5,4.9-10.5,10.2c-0.5,2.7-0.2,5.8-0.2,8.5
					c0,7.2,3.1,24.9-7.2,26.5c-6.9,1.1-14.7,0-21.7,0c-16.7,0-33.3,0-50,0c-34.2,0-68.5,0-102.7,0c-8.1,0-19.3-1.8-24.9,5.5
					c-3.6,4.7-2.5,11.7-2.5,17.3c0,9.1,0,18.2,0,27.3c0,5.3,0,10.6,0,15.8c0,1.4,4.8,0.6,4.8-1.3c0-14.4,0-28.8,0-43.2
					c0-6.7-1.7-17.7,7.6-18.8c2-0.2,4.1,0,6.1,0c30.8,0,61.6,0,92.4,0c28.6,0,57.3,0,85.9,0c4,0,7.9-0.3,11.4-2.6
					c7-4.8,5.6-13.3,5.6-20.7c0-7.2-2.4-21.1,7.7-22.3c2.1-0.2,4.3,0,6.4,0c30,0,60.1,0,90.1,0c32.6,0,65.2,0,97.9,0
					c8.6,0,21.7-2.2,22.3,10.3c0.7,14.4,0,29,0,43.5c0,5-0.6,10.4,0.1,15.4c0.9,6.9,7.1,10.2,13.4,10.3c9.3,0.1,18.6,0,27.9,0
					c36,0,71.9,0,107.9,0c13.7,0,27.4,0,41.1,0c3,0,6.1-0.2,9.1,0c8.7,0.5,10.2,7.5,10.2,14.6c0,6.9,0,13.9,0,20.8
					C831.2,872.9,836,872,836,870.1L836,870.1z"/>
			</g>
		</g>
		<g>
			<g>
				<path class="st8" d="M576.1,701.6c0,8.3-29.3,15-66.7,15c-37.3,0-66.7-6.7-66.7-15l-0.9,43c0,8.3,30.3,15,67.6,15
					c37.3,0,67.6-6.7,67.6-15L576.1,701.6z"/>
				<g>
					<path class="st7" d="M573.7,702c-0.4,7-15.5,9-20.4,10c-15,2.9-30.5,3.7-45.7,3.5c-14.5-0.1-29.1-1.1-43.3-4.2
						c-4.8-1.1-18.6-3.4-19.1-10.3c-0.1-1.3-4.8-0.3-4.8,1.3c-0.3,12.5-0.5,25-0.8,37.5c-0.1,3.8-0.8,6.9,2.4,9.6
						c5.9,5.1,15.4,6.6,22.8,7.9c27.2,5,56.6,5,83.9,0.6c8.5-1.4,18-3,25.5-7.5c3.5-2.1,5.3-4.3,5.2-8.3
						c-0.2-13.7-0.6-27.4-0.9-41.2c0-1.2-4.9-0.4-4.8,1.3c0.2,11.4,0.5,22.7,0.7,34.1c0.1,3,1.2,8.1-0.6,10.8
						c-1.5,2.4-5.1,3.5-7.6,4.5c-4.7,1.7-9.7,2.8-14.7,3.7c-26.1,4.6-54.1,4.6-80.3,0.3c-7.8-1.3-18.2-2.6-24.6-7.8
						c-3-2.4-2.4-5.2-2.3-8.7c0.3-12.7,0.6-25.4,0.8-38.2c-1.6,0.4-3.2,0.9-4.8,1.3c0.5,7.4,15,10,20.2,11.2
						c16.5,3.7,33.8,4.6,50.7,4.4c16.1-0.2,32.5-1.2,48.1-5.2c5.2-1.3,18.6-4.2,19-11.4C578.6,699.6,573.8,700.6,573.7,702z"/>
				</g>
			</g>
			<g>
				<path class="st8" d="M566.8,692c-8.9-2.8-18.5-4-27.8-4.8c-13.3-1.1-26.6-1.4-39.9-0.7c-12.7,0.6-25.6,1.7-37.8,4.9
					c-5.1,1.3-18.5,4.7-19,11.6c0,0.1,0,0.2,0,0.3c-0.1,0.3-0.1,0.5-0.1,0.8c0.4,5,9,7,12.8,8c10.3,2.7,20.9,3.8,31.4,4.4
					c23.7,1.4,49.3,1.5,72.3-4.9c5.4-1.5,16.1-4.3,17.9-10.6C578.2,695.7,570.4,693.1,566.8,692z"/>
				<g>
					<path class="st7" d="M568.8,691.1c-23.5-7.1-50.1-6.7-74.4-5.2c-11.8,0.7-23.5,2.2-34.9,5.3c-5.9,1.6-13.3,3.5-17.6,8.2
						c-12.7,13.8,33,17.4,38.2,17.8c23.9,1.8,48.5,2.1,72-3.2c7.8-1.8,17.9-3.6,24.1-9.3C583.5,697.9,575.2,693.1,568.8,691.1
						c-1-0.3-5.3,1.4-4,1.8c5.9,1.9,13.8,6.4,6.6,12.6c-6,5.2-17.1,6.7-24.6,8.1c-19.7,3.6-39.9,3.2-59.8,2c-6-0.4-47-2.2-42-14.7
						c2.2-5.7,11.2-7.4,16.4-8.7c10.7-2.7,21.8-3.9,32.8-4.5c23.1-1.3,48.3-1.5,70.6,5.3C565.9,693.2,570.1,691.5,568.8,691.1z"/>
				</g>
			</g>
			<path class="st9" d="M671.7,233.2c0,0-72.6,19.1-162.2,19.1c-89.6,0-162.2-19.1-162.2-19.1c0,152.6,63.6,311.3,145.3,330.9
				c0.3,3.7,9.1,112-21.3,132.4c-3.8,2.6,1,9,5.6,9.7c10.1,1.5,3.8,3.6,32.2,3.6c19.3,0,21.8-2,32.1-3.5c4.7-0.7,9.4-7.3,5.5-10
				c-28.4-19.6-20.4-128.4-20.1-132.2C608.1,544.5,671.7,385.8,671.7,233.2z"/>
			<path class="st8" d="M523.6,563.5c3.2-0.4,6.3-1,9.3-2c4.6-1.5,8.9-3.8,13.1-6.1c6.1-3.3,11.8-7.2,17.1-11.5
				c5.8-4.7,11.2-9.8,16.3-15.2c5.5-5.9,10.6-12.1,15.3-18.5c5.1-6.9,9.9-14.2,14.3-21.6c2.9-4.8,6.6-9.9,8.2-15.3
				c1.6-5.1,1.8-10.5,2.9-15.7c1.5-7.4,4.4-12.9,8.4-19.3c1.8-2.9,3.8-5.5,5.9-8.2c5.2-6.5,7.5-13,10.1-20.8c3.3-10,6.3-20,9-30.2
				c2.8-10.4,5.2-20.9,7.4-31.5c2.2-10.8,4.1-21.6,5.7-32.5c1.6-11,2.9-22.1,3.9-33.1c1-11.1,1.6-22.3,1.9-33.4
				c0.1-2.6,0.1-5.1,0.2-7.7c0-0.7-0.3-7.6,0.1-7.7c-0.1,0-65,19.1-156.8,19.1c-91.9,0-156.8-19.1-156.8-19.1
				c0,22.2,1.4,44.5,4,66.6c2.6,21.7,6.4,43.3,11.4,64.7c12.9,54.6,33.8,111.8,70.2,155.7c9.4,11.4,20.1,21.9,32.5,30.2
				c5.5,3.7,11.3,6.9,17.5,9.5c2.4,1,4.9,2.2,7.4,2.8c2.7,0.6,5.5,1,8.2,1.2C514.6,564,519.2,564,523.6,563.5z"/>
			<path class="st8" d="M516.8,561c0.2-0.3,0.6-0.6,1.1-0.8c2.2-1,7.4,0.1,8.8,2.1c1.4,1.9-0.1,4.7-0.3,6.8
				c-2.5,23-2.2,47.7,0.4,70.6c2.2,19.8,2.7,39.4,16.6,54.7c2.7,2.9,4.9,6.8,2.9,10.1c-1.3,2.2-9,2.9-11.7,3.4
				c-9.6,1.6-19.3,2.5-29.1,2.4c-6.6,0-13.3-0.4-19.5-2.2c-3.3-1-6.9-2.7-7.7-5.8c-0.9-3.4,3.8-6.6,6.2-9.4
				c10.3-12.1,12.5-27.6,14.8-42.8c4-25.8,3.8-52,2.5-78c0-0.8-0.1-1.7,0.3-2.4c2.4-4.6,10.6,1.2,13.8-4.2
				C516.9,563.7,516,562.2,516.8,561z"/>
			<path class="st10" d="M510.4,333.1c-74.2,0-138.4-6.2-156-15c-2.8-1.4-3.9-4.8-2.5-7.5c1.4-2.8,4.8-3.9,7.6-2.5
				c13.7,6.9,69.9,13.8,150.9,13.8c69.6,0,131.1-5.4,149.6-13.2c2.9-1.2,6.2,0.1,7.4,3c1.2,2.9-0.1,6.1-3,7.4
				C644.3,327.4,582.5,333.1,510.4,333.1z"/>
			<path class="st10" d="M510.4,307.9c-77.5,0-142.8-6.5-158.9-15.7c-2.7-1.6-3.6-5-2-7.7c1.6-2.7,5.1-3.6,7.8-2
				c12,6.9,69.7,14.2,153.1,14.2c80.7,0,137.6-6.8,152-13.6c2.8-1.3,6.3-0.1,7.6,2.6c1.4,2.8,0.2,6.1-2.7,7.5
				C648.6,302,585.5,307.9,510.4,307.9z"/>
			<g>
				<path class="st7" d="M346.1,271.1c4.9,72.5,21.7,147.1,56.8,211.2c13.4,24.4,30.1,48.2,52.4,65.4c9,6.9,18.9,12.7,29.7,16.2
					c1.1,0.4,2.6,1,3.7,1.1c0.8,0.1,1.7,0.5,1.4-0.1c0.2,0.3,0.1,1.4,0.1,1.8c0.2,2.6,0.3,5.1,0.5,7.7c1.1,20.7,1.2,41.5-0.7,62.1
					c-1,11.5-2.7,23.2-5.9,34.3c-2.5,8.6-6.2,17.7-13.2,23.6c-4,3.3-4.7,6.9-0.4,10.8c2.9,2.6,6.6,2.7,10.2,3.7
					c9.1,2.8,18.6,2.5,28,2.5c6.9,0,13.9-0.2,20.7-1.4c4.4-0.7,9.6-1.1,13.8-2.7c3.9-1.5,9.6-7.1,6.3-11.5c-1-1.4-2.9-2.3-4.1-3.6
					c-1.4-1.5-2.7-3.2-3.8-4.9c-5.3-8.3-7.7-18.5-9.6-28.1c-2.2-11.8-3.3-23.8-3.9-35.8c-0.9-18.5-0.7-37.2,0.5-55.7
					c0.1-1.3,0.2-2.6,0.3-3.9c-0.7,0.6-1.3,1.2-2,1.8c34.7-8.6,60.4-37.8,78.9-66.7c26.3-41,42.6-88.3,53.5-135.5
					c6.9-30,11.3-60.5,13.5-91.2c0.2-2.5-4.7-1.8-4.9,0.4c-3.7,51.8-13.7,103.6-31.5,152.5c-14.3,39.4-33.7,79.5-64,109.3
					c-13,12.8-28.6,23.5-46.5,27.9c-0.8,0.2-1.9,0.9-2,1.8c-1.5,19.6-1.7,39.5-0.7,59.1c0.7,14.3,1.9,28.6,5.1,42.6
					c2.4,10.3,5.8,22.3,13.9,29.7c0.7,0.6,1.9,1.2,2.4,2c2.5,3.3-1.6,6.2-4.4,7c-2.9,0.8-6.1,1.1-9.1,1.7
					c-8.8,1.6-17.7,1.7-26.6,1.6c-6.1-0.1-12.7,0.2-18.6-1.4c-3.6-1-9.4-1.6-11.9-4.2c-3.3-3.5-0.9-4.8,1.7-7.2c1.9-1.8,3.6-3.8,5-6
					c3.2-4.8,5.4-10.1,7.2-15.6c4.3-13.1,6.1-27,7.2-40.7c1.8-23,1.6-46.5-0.3-69.5c0-0.4-0.7-0.9-1-1
					c-34.9-8.7-60.3-39.1-78.5-68.4c-25.4-41-41.3-87.8-51.7-134.7c-6.6-29.5-10.8-59.5-12.8-89.7
					C350.7,267.7,345.9,268.8,346.1,271.1L346.1,271.1z"/>
			</g>
			<path class="st8" d="M693.1,256.4c9.9,1.1,20.1,7,24.5,17.5c9.4,22,6.6,47.1-2.2,69.1c-9.6,24.1-26.7,45.1-45.5,61.6
				c-17.2,15.1-38.9,26-48.2,48.3c-5.5,13-3.4,25.4,6.6,35.3c5.3,5.2,12,8.3,19.5,8c10.3-0.4,18.4-6,25.1-13.3
				c4.4-4.8,2-11.6-3.7-13.8c-6.6-2.6-14.5,0.1-19.2,5.1c-0.4,0.5-2.5,2.4-1.9,1.9c0.8-0.8-0.3,0.2-0.6,0.3c1.2-0.4,1.9-0.9,3.3-0.9
				c0.9,0,4,1,2.3,0.2c-1.9-0.9,0,0,0.3,0.2c-0.5-0.3-1-0.6-1.4-1c-0.5-0.4-0.9-0.8-1.4-1.1c0.1,0.1,1.3,1.3,0.4,0.4
				c-0.7-0.7-1.4-1.4-2-2.2c-2-2.4-2.1-2.3-2.8-5.3c-0.2-0.7-0.3-1.4-0.4-2c0,0.2,0.1,1.4,0.1,0.2c0-1.2,0.1-2.4,0.3-3.6
				c0.4-2.3,0.6-2.7,1.9-5.6c0.5-1.2,1.2-2.4,1.8-3.5c0.3-0.5,0.6-1,0.9-1.5c-1,1.5,0.1-0.1,0.3-0.3c1.5-2.1,3.1-4.2,4.8-6.1
				c0.8-0.9,1.6-1.8,2.5-2.7c2-2.2-0.9,0.6,0.7-0.8c1.4-1.2,2.7-2.4,4.2-3.5c5.2-3.8,10.4-7.4,15.4-11.4
				c11.2-8.9,21.8-18.8,31.3-29.5c18.5-20.8,32.6-45.6,38.5-72.9c5.1-23.5,3.2-52-12.2-71.5c-9.8-12.5-24.8-20.3-40.8-20
				c-5.1,0.1-10.3,1.2-15,3.1c-2.5,1-4.6,2.4-7,3.6c-2.4,1.2-4.1-1.3-6.7-0.7c-1.8,0.4-5.6,1.5-6.7,3c-3.3,4.6-2.2,12-2.2,17.3
				c0,2.1,0.2,4.6-0.1,6.7c-0.2,1.1-0.6,2.2-0.7,3.4c-0.1,1.7,0,5.2,2.6,4.1c0.7-0.3,1.1-1.4,1.6-2c2.3-2.5,6.1-3.2,9-4.7
				c1.8-0.9,2.9-2.6,4.4-3.9c1.7-1.5,3.9-2.5,6-3.3C684.6,256.9,688.9,256.2,693.1,256.4z"/>
			<path class="st8" d="M326,256.5c-9.9,1.1-20.1,7-24.5,17.5c-9.4,22-6.6,47.1,2.2,69.1c9.6,24.1,26.7,45.1,45.5,61.6
				c17.2,15.1,38.9,26,48.2,48.3c5.5,13,3.4,25.4-6.6,35.3c-5.3,5.2-12,8.3-19.5,8c-10.3-0.4-18.4-6-25.1-13.3
				c-4.4-4.8-2-11.6,3.7-13.8c6.6-2.6,14.5,0.1,19.2,5.1c0.4,0.5,2.5,2.4,1.9,1.9c-0.8-0.8,0.3,0.2,0.6,0.3
				c-1.2-0.4-1.9-0.9-3.3-0.9c-0.9,0-4,1-2.3,0.2c1.9-0.9,0,0-0.3,0.2c0.5-0.3,1-0.6,1.4-1c0.5-0.4,0.9-0.8,1.4-1.1
				c-0.1,0.1-1.3,1.3-0.4,0.4c0.7-0.7,1.4-1.4,2-2.2c2-2.4,2.1-2.3,2.8-5.3c0.2-0.7,0.3-1.4,0.4-2c0,0.2-0.1,1.4-0.1,0.2
				c0-1.2-0.1-2.4-0.3-3.6c-0.4-2.3-0.6-2.7-1.9-5.6c-0.5-1.2-1.2-2.4-1.8-3.5c-0.3-0.5-0.6-1-0.9-1.5c1,1.5-0.1-0.1-0.3-0.3
				c-1.5-2.1-3.1-4.2-4.8-6.1c-0.8-0.9-1.6-1.8-2.5-2.7c-2-2.2,0.9,0.6-0.7-0.8c-1.4-1.2-2.7-2.4-4.2-3.5
				c-5.2-3.8-10.4-7.4-15.4-11.4c-11.2-8.9-21.8-18.8-31.3-29.5c-18.5-20.8-32.6-45.6-38.5-72.9c-5.1-23.5-3.2-52,12.2-71.5
				c9.8-12.5,24.8-20.3,40.8-20c9.1,0.2,16.7,4.7,25.4,6.4c2.9,0.6,6.1,1.1,8.7,2.2c5.1,2.1,5.2,6.5,6.7,10.9
				c1.2,3.6,4,6.9,5.5,10.5c1.7,4,2.9,8.7,1.6,12.9c-1.3,4.2-5.9,3.8-8.7,1.4c-1.2-1.1-2.2-2.3-3.3-3.4c-5.4-5.4-12.3-8.1-18.5-12.4
				C337,257.6,330.9,255.9,326,256.5z"/>
			<ellipse class="st8" cx="509.7" cy="233.3" rx="162.2" ry="18.7"/>
			<ellipse class="st9" cx="509.7" cy="241.8" rx="138.8" ry="9.4"/>
			<g>
				<path class="st7" d="M674.4,232.6c-0.2-3.4-5.2-5.2-7.7-6.2c-7-2.7-14.6-4-22-5.3c-25.9-4.4-52.4-6-78.7-7.1
					c-34.4-1.4-68.9-1.5-103.3-0.3c-27.5,1-55.2,2.5-82.4,6.7c-8,1.2-16.1,2.6-23.8,5.1c-3.5,1.1-9.1,2.7-10.9,6.3
					c-4.1,8.1,18.5,11.5,22.3,12.3c23.9,4.8,48.4,6.4,72.7,7.7c34.1,1.8,68.3,2.2,102.5,1.3c29.2-0.7,58.4-2.1,87.4-5.9
					c9.1-1.2,18.3-2.6,27.3-4.8c4.8-1.2,10.7-2.6,14.6-6c1-0.9,2-2,2.1-3.5c0.1-2.3-4.8-1.4-4.9,0.5c-0.2,2.9-6.2,4.3-8.3,4.9
					c-7.5,2.3-15.4,3.6-23.2,4.8c-24.6,3.7-49.6,5.2-74.5,6.2c-58.3,2.4-117.9,2.3-175.8-5.5c-8.4-1.1-16.8-2.4-25-4.6
					c-3.2-0.8-10.4-2-12.3-5.3c-3.3-5.5,21.7-9.3,24.5-9.7c23.5-4,47.6-5.6,71.4-6.8c32-1.6,64.1-1.8,96.2-1.1
					c27.3,0.7,54.6,2,81.7,5.2c9.4,1.1,18.8,2.4,28,4.4c5,1.1,11.2,2.1,15.4,5.2c0.9,0.7,1.8,1.4,1.9,2.6
					C669.6,235.8,674.5,234.8,674.4,232.6z"/>
			</g>
			<g>
				<path class="st7" d="M672.6,273.5c-0.6-15.7,18.9-18.3,30.1-12.8c13.7,6.8,17.5,25,18.2,38.9c1.8,33.4-15.6,65.4-37.6,89.4
					c-10.1,11-21.6,20.2-33.4,29.3c-10.3,7.9-20.5,16.4-27.1,27.7c-6.7,11.5-9.3,25.2-1.8,37c7.3,11.4,20.2,17.1,33.4,13.7
					c8.6-2.2,29-13.4,21.8-24.8c-3.2-5-10.1-6-15.6-5c-6,1.1-10.2,4.5-14.4,8.7c-2.1,2,2.6,2.2,3.9,1.1c0.1-0.1,0.2-0.2,0.4-0.4
					c2-2.1-2.3-2.2-3.5-1.4c-0.3,0.2-0.6,0.4-0.9,0.6c-2.7,1.6,1,2.6,2.5,2c1.9-0.7,2.6-0.2,4.2-0.1c1,0.1,5-1.6,2.8-2.8
					c-0.4-0.2-0.9-0.4-1.3-0.6c-1.5-0.7-6,1.3-3.8,2.5c0.4,0.2,0.8,0.4,1.1,0.6c1.5,0.8,5.9-1,3.8-2.5c-0.8-0.6-1.6-1.3-2.5-1.9
					c-1.3-1.1-6,0.4-4.5,2c0.2,0.2,0.5,0.5,0.7,0.7c1.5-0.7,3-1.3,4.5-2c-2.9-3-4.7-5.3-5.3-9.4c-0.3-1.9-5-0.7-4.8,1.3
					c0,0.2,0,0.5,0,0.7c0.1,1.8,4.8,0.7,4.8-0.9c0.1-5.5,2-9.7,4.7-14.4c1.2-2.1-3.6-1.8-4.5-0.3c-0.1,0.2-0.3,0.4-0.4,0.6
					c-1.4,2.2,3.6,1.5,4.5,0.3c2.7-3.4,6.4-6.9,8.6-10.6c1.4-2.3-3.4-1.4-4.2-0.7c-0.4,0.3-0.8,0.7-0.9,1.3c-0.3,1.9,3.2,1.2,4,0.6
					c17.7-13.9,35.5-26.9,50.7-43.8c13.9-15.4,25.5-33,33.2-52.3c13.2-33.2,16.4-80.8-15.5-104.9c-17-12.9-40-14.1-57.9-2.4
					c-2.7,1.8,1.4,2.9,3.1,1.8c17.5-11.4,39.8-7.6,54.8,6.3c13,12.1,18.8,29.7,20,47c2.5,37.1-15.4,73.5-39.3,100.8
					c-15.4,17.7-33.7,31.3-52.1,45.7c1.3,0.2,2.6,0.4,4,0.6c-0.3,0.5-0.3,0.6,0,0.3c-1.4-0.2-2.8-0.4-4.2-0.7
					c-1.3,2.2-3.6,3.9-5.2,5.9c-1.2,1.5-2.2,3.2-3.4,4.7c1.5,0.1,3,0.2,4.5,0.3c0.1-0.2,0.3-0.4,0.4-0.6c-1.5-0.1-3-0.2-4.5-0.3
					c-2.9,4.9-4.9,9.4-5,15.2c1.6-0.3,3.2-0.6,4.8-0.9c0-0.2,0-0.5,0-0.7c-1.6,0.4-3.2,0.9-4.8,1.3c0.7,4.4,2.6,6.9,5.7,10.1
					c1.3,1.4,5.9-0.5,4.5-2c-0.2-0.2-0.5-0.5-0.7-0.7c-1.5,0.7-3,1.3-4.5,2c1.2,1,1.9,1.5,3.1,2.4c1.3-0.8,2.5-1.7,3.8-2.5
					c-0.4-0.2-0.8-0.4-1.1-0.6c-1.3,0.8-2.5,1.7-3.8,2.5c0.5,0.2,0.9,0.4,1.3,0.6c0.9-0.9,1.9-1.9,2.8-2.8c-3.1-0.3-5-0.4-8,0.8
					c0.8,0.7,1.7,1.4,2.5,2c0.3-0.2,0.6-0.4,0.9-0.6c-1.2-0.5-2.3-0.9-3.5-1.4c-0.1,0.1-0.2,0.3-0.4,0.4c1.3,0.4,2.6,0.7,3.9,1.1
					c4.8-4.7,11.3-9.6,18.4-5.8c9.1,5,1.3,13.4-3.9,17.5c-6.7,5.2-15.4,8-23.8,5.3c-7.3-2.4-13.3-8.3-16.7-15.1
					c-6.7-13.4-0.6-28.3,8.1-39.2c8.4-10.5,19.6-18.2,30.2-26.4c22-17.1,41.4-38.8,53-64.3c6-13.2,10-27.5,10.5-42.1
					c0.5-13.1-1.5-28.6-9.3-39.5c-6.9-9.7-18.9-13.3-30.4-11.4c-10.4,1.8-18.8,8-18.4,19.3C667.8,276.6,672.7,275.6,672.6,273.5
					L672.6,273.5z"/>
			</g>
			<g>
				<path class="st7" d="M351.4,274c0.8-22.5-30.8-22.6-43.6-11.8c-9.7,8.2-13.1,22.4-14.2,34.5c-1.3,14.5,1.3,29.2,6.2,42.9
					c9.7,27,28.6,50.7,50.6,68.9c9.8,8.1,20.5,15.1,29.7,24c9.5,9.2,18.6,22,18,35.9c-0.4,8.3-4.8,16-11.3,21.2
					c-7.9,6.3-18,6.4-26.7,1.7c-5.4-2.9-17.4-10.9-12.5-18.2c5.6-8.5,16.4-0.7,21.3,4.1c1.5-0.7,3-1.3,4.5-2
					c-0.1-0.1-0.2-0.2-0.4-0.4c-1.4,0.8-2.8,1.5-4.1,2.3c0.3,0.2,0.6,0.4,0.9,0.6c1.1-0.9,2.2-1.8,3.3-2.7c-2.7-1-4.5-0.8-7.2-0.5
					c0.2,0.9,0.5,1.8,0.7,2.7c0.4-0.2,0.9-0.4,1.3-0.6c-0.8-0.7-1.7-1.4-2.5-2c-0.4,0.2-0.8,0.4-1.1,0.6c1,0.6,2.1,1.2,3.1,1.8
					c1.2-0.9,2.1-1.5,3.2-2.5c-1.3-0.4-2.6-0.7-3.9-1.1c-0.2,0.2-0.5,0.5-0.7,0.7c-2,2.1,2.7,2.4,3.9,1.1c3.2-3.3,5.2-6,5.9-10.6
					c-1.6,0.2-3.2,0.3-4.9,0.5c0,0.2,0,0.5,0,0.7c1.6-0.2,3.2-0.3,4.9-0.5c-0.1-5.9-2.1-10.5-5-15.5c-1.5,0.7-3,1.3-4.5,2
					c0.1,0.2,0.3,0.4,0.4,0.6c1.5-0.7,3-1.3,4.5-2c-1.2-1.5-2.2-3.2-3.4-4.7c-1.6-2-3.9-3.8-5.2-5.9c-1.5,0.7-3,1.3-4.5,2
					c0.1,0.2,0.2,0.2,0.3,0.1c1.4-0.6,2.9-1.3,4.3-1.9c-16.2-12.8-32.7-24.7-46.9-39.9c-13.1-14-24.4-29.8-32.5-47.2
					c-14.1-30.6-20.7-73.4,2.6-101.5c6.7-8.1,15.9-14.2,26.1-16.6c12.6-3,22.9,1.1,33.2,8c1.5,1,5.9-1.1,3.8-2.5
					c-8.1-5.4-16.6-9.9-26.6-9.7c-8.8,0.2-17.4,2.6-25,6.9c-16.3,9.2-26.2,25.8-29.8,43.8c-8.1,39.7,10.1,81,35,111.2
					c7.9,9.5,16.7,18.4,26,26.5c9.6,8.4,20.1,15.7,30.1,23.6c1.1,0.9,4.6-0.2,4.3-1.9c-0.1-0.4-0.4-0.6-0.6-0.8
					c-1.3-1.1-5.7-0.1-4.5,2c1.3,2.2,3.6,3.9,5.2,5.9c1.2,1.5,2.2,3.2,3.4,4.7c1.1,1.4,5.6-0.1,4.5-2c-0.1-0.2-0.3-0.4-0.4-0.6
					c-0.9-1.6-5.6,0.1-4.5,2c2.7,4.6,4.5,8.7,4.6,14.1c0,2.2,4.7,1.3,4.9-0.5c0-0.2,0-0.5,0-0.7c0.1-2.2-4.6-1.3-4.9,0.5
					c-0.6,3.9-2.4,6.2-5,9c1.3,0.4,2.6,0.7,3.9,1.1c0.2-0.2,0.5-0.5,0.7-0.7c2.1-2.2-2.7-2.1-3.9-1.1c-0.8,0.6-1.6,1.2-2.4,1.8
					c-2.8,2,1.4,2.7,3.1,1.8c0.4-0.2,0.8-0.4,1.1-0.6c2.6-1.4-0.9-2.8-2.5-2c-0.5,0.2-0.9,0.4-1.3,0.6c-2,1-1.6,2.9,0.7,2.7
					c1.8-0.2,3.1-0.3,4.9,0.4c1.3,0.5,5.5-1.4,3.3-2.7c-0.3-0.2-0.6-0.4-0.9-0.6c-1.2-0.8-5.6,0.7-4.1,2.3c0.1,0.1,0.2,0.3,0.4,0.4
					c1.4,1.2,6-0.5,4.5-2c-7-6.9-17.8-12.4-27.1-5.7c-11.7,8.4,2,20,10.1,24.4c25.6,13.8,54.1-12.4,44.6-39.2
					c-9.4-26.5-38.1-39.7-57.2-58.2c-22.8-22.3-41.5-51.1-45-83.4c-1-9.6-0.6-19.3,1.7-28.6c2-8.2,5.2-16.9,12.4-21.9
					c11.3-8,34.4-5.2,33.7,12.1C346.4,276.7,351.3,275.8,351.4,274L351.4,274z"/>
			</g>
			<g>
				<path id="XMLID_101_" class="st7" d="M489.5,413c-4.1-0.1-7.1,3.8-6,7.8c3.2,11.4,13.5,19.8,26,20c12.4,0.2,23-7.9,26.6-19.1
					c1.2-3.9-1.6-7.9-5.7-8L489.5,413z"/>
				<g>
					<path class="st7" d="M474,383.8c0.2-4.2,3.1-8.4,7.7-7.3c3.9,0.9,5.9,4.4,6.1,8.2c0.1,1.9,4.9,0.9,4.8-1.3
						c-0.8-14.3-22.8-12.8-23.5,0.9C469,386.6,473.9,385.8,474,383.8L474,383.8z"/>
				</g>
				<g>
					<path class="st7" d="M531.8,383.4c0.2-4.6,3.9-9.1,8.8-6.8c3.2,1.5,4.8,4.7,5,8.1c0.1,1.2,4.9,0.3,4.8-1.3
						c-0.8-14.3-22.8-11.9-23.5,1.3C527,385.7,531.8,385,531.8,383.4L531.8,383.4z"/>
				</g>
				<ellipse class="st1" cx="445.6" cy="413.1" rx="11.5" ry="14"/>
				<ellipse class="st1" cx="574.1" cy="413.1" rx="11.5" ry="14"/>
			</g>
		</g>
		<g>
			<g>
				<path class="st2" d="M528.2,168.8c4.9-27.4,14-53.9,27.2-78.5c1.1-2-3.8-1.4-4.5-0.1c-13.3,24.8-22.6,51.5-27.5,79.2
					C523,171.3,527.9,170.4,528.2,168.8L528.2,168.8z"/>
			</g>
			<g>
				<path class="st2" d="M552,181.1c17.8-21,37.7-40.1,59.9-56.5c2-1.5-2.8-1-3.7-0.3c-22.4,16.6-42.5,35.8-60.5,57.1
					C546.6,182.6,551.2,182.1,552,181.1L552,181.1z"/>
			</g>
			<g>
				<path class="st2" d="M496,172.9c-8.3-26.3-14.2-53.2-17.5-80.6c-0.2-1.4-5-0.4-4.8,1.3c3.3,27.4,9.2,54.3,17.5,80.6
					C491.7,175.7,496.5,174.4,496,172.9L496,172.9z"/>
			</g>
			<g>
				<path class="st2" d="M461.1,183.8c-13.7-24.7-31.8-46.6-53.9-64.3c-1.3-1-5.8,0.8-4.5,1.9c21.9,17.5,40,39.1,53.5,63.7
					C457.2,186.7,461.8,185.1,461.1,183.8L461.1,183.8z"/>
			</g>
		</g>
	</g>
</g>
</svg>
