<?xml version="1.0" encoding="utf-8"?>
<!-- Generator: Adobe Illustrator 22.0.0, SVG Export Plug-In . SVG Version: 6.00 Build 0)  -->
<svg version="1.1" id="_x2014_ÎÓÈ_x5F_4" xmlns="http://www.w3.org/2000/svg" xmlns:xlink="http://www.w3.org/1999/xlink"
	 x="0px" y="0px" viewBox="0 0 353.6 353.6" style="enable-background:new 0 0 353.6 353.6;" xml:space="preserve">
<style type="text/css">
	.st0{fill:#FFFFFF;}
	.st1{fill:#BBF9BC;}
	.st2{fill:#757575;}
	.st3{fill:#FF9C81;}
</style>
<g>
	<g>
		
			<ellipse transform="matrix(0.7071 -0.7071 0.7071 0.7071 -72.1828 172.8501)" class="st0" cx="172.6" cy="173.6" rx="169.6" ry="169.6"/>
	</g>
	<g>
		
			<ellipse transform="matrix(0.7071 -0.7071 0.7071 0.7071 -76.2281 184.0307)" class="st1" cx="184" cy="184" rx="169.6" ry="169.6"/>
	</g>
	<g>
		<path class="st2" d="M172.6,345.1C77.4,345.1,0,267.7,0,172.6C0,77.4,77.4,0,172.6,0s172.6,77.4,172.6,172.6
			C345.1,267.7,267.7,345.1,172.6,345.1z M172.6,6C80.7,6,6,80.7,6,172.6c0,91.8,74.7,166.6,166.6,166.6s166.6-74.7,166.6-166.6
			C339.1,80.7,264.4,6,172.6,6z"/>
	</g>
	<g>
		<path class="st2" d="M167.6,288.7c-0.8,0-1.6-0.3-2.1-0.9L108,230.4c-1.2-1.2-1.2-3.1,0-4.2c1.2-1.2,3.1-1.2,4.2,0l55.4,55.4
			l105.2-105.2c1.2-1.2,3.1-1.2,4.2,0c1.2,1.2,1.2,3.1,0,4.2L169.7,287.8C169.2,288.4,168.4,288.7,167.6,288.7z"/>
	</g>
	<g>
		<g id="XMLID_97_">
			<circle class="st2" cx="100.9" cy="82.8" r="6"/>
		</g>
		<g id="XMLID_96_">
			<path class="st2" d="M244.2,88.8c-3.3,0-6-2.7-6-6s2.7-6,6-6s6,2.7,6,6S247.5,88.8,244.2,88.8z"/>
		</g>
		<g>
			<g id="XMLID_95_">
				<ellipse class="st3" cx="110.2" cy="105.6" rx="9.1" ry="12.2"/>
			</g>
			<g id="XMLID_94_">
				<ellipse class="st3" cx="235.6" cy="105.6" rx="9.1" ry="12.2"/>
			</g>
		</g>
		<g>
			<path class="st2" d="M173.4,127.8c-15.1,0-29.7-5.4-41.1-15.3c-1.3-1.1-1.4-3-0.3-4.2c1.1-1.3,3-1.4,4.2-0.3
				c10.3,8.9,23.5,13.8,37.2,13.8c13.4,0,26.4-4.7,36.6-13.3c1.3-1.1,3.2-0.9,4.2,0.4c1.1,1.3,0.9,3.2-0.4,4.2
				C202.6,122.6,188.2,127.8,173.4,127.8z"/>
		</g>
	</g>
</g>
</svg>
