<?xml version="1.0" encoding="utf-8"?>
<!-- Generator: Adobe Illustrator 22.0.0, SVG Export Plug-In . SVG Version: 6.00 Build 0)  -->
<svg version="1.1" id="_x30_7" xmlns="http://www.w3.org/2000/svg" xmlns:xlink="http://www.w3.org/1999/xlink" x="0px" y="0px"
	 viewBox="0 0 100.5 100.5" style="enable-background:new 0 0 100.5 100.5;" xml:space="preserve">
<style type="text/css">
	.st0{fill:#999999;}
</style>
<g id="_x30_4">
	<path class="st0" d="M50.3,100.5C22.6,100.5,0,78,0,50.3C0,22.6,22.6,0,50.3,0c27.7,0,50.3,22.6,50.3,50.3
		C100.5,78,78,100.5,50.3,100.5L50.3,100.5z M50.3,7C26.4,7,7,26.4,7,50.3c0,23.9,19.4,43.3,43.3,43.3c23.9,0,43.3-19.4,43.3-43.3
		C93.5,26.4,74.1,7,50.3,7L50.3,7z"/>
	<polygon class="st0" points="49.3,27.9 44.9,33.4 62,46.8 26.5,46.8 26.5,53.8 62,53.8 44.9,67.1 49.3,72.6 77.8,50.3 	"/>
</g>
</svg>
