<?xml version="1.0" encoding="utf-8"?>
<!-- Generator: Adobe Illustrator 21.0.0, SVG Export Plug-In . SVG Version: 6.00 Build 0)  -->
<svg version="1.1" id="Layer_1" xmlns="http://www.w3.org/2000/svg" xmlns:xlink="http://www.w3.org/1999/xlink" x="0px" y="0px"
	 viewBox="0 0 490 367.5" style="enable-background:new 0 0 490 367.5;" xml:space="preserve">
<style type="text/css">
	.st0{fill:#757575;}
</style>
<g id="XMLID_641_">
	<g>
		<g>
			<path class="st0" d="M444.1,172.3V90.1C444.1,40.4,403.7,0,354,0H136C86.3,0,45.9,40.4,45.9,90.1v82.2
				C19.2,181.7,0,207.2,0,237.1v15.8c0,27,15.6,50.3,38.3,61.6v53h15.3v-47.6c4.9,1.1,9.9,1.7,15.1,1.7h352.6
				c5.2,0,10.2-0.6,15.1-1.7v47.6h15.3v-53c22.7-11.2,38.3-34.6,38.3-61.6v-15.8C490,207.2,470.8,181.7,444.1,172.3z M61.2,90.1
				c0-41.2,33.5-74.8,74.8-74.8h218c41.2,0,74.8,33.5,74.8,74.8v60.8c-8.1-9.1-18.8-15.7-30.6-18.8v-22.9c0-18-14.6-32.6-32.6-32.6
				h-72.6c-18,0-32.6,14.6-32.6,32.6v21h-30.6v-21c0-18-14.6-32.6-32.6-32.6h-72.6c-18,0-32.6,14.6-32.6,32.6v22.9
				c-11.8,3.1-22.5,9.7-30.6,18.8L61.2,90.1z M382.8,145.4c16.4,0,31.7,8.9,39.8,23c-0.4,0-0.9,0-1.3,0H68.7c-0.4,0-0.9,0-1.3,0
				c8.1-14.1,23.4-23,39.8-23H382.8z M107.2,130.1v-21c0-9.5,7.8-17.3,17.3-17.3h72.6c9.5,0,17.3,7.8,17.3,17.3v21L107.2,130.1
				L107.2,130.1z M382.8,130.1H275.6v-21c0-9.5,7.8-17.3,17.3-17.3h72.6c9.5,0,17.3,7.8,17.3,17.3L382.8,130.1L382.8,130.1z
				 M421.3,306.2H68.7c-29.4,0-53.4-23.9-53.4-53.4v-15.8c0-29.4,23.9-53.4,53.4-53.4h352.6c29.4,0,53.4,23.9,53.4,53.4v15.8h0
				C474.7,282.3,450.7,306.2,421.3,306.2z"/>
			<rect x="53.6" y="268" class="st0" width="382.8" height="15.3"/>
		</g>
	</g>
</g>
</svg>
