<?xml version="1.0" encoding="utf-8"?>
<!-- Generator: Adobe Illustrator 22.0.0, SVG Export Plug-In . SVG Version: 6.00 Build 0)  -->
<svg version="1.1" id="Capa_1" xmlns="http://www.w3.org/2000/svg" xmlns:xlink="http://www.w3.org/1999/xlink" x="0px" y="0px"
	 viewBox="0 0 412.4 398.5" style="enable-background:new 0 0 412.4 398.5;" xml:space="preserve">
<style type="text/css">
	.st0{fill:#FFFFFF;}
</style>
<g>
	<g>
		<g id="Layer_5_68_">
			<g>
				<path class="st0" d="M126.2,348c0,4.4-3.9,9.4-8.6,11.1l-109,38.8c-4.7,1.7-8.6-0.6-8.6-5V50.5C0,46,3.9,41,8.6,39.3l109-38.8
					c4.7-1.7,8.6,0.6,8.6,5V348z"/>
				<path class="st0" d="M269.3,392.9c0,4.4-3.9,6.7-8.6,5l-109-38.8c-4.7-1.7-8.6-6.7-8.6-11.1V5.6c0-4.4,3.9-6.7,8.6-5l109,38.8
					c4.7,1.7,8.6,6.7,8.6,11.1V392.9z"/>
				<path class="st0" d="M412.4,348c0,4.4-3.9,9.4-8.6,11.1l-109,38.8c-4.7,1.7-8.6-0.6-8.6-5V50.5c0-4.4,3.9-9.4,8.6-11.1l109-38.8
					c4.7-1.7,8.6,0.6,8.6,5L412.4,348L412.4,348z"/>
			</g>
		</g>
	</g>
</g>
</svg>
