<svg xmlns="http://www.w3.org/2000/svg" xmlns:xlink="http://www.w3.org/1999/xlink">
	<style type="text/css">
		<![CDATA[
		.svg-icon-sprite  { display: none; fill: #010101; }
		.svg-icon-sprite:target { display: block; }
		]]>	
	</style>
	<svg version="1.1" id="svg-down-arrow-view" xmlns="http://www.w3.org/2000/svg" xmlns:xlink="http://www.w3.org/1999/xlink" x="0px" y="0px" viewBox="0 0 32 32" style="enable-background:new 0 0 32 32;" xml:space="preserve" class="svg-icon-sprite">
		<g id="np_left-arrow_602483_515151" transform="translate(903.584 4566.793) rotate(180)">
			<path id="Path_100" fill="#95989A" d="M900.4,4536.8v28.1c0,1.1-0.9,2-2,1.9c-0.4,0-0.7-0.1-1-0.3l-21.8-14c-0.5-0.4-0.9-1-0.9-1.6
				c0-0.6,0.4-1.2,0.9-1.6l21.8-14.1c0.3-0.2,0.7-0.3,1-0.3c0.5,0,1,0.2,1.4,0.6C900.2,4535.8,900.4,4536.3,900.4,4536.8L900.4,4536.8
				z"/>
			<path id="Path_101" fill="#95989A" d="M900.4,4536.8v28.1c0,1.1-0.9,2-2,1.9c-0.4,0-0.7-0.1-1-0.3l-21.8-14c-0.5-0.4-0.9-1-0.9-1.6
				c0-0.6,0.4-1.2,0.9-1.6l21.8-14.1c0.3-0.2,0.7-0.3,1-0.3c0.5,0,1,0.2,1.4,0.6C900.2,4535.8,900.4,4536.3,900.4,4536.8L900.4,4536.8
				z"/>
		</g>
	</svg>
	<svg version="1.1" id="svg-dropbox-arrow" xmlns="http://www.w3.org/2000/svg" xmlns:xlink="http://www.w3.org/1999/xlink" x="0px" y="0px" width="32px" height="19.1px" viewBox="0 0 32 19.1" enable-background="new 0 0 32 19.1" xml:space="preserve" class="svg-icon-sprite">
		<g id="XMLID_1_">
			<path id="Path_261_1_" fill="#FFFFFF" d="M0,12L10.5-0.1L20.2,12H0z"/>
		</g>
	</svg>
	<svg version="1.1" id="svg-bread-arrow" xmlns="http://www.w3.org/2000/svg" xmlns:xlink="http://www.w3.org/1999/xlink" x="0px" y="0px"
		 viewBox="0 0 32 32" style="enable-background:new 0 0 32 32;" xml:space="preserve" class="svg-icon-sprite">
	<path id="np_up_1075392_000000" fill="#515151" d="M3.3,24.4c-0.8,0.8-2.1,0.7-2.8-0.1c-0.7-0.8-0.7-2,0-2.7l14-14c0.8-0.8,2-0.8,2.8,0
		l0,0l14,14c0.8,0.8,0.8,2,0.1,2.8c-0.8,0.8-2,0.8-2.8,0.1l-0.1-0.1L16,11.8L3.3,24.4z"/>
	</svg>

	<svg version="1.1" id="svg_msg" xmlns="http://www.w3.org/2000/svg" xmlns:xlink="http://www.w3.org/1999/xlink" x="0px" y="0px"
	 width="12.3px" height="9px" viewBox="0 0 12.3 9" enable-background="new 0 0 12.3 9" xml:space="preserve" class="svg-icon-sprite">
	<g id="XMLID_1_">
		<path id="np_email_1042994_000000_1_" fill="#FFFFFF" d="M0.9,0.5C0.4,0.5,0,0.9,0,1.4v6.3c0,0.5,0.4,0.9,0.9,0.9h10.5
			c0.5,0,0.9-0.4,0.9-0.9V1.4c0-0.5-0.4-0.9-0.9-0.9H0.9z M1.5,1.9c0.1,0,0.2,0,0.2,0.1l3.9,3.6c0.2,0.2,0.6,0.2,0.8,0L10.5,2
			c0.1-0.1,0.3-0.1,0.4,0c0.1,0.1,0.1,0.3,0,0.4c0,0,0,0,0,0L8.7,4.5l2.2,2C11,6.6,11.1,6.8,11,6.9c-0.1,0.1-0.3,0.2-0.4,0.1
			c0,0,0,0,0,0l-2.3-2L6.9,6.1c-0.5,0.4-1.2,0.4-1.6,0L4,4.9L1.8,7C1.7,7.1,1.5,7.1,1.3,7c-0.1-0.1-0.1-0.3,0-0.4c0,0,0,0,0,0l2.2-2
			L1.4,2.5c-0.1-0.1-0.1-0.3,0-0.4C1.4,2,1.5,2,1.5,1.9L1.5,1.9z"/>
	</g>
	</svg>

	<svg version="1.1" id="svg_call" xmlns="http://www.w3.org/2000/svg" xmlns:xlink="http://www.w3.org/1999/xlink" x="0px" y="0px"
	 width="9px" height="9px" viewBox="0 0 9 9" enable-background="new 0 0 9 9" xml:space="preserve" class="svg-icon-sprite">
		<g id="XMLID_4_">
			<path id="np_call_1322472_000000_1_" fill="#36A148" d="M3.1,7.3c1,0.8,2.2,1.4,3.4,1.7c0.8,0.1,1.6-0.1,2.1-0.8
				C9,8,9.1,7.5,8.8,7.2c0,0-0.1-0.1-0.1-0.1L7.4,5.7c-0.2-0.2-0.6-0.3-0.9,0L5.7,6.5C4.4,5.7,3.3,4.6,2.6,3.3l0.6-0.6
				c0.3-0.3,0.4-0.8,0.1-1.1c0,0,0,0-0.1-0.1L1.8,0.1C1.5-0.1,1.1,0,0.9,0.2c-0.7,0.7-1,1.7-0.8,2.7C0.1,2.9,0.1,4.6,3.1,7.3L3.1,7.3z
				"/>
		</g>
	</svg>
	<svg version="1.1" id="svg_contact_icon" xmlns="http://www.w3.org/2000/svg" xmlns:xlink="http://www.w3.org/1999/xlink" x="0px" y="0px" viewBox="0 0 32 32" enable-background="new 0 0 32 32" xml:space="preserve">
<g id="XMLID_1_">
	<g id="XMLID_2_">
		<path id="np_contacts-book_976413_000000_2_" fill="#434343" d="M2,22.1c-1.2,0-2,0.9-2,2s0.9,2,2,2h2v2.9C4.1,30.8,5.5,32,7,32
			h22.1c1.7,0,2.9-1.5,2.9-2.9V2.9C32,1.2,30.5,0,29.1,0H7C5.2,0,4.1,1.5,4.1,2.9v2.9H2C0.9,6.1,0,7,0,8.1s0.9,2,2,2h2v4.1H2
			C0.9,14,0,14.8,0,16s0.9,2,2,2h2v4.1H2z M11.9,22.1c0-2.6,1.5-4.7,3.8-5.5c-1.7-1.5-2.3-3.8-1.2-5.8C15.7,9,18,8.4,20.1,9.6
			s2.3,3.5,1.2,5.5c-0.3,0.6-0.6,0.9-1.2,1.2c2.3,0.9,3.8,3.2,3.8,5.5v0.9c0,0.6-0.6,0.9-0.9,0.9h-9.9c-0.6,0-0.9-0.6-0.9-0.9l0,0
			L11.9,22.1z"/>
	</g>
</g>
</svg>
	<svg xmlns="http://www.w3.org/2000/svg" xmlns:xlink="http://www.w3.org/1999/xlink" version="1.1" id="svg-cross-view" x="0px" y="0px" viewBox="0 0 32 32" style="enable-background:new 0 0 32 32;" xml:space="preserve" class="svg-icon-sprite">
		<path id="np_close_1042914_000000" fill="#515151" d="M19.4,16L31.2,4.7c0.9-0.9,0.9-2.3,0.1-3.2c0,0,0,0-0.1-0.1c-1-0.9-2.5-0.9-3.5,0   L16,12.7L4.2,1.4c-1-0.9-2.5-0.9-3.5,0c-0.9,0.9-0.9,2.3-0.1,3.2c0,0,0,0,0.1,0.1L12.5,16L0.7,27.3c-0.9,0.9-0.9,2.3-0.1,3.2   c0,0,0,0,0.1,0.1c0.5,0.4,1.1,0.7,1.7,0.7c0.6,0,1.3-0.2,1.7-0.7L16,19.3l11.8,11.3c0.5,0.4,1.1,0.7,1.7,0.7c0.6,0,1.3-0.2,1.7-0.7   c0.9-0.9,0.9-2.3,0.1-3.2c0,0,0,0-0.1-0.1L19.4,16z"></path>
	</svg>
	<svg xmlns="http://www.w3.org/2000/svg" xmlns:xlink="http://www.w3.org/1999/xlink" version="1.1" id="svg-cross-red" x="0px" y="0px" viewBox="0 0 32 32" style="enable-background:new 0 0 32 32;" xml:space="preserve" class="svg-icon-sprite">
		<path id="np_close_1042914_000000" fill="#ce141b" d="M19.4,16L31.2,4.7c0.9-0.9,0.9-2.3,0.1-3.2c0,0,0,0-0.1-0.1c-1-0.9-2.5-0.9-3.5,0   L16,12.7L4.2,1.4c-1-0.9-2.5-0.9-3.5,0c-0.9,0.9-0.9,2.3-0.1,3.2c0,0,0,0,0.1,0.1L12.5,16L0.7,27.3c-0.9,0.9-0.9,2.3-0.1,3.2   c0,0,0,0,0.1,0.1c0.5,0.4,1.1,0.7,1.7,0.7c0.6,0,1.3-0.2,1.7-0.7L16,19.3l11.8,11.3c0.5,0.4,1.1,0.7,1.7,0.7c0.6,0,1.3-0.2,1.7-0.7   c0.9-0.9,0.9-2.3,0.1-3.2c0,0,0,0-0.1-0.1L19.4,16z"></path>
	</svg>
	<svg version="1.1" id="svg-email-alert" xmlns="http://www.w3.org/2000/svg" xmlns:xlink="http://www.w3.org/1999/xlink" x="0px" y="0px" viewBox="0 0 38 37.5" enable-background="new 0 0 38 37.5" xml:space="preserve">
		<g id="XMLID_1_">
			<path id="Union_3_1_" fill="#FFFFFF" d="M1.8,37.5L1.8,37.5H1.6C0.7,37.5,0,36.8,0,36V17.2c0-0.1,0-0.1,0-0.2c0-0.2,0-0.4,0.1-0.6
				c0.1-0.2,0.2-0.4,0.4-0.5l5.8-4.6V0.8C6.3,0.3,6.7,0,7.1,0c0,0,0,0,0,0h17.4c0.2,0,0.4,0,0.5,0.2l0,0l0,0l0,0l0,0c0,0,0,0,0.1,0.1
				l6.3,6.3l0,0l0,0l0,0l0,0l0,0l0,0l0,0l0,0c0.1,0.1,0.2,0.3,0.2,0.5v4.2l5.8,4.6c0,0,0.1,0,0.1,0.1c0,0,0.1,0.1,0.1,0.1
				c0.1,0.1,0.2,0.2,0.2,0.3C38,16.6,38,16.8,38,17c0,0.1,0,0.1,0,0.2V36c0,0.9-0.7,1.6-1.6,1.6h-0.2h-0.1L1.8,37.5z M35.1,36
				l-9.9-8.6l-5.7,4.5c-0.1,0.1-0.2,0.1-0.2,0.1c-0.3,0.1-0.5,0-0.7-0.1l-5.7-4.5L2.9,36L35.1,36z M36.4,35V18.6l-5,3.9l0,0l-4.9,3.8
				L36.4,35z M1.6,35l10-8.6l-4.9-3.9l0,0l-5-4L1.6,35z M13.3,25.8l5.7,4.5l5.7-4.5l0,0l5.3-4.2v-9.9l0,0V7.8h-5.5
				c-0.4,0-0.8-0.3-0.8-0.8c0,0,0,0,0,0V1.6H7.9v10.1c0,0,0,0,0,0v9.9L13.3,25.8L13.3,25.8z M1.9,16.8l4.5,3.5v-7.1l-4.4,3.5
				C1.9,16.8,1.9,16.8,1.9,16.8L1.9,16.8z M31.7,16.4v3.9l4.5-3.5c0,0,0-0.1-0.1-0.1l-4.4-3.5L31.7,16.4
				C31.7,16.4,31.7,16.4,31.7,16.4L31.7,16.4z M25.3,6.3H29l-3.6-3.6V6.3z M13.5,21.9c-0.4,0-0.8-0.3-0.8-0.8s0.3-0.8,0.8-0.8
				c0,0,0,0,0.1,0h11.1c0.4,0,0.8,0.3,0.8,0.8s-0.3,0.8-0.8,0.8c0,0,0,0-0.1,0H13.5z M11.1,17.2L11.1,17.2c-0.4,0-0.8-0.3-0.8-0.8
				s0.3-0.8,0.8-0.8l0,0l0,0h15.8l0,0c0.4,0,0.8,0.3,0.8,0.8s-0.3,0.8-0.8,0.8l0,0H11.1z M11.1,12.5c-0.4,0-0.8-0.3-0.8-0.8
				c0-0.4,0.3-0.8,0.8-0.8c0,0,0,0,0.1,0h15.8c0.4,0,0.8,0.3,0.8,0.8c0,0.4-0.3,0.8-0.8,0.8c0,0,0,0-0.1,0H11.1z M11.1,7.8
				c-0.4,0-0.8-0.3-0.8-0.8s0.3-0.8,0.8-0.8c0,0,0,0,0.1,0H19c0.4,0,0.8,0.3,0.8,0.8c0,0.4-0.3,0.8-0.8,0.8c0,0,0,0-0.1,0L11.1,7.8z"
				/>
		</g>
	</svg>
	<svg version="1.1" id="pr-arrow-one" xmlns="http://www.w3.org/2000/svg" xmlns:xlink="http://www.w3.org/1999/xlink" x="0px" y="0px"
		 width="8px" height="8px" viewBox="0 0 8 8" enable-background="new 0 0 8 8" xml:space="preserve" class="svg-icon-sprite">
	<path id="np_down-arrow_602481_000000_1_" fill="#B3B3B3" d="M0,7.5v-7c0-0.2,0.1-0.3,0.3-0.4C0.5,0,0.8,0,0.9,0.1l6.8,3.5
		C8,3.8,8.1,4.1,7.9,4.3c0,0-0.1,0.1-0.1,0.1L0.9,7.9C0.8,8,0.7,8,0.6,8C0.5,8,0.4,8,0.3,7.9C0.1,7.9,0,7.7,0,7.5L0,7.5z"/>
	</svg>
	<svg version="1.1" id="pr-arrow-blue" xmlns="http://www.w3.org/2000/svg" xmlns:xlink="http://www.w3.org/1999/xlink" x="0px" y="0px"
		 width="8px" height="8px" viewBox="0 0 8 8" enable-background="new 0 0 8 8" xml:space="preserve" class="svg-icon-sprite">
	<path id="np_down-arrow_602481_000000_1_" fill="#0792EA" d="M0,7.5v-7c0-0.2,0.1-0.3,0.3-0.4C0.5,0,0.8,0,0.9,0.1l6.8,3.5
		C8,3.8,8.1,4.1,7.9,4.3c0,0-0.1,0.1-0.1,0.1L0.9,7.9C0.8,8,0.7,8,0.6,8C0.5,8,0.4,8,0.3,7.9C0.1,7.9,0,7.7,0,7.5L0,7.5z"/>
	</svg>
	<svg version="1.1" id="pr-arrow" xmlns="http://www.w3.org/2000/svg" xmlns:xlink="http://www.w3.org/1999/xlink" x="0px" y="0px"
	 width="9px" height="18px" viewBox="0 0 9 18" enable-background="new 0 0 9 18" xml:space="preserve" class="svg-icon-sprite">
		<g id="XMLID_183_">
			<path id="Path_268_1_" fill="#FFFFFF" d="M9-0.5L0,9l9,9.5V-0.5z"/>
		</g>
	</svg>
	<svg version="1.1" id="svg_check_price" xmlns="http://www.w3.org/2000/svg" xmlns:xlink="http://www.w3.org/1999/xlink" x="0px" y="0px" viewBox="0 0 32 32" enable-background="new 0 0 32 32" xml:space="preserve">
		<g id="XMLID_1_">
			<path id="np_info_598163_000000_1_" fill="#56A9DD" d="M16,0C7.2,0,0,7.2,0,16s7.2,16,16,16s16-7.2,16-16l0,0C32,7.2,24.8,0,16,0z
				 M15.8,5.9c1.3,0,2.4,1.1,2.4,2.4s-1.1,2.4-2.4,2.4c-1.3,0-2.4-1.1-2.4-2.4C13.4,6.9,14.4,5.9,15.8,5.9C15.8,5.9,15.8,5.9,15.8,5.9
				z M19.5,26.1h-7v-2.8H14V15h-0.1c-0.8,0-1.4-0.7-1.4-1.5c0-0.7,0.6-1.3,1.4-1.4h4.1v11.1h1.6L19.5,26.1z"/>
		</g>
	</svg>
	<svg version="1.1" id="svg_footer_location" xmlns="http://www.w3.org/2000/svg" xmlns:xlink="http://www.w3.org/1999/xlink" x="0px" y="0px" viewBox="0 0 32 32" enable-background="new 0 0 32 32" xml:space="preserve">
		<g id="XMLID_9_">
			<path id="np_location_1041848_000000_1_" fill="#919090" d="M25.6,4.8c-4.1-5.3-11.7-6.3-17-2.2C7.8,3.2,7,3.9,6.4,4.8
				c-3.3,4.3-3.3,10.3,0,14.7L16,32l9.6-12.6C28.9,15.1,28.9,9.1,25.6,4.8z M16,5.5c3.5,0,6.3,2.8,6.3,6.3s-2.8,6.3-6.3,6.3
				s-6.3-2.8-6.3-6.3l0,0C9.7,8.3,12.5,5.5,16,5.5z"/>
		</g>
	</svg>
	<svg version="1.1" id="svg_footer_phone" xmlns="http://www.w3.org/2000/svg" xmlns:xlink="http://www.w3.org/1999/xlink" x="0px" y="0px" viewBox="0 0 32 32" enable-background="new 0 0 32 32" xml:space="preserve">
		<g id="XMLID_6_">
			<g id="np_telephone_256574_000000_1_" transform="translate(2673.398 5889.898)">
				<path id="Path_269_1_" fill="#919090" d="M-2650.6-5887.5c-2.2-0.4-4.5-0.5-6.8-0.4c-2.3,0-4.5,0.1-6.8,0.4
					c-4.2,0.4-9.3,4.1-9.3,9.3c0,0.6,0.5,1.1,1.1,1.1c0,0,0,0,0,0h5.3c0.4,0,0.8-0.3,0.8-0.7c0,0,0,0,0,0v-3c0-0.8,0.6-1.4,1.4-1.4
					c0,0,0,0,0,0h14.7c0.8,0,1.4,0.6,1.4,1.4c0,0,0,0,0,0v3c0,0.4,0.4,0.8,0.8,0.8c0,0,0,0,0,0h5.3c0.6,0,1.1-0.5,1.1-1.1c0,0,0,0,0,0
					C-2641.6-5883.2-2645.6-5887.2-2650.6-5887.5z"/>
				<path id="Path_270_1_" fill="#919090" d="M-2642.2-5869c-0.1-0.1-0.2-0.2-0.4-0.3l-8-8.2l-1.4-1.2c-1-0.8-2.3-1.3-3.6-1.3h-3.7
					c-1.3,0-2.6,0.4-3.6,1.2l-1.4,1.2l-7.7,8.2c-0.1,0.1-0.3,0.2-0.4,0.3c-0.5,0.5-0.9,1.3-0.8,2.1v4.2c0,1.6,1.3,2.9,2.9,2.9
					c0,0,0,0,0,0h26c1.6,0,2.9-1.3,2.9-2.9c0,0,0,0,0,0v-4.2C-2641.4-5867.7-2641.7-5868.5-2642.2-5869z M-2657.3-5863.2
					c-3.4,0-6.2-2.8-6.2-6.2s2.8-6.2,6.2-6.2c3.4,0,6.2,2.8,6.2,6.2l0,0C-2651.1-5866-2653.9-5863.2-2657.3-5863.2L-2657.3-5863.2z"/>
			</g>
		</g>
	</svg>
	<svg version="1.1" id="svg_footer_email" xmlns="http://www.w3.org/2000/svg" xmlns:xlink="http://www.w3.org/1999/xlink" x="0px" y="0px" viewBox="0 0 32 32" enable-background="new 0 0 32 32" xml:space="preserve">
		<g id="XMLID_1_">
			<path id="np_email_1348930_000000_1_" fill="#919090" d="M28.7,5.3H3.3C1.5,5.3,0,6.8,0,8.6c0,0,0,0,0,0.1v14.7
				c0,1.8,1.4,3.3,3.3,3.3c0,0,0,0,0.1,0h25.3c1.8,0,3.3-1.4,3.3-3.3c0,0,0,0,0-0.1V8.7C32,6.8,30.6,5.4,28.7,5.3
				C28.7,5.3,28.7,5.3,28.7,5.3z M11.7,17.2l-8,6.7C3.4,24,3.1,24,2.8,23.7c-0.3-0.3-0.1-0.7,0.1-0.9l8-6.7c0.3-0.3,0.7-0.1,0.9,0.1
				C12.1,16.6,12,17,11.7,17.2C11.7,17.2,11.7,17.2,11.7,17.2z M29.2,23.7c-0.3,0.2-0.6,0.3-0.9,0.1l-8-6.7C20,17,20,16.6,20.1,16.3
				c0.1-0.3,0.7-0.3,0.9-0.1l8,6.7C29.4,23,29.4,23.4,29.2,23.7C29.2,23.7,29.2,23.7,29.2,23.7L29.2,23.7z M29.1,9.2l-10.9,7.5
				c-0.6,0.4-1.4,0.6-2.1,0.7c-0.8,0-1.5-0.3-2.1-0.7L2.9,9.2C2.6,9,2.6,8.6,2.8,8.3C3,8,3.4,7.9,3.7,8.1c0,0,0,0,0,0l10.9,7.5
				c0.8,0.5,1.9,0.5,2.7,0l10.9-7.5c0.3-0.3,0.7-0.1,0.9,0.1C29.4,8.5,29.4,8.9,29.1,9.2C29.1,9.2,29.1,9.2,29.1,9.2L29.1,9.2z"/>
		</g>
	</svg>

	<svg version="1.1" id="svg_footer_fb_black" xmlns="http://www.w3.org/2000/svg" xmlns:xlink="http://www.w3.org/1999/xlink" x="0px" y="0px" viewBox="0 0 54 54" enable-background="new 0 0 54 54" xml:space="preserve">
		<g id="XMLID_11_">
			<g id="Group_244_1_" transform="translate(2620 3059)">
				<circle id="Ellipse_87_1_" fill="#989798" cx="-2593" cy="-3032" r="27"/>
				<path id="icon-facebook_1_" fill="#4F4F4F" d="M-2586.3-3031.8h-4.6v16.5h-6.8v-16.5h-3.3v-5.8h3.3v-3.8c0-2.7,1.3-6.9,6.9-6.9
					l5.1,0v5.7h-3.7c-0.8,0-1.4,0.6-1.5,1.3c0,0.1,0,0.2,0,0.3v3.4h5.2L-2586.3-3031.8z"/>
			</g>
		</g>
	</svg>
	<svg version="1.1" id="svg_footer_fb" xmlns="http://www.w3.org/2000/svg" xmlns:xlink="http://www.w3.org/1999/xlink" x="0px" y="0px" viewBox="0 0 54 54" enable-background="new 0 0 54 54" xml:space="preserve">
		<g id="XMLID_11_">
			<g id="Group_244_1_" transform="translate(2620 3059)">
				<circle id="Ellipse_87_1_" fill="#3C5B9C" cx="-2593" cy="-3032" r="27"/>
				<path id="icon-facebook_1_" fill="#FFFFFF" d="M-2586.3-3031.8h-4.6v16.5h-6.8v-16.5h-3.3v-5.8h3.3v-3.8c0-2.7,1.3-6.9,6.9-6.9
					l5.1,0v5.7h-3.7c-0.8,0-1.4,0.6-1.5,1.3c0,0.1,0,0.2,0,0.3v3.4h5.2L-2586.3-3031.8z"/>
			</g>
		</g>
	</svg>

	<svg version="1.1" id="svg_footer_twitter_bl" xmlns="http://www.w3.org/2000/svg" xmlns:xlink="http://www.w3.org/1999/xlink" x="0px" y="0px" viewBox="0 0 54 54" enable-background="new 0 0 54 54" xml:space="preserve">
		<g id="XMLID_10_">
			<g id="Group_245_1_" transform="translate(2620 3059)">
				<circle id="Ellipse_88_1_" fill="#989798" cx="-2593" cy="-3032" r="27"/>
				<g id="media_1_" transform="translate(797 2775)">
					<g id="Layer_x0020_1_1_" transform="translate(80.508 63.448)">
						<path id="Path_271_1_" fill="#4F4F4F" d="M-3458.3-5878.8c0.5-0.1,1-0.3,1.5-0.5c0.1-0.1,0.3,0,0.4,0.1c0.1,0.1,0.1,0.2,0,0.3
							c-0.7,1.1-1.7,2.1-2.7,2.9l0,0.5c0,0,0,0,0,0c0,4.3-1.8,8.5-4.8,11.6c-3,3-7,4.6-11.3,4.5c-3.1,0-6.1-0.9-8.7-2.5
							c-0.1-0.1-0.2-0.3-0.1-0.4c0.1-0.1,0.2-0.2,0.3-0.2l0,0c0.2,0,0.4,0,0.6,0.1c0.2,0,0.4,0,0.6,0c2.2,0,4.3-0.6,6.1-1.9
							c-2.2-0.3-4-1.9-4.7-4c-0.1-0.2,0-0.3,0.2-0.4c0.1,0,0.1,0,0.2,0l0,0c0.2,0,0.3,0.1,0.5,0.1c0.2,0,0.3,0,0.5,0h0.2
							c-2.1-0.9-3.5-3-3.5-5.3v-0.1c0-0.2,0.1-0.3,0.3-0.3c0.1,0,0.1,0,0.1,0l0,0c0.4,0.2,0.8,0.4,1.2,0.5c0.1,0,0.1,0,0.2,0.1
							c-1.5-1.5-2.1-3.7-1.6-5.7c0.1-0.5,0.3-1,0.6-1.4c0.1-0.1,0.2-0.2,0.4-0.1c0,0,0.1,0,0.1,0.1l-0.2,0.2l0.2-0.2
							c2.7,3.3,6.6,5.4,10.9,5.7c0-0.1,0-0.2,0-0.3c0-0.2,0-0.5,0-0.7c0-3.2,2.6-5.8,5.8-5.8c1.6,0,3,0.6,4.1,1.7
							c1.2-0.2,2.3-0.7,3.3-1.3c0.1-0.1,0.3-0.1,0.4,0.1c0.1,0.1,0.1,0.2,0,0.3l0,0c-0.3,0.9-0.8,1.8-1.6,2.5
							C-3458.6-5878.8-3458.4-5878.8-3458.3-5878.8L-3458.3-5878.8z"/>
					</g>
				</g>
			</g>
		</g>
	</svg>
	<svg version="1.1" id="svg_footer_twitter" xmlns="http://www.w3.org/2000/svg" xmlns:xlink="http://www.w3.org/1999/xlink" x="0px" y="0px" viewBox="0 0 54 54" enable-background="new 0 0 54 54" xml:space="preserve">
		<g id="XMLID_10_">
			<g id="Group_245_1_" transform="translate(2620 3059)">
				<circle id="Ellipse_88_1_" fill="#2DA9E1" cx="-2593" cy="-3032" r="27"/>
				<g id="media_1_" transform="translate(797 2775)">
					<g id="Layer_x0020_1_1_" transform="translate(80.508 63.448)">
						<path id="Path_271_1_" fill="#FFFFFF" d="M-3458.3-5878.8c0.5-0.1,1-0.3,1.5-0.5c0.1-0.1,0.3,0,0.4,0.1c0.1,0.1,0.1,0.2,0,0.3
							c-0.7,1.1-1.7,2.1-2.7,2.9l0,0.5c0,0,0,0,0,0c0,4.3-1.8,8.5-4.8,11.6c-3,3-7,4.6-11.3,4.5c-3.1,0-6.1-0.9-8.7-2.5
							c-0.1-0.1-0.2-0.3-0.1-0.4c0.1-0.1,0.2-0.2,0.3-0.2l0,0c0.2,0,0.4,0,0.6,0.1c0.2,0,0.4,0,0.6,0c2.2,0,4.3-0.6,6.1-1.9
							c-2.2-0.3-4-1.9-4.7-4c-0.1-0.2,0-0.3,0.2-0.4c0.1,0,0.1,0,0.2,0l0,0c0.2,0,0.3,0.1,0.5,0.1c0.2,0,0.3,0,0.5,0h0.2
							c-2.1-0.9-3.5-3-3.5-5.3v-0.1c0-0.2,0.1-0.3,0.3-0.3c0.1,0,0.1,0,0.1,0l0,0c0.4,0.2,0.8,0.4,1.2,0.5c0.1,0,0.1,0,0.2,0.1
							c-1.5-1.5-2.1-3.7-1.6-5.7c0.1-0.5,0.3-1,0.6-1.4c0.1-0.1,0.2-0.2,0.4-0.1c0,0,0.1,0,0.1,0.1l-0.2,0.2l0.2-0.2
							c2.7,3.3,6.6,5.4,10.9,5.7c0-0.1,0-0.2,0-0.3c0-0.2,0-0.5,0-0.7c0-3.2,2.6-5.8,5.8-5.8c1.6,0,3,0.6,4.1,1.7
							c1.2-0.2,2.3-0.7,3.3-1.3c0.1-0.1,0.3-0.1,0.4,0.1c0.1,0.1,0.1,0.2,0,0.3l0,0c-0.3,0.9-0.8,1.8-1.6,2.5
							C-3458.6-5878.8-3458.4-5878.8-3458.3-5878.8L-3458.3-5878.8z"/>
					</g>
				</g>
			</g>
		</g>
	</svg>

	<svg version="1.1" id="svg_footer_google_bl" xmlns="http://www.w3.org/2000/svg" xmlns:xlink="http://www.w3.org/1999/xlink" x="0px" y="0px" viewBox="0 0 54 54" enable-background="new 0 0 54 54" xml:space="preserve">
		<g id="XMLID_5_">
			<g id="Group_246_1_" transform="translate(2620 3059)">
				<circle id="Ellipse_89_1_" fill="#989798" cx="-2593" cy="-3032" r="27"/>
				<g id="_5fece1bdd39fdc222529db65743f87bd_1_" transform="translate(955.4 2785)">
					<path id="Path_272_1_" fill="#4F4F4F" d="M-3539.2-5819.8v-3.4h-2.2v3.4h-3.4v2.2h3.4v3.4h2.2v-3.4h3.4v-2.2L-3539.2-5819.8
						L-3539.2-5819.8z M-3547.8-5816l-1.2-0.9c-0.5-0.3-0.9-0.9-0.9-1.6c0-0.8,0.5-1.4,1.1-1.8c1.5-1.1,2.9-2.4,2.9-4.8
						c0-1.7-0.9-3.3-2.2-4.4h1.9l1.3-1.6h-7c-4.9,0-7.4,3.1-7.4,6.5c0,3,2.5,5.4,5.5,5.4c0,0,0.1,0,0.1,0h0.9c-0.2,0.5-0.4,1-0.4,1.5
						c0,0.9,0.4,1.7,1,2.2c-2.3,0.1-4.6,0.7-6.6,1.8c-1.5,0.8-2.5,2.4-2.6,4.1c0,2.6,2.4,5,7.4,5c6.1,0,9-3.4,9-6.6
						C-3545-5813.4-3546.3-5814.6-3547.8-5816z M-3556.4-5826.2c0-2.5,1.5-3.6,3-3.6c2.9,0,4.5,3.9,4.5,6.2c0.1,1.8-1.2,3.3-3,3.5
						c-0.1,0-0.2,0-0.3,0C-3554.9-5820.1-3556.4-5823.6-3556.4-5826.2z M-3552.3-5806c-3.7,0-6.1-1.7-6.1-4.2c0-2.5,2.2-3.3,2.9-3.6
						c1.2-0.3,2.4-0.5,3.7-0.6h0.8c2.7,1.9,3.8,2.7,3.8,4.5C-3547.2-5807.7-3549.3-5806-3552.3-5806z"/>
				</g>
			</g>
		</g>
	</svg>
	<svg version="1.1" id="svg_footer_google" xmlns="http://www.w3.org/2000/svg" xmlns:xlink="http://www.w3.org/1999/xlink" x="0px" y="0px" viewBox="0 0 54 54" enable-background="new 0 0 54 54" xml:space="preserve">
		<g id="XMLID_5_">
			<g id="Group_246_1_" transform="translate(2620 3059)">
				<circle id="Ellipse_89_1_" fill="#DD4B38" cx="-2593" cy="-3032" r="27"/>
				<g id="_5fece1bdd39fdc222529db65743f87bd_1_" transform="translate(955.4 2785)">
					<path id="Path_272_1_" fill="#FFFFFF" d="M-3539.2-5819.8v-3.4h-2.2v3.4h-3.4v2.2h3.4v3.4h2.2v-3.4h3.4v-2.2L-3539.2-5819.8
						L-3539.2-5819.8z M-3547.8-5816l-1.2-0.9c-0.5-0.3-0.9-0.9-0.9-1.6c0-0.8,0.5-1.4,1.1-1.8c1.5-1.1,2.9-2.4,2.9-4.8
						c0-1.7-0.9-3.3-2.2-4.4h1.9l1.3-1.6h-7c-4.9,0-7.4,3.1-7.4,6.5c0,3,2.5,5.4,5.5,5.4c0,0,0.1,0,0.1,0h0.9c-0.2,0.5-0.4,1-0.4,1.5
						c0,0.9,0.4,1.7,1,2.2c-2.3,0.1-4.6,0.7-6.6,1.8c-1.5,0.8-2.5,2.4-2.6,4.1c0,2.6,2.4,5,7.4,5c6.1,0,9-3.4,9-6.6
						C-3545-5813.4-3546.3-5814.6-3547.8-5816z M-3556.4-5826.2c0-2.5,1.5-3.6,3-3.6c2.9,0,4.5,3.9,4.5,6.2c0.1,1.8-1.2,3.3-3,3.5
						c-0.1,0-0.2,0-0.3,0C-3554.9-5820.1-3556.4-5823.6-3556.4-5826.2z M-3552.3-5806c-3.7,0-6.1-1.7-6.1-4.2c0-2.5,2.2-3.3,2.9-3.6
						c1.2-0.3,2.4-0.5,3.7-0.6h0.8c2.7,1.9,3.8,2.7,3.8,4.5C-3547.2-5807.7-3549.3-5806-3552.3-5806z"/>
				</g>
			</g>
		</g>
	</svg>

	<svg version="1.1" id="svg_footer_linkdin_bl" xmlns="http://www.w3.org/2000/svg" xmlns:xlink="http://www.w3.org/1999/xlink" x="0px" y="0px" viewBox="0 0 54 54" enable-background="new 0 0 54 54" xml:space="preserve">
		<g id="XMLID_1_">
			<g id="Group_247_1_" transform="translate(2620 3059)">
				<circle id="Ellipse_90_1_" fill="#989798" cx="-2593" cy="-3032" r="27"/>
				<path id="linkedin-icon-1_1_" fill="#4F4F4F" d="M-2605-3042.3c0-0.7,0.3-1.5,0.8-2c0.6-0.5,1.4-0.8,2.2-0.8
					c0.8,0,1.5,0.2,2.1,0.8c0.6,0.5,0.9,1.3,0.8,2.1c0,0.7-0.3,1.4-0.8,1.9c-0.6,0.5-1.4,0.8-2.2,0.8h0c-0.8,0-1.6-0.3-2.1-0.8
					C-2604.7-3040.8-2605-3041.5-2605-3042.3z M-2604.7-3021.3v-16h5.3v16H-2604.7z M-2596.4-3021.3h5.3v-8.9c-0.1-1,0.4-2,1.2-2.7
					c0.5-0.4,1.1-0.6,1.7-0.6c1.8,0,2.7,1.2,2.7,3.6v8.5h5.3v-9.2c0.1-1.9-0.5-3.9-1.7-5.4c-1.1-1.2-2.8-1.9-4.4-1.8
					c-2,0-3.8,1-4.8,2.7v0h0l0,0v-2.3h-5.3c0,0.5,0,2.1,0,4.8S-2596.4-3026.1-2596.4-3021.3z"/>
			</g>
		</g>
	</svg>
	<svg version="1.1" id="svg_footer_linkdin" xmlns="http://www.w3.org/2000/svg" xmlns:xlink="http://www.w3.org/1999/xlink" x="0px" y="0px" viewBox="0 0 54 54" enable-background="new 0 0 54 54" xml:space="preserve">
		<g id="XMLID_1_">
			<g id="Group_247_1_" transform="translate(2620 3059)">
				<circle id="Ellipse_90_1_" fill="#0173B2" cx="-2593" cy="-3032" r="27"/>
				<path id="linkedin-icon-1_1_" fill="#FFFFFF" d="M-2605-3042.3c0-0.7,0.3-1.5,0.8-2c0.6-0.5,1.4-0.8,2.2-0.8
					c0.8,0,1.5,0.2,2.1,0.8c0.6,0.5,0.9,1.3,0.8,2.1c0,0.7-0.3,1.4-0.8,1.9c-0.6,0.5-1.4,0.8-2.2,0.8h0c-0.8,0-1.6-0.3-2.1-0.8
					C-2604.7-3040.8-2605-3041.5-2605-3042.3z M-2604.7-3021.3v-16h5.3v16H-2604.7z M-2596.4-3021.3h5.3v-8.9c-0.1-1,0.4-2,1.2-2.7
					c0.5-0.4,1.1-0.6,1.7-0.6c1.8,0,2.7,1.2,2.7,3.6v8.5h5.3v-9.2c0.1-1.9-0.5-3.9-1.7-5.4c-1.1-1.2-2.8-1.9-4.4-1.8
					c-2,0-3.8,1-4.8,2.7v0h0l0,0v-2.3h-5.3c0,0.5,0,2.1,0,4.8S-2596.4-3026.1-2596.4-3021.3z"/>
			</g>
		</g>
	</svg>
	<svg version="1.1" id="svg_calculator" xmlns="http://www.w3.org/2000/svg" xmlns:xlink="http://www.w3.org/1999/xlink" x="0px" y="0px"
	 viewBox="0 0 32 32" enable-background="new 0 0 32 32" xml:space="preserve" class="svg-icon-sprite">
<g id="XMLID_1_">
	<path id="np_calculator_587869_000000_1_" fill="#36A148" d="M27.2,0H4.8C3.9,0,3.2,0.7,3.2,1.6v28.8c0,0.9,0.7,1.6,1.6,1.6h22.4
		c0.9,0,1.6-0.7,1.6-1.6V1.6C28.8,0.7,28.1,0,27.2,0L27.2,0z M9.6,28.8c-0.9,0-1.6-0.7-1.6-1.6c0-0.9,0.7-1.6,1.6-1.6
		c0.9,0,1.6,0.7,1.6,1.6c0,0,0,0,0,0C11.2,28.1,10.5,28.8,9.6,28.8C9.6,28.8,9.6,28.8,9.6,28.8L9.6,28.8z M9.6,22.4
		c-0.9,0-1.6-0.7-1.6-1.6c0-0.9,0.7-1.6,1.6-1.6c0.9,0,1.6,0.7,1.6,1.6c0,0,0,0,0,0C11.2,21.7,10.5,22.4,9.6,22.4
		C9.6,22.4,9.6,22.4,9.6,22.4L9.6,22.4z M9.6,16C8.7,16,8,15.3,8,14.4c0-0.9,0.7-1.6,1.6-1.6c0.9,0,1.6,0.7,1.6,1.6c0,0,0,0,0,0
		C11.2,15.3,10.5,16,9.6,16C9.6,16,9.6,16,9.6,16L9.6,16z M16,28.8c-0.9,0-1.6-0.7-1.6-1.6s0.7-1.6,1.6-1.6c0.9,0,1.6,0.7,1.6,1.6v0
		C17.6,28.1,16.9,28.8,16,28.8C16,28.8,16,28.8,16,28.8L16,28.8z M16,22.4c-0.9,0-1.6-0.7-1.6-1.6s0.7-1.6,1.6-1.6
		c0.9,0,1.6,0.7,1.6,1.6v0C17.6,21.7,16.9,22.4,16,22.4C16,22.4,16,22.4,16,22.4L16,22.4z M16,16c-0.9,0-1.6-0.7-1.6-1.6
		s0.7-1.6,1.6-1.6c0.9,0,1.6,0.7,1.6,1.6v0C17.6,15.3,16.9,16,16,16C16,16,16,16,16,16L16,16z M22.4,28.8c-0.9,0-1.6-0.7-1.6-1.6
		c0-0.9,0.7-1.6,1.6-1.6c0.9,0,1.6,0.7,1.6,1.6v0C24,28.1,23.3,28.8,22.4,28.8C22.4,28.8,22.4,28.8,22.4,28.8L22.4,28.8z M22.4,22.4
		c-0.9,0-1.6-0.7-1.6-1.6c0-0.9,0.7-1.6,1.6-1.6c0.9,0,1.6,0.7,1.6,1.6v0C24,21.7,23.3,22.4,22.4,22.4
		C22.4,22.4,22.4,22.4,22.4,22.4L22.4,22.4z M22.4,16c-0.9,0-1.6-0.7-1.6-1.6c0-0.9,0.7-1.6,1.6-1.6c0.9,0,1.6,0.7,1.6,1.6v0
		C24,15.3,23.3,16,22.4,16C22.4,16,22.4,16,22.4,16L22.4,16z M25.6,9c0,0.4-0.3,0.7-0.7,0.7H7C6.7,9.6,6.4,9.3,6.4,9v0V3.8
		c0-0.4,0.3-0.7,0.7-0.7l0,0H25c0.4,0,0.7,0.3,0.7,0.7L25.6,9L25.6,9z"/>
</g>
</svg>

</svg>