<?xml version="1.0" encoding="utf-8"?>
<!-- Generator: Adobe Illustrator 21.0.0, SVG Export Plug-In . SVG Version: 6.00 Build 0)  -->
<svg version="1.1" id="Capa_1" xmlns="http://www.w3.org/2000/svg" xmlns:xlink="http://www.w3.org/1999/xlink" x="0px" y="0px"
	 viewBox="0 0 612 401.2" style="enable-background:new 0 0 612 401.2;" xml:space="preserve">
<style type="text/css">
	.st0{fill:#19A69A;}
</style>
<g>
	<g id="Shape_17">
		<g>
			<path class="st0" d="M612,50.8c0-13.1-5.2-24.9-13.4-33.9c-0.1-0.2-0.2-0.4-0.3-0.6c-0.1-0.2-0.3-0.2-0.5-0.4
				c-9.4-9.8-22.6-16-37.2-16H51.4C36.7,0,23.6,6.2,14.2,16c-0.1,0.1-0.3,0.2-0.5,0.4c-0.1,0.2-0.2,0.4-0.3,0.6
				C5.2,26,0,37.8,0,50.8v299.5c0,13.4,5.4,25.5,14,34.6c0.2,0.2,0.2,0.4,0.4,0.6c0.1,0.1,0.1,0.1,0.2,0.1
				c9.4,9.5,22.4,15.5,36.9,15.5h509.1c14.5,0,27.5-6,36.9-15.5c0.1-0.1,0.1-0.1,0.2-0.1c0.2-0.2,0.2-0.4,0.4-0.6
				c8.6-9.1,14-21.2,14-34.6L612,50.8L612,50.8z M411.7,184.8L588.1,38.5c1.7,3.8,2.8,7.9,2.8,12.3v299.5c0,4-0.8,7.7-2.2,11.2
				L411.7,184.8z M560.6,20.9c4.4,0,8.6,1,12.4,2.7L306,245L39,23.7c3.8-1.7,8-2.7,12.4-2.7H560.6z M23.5,361.6
				c-1.4-3.5-2.2-7.2-2.2-11.2V50.8c0-4.4,1-8.5,2.8-12.3l176.4,146.2L23.5,361.6z M51.4,380.2c-4.9,0-9.5-1.3-13.5-3.3l178.7-178.7
				l82.6,68.5c2,1.6,4.4,2.5,6.8,2.5s4.8-0.8,6.8-2.5l82.6-68.5l178.7,178.7c-4.1,2-8.7,3.3-13.6,3.3L51.4,380.2L51.4,380.2z"/>
		</g>
	</g>
</g>
</svg>
