<?xml version="1.0" encoding="utf-8"?>
<!-- Generator: Adobe Illustrator 22.0.0, SVG Export Plug-In . SVG Version: 6.00 Build 0)  -->
<svg version="1.1" id="Layer_1" xmlns="http://www.w3.org/2000/svg" xmlns:xlink="http://www.w3.org/1999/xlink" x="0px" y="0px"
	 viewBox="0 0 467.7 512" style="enable-background:new 0 0 467.7 512;" xml:space="preserve">
<style type="text/css">
	.st0{fill:#757575;}
	.st1{fill:#07A28E;}
</style>
<g>
	<g>
		<path class="st0" d="M425.2,38.5H287.4V10.2c0-5.6-4.6-10.2-10.2-10.2h-86.6c-5.6,0-10.2,4.6-10.2,10.2v28.3H42.5
			C19.1,38.5,0,57.6,0,81v227.8c0,23.5,19.1,42.5,42.5,42.5h137.8v150.5c0,5.6,4.6,10.2,10.2,10.2h86.6c5.6,0,10.2-4.6,10.2-10.2
			V351.3h137.8c23.5,0,42.5-19.1,42.5-42.5V81C467.7,57.6,448.7,38.5,425.2,38.5z M200.8,20.4H267v18.1h-66.2L200.8,20.4L200.8,20.4
			z M267,491.6h-66.2V351.3H267V491.6z M447.3,308.8c0,12.2-9.9,22.1-22.1,22.1H42.5c-12.2,0-22.1-9.9-22.1-22.1V81
			c0-12.2,9.9-22.1,22.1-22.1h382.7c12.2,0,22.1,9.9,22.1,22.1L447.3,308.8L447.3,308.8z"/>
	</g>
</g>
<g>
	<g>
		<path class="st1" d="M249.2,375.3c-5.6,0-10.2,4.6-10.2,10.2v4.1c0,5.6,4.6,10.2,10.2,10.2s10.2-4.6,10.2-10.2v-4.1
			C259.4,379.9,254.8,375.3,249.2,375.3z"/>
	</g>
</g>
<g>
	<g>
		<path class="st0" d="M249.2,409c-5.6,0-10.2,4.6-10.2,10.2v54.1c0,5.6,4.6,10.2,10.2,10.2s10.2-4.6,10.2-10.2v-54.1
			C259.4,413.6,254.8,409,249.2,409z"/>
	</g>
</g>
<g>
	<g>
		<path class="st1" d="M189.6,107.1h-35.8c-3.5,0-7,1.7-7,5h0v65.6c0,3.3,4,5,8.1,5c4,0,8.1-1.7,8.1-5V151h15.6
			c3.4,0,4.9-3.3,4.9-6.1c0-3.3-1.8-6.3-4.9-6.3h-15.6v-17.5h26.7c3.1,0,4.9-3.3,4.9-7.1C194.5,110.7,193,107.1,189.6,107.1z"/>
	</g>
</g>
<g>
	<g>
		<path class="st1" d="M231.9,107.1c-14.2,0-25.3,6.6-25.3,24.4v27.4c0,17.8,11,24.4,25.3,24.4c14.2,0,25.4-6.6,25.4-24.4v-27.4
			C257.3,113.7,246.2,107.1,231.9,107.1z M241.2,158.8c0,7.1-3.5,10.3-9.3,10.3c-5.8,0-9.2-3.2-9.2-10.3v-27.4
			c0-7.1,3.4-10.3,9.2-10.3c5.8,0,9.3,3.2,9.3,10.3V158.8z"/>
	</g>
</g>
<g>
	<g>
		<path class="st1" d="M327.8,173l-12.6-22.8c7.2-2.8,12.5-9.4,12.5-21c0-16.8-11.3-22.1-25.4-22.1h-21.4c-3,0-5,2.3-5,4.9v65.7
			c0,3.3,4,5,8.1,5c4,0,8.1-1.7,8.1-5v-24.9h6.8l14.1,27.5c1.1,2.2,3.1,3,5.2,3c4.8,0,10.1-4.3,10.1-8.4
			C328.3,174.3,328.2,173.6,327.8,173z M302.3,140.3H292v-19.2v0h10.2c5.8,0,9.3,2.4,9.3,9.6C311.5,138,308,140.3,302.3,140.3z"/>
	</g>
</g>
<g>
	<g>
		<path class="st1" d="M163,276l-12.6-22.8c7.2-2.8,12.5-9.4,12.5-21c0-16.8-11.3-22.1-25.4-22.1h-21.4c-3,0-5,2.3-5,4.9v65.7
			c0,3.3,4,5,8.1,5c4,0,8.1-1.7,8.1-5v-24.9h6.8l14.1,27.5c1.1,2.2,3.1,3,5.2,3c4.8,0,10.1-4.3,10.1-8.4
			C163.5,277.3,163.4,276.6,163,276z M137.5,243.3h-10.2v-19.2v0h10.2c5.8,0,9.3,2.4,9.3,9.6C146.8,241,143.3,243.3,137.5,243.3z"/>
	</g>
</g>
<g>
	<g>
		<path class="st1" d="M223.5,271.5h-27.7V254h15.5c3.4,0,4.9-3.3,4.9-6.1c0-3.3-1.8-6.3-4.9-6.3h-15.5l0,0v-17.5h27.7
			c3.1,0,4.9-3.3,4.9-7.1c0-3.3-1.4-6.9-4.9-6.9h-36.8c-3.5,0-7,1.7-7,5v65.6c0,3.3,3.5,5,7,5h36.8c3.4,0,4.9-3.6,4.9-6.9
			C228.4,274.8,226.6,271.5,223.5,271.5z"/>
	</g>
</g>
<g>
	<g>
		<path class="st1" d="M288.4,210.1c-4,0-8.1,1.4-8.1,4.9v35.1l-16.7-31.9c-3.9-7.5-6.1-8.1-11.9-8.1c-4,0-8.1,1.5-8.1,5v65.6
			c0,3.3,4,5,8.1,5c4,0,8.1-1.7,8.1-5v-35.1l19.6,35.7c2,3.6,5.3,4.3,9,4.3c4,0,8.1-1.7,8.1-5v-65.7
			C296.4,211.5,292.4,210.1,288.4,210.1z"/>
	</g>
</g>
<g>
	<g>
		<path class="st1" d="M360.5,210.1h-44.6c-3.4,0-4.9,3.7-4.9,7.1c0,3.9,1.8,7.3,4.9,7.3h14.2v56.1c0,3.3,4,5,8.1,5
			c4,0,8.1-1.7,8.1-5v-56.1h14.2c3.1,0,4.9-3.4,4.9-7.3C365.4,213.8,363.9,210.1,360.5,210.1z"/>
	</g>
</g>
</svg>
