<?xml version="1.0" encoding="utf-8"?>
<!-- Generator: Adobe Illustrator 22.0.0, SVG Export Plug-In . SVG Version: 6.00 Build 0)  -->
<svg version="1.1" id="Layer_1" xmlns="http://www.w3.org/2000/svg" xmlns:xlink="http://www.w3.org/1999/xlink" x="0px" y="0px"
	 viewBox="0 0 467.7 512" style="enable-background:new 0 0 467.7 512;" xml:space="preserve">
<style type="text/css">
	.st0{fill:#757575;}
	.st1{fill:#EF5350;}
</style>
<g>
	<g>
		<path class="st0" d="M425.2,38.5H287.4V10.2c0-5.6-4.6-10.2-10.2-10.2h-86.6c-5.6,0-10.2,4.6-10.2,10.2v28.3H42.5
			C19.1,38.5,0,57.6,0,81v227.8c0,23.5,19.1,42.5,42.5,42.5h137.8v150.5c0,5.6,4.6,10.2,10.2,10.2h86.6c5.6,0,10.2-4.6,10.2-10.2
			V351.3h137.8c23.5,0,42.5-19.1,42.5-42.5V81C467.7,57.6,448.7,38.5,425.2,38.5z M200.8,20.4H267v18.1h-66.2L200.8,20.4L200.8,20.4
			z M267,491.6h-66.2V351.3H267V491.6z M447.3,308.8c0,12.2-9.9,22.1-22.1,22.1H42.5c-12.2,0-22.1-9.9-22.1-22.1V81
			c0-12.2,9.9-22.1,22.1-22.1h382.7c12.2,0,22.1,9.9,22.1,22.1L447.3,308.8L447.3,308.8z"/>
	</g>
</g>
<g>
	<g>
		<path class="st1" d="M249.2,375.3c-5.6,0-10.2,4.6-10.2,10.2v4.1c0,5.6,4.6,10.2,10.2,10.2c5.6,0,10.2-4.6,10.2-10.2v-4.1
			C259.4,379.9,254.8,375.3,249.2,375.3z"/>
	</g>
</g>
<g>
	<g>
		<path class="st0" d="M249.2,409c-5.6,0-10.2,4.6-10.2,10.2v54.1c0,5.6,4.6,10.2,10.2,10.2c5.6,0,10.2-4.6,10.2-10.2v-54.1
			C259.4,413.6,254.8,409,249.2,409z"/>
	</g>
</g>
<g>
	<g>
		<path class="st1" d="M186.5,104h-35.8c-3.5,0-7,1.7-7,5h0v65.6c0,3.3,4,5,8.1,5s8.1-1.7,8.1-5v-26.6h15.6c3.4,0,4.9-3.3,4.9-6.1
			c0-3.3-1.8-6.3-4.9-6.3h-15.6v-17.5h26.7c3.1,0,4.9-3.3,4.9-7.1C191.4,107.6,190,104,186.5,104z"/>
	</g>
</g>
<g>
	<g>
		<path class="st1" d="M228.9,104c-14.3,0-25.3,6.6-25.3,24.4v27.4c0,17.8,11,24.4,25.3,24.4c14.2,0,25.4-6.6,25.4-24.4v-27.4
			C254.3,110.6,243.1,104,228.9,104z M238.2,128.4v27.4c0,7.1-3.5,10.3-9.3,10.3c-5.8,0-9.2-3.2-9.2-10.3v-27.4
			c0-7.1,3.4-10.3,9.2-10.3C234.7,118.1,238.2,121.3,238.2,128.4L238.2,128.4z"/>
	</g>
</g>
<g>
	<g>
		<path class="st1" d="M324.7,169.9l-12.6-22.8c7.2-2.8,12.5-9.4,12.5-21c0-16.8-11.3-22.1-25.4-22.1h-21.4c-3,0-5,2.3-5,4.9l0,0
			v65.7c0,3.3,4,5,8.1,5c4,0,8.1-1.7,8.1-5v-24.9h6.8l14.1,27.5c1.1,2.2,3.1,3,5.2,3c4.7,0,10.1-4.3,10.1-8.4
			C325.2,171.2,325.1,170.5,324.7,169.9z M299.2,137.3H289v-19.2v0h10.2c5.8,0,9.3,2.4,9.3,9.6S305,137.3,299.2,137.3z"/>
	</g>
</g>
<g>
	<g>
		<path class="st1" d="M129.2,226.2c0-3.2,3-6.2,10.3-6.2c8.5,0,10.4,3.9,14.1,3.9c4.5,0,6.4-5.7,6.4-8.5c0-8.1-15.1-9.1-20.5-9.1
			c-12.9,0-26.4,5.9-26.4,21.4c0,24.2,32.7,22,32.7,34.5c0,5-5.3,6.8-10,6.8c-9.6,0-12.7-7.6-17.6-7.6c-3.9,0-7,5.2-7,8.7
			c0,6.8,11.4,13.4,24.9,13.4c15,0,25.8-8.1,25.8-22.9C162,234.6,129.2,236.6,129.2,226.2z"/>
	</g>
</g>
<g>
	<g>
		<path class="st1" d="M232.8,274.8l-19.3-63c-1.1-3.6-5.8-5.4-10.5-5.4c-4.8,0-9.4,1.8-10.5,5.4l-19.2,63c-0.1,0.4-0.2,0.8-0.2,1.1
			c0,3.8,5.9,6.6,10.3,6.6c2.6,0,4.6-0.8,5.3-3l3.5-12.9h21.8l3.5,12.9c0.6,2.2,2.7,3,5.3,3c4.4,0,10.3-2.8,10.3-6.6
			C233,275.6,232.9,275.2,232.8,274.8z M195.4,254.2l7.5-27.7l7.5,27.7H195.4z"/>
	</g>
</g>
<g>
	<g>
		<path class="st1" d="M286.9,268.5h-23.5v-56.6c0-3.4-4-4.9-8.1-4.9c-4,0-8.1,1.4-8.1,4.9v65.7c0,3.3,3.5,5,7,5h32.6
			c3.1,0,4.6-3.5,4.6-7C291.6,272,290,268.5,286.9,268.5z"/>
	</g>
</g>
<g>
	<g>
		<path class="st1" d="M350.1,268.5h-27.7v-17.6h15.5c3.4,0,4.9-3.3,4.9-6.1c0-3.3-1.8-6.3-4.9-6.3h-15.5v-17.5h27.7
			c3.1,0,4.9-3.3,4.9-7.1c0-3.3-1.4-6.9-4.9-6.9h-36.8c-3.5,0-7,1.7-7,5v65.6c0,3.3,3.5,5,7,5h36.8c3.4,0,4.9-3.6,4.9-6.9
			C355,271.8,353.2,268.5,350.1,268.5z"/>
	</g>
</g>
</svg>
