<?xml version="1.0" encoding="utf-8"?>
<!-- Generator: Adobe Illustrator 21.0.0, SVG Export Plug-In . SVG Version: 6.00 Build 0)  -->
<svg version="1.1" id="Isolation_Mode" xmlns="http://www.w3.org/2000/svg" xmlns:xlink="http://www.w3.org/1999/xlink" x="0px"
	 y="0px" viewBox="0 0 69.7 70.7" style="enable-background:new 0 0 69.7 70.7;" xml:space="preserve">
<style type="text/css">
	.st0{fill:#424242;}
</style>
<path class="st0" d="M13.9,0H6C2.7,0,0,2.7,0,6v7.9c0,3.3,2.7,6,6,6h7.9c3.3,0,6-2.7,6-6V6C19.9,2.7,17.3,0,13.9,0z M15.9,13.9
	c0,1.1-0.9,2-2,2H6c-1.1,0-2-0.9-2-2V6c0-1.1,0.9-2,2-2h7.9c1.1,0,2,0.9,2,2V13.9z"/>
<path class="st0" d="M38.7,0h-7.9c-3.3,0-6,2.7-6,6v7.9c0,3.3,2.7,6,6,6h7.9c3.3,0,6-2.7,6-6V6C44.7,2.7,42,0,38.7,0z M40.7,13.9
	c0,1.1-0.9,2-2,2h-7.9c-1.1,0-2-0.9-2-2V6c0-1.1,0.9-2,2-2h7.9c1.1,0,2,0.9,2,2V13.9z"/>
<path class="st0" d="M63.7,0h-7.9c-3.3,0-6,2.7-6,6v7.9c0,3.3,2.7,6,6,6h7.9c3.3,0,6-2.7,6-6V6C69.7,2.7,67,0,63.7,0z M65.7,13.9
	c0,1.1-0.9,2-2,2h-7.9c-1.1,0-2-0.9-2-2V6c0-1.1,0.9-2,2-2h7.9c1.1,0,2,0.9,2,2V13.9z"/>
<path class="st0" d="M13.9,25.8H6c-3.3,0-6,2.7-6,6v7.9c0,3.3,2.7,6,6,6h7.9c3.3,0,6-2.7,6-6v-7.9C19.9,28.4,17.3,25.8,13.9,25.8z
	 M15.9,39.7c0,1.1-0.9,2-2,2H6c-1.1,0-2-0.9-2-2v-7.9c0-1.1,0.9-2,2-2h7.9c1.1,0,2,0.9,2,2V39.7z"/>
<path class="st0" d="M38.7,25.8h-7.9c-3.3,0-6,2.7-6,6v7.9c0,3.3,2.7,6,6,6h7.9c3.3,0,6-2.7,6-6v-7.9C44.7,28.4,42,25.8,38.7,25.8z
	 M40.7,39.7c0,1.1-0.9,2-2,2h-7.9c-1.1,0-2-0.9-2-2v-7.9c0-1.1,0.9-2,2-2h7.9c1.1,0,2,0.9,2,2V39.7z"/>
<path class="st0" d="M63.7,25.8h-7.9c-3.3,0-6,2.7-6,6v7.9c0,3.3,2.7,6,6,6h7.9c3.3,0,6-2.7,6-6v-7.9C69.7,28.4,67,25.8,63.7,25.8z
	 M65.7,39.7c0,1.1-0.9,2-2,2h-7.9c-1.1,0-2-0.9-2-2v-7.9c0-1.1,0.9-2,2-2h7.9c1.1,0,2,0.9,2,2V39.7z"/>
<path class="st0" d="M13.9,50.8H6c-3.3,0-6,2.7-6,6v7.9c0,3.3,2.7,6,6,6h7.9c3.3,0,6-2.7,6-6v-7.9C19.9,53.5,17.3,50.8,13.9,50.8z
	 M15.9,64.7c0,1.1-0.9,2-2,2H6c-1.1,0-2-0.9-2-2v-7.9c0-1.1,0.9-2,2-2h7.9c1.1,0,2,0.9,2,2V64.7z"/>
<path class="st0" d="M38.7,50.8h-7.9c-3.3,0-6,2.7-6,6v7.9c0,3.3,2.7,6,6,6h7.9c3.3,0,6-2.7,6-6v-7.9C44.7,53.5,42,50.8,38.7,50.8z
	 M40.7,64.7c0,1.1-0.9,2-2,2h-7.9c-1.1,0-2-0.9-2-2v-7.9c0-1.1,0.9-2,2-2h7.9c1.1,0,2,0.9,2,2V64.7z"/>
<path class="st0" d="M63.7,50.8h-7.9c-3.3,0-6,2.7-6,6v7.9c0,3.3,2.7,6,6,6h7.9c3.3,0,6-2.7,6-6v-7.9C69.7,53.5,67,50.8,63.7,50.8z
	 M65.7,64.7c0,1.1-0.9,2-2,2h-7.9c-1.1,0-2-0.9-2-2v-7.9c0-1.1,0.9-2,2-2h7.9c1.1,0,2,0.9,2,2V64.7z"/>
</svg>
