<?xml version="1.0" encoding="utf-8"?>
<!-- Generator: Adobe Illustrator 22.0.0, SVG Export Plug-In . SVG Version: 6.00 Build 0)  -->
<svg version="1.1" id="Layer_1" xmlns="http://www.w3.org/2000/svg" xmlns:xlink="http://www.w3.org/1999/xlink" x="0px" y="0px"
	 viewBox="0 0 747.6 538.4" style="enable-background:new 0 0 747.6 538.4;" xml:space="preserve">
<style type="text/css">
	.st0{fill:#BABABA;}
	.st1{fill:#FFFFFF;}
	.st2{fill:#EF5350;}
</style>
<g>
	<g>
		<g>
			<g>
				<polygon class="st0" points="295.9,31.7 298.1,18.6 376.5,31.9 473.9,32.2 285,0 279.5,31.6 				"/>
				<polygon class="st0" points="484.5,34 484.4,50.3 527.2,57.5 485.5,301.6 483.6,301.3 483.6,317.5 498.6,320 545.6,44.4 				"/>
			</g>
			<polygon class="st0" points="483.9,217.6 509,70.5 484.4,66.4 			"/>
			<path class="st0" d="M203,327l0.9-279.6l264.5,0.8l-0.9,279.6L203,327z M219.9,63.5L219.1,311l232.3,0.8l0.8-247.5L219.9,63.5z"
				/>
			<g>
				<polygon class="st0" points="235.6,267.1 435.8,267.7 436.5,80 236.1,79.5 				"/>
			</g>
			<g>
				<path class="st1" d="M274.4,170.4c0.2-15.3,3.8-28.5,11.1-40.8c1.2-2.1,3.9-5.8,3.9-5.8s4.2-2.1,6.4-3
					c30.7-13.5,59.2-9.7,84.9,11.7c11.3,9.4,19,21.1,21.3,36c3,18.9-9.3,40.5-26.3,49.1c-0.5,0.2-0.5,0.2-0.8,0.7
					c-13.1,22.7-46.6,32.9-72.2,11.6C284.3,213.9,275,193.7,274.4,170.4z M337.3,160.8c2-0.8,3.2-1.4,4.5-2c1.2-0.5,1.4-1.2,0.2-2.1
					c-3-2.3-4.8-5.5-6-9c-0.9-2.8-2.8-5-5.3-6.6c-6.3-4.1-12.9-3.9-19.6-1.2c-0.9,0.3-2.7,0.9-2.7,0.9s-0.2,2.2,0,3.5
					c0.6,6.1-0.7,11.9-3.4,17.4c-6.3,13-8.2,26.3-5.3,40.5c1.4,6.7,3.5,13.1,8.8,17.9c10.4,9,22.3,12.6,36,9.3
					c5.7-1.4,10.7-4.1,15.4-8.1c-0.9-0.2-1.4-0.3-1.7-0.5c-21.1-4.4-35.5-26.2-29.8-49.2c0.5-1.7,1.4-3.8,1.4-3.8s1.9,0.1,3.6,0.5
					c20.1,4.1,34,15.5,40.8,35c1,2.9,1.3,3,3.6,1c13.8-11.1,18-32.6,8.9-48c-17.9-30.6-54.4-39.9-84.4-26.2
					c-1.6,0.7-5.5,2.3-5.5,2.3s-0.3,0.8-0.9,2c-8.5,12.9-11.4,27-10.2,42.1c0.3,4.9,1.2,9.6,3.1,14.4c0.2-0.3,0.5-0.5,0.5-0.6
					c0.3-11.3,3.8-21.7,8.6-31.9c2.9-6.3,4.1-13.1,2.6-20c-0.1-0.8-0.5-2.6-0.5-2.6s1.3-0.2,2-0.7c5.7-3.1,11.8-4.9,18.3-4.2
					c8.5,0.9,16.1,4.1,20,12.3c2.4,5.3,4.9,10.3,10.1,13.7c1,0.8,1,0.8,1,0.8s-0.5,0.6-0.9,0.8C346.4,160.5,342.5,161.8,337.3,160.8
					z M334.8,182c-0.1,5.3,1,10.3,3.7,15c5.7,9.6,13.5,15.8,25.3,15.1c1.7,0,3.5-0.7,3.5-0.7s0.2-2-0.2-3.8
					c-3.8-14.4-12.8-24.1-26.4-29.6c-3.1-1.3-5.2-1.2-5.2-1.2S334.8,179.1,334.8,182z"/>
				<path class="st1" d="M333.1,146.2c-0.1,1.9-1.2,3-3,3.1c-1.9,0-3.1-1-3.2-2.9c0-2,1-3.2,3.1-3.2
					C331.9,143,332.9,144.3,333.1,146.2z"/>
			</g>
		</g>
		<g>
			<path class="st0" d="M221.8,378.3h13.1v69.1h-13.1V378.3z"/>
			<path class="st0" d="M256.3,378.3h12.8l16,48.2l16.2-48.2h12.8l11.6,69.1H313l-7.4-43.6l-14.7,43.6h-11.6l-14.5-43.6l-7.6,43.6
				h-12.8L256.3,378.3z"/>
			<path class="st0" d="M357.2,378.3h13.3l26.6,69.1h-13.7l-5.4-14.2h-28.2l-5.6,14.2h-13.7L357.2,378.3z M364,396.6l-9.3,23.7h18.5
				L364,396.6z"/>
			<path class="st0" d="M471,389.5l-9.3,9.2c-5.9-6.2-12.7-9.3-20.5-9.3c-6.8,0-12.5,2.3-17.1,6.8s-6.9,10-6.9,16.4
				c0,6.7,2.4,12.3,7.1,16.9c4.8,4.6,10.6,6.9,17.6,6.9c4.5,0,8.4-1,11.5-2.9s5.6-4.9,7.5-9h-20v-12.3h34.7l0.1,2.9
				c0,6-1.6,11.8-4.7,17.2c-3.1,5.4-7.2,9.5-12.2,12.4S448,449,441.3,449c-7.2,0-13.6-1.6-19.2-4.7s-10.1-7.6-13.3-13.3
				c-3.3-5.8-4.9-12-4.9-18.6c0-9.1,3-17.1,9.1-23.9c7.2-8,16.5-12.1,28-12.1c6,0,11.6,1.1,16.9,3.3
				C462.5,381.7,466.8,384.9,471,389.5z"/>
			<path class="st0" d="M488.1,378.3h37.7v12.9h-24.6v12.5h24.6v12.6h-24.6v18.2h24.6v12.9h-37.7V378.3z"/>
		</g>
		<g>
			<g>
				<path class="st2" d="M66.9,479.7l-9.2,8.8c-6.3-6.6-13.3-9.9-21.1-9.9c-6.6,0-12.2,2.3-16.7,6.8s-6.8,10.1-6.8,16.7
					c0,4.6,1,8.7,3,12.3c2,3.6,4.8,6.4,8.5,8.4s7.7,3.1,12.2,3.1c3.8,0,7.3-0.7,10.5-2.1c3.2-1.4,6.6-4,10.4-7.8l8.9,9.3
					c-5.1,5-9.9,8.4-14.5,10.4s-9.7,2.9-15.5,2.9c-10.7,0-19.5-3.4-26.4-10.2S0,512.7,0,502c0-6.9,1.6-13,4.7-18.4
					s7.6-9.7,13.4-12.9c5.8-3.3,12.1-4.9,18.8-4.9c5.7,0,11.2,1.2,16.5,3.6C58.5,471.9,63.1,475.3,66.9,479.7z"/>
				<path class="st2" d="M111,465.9c9.8,0,18.2,3.5,25.2,10.6s10.5,15.7,10.5,25.9c0,10.1-3.5,18.6-10.4,25.6s-15.4,10.5-25.3,10.5
					c-10.4,0-19-3.6-25.8-10.8C78.4,520.5,75,512,75,502.1c0-6.6,1.6-12.7,4.8-18.2c3.2-5.5,7.6-9.9,13.2-13.2
					C98.5,467.5,104.6,465.9,111,465.9z M110.9,478.7c-6.4,0-11.8,2.2-16.1,6.7c-4.4,4.4-6.5,10.1-6.5,16.9c0,7.6,2.7,13.7,8.2,18.1
					c4.3,3.5,9.1,5.2,14.7,5.2c6.2,0,11.5-2.3,15.9-6.8s6.6-10.1,6.6-16.7s-2.2-12.1-6.6-16.7C122.6,481,117.2,478.7,110.9,478.7z"
					/>
				<path class="st2" d="M165.9,467.6h12.8l16,48.2l16.2-48.2h12.8l11.6,69.1h-12.7l-7.4-43.6l-14.7,43.6h-11.6l-14.5-43.6
					l-7.6,43.6H154L165.9,467.6z"/>
				<path class="st2" d="M244.8,467.6h13.1v69.1h-13.1L244.8,467.6L244.8,467.6z"/>
				<path class="st2" d="M272.6,467.6h12.6l29.6,45.4v-45.4h13.1v69.1h-12.6l-29.5-45.3v45.3h-13.1v-69.1H272.6z"/>
				<path class="st2" d="M407.5,478.9l-9.3,9.2c-5.9-6.2-12.7-9.3-20.5-9.3c-6.8,0-12.5,2.3-17.1,6.8s-6.9,10-6.9,16.4
					c0,6.7,2.4,12.3,7.1,16.9c4.8,4.6,10.6,6.9,17.6,6.9c4.5,0,8.4-1,11.5-2.9s5.6-4.9,7.5-9h-20v-12.3h34.7l0.1,2.9
					c0,6-1.6,11.8-4.7,17.2c-3.1,5.4-7.2,9.5-12.2,12.4c-5,2.8-10.8,4.3-17.5,4.3c-7.2,0-13.6-1.6-19.2-4.7
					c-5.6-3.1-10.1-7.6-13.3-13.3c-3.3-5.8-4.9-12-4.9-18.6c0-9.1,3-17.1,9.1-23.9c7.2-8,16.5-12.1,28-12.1c6,0,11.6,1.1,16.9,3.3
					C398.9,471.1,403.3,474.3,407.5,478.9z"/>
				<path class="st2" d="M487.6,477l-9.7,8.6c-3.4-4.8-6.9-7.1-10.4-7.1c-1.7,0-3.1,0.5-4.2,1.4s-1.6,2-1.6,3.1s0.4,2.3,1.2,3.3
					c1.1,1.4,4.3,4.3,9.6,8.9c5,4.2,8.1,6.8,9.1,7.9c2.7,2.7,4.6,5.3,5.7,7.7c1.1,2.5,1.7,5.1,1.7,8.1c0,5.7-2,10.3-5.9,14
					s-9,5.5-15.3,5.5c-4.9,0-9.2-1.2-12.9-3.6s-6.8-6.2-9.4-11.4l11.1-6.7c3.3,6.1,7.1,9.2,11.5,9.2c2.3,0,4.2-0.7,5.7-2
					s2.3-2.8,2.3-4.6c0-1.6-0.6-3.1-1.7-4.7c-1.2-1.6-3.7-4-7.7-7.2c-7.5-6.1-12.4-10.9-14.6-14.2c-2.2-3.3-3.3-6.7-3.3-10
					c0-4.8,1.8-8.9,5.5-12.3s8.2-5.1,13.5-5.1c3.4,0,6.7,0.8,9.8,2.4C480.6,469.9,484,472.8,487.6,477z"/>
				<path class="st2" d="M534,465.9c9.8,0,18.2,3.5,25.2,10.6s10.5,15.7,10.5,25.9c0,10.1-3.5,18.6-10.4,25.6s-15.4,10.5-25.3,10.5
					c-10.4,0-19-3.6-25.8-10.8c-6.9-7.2-10.3-15.7-10.3-25.5c0-6.6,1.6-12.7,4.8-18.2c3.2-5.5,7.6-9.9,13.2-13.2
					C521.5,467.5,527.5,465.9,534,465.9z M533.9,478.7c-6.4,0-11.8,2.2-16.1,6.7c-4.4,4.4-6.5,10.1-6.5,16.9
					c0,7.6,2.7,13.7,8.2,18.1c4.3,3.5,9.1,5.2,14.7,5.2c6.2,0,11.5-2.3,15.9-6.8s6.6-10.1,6.6-16.7s-2.2-12.1-6.6-16.7
					C545.6,481,540.2,478.7,533.9,478.7z"/>
				<path class="st2" d="M614.7,465.9c9.8,0,18.2,3.5,25.2,10.6s10.5,15.7,10.5,25.9c0,10.1-3.5,18.6-10.4,25.6
					s-15.4,10.5-25.3,10.5c-10.4,0-19-3.6-25.8-10.8c-6.9-7.2-10.3-15.7-10.3-25.5c0-6.6,1.6-12.7,4.8-18.2s7.6-9.9,13.2-13.2
					C602.3,467.5,608.3,465.9,614.7,465.9z M614.6,478.7c-6.4,0-11.8,2.2-16.1,6.7c-4.4,4.4-6.5,10.1-6.5,16.9
					c0,7.6,2.7,13.7,8.2,18.1c4.3,3.5,9.1,5.2,14.7,5.2c6.2,0,11.5-2.3,15.9-6.8s6.6-10.1,6.6-16.7s-2.2-12.1-6.6-16.7
					C626.3,481,620.9,478.7,614.6,478.7z"/>
				<path class="st2" d="M662.9,467.6h12.6l29.6,45.4v-45.4h13.1v69.1h-12.6l-29.5-45.3v45.3H663L662.9,467.6L662.9,467.6z"/>
				<path class="st2" d="M739.6,521.9c2.2,0,4.1,0.8,5.7,2.3c1.6,1.6,2.4,3.5,2.4,5.7s-0.8,4.1-2.4,5.7c-1.6,1.6-3.5,2.4-5.7,2.4
					s-4.1-0.8-5.7-2.3c-1.6-1.6-2.3-3.5-2.3-5.7s0.8-4.1,2.3-5.7C735.4,522.7,737.3,521.9,739.6,521.9z M733.1,465.9h13v50.5h-13
					V465.9z"/>
			</g>
		</g>
	</g>
</g>
</svg>
