<?xml version="1.0" encoding="utf-8"?>
<!-- Generator: Adobe Illustrator 22.0.0, SVG Export Plug-In . SVG Version: 6.00 Build 0)  -->
<svg version="1.1" id="Capa_1" xmlns="http://www.w3.org/2000/svg" xmlns:xlink="http://www.w3.org/1999/xlink" x="0px" y="0px"
	 viewBox="0 0 424 512" style="enable-background:new 0 0 424 512;" xml:space="preserve">
<style type="text/css">
	.st0{fill:#454545;}
	.st1{fill:#EF5350;}
</style>
<g>
	<g>
		<path class="st0" d="M356,152H212c-5.5,0-10,4.5-10,10s4.5,10,10,10h144c5.5,0,10-4.5,10-10S361.5,152,356,152z"/>
	</g>
</g>
<g>
	<g>
		<path class="st1" d="M321,202.9c-1.9-1.9-4.4-2.9-7.1-2.9s-5.2,1.1-7.1,2.9c-1.9,1.9-2.9,4.4-2.9,7.1s1.1,5.2,2.9,7.1
			s4.4,2.9,7.1,2.9s5.2-1.1,7.1-2.9c1.9-1.9,2.9-4.4,2.9-7.1S322.9,204.8,321,202.9z"/>
	</g>
</g>
<g>
	<g>
		<path class="st1" d="M219.1,45.9c-1.9-1.9-4.4-2.9-7.1-2.9s-5.2,1.1-7.1,2.9S202,50.4,202,53s1.1,5.2,2.9,7.1
			c1.9,1.9,4.4,2.9,7.1,2.9s5.2-1.1,7.1-2.9c1.9-1.9,2.9-4.4,2.9-7.1S220.9,47.8,219.1,45.9z"/>
	</g>
</g>
<g>
	<g>
		<path class="st0" d="M271.9,200H212c-5.5,0-10,4.5-10,10s4.5,10,10,10h59.9c5.5,0,10-4.5,10-10S277.4,200,271.9,200z"/>
	</g>
</g>
<g>
	<g>
		<path class="st0" d="M356,260H212c-5.5,0-10,4.5-10,10s4.5,10,10,10h144c5.5,0,10-4.5,10-10S361.5,260,356,260z"/>
	</g>
</g>
<g>
	<g>
		<path class="st1" d="M321,310.9c-1.9-1.9-4.4-2.9-7.1-2.9s-5.2,1.1-7.1,2.9c-1.9,1.9-2.9,4.4-2.9,7.1s1.1,5.2,2.9,7.1
			s4.4,2.9,7.1,2.9s5.2-1.1,7.1-2.9c1.9-1.9,2.9-4.4,2.9-7.1S322.9,312.8,321,310.9z"/>
	</g>
</g>
<g>
	<g>
		<path class="st0" d="M271.9,308H212c-5.5,0-10,4.5-10,10s4.5,10,10,10h59.9c5.5,0,10-4.5,10-10S277.4,308,271.9,308z"/>
	</g>
</g>
<g>
	<g>
		<path class="st0" d="M356,368H212c-5.5,0-10,4.5-10,10s4.5,10,10,10h144c5.5,0,10-4.5,10-10S361.5,368,356,368z"/>
	</g>
</g>
<g>
	<g>
		<path class="st1" d="M321,418.9c-1.9-1.9-4.4-2.9-7.1-2.9s-5.2,1.1-7.1,2.9c-1.9,1.9-2.9,4.4-2.9,7.1s1.1,5.2,2.9,7.1
			s4.4,2.9,7.1,2.9s5.2-1.1,7.1-2.9c1.9-1.9,2.9-4.4,2.9-7.1S322.9,420.8,321,418.9z"/>
	</g>
</g>
<g>
	<g>
		<path class="st0" d="M271.9,416H212c-5.5,0-10,4.5-10,10s4.5,10,10,10h59.9c5.5,0,10-4.5,10-10S277.4,416,271.9,416z"/>
	</g>
</g>
<g>
	<g>
		<path class="st0" d="M375.2,39h-76.4c-11-10.5-26-17-42.4-17h-8.8C241,8.7,227.3,0,212,0s-29,8.7-35.7,22h-8.8
			c-16.4,0-31.3,6.5-42.4,17H48.8C21.9,39,0,60.9,0,87.8v375.5C0,490.1,21.9,512,48.8,512h326.5c26.9,0,48.8-21.9,48.8-48.8V87.8
			C424,60.9,402.1,39,375.2,39z M167.5,42h15.6c4.5,0,8.4-3,9.6-7.3C195.1,26,203,20,212,20c9,0,16.9,6,19.3,14.7
			c1.2,4.3,5.1,7.3,9.6,7.3h15.6c21.7,0,39.6,16.8,41.4,38H126.1C127.9,58.8,145.8,42,167.5,42z M404,463.2
			c0,15.9-12.9,28.8-28.8,28.8H48.8C32.9,492,20,479.1,20,463.2V87.8C20,71.9,32.9,59,48.8,59h62.3c-3.3,7.5-5.1,15.8-5.1,24.5V90
			c0,5.5,4.5,10,10,10h192c5.5,0,10-4.5,10-10v-6.5c0-8.7-1.8-17-5.1-24.5h62.4c15.9,0,28.8,12.9,28.8,28.8V463.2z"/>
	</g>
</g>
<g>
	<g>
		<path class="st1" d="M148.4,149.6c-3.9-3.9-10.2-3.9-14.1,0l-42.8,42.8l-13.2-13.2c-3.9-3.9-10.2-3.9-14.1,0
			c-3.9,3.9-3.9,10.2,0,14.1l20.2,20.2c2,2,4.5,2.9,7.1,2.9s5.1-1,7.1-2.9l49.8-49.8C152.3,159.8,152.3,153.5,148.4,149.6z"/>
	</g>
</g>
<g>
	<g>
		<path class="st1" d="M124,368H76c-5.5,0-10,4.5-10,10v48c0,5.5,4.5,10,10,10h48c5.5,0,10-4.5,10-10v-48
			C134,372.5,129.5,368,124,368z M114,416H86v-28h28V416z"/>
	</g>
</g>
<g>
	<g>
		<path class="st1" d="M124,260H76c-5.5,0-10,4.5-10,10v48c0,5.5,4.5,10,10,10h48c5.5,0,10-4.5,10-10v-48
			C134,264.5,129.5,260,124,260z M114,308H86v-28h28V308z"/>
	</g>
</g>
</svg>
