<?xml version="1.0" encoding="utf-8"?>
<!-- Generator: Adobe Illustrator 21.0.0, SVG Export Plug-In . SVG Version: 6.00 Build 0)  -->
<svg version="1.1" id="_x2014_ÎÓÈ_x5F_1" xmlns="http://www.w3.org/2000/svg" xmlns:xlink="http://www.w3.org/1999/xlink"
	 x="0px" y="0px" viewBox="0 0 115.9 138" style="enable-background:new 0 0 115.9 138;" xml:space="preserve">
<style type="text/css">
	.st0{fill:none;stroke:#EF5350;stroke-width:3;stroke-linecap:round;stroke-linejoin:round;stroke-miterlimit:10;}
</style>
<g id="XMLID_1522_">
	<polyline id="XMLID_1535_" class="st0" points="1.5,31.6 90.5,31.6 90.5,99.7 	"/>
	<path id="XMLID_1534_" class="st0" d="M54,136.5H9.4c-4.4,0-7.9-3.5-7.9-7.9V46.7"/>
	<path id="XMLID_1533_" class="st0" d="M12.7,24.4c-6.2,0-11.2-5.1-11.2-11.4c0-6.3,5-11.4,11.2-11.4c6.2,0,11.2,5.1,11.2,11.4"/>
	<path id="XMLID_1532_" class="st0" d="M35,24.4c-6.2,0-11.2-5.1-11.2-11.4c0-6.3,5-11.4,11.2-11.4c6.2,0,11.2,5.1,11.2,11.4"/>
	<path id="XMLID_1531_" class="st0" d="M57,24.4c-6.2,0-11.2-5.1-11.2-11.4c0-6.3,5-11.4,11.2-11.4c6.2,0,11.2,5.1,11.2,11.4"/>
	<path id="XMLID_1530_" class="st0" d="M79.3,24.4c-6.2,0-11.2-5.1-11.2-11.4c0-6.3,5-11.4,11.2-11.4c6.2,0,11.2,5.1,11.2,11.4"/>
	<path id="XMLID_1529_" class="st0" d="M90.5,31.6l23.7,88.5c0.9,3.5-1.7,6.9-5.3,6.9H82.8"/>
	<polygon id="XMLID_1528_" class="st0" points="90.5,12.9 1.5,12.9 1.5,31.6 90.5,31.6 	"/>
	<line id="XMLID_1527_" class="st0" x1="58.4" y1="103.5" x2="11.6" y2="103.5"/>
	<path id="XMLID_1526_" class="st0" d="M54,136.5c0,0,8.5-10.1,9.8-22.8c0.7-6.6,5.9-11.5,11.9-10.7c5,0.7,10.4,0.2,14.8-3.3
		c-1,4.6-3.5,13-9.9,21C70.7,132.9,58.1,135.8,54,136.5z"/>
	<rect id="XMLID_39_" x="17.4" y="48" class="st0" width="56.2" height="33.2"/>
</g>
</svg>
