<?xml version="1.0" encoding="utf-8"?>
<!-- Generator: Adobe Illustrator 22.0.0, SVG Export Plug-In . SVG Version: 6.00 Build 0)  -->
<svg version="1.1" id="Layer_1" xmlns="http://www.w3.org/2000/svg" xmlns:xlink="http://www.w3.org/1999/xlink" x="0px" y="0px"
	 viewBox="0 0 1200 534" style="enable-background:new 0 0 1200 534;" xml:space="preserve">
<style type="text/css">
	.st0{fill:url(#SVGID_1_);}
	.st1{fill:#D63C3C;}
	.st2{fill:#424242;}
	.st3{fill:#DDDDDD;}
	.st4{fill:#F9F9F9;}
	.st5{fill:#FFFFFF;}
	.st6{fill:#EF5350;}
	.st7{fill:#F2F2F2;}
	.st8{fill:#D85681;}
	.st9{fill:#74D7DA;}
</style>
<linearGradient id="SVGID_1_" gradientUnits="userSpaceOnUse" x1="485.9666" y1="381.0334" x2="25.6814" y2="841.3185" gradientTransform="matrix(1 0 0 -1 0 534)">
	<stop  offset="0" style="stop-color:#EF5350"/>
	<stop  offset="1" style="stop-color:#FF865C"/>
</linearGradient>
<rect class="st0" width="1200" height="534"/>
<g>
	<path class="st1" d="M671.2,362.8c0,7.6-35.8,18.5-46.6,28.4c-5.5,5-3.3,9,4.5,6.7c6-1.9,21.5-6.2,39.1-8.4c7.6-0.9,12.4,1.5,16,5
		c31.6,29.6,37.1,95.5,15.9,138.6H474.4c-15.2-36.1-20-76.8-4.9-113.9c1-2.4,4.5-6.7,6.2-8.5c5.4-5.6,15-11.7,20.4-14.7
		c1.4-0.8,1-2.3-0.6-1.8c-1.7,0.5-7.2,2.4-10.1,2.4c-1.8,0-2.8-1.5-1-3.8c30-40.2,79.9-55.8,127.3-50c14.2,1.8-3.5,7.1-13.2,15
		c-6.2,5-0.4,3.9,3.1,3.3C640,354.3,671.2,353.9,671.2,362.8L671.2,362.8z"/>
	<path class="st2" d="M711.5,533c0,0.5-0.4,1-1,1c-0.5,0-1-0.4-1-1v-5.2h-18v5.2c0,0.5-0.4,1-1,1c-0.5,0-1-0.4-1-1v-5.2H687v-1.9
		h2.6v-1.6H687v-1.8h2.6v-1.6H687V519h3.6h19.9h3.6v1.9h-2.6v1.6h2.6v1.9h-2.6v1.6h2.6v1.9h-2.6V533L711.5,533z M691.6,520.9v1.6h18
		v-1.6H691.6L691.6,520.9z M691.6,524.4v1.6h18v-1.6H691.6L691.6,524.4z"/>
	<path class="st3" d="M707.1,476.8c11.1,0,20,9,20,20c0,11.1-9,20-20,20c-11.1,0-20-9-20-20C687,485.8,696,476.8,707.1,476.8
		L707.1,476.8z"/>
	<path class="st4" d="M704.9,478.9c8.5,0,15.3,6.9,15.3,15.3s-6.9,15.3-15.3,15.3c-8.5,0-15.3-6.9-15.3-15.3
		S696.5,478.9,704.9,478.9L704.9,478.9z"/>
	<path class="st2" d="M707.1,475.9c5.8,0,11,2.3,14.8,6.1c3.8,3.8,6.1,9,6.1,14.8s-2.3,11-6.1,14.8c-3.6,3.6-8.5,5.9-13.9,6.1v15.2
		c0,0.5-0.4,1-1,1c-0.5,0-1-0.4-1-1v-15.2c-5.4-0.2-10.3-2.5-13.9-6.1c-3.8-3.8-6.1-9-6.1-14.8s2.3-11,6.1-14.8
		C696,478.2,701.3,475.9,707.1,475.9L707.1,475.9z M710.6,499.5c0.4-0.4,1-0.4,1.3,0c0.4,0.4,0.4,1,0,1.3l-4,4v11.1
		c4.9-0.2,9.3-2.3,12.5-5.6c3.5-3.5,5.6-8.2,5.6-13.5s-2.1-10-5.6-13.5s-8.2-5.6-13.5-5.6s-10,2.1-13.5,5.6s-5.6,8.2-5.6,13.5
		s2.1,10,5.6,13.5c3.2,3.2,7.6,5.3,12.5,5.6v-4.8l-7.2-7.2c-0.4-0.4-0.4-1,0-1.3c0.4-0.4,1-0.4,1.3,0l5.9,5.9v-11.6c0-0.5,0.4-1,1-1
		c0.5,0,1,0.4,1,1v5.3L710.6,499.5L710.6,499.5z"/>
	<path class="st3" d="M490,476.8c11.1,0,20,9,20,20c0,11.1-9,20-20,20c-11.1,0-20-9-20-20S479,476.8,490,476.8L490,476.8z"/>
	<path class="st4" d="M487.9,478.9c8.5,0,15.3,6.9,15.3,15.3c0,8.5-6.9,15.3-15.3,15.3c-8.5,0-15.3-6.9-15.3-15.3
		C472.5,485.8,479.4,478.9,487.9,478.9L487.9,478.9z"/>
	<path class="st2" d="M493.6,499.5c0.4-0.4,1-0.4,1.3,0c0.4,0.4,0.4,1,0,1.3l-4,4v11.1c4.9-0.2,9.3-2.3,12.5-5.6
		c3.5-3.5,5.6-8.2,5.6-13.5s-2.1-10-5.6-13.5s-8.2-5.6-13.5-5.6s-10,2.1-13.5,5.6s-5.6,8.2-5.6,13.5s2.1,10,5.6,13.5
		c3.2,3.2,7.6,5.3,12.5,5.6v-4.8l-7.2-7.2c-0.4-0.4-0.4-1,0-1.3c0.4-0.4,1-0.4,1.3,0l5.9,5.9v-11.6c0-0.5,0.4-1,1-1c0.5,0,1,0.4,1,1
		v5.3L493.6,499.5L493.6,499.5z M491,517.8V533c0,0.5-0.4,1-1,1c-0.5,0-1-0.4-1-1v-15.2c-5.4-0.2-10.3-2.5-13.9-6.1
		c-3.8-3.8-6.1-9-6.1-14.8s2.3-11,6.1-14.8c3.8-3.8,9-6.1,14.8-6.1s11,2.3,14.8,6.1c3.8,3.8,6.1,9,6.1,14.8s-2.3,11-6.1,14.8
		C501.3,515.3,496.4,517.6,491,517.8L491,517.8z"/>
	<path class="st3" d="M528.5,392.4h-6.8c-5.8-3.6-13.1-11.4-13.1-19.9c0-11,8.9-19.9,19.9-19.9s19.9,8.9,19.9,19.9
		c0,8.6-7.3,16.3-13.1,19.9H528.5L528.5,392.4z"/>
	<path class="st5" d="M528.5,392.4H523c-4.7-3.6-10.6-11.4-10.6-19.9c0-11,7.2-19.9,16.1-19.9c8.9,0,16.1,8.9,16.1,19.9
		c0,8.6-5.9,16.3-10.6,19.9H528.5L528.5,392.4z"/>
	<path class="st3" d="M528.5,392.4h-3.9c-3.3-3.6-7.5-11.4-7.5-19.9c0-11,5.1-19.9,11.4-19.9c6.3,0,11.4,8.9,11.4,19.9
		c0,8.6-4.2,16.3-7.5,19.9H528.5L528.5,392.4z"/>
	<path class="st5" d="M533.3,403.6v6.1c0,0.7-0.5,1.2-1.2,1.2h-7.2c-0.7,0-1.2-0.5-1.2-1.2v-6.1H533.3L533.3,403.6z"/>
	<path class="st5" d="M523.7,400.6h9.6c0.3,0,0.6,0.3,0.6,0.6v1.7c0,0.3-0.3,0.6-0.6,0.6h-9.6c-0.3,0-0.6-0.3-0.6-0.6v-1.7
		C523.1,400.9,523.4,400.6,523.7,400.6L523.7,400.6z"/>
	<path class="st5" d="M521.7,392.4h13.6v2.3c0,0.3-0.3,0.6-0.6,0.6h-12.4c-0.3,0-0.6-0.3-0.6-0.6V392.4L521.7,392.4z"/>
	<path class="st5" d="M528.5,392.4h-1.6c-1.4-3.6-3-11.4-3-19.9c0-11,2.1-19.9,4.6-19.9c2.6,0,4.6,8.9,4.6,19.9
		c0,8.6-1.7,16.3-3,19.9H528.5L528.5,392.4z"/>
	<path class="st3" d="M533.3,403.6v6.1c0,0.7-0.5,1.2-1.2,1.2h-2.6c0.7,0,1.2-0.5,1.2-1.2v-6.1l0,0H533.3L533.3,403.6z"/>
	<path class="st3" d="M530.7,400.6h2.6c0.3,0,0.6,0.3,0.6,0.6v1.7c0,0.3-0.3,0.6-0.6,0.6h-2.6c0.3,0,0.6-0.3,0.6-0.6v-1.7
		C531.4,400.9,531.1,400.6,530.7,400.6L530.7,400.6z"/>
	<path class="st3" d="M532.7,392.4h2.6v2.3c0,0.3-0.3,0.6-0.6,0.6h-2.6c0.3,0,0.6-0.3,0.6-0.6V392.4L532.7,392.4z"/>
	<path class="st2" d="M528.5,393.3h-5.9v1.1h3.3h5.1h3.3v-1.1H528.5L528.5,393.3z M524.5,399.7h0.5v-3.4h-1.4L524.5,399.7
		L524.5,399.7z M526.9,399.7h3.2v-3.4h-3.2V399.7L526.9,399.7z M532,399.7h0.5l0.9-3.4H532V399.7L532,399.7z M534.4,400.1
		L534.4,400.1C534.4,400.2,534.5,400.2,534.4,400.1c0.3,0.4,0.5,0.7,0.5,1.1v1.7c0,0.4-0.2,0.8-0.5,1.1c-0.1,0.1-0.1,0.1-0.2,0.1
		v5.5c0,0.6-0.2,1.1-0.6,1.5c0,0,0,0-0.1,0.1c-0.4,0.3-0.9,0.6-1.4,0.6h-7.2c-0.6,0-1.1-0.2-1.5-0.6l0,0l0,0l0,0
		c-0.4-0.4-0.6-0.9-0.6-1.5v-5.5c-0.1,0-0.1-0.1-0.2-0.1l0,0c-0.3-0.3-0.5-0.7-0.5-1.1v-1.7c0-0.4,0.2-0.8,0.5-1.1l0,0l0,0l0,0l0,0
		l-1.1-4c-0.1-0.1-0.2-0.2-0.3-0.3l0,0l0,0l0,0c-0.3-0.3-0.5-0.7-0.5-1.1V393c-3.2-2.1-6.8-5.4-9.4-9.3c-2.2-3.3-3.7-7.1-3.7-11.1
		c0-5.8,2.3-11,6.1-14.8c3.8-3.8,9-6.1,14.8-6.1s11,2.3,14.8,6.1c3.8,3.8,6.1,9,6.1,14.8c0,4-1.5,7.8-3.7,11.1
		c-2.6,3.9-6.2,7.2-9.4,9.3v1.8c0,0.4-0.2,0.8-0.5,1.1l0,0c-0.1,0.1-0.2,0.2-0.3,0.3L534.4,400.1L534.4,400.1z M532.3,404.5h-7.7
		v5.2c0,0.1,0,0.1,0.1,0.2l0,0c0,0,0.1,0.1,0.2,0.1h7.2c0.1,0,0.1,0,0.1,0l0,0c0,0,0.1-0.1,0.1-0.2L532.3,404.5L532.3,404.5z
		 M533,401.6h-1.9H526h-2v1.1h8.9L533,401.6L533,401.6z M522,391.4h6.5h6.5c3.1-2,6.6-5.1,9.1-8.9c2-3,3.4-6.5,3.4-10.1
		c0-5.2-2.1-10-5.6-13.4c-3.4-3.4-8.2-5.6-13.4-5.6s-10,2.1-13.4,5.6c-3.4,3.4-5.6,8.2-5.6,13.4c0,3.6,1.4,7,3.4,10.1
		C515.4,386.3,518.9,389.5,522,391.4L522,391.4z"/>
	<polygon class="st5" points="792.8,382.6 792.8,376.9 799.8,376.9 799.8,407.6 799.8,413.4 801.5,413.4 801.5,418.2 799.8,418.2 
		799.8,487.2 801.5,487.2 801.5,492.1 799.8,492.1 799.8,533 717.4,533 717.4,492.1 715.8,492.1 715.8,487.2 717.4,487.2 
		717.4,418.2 715.8,418.2 715.8,413.4 717.4,413.4 717.4,407.6 717.4,376.9 724.5,376.9 724.5,382.6 	"/>
	<path class="st6" d="M785.2,413.4c0,0.5-0.4,1-1,1c-0.5,0-1-0.4-1-1v-30.7c0-0.5,0.4-1,1-1c0.5,0,1,0.4,1,1V413.4L785.2,413.4z
		 M734,413.4c0,0.5-0.4,1-1,1c-0.5,0-1-0.4-1-1v-30.7c0-0.5,0.4-1,1-1c0.5,0,1,0.4,1,1V413.4L734,413.4z M742.5,406.9
		c0,0.5-0.4,1-1,1c-0.5,0-1-0.4-1-1v-24.2c0-0.5,0.4-1,1-1c0.5,0,1,0.4,1,1V406.9L742.5,406.9z M751,403c0,0.5-0.4,1-1,1
		c-0.5,0-1-0.4-1-1v-20.4c0-0.5,0.4-1,1-1c0.5,0,1,0.4,1,1V403L751,403z M759.6,399.2c0,0.5-0.4,1-1,1c-0.5,0-1-0.4-1-1v-16.5
		c0-0.5,0.4-1,1-1c0.5,0,1,0.4,1,1V399.2L759.6,399.2z M768.1,403c0,0.5-0.4,1-1,1c-0.5,0-1-0.4-1-1v-20.4c0-0.5,0.4-1,1-1
		c0.5,0,1,0.4,1,1V403L768.1,403z M776.6,406.9c0,0.5-0.4,1-1,1c-0.5,0-1-0.4-1-1v-24.2c0-0.5,0.4-1,1-1c0.5,0,1,0.4,1,1V406.9
		L776.6,406.9z"/>
	<polygon class="st3" points="717.4,421.5 799.8,421.5 799.8,424.5 717.4,424.5 	"/>
	<polygon class="st3" points="717.4,492.1 799.8,492.1 799.8,495.1 717.4,495.1 	"/>
	<polygon class="st3" points="756.1,429.8 763.9,429.8 763.9,446.5 756.1,446.5 	"/>
	<polygon class="st3" points="732.2,429.8 740,429.8 740,446.5 732.2,446.5 	"/>
	<polygon class="st3" points="780.1,466.5 787.9,466.5 787.9,483.2 780.1,483.2 	"/>
	<polygon class="st3" points="756.1,466.5 763.9,466.5 763.9,483.2 756.1,483.2 	"/>
	<polygon class="st3" points="732.2,466.5 740,466.5 740,483.2 732.2,483.2 	"/>
	<polygon class="st6" points="780.1,503.3 787.9,503.3 787.9,529.5 780.1,529.5 	"/>
	<polygon class="st3" points="732.2,503.3 763.9,503.3 763.9,529.5 732.2,529.5 	"/>
	<polygon class="st3" points="780.1,429.8 787.9,429.8 787.9,446.5 780.1,446.5 	"/>
	<path class="st5" d="M733.7,505.1c0,1.2-1,2.2-2.2,2.2s-2.2-1-2.2-2.2v-5.6h4.3v5.6H733.7z"/>
	<path class="st6" d="M738,505.1c0,1.2-1,2.2-2.2,2.2s-2.2-1-2.2-2.2v-5.6h4.3v5.6H738z"/>
	<path class="st5" d="M742.3,505.1c0,1.2-1,2.2-2.2,2.2s-2.2-1-2.2-2.2v-5.6h4.3v5.6H742.3z"/>
	<path class="st6" d="M746.6,505.1c0,1.2-1,2.2-2.2,2.2s-2.2-1-2.2-2.2v-5.6h4.3v5.6H746.6z"/>
	<path class="st5" d="M751,505.1c0,1.2-1,2.2-2.2,2.2s-2.2-1-2.2-2.2v-5.6h4.3v5.6H751z"/>
	<path class="st6" d="M755.3,505.1c0,1.2-1,2.2-2.2,2.2s-2.2-1-2.2-2.2v-5.6h4.3v5.6H755.3z"/>
	<path class="st5" d="M759.6,505.1c0,1.2-1,2.2-2.2,2.2s-2.2-1-2.2-2.2v-5.6h4.3v5.6H759.6z"/>
	<path class="st6" d="M763.9,505.1c0,1.2-1,2.2-2.2,2.2s-2.2-1-2.2-2.2v-5.6h4.3v5.6H763.9z"/>
	<path class="st2" d="M737.1,499.5c0-0.5,0.4-1,1-1c0.5,0,1,0.4,1,1v5.6l0,0l0,0l0,0l0,0c0,0.3,0.1,0.6,0.4,0.8
		c0.2,0.2,0.5,0.4,0.9,0.4l0,0l0,0l0,0c0.3,0,0.6-0.1,0.8-0.4c0.2-0.2,0.3-0.5,0.3-0.8l0,0l0,0v-5.6c0-0.5,0.4-1,1-1
		c0.5,0,1,0.4,1,1v5.6l0,0c0,0.3,0.1,0.6,0.4,0.9c0.2,0.2,0.5,0.4,0.9,0.4l0,0l0,0l0,0c0.3,0,0.6-0.1,0.8-0.4
		c0.2-0.2,0.3-0.5,0.3-0.8l0,0l0,0l0,0v-5.7c0-0.5,0.4-1,1-1c0.5,0,1,0.4,1,1v5.6l0,0c0,0.3,0.1,0.6,0.4,0.9l0,0l0,0
		c0.2,0.2,0.5,0.3,0.9,0.3l0,0l0,0l0,0c0.3,0,0.6-0.1,0.8-0.4c0.2-0.2,0.3-0.5,0.3-0.8l0,0l0,0l0,0v-5.6c0-0.5,0.4-1,1-1
		c0.5,0,1,0.4,1,1v5.6l0,0c0,0.3,0.1,0.6,0.3,0.8l0,0c0.2,0.2,0.5,0.4,0.9,0.4l0,0l0,0l0,0c0.3,0,0.6-0.1,0.8-0.4
		c0.2-0.2,0.3-0.5,0.3-0.8l0,0l0,0l0,0v-5.6c0-0.5,0.4-1,1-1c0.5,0,1,0.4,1,1v5.6l0,0c0,0.3,0.1,0.6,0.3,0.8l0,0
		c0.2,0.2,0.5,0.4,0.9,0.4l0,0l0,0l0,0c0.3,0,0.6-0.1,0.8-0.4c0.2-0.2,0.3-0.5,0.3-0.8l0,0l0,0l0,0v-5.6c0-0.5,0.4-1,1-1
		c0.5,0,1,0.4,1,1v5.6l0,0c0,0.3,0.1,0.6,0.3,0.8l0,0c0.2,0.2,0.5,0.4,0.9,0.4l0,0l0,0l0,0c0.3,0,0.6-0.1,0.8-0.4
		c0.2-0.2,0.3-0.5,0.3-0.8l0,0l0,0c0-0.5,0.4-1,0.9-1s1,0.4,1,0.9l0,0l0,0l0,0c0,0.8-0.4,1.6-0.9,2.2c-0.6,0.6-1.3,0.9-2.2,0.9l0,0
		l0,0l0,0l0,0c-0.8,0-1.6-0.3-2.2-0.9c-0.6,0.5-1.3,0.9-2.1,0.9l0,0l0,0l0,0l0,0c-0.8,0-1.6-0.3-2.2-0.9c-0.6,0.5-1.3,0.9-2.1,0.9
		l0,0l0,0l0,0l0,0c-0.8,0-1.6-0.3-2.2-0.9c-0.6,0.5-1.3,0.9-2.1,0.9l0,0l0,0l0,0l0,0c-0.8,0-1.6-0.3-2.2-0.9
		c-0.6,0.5-1.3,0.9-2.1,0.9l0,0l0,0l0,0l0,0c-0.8,0-1.6-0.3-2.2-0.9c-0.6,0.5-1.3,0.9-2.1,0.9l0,0l0,0l0,0l0,0
		c-0.8,0-1.6-0.3-2.2-0.9c-0.6,0.5-1.3,0.9-2.1,0.9l0,0l0,0l0,0l0,0c-0.8,0-1.6-0.3-2.2-0.9c-0.6,0.5-1.3,0.9-2.1,0.9l0,0l0,0l0,0
		l0,0c-0.9,0-1.6-0.3-2.2-0.9l0,0c-0.6-0.6-0.9-1.3-0.9-2.2c0-0.5,0.4-1,1-1c0.5,0,1,0.4,1,1c0,0.3,0.1,0.6,0.4,0.9l0,0l0,0
		c0.2,0.2,0.5,0.3,0.9,0.3l0,0l0,0l0,0c0.3,0,0.6-0.1,0.8-0.4c0.2-0.2,0.3-0.5,0.3-0.8l0,0l0,0l0,0v-5.5c0-0.5,0.4-1,1-1
		c0.5,0,1,0.4,1,1v5.6l0,0c0,0.3,0.1,0.6,0.3,0.8l0,0c0.2,0.2,0.5,0.4,0.9,0.4l0,0l0,0l0,0c0.3,0,0.6-0.1,0.8-0.4
		c0.2-0.2,0.3-0.5,0.3-0.8l0,0l0,0l0,0v-5.6H737.1z"/>
	<path class="st2" d="M764.9,532.2c0,0.5-0.4,1-1,1c-0.5,0-1-0.4-1-1v-2.5h-6.5l0,0l0,0h-19.6l0,0l0,0h-6.5v2.5c0,0.5-0.4,1-1,1
		c-0.5,0-1-0.4-1-1v-3.5l0,0l0,0V521l0,0l0,0v-22.3c0-0.5,0.4-1,1-1h34.6c0.5,0,1,0.4,1,1v30V532.2L764.9,532.2z M786.9,529.7h-8.7
		v2.5c0,0.5-0.4,1-1,1c-0.5,0-1-0.4-1-1v-3.5v-7.8v-22.2c0-0.5,0.4-1,1-1h10.6c0.5,0,1,0.4,1,1V521v7.8v3.5c0,0.5-0.4,1-1,1
		c-0.5,0-1-0.4-1-1v-2.6H786.9z M778.2,527.8h8.7v-5.9h-8.7V527.8L778.2,527.8z M778.2,520h8.7v-20.4h-8.7V520L778.2,520z
		 M723.5,407.7h-5.1v3.9h5.1V407.7L723.5,407.7z M718.4,405.8h5.1v-24V377h-5.1V405.8L718.4,405.8z M716.5,411.6v-4.8v-30.7
		c0-0.5,0.4-1,1-1h7c0.5,0,1,0.4,1,1v4.8h66.4v-4.8c0-0.5,0.4-1,1-1h7c0.5,0,1,0.4,1,1v30.7v4.8h0.7c0.5,0,1,0.4,1,1v4.9
		c0,0.5-0.4,1-1,1h-0.7v2.3l0,0l0,0v64.8h0.7c0.5,0,1,0.4,1,1v4.9c0,0.5-0.4,1-1,1h-0.7v40c0,0.5-0.4,1-1,1c-0.5,0-1-0.4-1-1v-40
		h-80.4v40c0,0.5-0.4,1-1,1c-0.5,0-1-0.4-1-1v-40h-0.7c-0.5,0-1-0.4-1-1v-4.9c0-0.5,0.4-1,1-1h0.7v-64.9v-2.3h-0.7c-0.5,0-1-0.4-1-1
		v-4.9c0-0.5,0.4-1,1-1L716.5,411.6L716.5,411.6z M725.4,382.8v24v4.8H739v-4.8c0-0.4,0.3-0.8,0.6-0.9l18.6-8.4
		c0.3-0.1,0.5-0.1,0.8,0l0,0l0,0l18.6,8.4c0.4,0.2,0.6,0.5,0.6,0.9l0,0v4.8h13.6v-4.8v-24H725.4L725.4,382.8z M793.7,405.8h5.1V377
		h-5.1v4.8V405.8L793.7,405.8z M798.8,407.7h-5.1v3.9h5.1V407.7L798.8,407.7z M776.3,411.6v-4.2l-17.7-8l-17.7,8v4.2H776.3
		L776.3,411.6z M778.2,437.1h8.7v-11h-8.7V437.1L778.2,437.1z M786.9,439h-8.7v5.7h8.7V439L786.9,439z M787.9,446.6h-10.6
		c-0.5,0-1-0.4-1-1V438v-12.9c0-0.5,0.4-1,1-1h10.6c0.5,0,1,0.4,1,1V438v7.6C788.8,446.2,788.4,446.6,787.9,446.6L787.9,446.6z
		 M754.3,437.1h8.7v-11h-8.7V437.1L754.3,437.1z M763,439h-8.7v5.7h8.7V439L763,439z M763.9,446.6h-10.6c-0.5,0-1-0.4-1-1V438v-12.9
		c0-0.5,0.4-1,1-1h10.6c0.5,0,1,0.4,1,1V438v7.6C764.9,446.2,764.4,446.6,763.9,446.6L763.9,446.6z M730.3,437.1h8.7v-11h-8.7V437.1
		L730.3,437.1z M739,439h-8.7v5.7h8.7V439L739,439z M740,446.6h-10.6c-0.5,0-1-0.4-1-1V438v-12.9c0-0.5,0.4-1,1-1H740
		c0.5,0,1,0.4,1,1V438v7.6C740.9,446.2,740.5,446.6,740,446.6L740,446.6z M780.6,458.4h-4.1l0.4,2.6h0.4h10.6h0.4l0.4-2.6h-4.1
		c-0.5,0-1-0.4-1-1v-0.6h-2v0.6C781.6,458,781.2,458.4,780.6,458.4L780.6,458.4z M776.3,462.9H776l0,0c-0.5,0-0.9-0.3-0.9-0.8
		l-0.6-4.4c0-0.1,0-0.1,0-0.2c0-0.5,0.4-1,1-1h4.3v-0.6c0-0.5,0.4-1,1-1h3.9c0.5,0,1,0.4,1,1v0.6h4.3c0.5,0,1,0.4,1,1
		c0,0.1,0,0.1,0,0.2l-0.6,4.4c-0.1,0.5-0.5,0.8-0.9,0.8l0,0h-0.3v11.9v7.6c0,0.5-0.4,1-1,1h-10.6c-0.5,0-1-0.4-1-1v-7.6v-11.9H776.3
		z M778.2,473.9h8.7v-11h-8.7V473.9L778.2,473.9z M786.9,475.8h-8.7v5.7h8.7V475.8L786.9,475.8z M754.3,473.9h8.7v-11h-8.7V473.9
		L754.3,473.9z M763,475.8h-8.7v5.7h8.7V475.8L763,475.8z M763.9,483.4h-10.6c-0.5,0-1-0.4-1-1v-7.6v-11.9H752l0,0
		c-0.5,0-0.9-0.3-0.9-0.8l-0.6-4.4c0-0.1,0-0.1,0-0.2c0-0.5,0.4-1,1-1h4.3v-0.6c0-0.5,0.4-1,1-1h4.1c0.5,0,1,0.4,1,1v0.6h4.1
		c0.5,0,1,0.4,1,1c0,0.1,0,0.1,0,0.2l-0.6,4.4c-0.1,0.5-0.5,0.8-0.9,0.8l0,0h-0.3v11.9v7.6C764.9,483,764.4,483.4,763.9,483.4
		L763.9,483.4z M753.3,461h10.6h0.4l0.4-2.6h-3.9c-0.5,0-1-0.4-1-1v-0.6h-2.2v0.6c0,0.5-0.4,1-1,1h-4.1l0.4,2.6H753.3L753.3,461z
		 M730.3,481.5h8.7v-5.7h-8.7V481.5L730.3,481.5z M739,473.9v-11h-8.7v11H739L739,473.9z M733.7,457.5c0,0.5-0.4,1-1,1h-4.1l0.4,2.6
		h0.4H740h0.4l0.4-2.6h-4.1c-0.5,0-1-0.4-1-1v-0.6h-2L733.7,457.5L733.7,457.5z M728.4,462.9h-0.3l0,0c-0.5,0-0.9-0.3-0.9-0.8
		l-0.6-4.4c0-0.1,0-0.1,0-0.2c0-0.5,0.4-1,1-1h4.3v-0.6c0-0.5,0.4-1,1-1h3.9c0.5,0,1,0.4,1,1v0.6h4.3c0.5,0,1,0.4,1,1
		c0,0.1,0,0.1,0,0.2l-0.6,4.4c-0.1,0.5-0.5,0.8-0.9,0.8l0,0h-0.3v11.9v7.6c0,0.5-0.4,1-1,1h-10.6c-0.5,0-1-0.4-1-1v-7.6v-11.9H728.4
		z M798.8,421.6h-80.4v63.8h80.4V421.6L798.8,421.6z M718.4,419.7h80.4v-1.3h-80.4V419.7L718.4,419.7z M716.7,416.5h0.7h82.4h0.7v-3
		h-0.7h-7h-15.5H740h-15.5h-7h-0.7L716.7,416.5L716.7,416.5z M716.7,490.3h0.7h82.4h0.7v-3h-0.7h-82.4h-0.7V490.3L716.7,490.3z
		 M755.5,527.8v-5.9h-17.7v5.9H755.5L755.5,527.8z M755.5,520v-13.8c0-0.5,0.4-1,1-1c0.5,0,1,0.4,1,1V520h5.6v-20.4h-32.7V520h5.6
		v-13.8c0-0.5,0.4-1,1-1c0.5,0,1,0.4,1,1V520H755.5L755.5,520z M757.4,521.9v5.9h5.6v-5.9H757.4L757.4,521.9z M735.9,527.8v-5.9
		h-5.6v5.9H735.9L735.9,527.8z"/>
	<path class="st5" d="M699.3,344.4h49.4c4.9,0,8.8,4,8.8,8.8v11.1c0,4.9-4,8.8-8.8,8.8h-49.4c-4.9,0-8.8-4-8.8-8.8v-11.1
		C690.4,348.3,694.4,344.4,699.3,344.4L699.3,344.4z"/>
	<path class="st6" d="M699.3,348.2h49.4c2.8,0,5,2.3,5,5v11.1c0,2.8-2.3,5-5,5h-49.4c-2.8,0-5-2.3-5-5v-11.1
		C694.3,350.4,696.5,348.2,699.3,348.2L699.3,348.2z"/>
	<path class="st5" d="M707.4,357.1c0-0.4,0.4-0.7,1.5-0.7c0.9,0,1.3,0.4,1.4,0.5c0.2,0.3,0.4,0.5,0.7,0.5h1.5c0.3,0,0.5-0.2,0.5-0.5
		c0-1.2-1.3-2.5-4.1-2.5c-3,0-4.2,1.3-4.2,2.7c0,3.4,5.9,2.2,5.9,3.5c0,0.4-0.4,0.8-1.6,0.8c-1.2,0-1.6-0.4-1.8-0.7
		c-0.2-0.3-0.4-0.5-0.7-0.5H705c-0.3,0-0.5,0.2-0.5,0.5c0,1.3,1.3,2.7,4.5,2.7c3.1,0,4.4-1.3,4.4-2.8
		C713.3,357.2,707.4,358.3,707.4,357.1L707.4,357.1L707.4,357.1z M719.1,361.4c-1.3,0-2.2-0.8-2.2-2.5c0-1.6,0.8-2.5,2.2-2.5
		c1.3,0,2.2,0.8,2.2,2.5C721.3,360.5,720.5,361.4,719.1,361.4L719.1,361.4z M719.1,354.4c-3.2,0-5,1.8-5,4.5s1.8,4.5,5,4.5
		s5-1.8,5-4.5C724.1,356.1,722.4,354.4,719.1,354.4L719.1,354.4z M733.2,361.5c0-0.2-0.2-0.4-0.4-0.4h-4.5v-6c0-0.2-0.2-0.4-0.4-0.4
		H726c-0.2,0-0.4,0.2-0.4,0.4v7.6c0,0.2,0.2,0.4,0.4,0.4h6.8c0.2,0,0.4-0.2,0.4-0.4V361.5L733.2,361.5z M734.7,363.1h3.8
		c3.3,0,5-1.7,5-4.2s-1.7-4.2-5-4.2h-3.8c-0.2,0-0.4,0.2-0.4,0.4v7.6C734.3,362.9,734.5,363.1,734.7,363.1L734.7,363.1z M737,361.2
		v-4.6h1.6c1.4,0,2.2,0.8,2.2,2.3s-0.8,2.3-2.2,2.3L737,361.2L737,361.2z"/>
	<polygon class="st5" points="414.1,402 465.9,402 465.9,532.1 368.1,532.1 368.1,499.8 360.2,499.8 360.2,531.9 357,531.9 
		357,499.8 353.6,499.8 353.6,481.4 368.1,481.4 368.1,394.1 414.1,394.1 	"/>
	<path class="st3" d="M397.7,472.5c0.5,0,1,0.4,1,1c0,0.5-0.4,1-1,1h-13c-0.5,0-1-0.4-1-1c0-0.5,0.4-1,1-1H397.7L397.7,472.5z
		 M372.7,416.9c0.5,0,1,0.4,1,1c0,0.5-0.4,1-1,1h-4.6c-0.5,0-1-0.4-1-1c0-0.5,0.4-1,1-1H372.7L372.7,416.9z M372.7,424.9
		c0.5,0,1,0.4,1,1c0,0.5-0.4,1-1,1h-4.6c-0.5,0-1-0.4-1-1c0-0.5,0.4-1,1-1H372.7L372.7,424.9z M372.7,432.8c0.5,0,1,0.4,1,1
		c0,0.5-0.4,1-1,1h-4.6c-0.5,0-1-0.4-1-1c0-0.5,0.4-1,1-1H372.7L372.7,432.8z M372.7,440.7c0.5,0,1,0.4,1,1c0,0.5-0.4,1-1,1h-4.6
		c-0.5,0-1-0.4-1-1c0-0.5,0.4-1,1-1H372.7L372.7,440.7z M372.7,448.7c0.5,0,1,0.4,1,1c0,0.5-0.4,1-1,1h-4.6c-0.5,0-1-0.4-1-1
		c0-0.5,0.4-1,1-1H372.7L372.7,448.7z M372.7,456.6c0.5,0,1,0.4,1,1c0,0.5-0.4,1-1,1h-4.6c-0.5,0-1-0.4-1-1c0-0.5,0.4-1,1-1H372.7
		L372.7,456.6z M372.7,464.6c0.5,0,1,0.4,1,1c0,0.5-0.4,1-1,1h-4.6c-0.5,0-1-0.4-1-1c0-0.5,0.4-1,1-1H372.7L372.7,464.6z
		 M372.7,472.5c0.5,0,1,0.4,1,1c0,0.5-0.4,1-1,1h-4.6c-0.5,0-1-0.4-1-1c0-0.5,0.4-1,1-1H372.7L372.7,472.5z M397.7,401.1
		c0.5,0,1,0.4,1,1c0,0.5-0.4,1-1,1h-29.6c-0.5,0-1-0.4-1-1c0-0.5,0.4-1,1-1H397.7L397.7,401.1z M397.7,409c0.5,0,1,0.4,1,1
		c0,0.5-0.4,1-1,1h-29.6c-0.5,0-1-0.4-1-1c0-0.5,0.4-1,1-1H397.7L397.7,409z M397.7,416.9c0.5,0,1,0.4,1,1c0,0.5-0.4,1-1,1h-13
		c-0.5,0-1-0.4-1-1c0-0.5,0.4-1,1-1H397.7L397.7,416.9z M397.7,424.9c0.5,0,1,0.4,1,1c0,0.5-0.4,1-1,1h-13c-0.5,0-1-0.4-1-1
		c0-0.5,0.4-1,1-1H397.7L397.7,424.9z M397.7,432.8c0.5,0,1,0.4,1,1c0,0.5-0.4,1-1,1h-13c-0.5,0-1-0.4-1-1c0-0.5,0.4-1,1-1H397.7
		L397.7,432.8z M397.7,440.7c0.5,0,1,0.4,1,1c0,0.5-0.4,1-1,1h-13c-0.5,0-1-0.4-1-1c0-0.5,0.4-1,1-1H397.7L397.7,440.7z
		 M397.7,448.7c0.5,0,1,0.4,1,1c0,0.5-0.4,1-1,1h-13c-0.5,0-1-0.4-1-1c0-0.5,0.4-1,1-1H397.7L397.7,448.7z M397.7,456.6
		c0.5,0,1,0.4,1,1c0,0.5-0.4,1-1,1h-13c-0.5,0-1-0.4-1-1c0-0.5,0.4-1,1-1H397.7L397.7,456.6z M397.7,464.6c0.5,0,1,0.4,1,1
		c0,0.5-0.4,1-1,1h-13c-0.5,0-1-0.4-1-1c0-0.5,0.4-1,1-1H397.7L397.7,464.6z"/>
	<polygon class="st3" points="453.3,499.8 453.3,505.4 384.7,505.4 384.7,532.1 375.4,532.1 375.4,505.4 368.1,505.4 368.1,499.8 	
		"/>
	<polygon class="st3" points="375.4,421.5 384.7,421.5 384.7,481.4 375.4,481.4 	"/>
	<polygon class="st3" points="416.7,421.5 453.3,421.5 453.3,496.3 416.7,496.3 	"/>
	<polygon class="st7" points="416.7,481.1 453.3,460 453.3,470 416.7,491.1 	"/>
	<polygon class="st7" points="416.7,494 453.3,472.9 453.3,478.7 422.8,496.3 416.7,496.3 	"/>
	<path class="st6" d="M398.7,508.8c-0.5,0-1-0.4-1-1c0-0.5,0.4-1,1-1h2.6c0.5,0,1,0.4,1,1c0,0.1,0,0.2,0,0.3l-1.8,7.3
		c-0.1,0.5-0.6,0.8-1.2,0.7c-0.5-0.1-0.8-0.6-0.7-1.2l1.6-6.2h-1.5V508.8z M389,508.8c-0.5,0-1-0.4-1-1c0-0.5,0.4-1,1-1h1.8
		c0.5,0,1,0.4,1,1v7.4c0,0.5-0.4,1-1,1c-0.5,0-1-0.4-1-1v-6.4L389,508.8L389,508.8z M394.4,506.9h1.4c0.4,0,0.8,0.2,1.1,0.5l0,0l0,0
		c0.3,0.3,0.5,0.7,0.5,1.1v6.2c0,0.4-0.2,0.8-0.5,1.1s-0.7,0.5-1.1,0.5h-1.4c-0.4,0-0.8-0.2-1.1-0.5l-0.1-0.1
		c-0.2-0.3-0.4-0.6-0.4-1v-6.2c0-0.4,0.2-0.8,0.5-1.1l0,0l0,0C393.6,507.1,394,506.9,394.4,506.9L394.4,506.9z M395.4,508.8h-0.7
		v5.5h0.7V508.8L395.4,508.8z"/>
	<polygon class="st6" points="384.7,499.8 384.7,532.1 375.4,532.1 375.4,505.4 372.7,505.4 372.7,499.8 	"/>
	<path class="st2" d="M373.7,532.1c0,0.5-0.4,1-1,1c-0.5,0-1-0.4-1-1v-3.5v-20.7v-7.1H369v31.3c0,0.5-0.4,1-1,1c-0.5,0-1-0.4-1-1
		v-31.3h-5.9v31.3c0,0.5-0.4,1-1,1c-0.5,0-1-0.4-1-1v-31.3h-1.4v31.3c0,0.5-0.4,1-1,1c-0.5,0-1-0.4-1-1v-31.3h-2.4c-0.5,0-1-0.4-1-1
		v-18.4c0-0.5,0.4-1,1-1h13.5V394c0-0.5,0.4-1,1-1h46c0.5,0,1,0.4,1,1v7h50.9c0.5,0,1,0.4,1,1v130.1c0,0.5-0.4,1-1,1
		c-0.5,0-1-0.4-1-1V403h-50.9H402v78.4c0,0.5-0.4,1-1,1h-16.6h-12h-4.6h-13.5v16.5h2.4l0,0l0,0h3.2l0,0l0,0h7.8h4.6l0,0l0,0h12l0,0
		l0,0h29.4l0,0l0,0h39.2c0.5,0,1,0.4,1,1v8.1l0,0l0,0v16.1l0,0l0,0v8.1c0,0.5-0.4,1-1,1c-0.5,0-1-0.4-1-1v-7.1H415v7.1
		c0,0.5-0.4,1-1,1c-0.5,0-1-0.4-1-1v-8.1V516v-8.1v-7.1h-27.5v7.1v20.7v3.5c0,0.5-0.4,1-1,1c-0.5,0-1-0.4-1-1v-2.6h-10.1v2.6H373.7z
		 M453.3,497.2h-7.9H422h-7.9c-0.5,0-1-0.4-1-1v-38.7v-7.9v-31.8c0-0.5,0.4-1,1-1h7.9h23.4h7.9c0.5,0,1,0.4,1,1v39.7l0,0l0,0v23.8
		v14.9C454.2,496.8,453.8,497.2,453.3,497.2L453.3,497.2z M415,495.3h6v-36.8h-6V495.3L415,495.3z M422.9,495.3h21.5v-13.9v-22.9
		h-21.5V495.3L422.9,495.3z M446.3,495.3h6v-13h-6V495.3L446.3,495.3z M452.3,480.4v-21.9h-6v21.9H452.3L452.3,480.4z M452.3,456.6
		v-37.8h-6v30.8v7H452.3L452.3,456.6z M444.4,418.8h-21.5v29.9h21.5V418.8L444.4,418.8z M421,418.8h-6v29.9h6V418.8L421,418.8z
		 M415,450.6v6h6v-6H415L415,450.6z M444.4,450.6h-21.5v6h21.5V450.6L444.4,450.6z M371.8,480.4v-30.8v-31.8c0-0.5,0.4-1,1-1h12
		c0.5,0,1,0.4,1,1v31.8v30.8h14.7V402c0-0.5,0.4-1,1-1h11.8v-6H369v85.4H371.8L371.8,480.4z M383.7,480.4v-29.9h-10.1v29.9H383.7
		L383.7,480.4z M383.7,448.7v-29.9h-10.1v29.9H383.7L383.7,448.7z M452.3,523.1v-6.2H415v6.2H452.3L452.3,523.1z M452.3,515v-6.2
		H415v6.2H452.3L452.3,515z M452.3,506.9v-6.2H415v6.2H452.3L452.3,506.9z M373.7,500.7v6.2h10.1v-6.2H373.7L373.7,500.7z
		 M383.7,527.6v-18.8h-10.1v18.8H383.7L383.7,527.6z"/>
	<path class="st5" d="M445.1,426h49.4c4.9,0,8.8,4,8.8,8.8v23.4c0,4.9-4,8.8-8.8,8.8h-49.4c-4.9,0-8.8-4-8.8-8.8v-23.4
		C436.2,429.9,440.2,426,445.1,426L445.1,426z"/>
	<path class="st6" d="M445.1,429.8h49.4c2.8,0,5,2.3,5,5v23.4c0,2.8-2.3,5-5,5h-49.4c-2.8,0-5-2.3-5-5v-23.4
		C440,432,442.3,429.8,445.1,429.8L445.1,429.8z"/>
	<path class="st5" d="M463.2,436.4c0-0.3-0.2-0.4-0.4-0.4h-7.4c-0.3,0-0.4,0.2-0.4,0.4v7.9c0,0.3,0.2,0.4,0.4,0.4h1.9
		c0.3,0,0.4-0.2,0.4-0.4v-2.4h3.9c0.2,0,0.4-0.2,0.4-0.4v-1.3c0-0.3-0.2-0.4-0.4-0.4h-3.9v-1.6h5.1c0.2,0,0.4-0.2,0.4-0.4V436.4
		L463.2,436.4z M468.9,442.9c-1.4,0-2.3-0.9-2.3-2.6s0.9-2.6,2.3-2.6s2.3,0.9,2.3,2.6C471.2,442.1,470.3,442.9,468.9,442.9
		L468.9,442.9z M468.9,435.7c-3.3,0-5.1,1.8-5.1,4.6c0,2.8,1.8,4.6,5.1,4.6c3.3,0,5.1-1.8,5.1-4.6
		C474,437.6,472.2,435.7,468.9,435.7L468.9,435.7z M482.9,440.9c0,0,1.7-0.4,1.7-2s-1.3-2.9-4.1-2.9H476c-0.2,0-0.4,0.2-0.4,0.4v7.9
		c0,0.3,0.2,0.4,0.4,0.4h1.9c0.3,0,0.4-0.2,0.4-0.4v-2.6h1.6c0.7,0,0.9,0.3,1.1,0.6l1.1,1.9c0.1,0.3,0.3,0.4,0.8,0.4h1.9
		c0.3,0,0.4-0.2,0.3-0.4l-1.1-1.9c-0.6-1.1-1.2-1.4-1.2-1.4l0,0H482.9z M478.3,439.7v-1.8h2.3c0.8,0,1.2,0.4,1.2,0.9
		s-0.4,0.9-1.2,0.9H478.3L478.3,439.7z M457.5,453.4c0,0,1.7-0.4,1.7-2s-1.3-2.9-4.1-2.9h-4.6c-0.2,0-0.4,0.2-0.4,0.4v7.9
		c0,0.3,0.2,0.4,0.4,0.4h1.9c0.3,0,0.4-0.2,0.4-0.4v-2.6h1.6c0.7,0,0.9,0.3,1.1,0.6l1.1,1.9c0.1,0.3,0.3,0.4,0.8,0.4h1.9
		c0.3,0,0.4-0.2,0.3-0.4l-1.1-1.9c-0.6-1.1-1.2-1.4-1.2-1.4l0,0H457.5z M452.8,452.3v-1.8h2.3c0.8,0,1.2,0.4,1.2,0.9
		s-0.4,0.9-1.2,0.9H452.8L452.8,452.3z M469.4,448.9c0-0.2-0.2-0.4-0.4-0.4h-7.6c-0.3,0-0.4,0.2-0.4,0.4v7.9c0,0.3,0.2,0.4,0.4,0.4
		h7.6c0.3,0,0.4-0.2,0.4-0.4v-1.3c0-0.3-0.2-0.4-0.4-0.4h-5.3v-1.3h3.9c0.3,0,0.4-0.2,0.4-0.4v-1.3c0-0.3-0.2-0.4-0.4-0.4h-3.9v-1.1
		h5.3c0.3,0,0.4-0.2,0.4-0.4V448.9L469.4,448.9z M477.1,453.5l-3.1-4.6c-0.1-0.2-0.4-0.4-0.7-0.4h-2.1c-0.2,0-0.4,0.2-0.4,0.4v7.9
		c0,0.3,0.2,0.4,0.4,0.4h1.9c0.3,0,0.4-0.2,0.4-0.4v-4.6h0.1l3.1,4.6c0.1,0.2,0.4,0.4,0.7,0.4h2.1c0.2,0,0.4-0.2,0.4-0.4v-7.9
		c0-0.2-0.2-0.4-0.4-0.4h-1.9c-0.3,0-0.4,0.2-0.4,0.4v4.6H477.1L477.1,453.5z M490,448.9c0-0.2-0.2-0.4-0.4-0.4h-8
		c-0.2,0-0.4,0.2-0.4,0.4v1.3c0,0.3,0.2,0.4,0.4,0.4h2.6v6.2c0,0.3,0.2,0.4,0.4,0.4h1.9c0.3,0,0.4-0.2,0.4-0.4v-6.2h2.6
		c0.2,0,0.4-0.2,0.4-0.4v-1.3H490z"/>
	<path class="st5" d="M667.3,454.9v37.3h-7v26.5h1.4V533H522.3v-14.3h1.4v-41.1l-8.2,6.2c-0.3,0.3-0.8,0.2-1.1-0.2l-1.9-2.5
		c-0.3-0.3-0.2-0.8,0.2-1.1l51.3-38.7l18,13.5h13.3v-4.5h1.2v-8.7h-1.2V438h1.2v-3.6h7.9v3.6h1.2v3.6h-1.2v8.7h1.2v4.5h61.7V454.9z"
		/>
	<path class="st6" d="M596.4,465c0,0.5-0.4,1-1,1c-0.5,0-1-0.4-1-1v-4.8c0-0.5,0.4-1,1-1c0.5,0,1,0.4,1,1V465L596.4,465z"/>
	<path class="st8" d="M587.4,458.3c0,0.5-0.4,1-1,1c-0.5,0-1-0.4-1-1V455c0-0.5,0.4-1,1-1c0.5,0,1,0.4,1,1V458.3L587.4,458.3z"/>
	<path class="st6" d="M659.3,483.9c0,0.5-0.4,1-1,1c-0.5,0-1-0.4-1-1v-29c0-0.5,0.4-1,1-1c0.5,0,1,0.4,1,1V483.9L659.3,483.9z"/>
	<path class="st6" d="M650.3,483.9c0,0.5-0.4,1-1,1c-0.5,0-1-0.4-1-1v-29c0-0.5,0.4-1,1-1c0.5,0,1,0.4,1,1V483.9L650.3,483.9z"/>
	<path class="st6" d="M641.3,483.9c0,0.5-0.4,1-1,1c-0.5,0-1-0.4-1-1v-29c0-0.5,0.4-1,1-1c0.5,0,1,0.4,1,1V483.9L641.3,483.9z"/>
	<path class="st6" d="M632.3,483.9c0,0.5-0.4,1-1,1c-0.5,0-1-0.4-1-1v-29c0-0.5,0.4-1,1-1c0.5,0,1,0.4,1,1V483.9L632.3,483.9z"/>
	<path class="st6" d="M623.4,483.9c0,0.5-0.4,1-1,1c-0.5,0-1-0.4-1-1v-29c0-0.5,0.4-1,1-1c0.5,0,1,0.4,1,1V483.9L623.4,483.9z"/>
	<path class="st6" d="M614.4,478.6c0,0.5-0.4,1-1,1c-0.5,0-1-0.4-1-1V455c0-0.5,0.4-1,1-1c0.5,0,1,0.4,1,1V478.6L614.4,478.6z"/>
	<path class="st6" d="M605.4,471.8c0,0.5-0.4,1-1,1c-0.5,0-1-0.4-1-1v-11.6c0-0.5,0.4-1,1-1c0.5,0,1,0.4,1,1V471.8L605.4,471.8z"/>
	<path class="st3" d="M565.4,459.9c3.8,0,6.9,3.1,6.9,6.9s-3.1,6.9-6.9,6.9c-3.8,0-6.9-3.1-6.9-6.9S561.6,459.9,565.4,459.9
		L565.4,459.9z M660.3,492.2v4.8h-37.7l3.3,7.5l-2.8,3.7H619v24.9h-13.1v-14.3h-1.4v-37.3l-13.3-10L573,485.3V508l-11.4-27.1
		l2.6,3.5l8.8-6.6l15.8-11.9l15.8,11.8l8.2,6.2l2.8-3.7l3.2,7.5h48.7v4.6h-7.2V492.2z M554.4,529.5h-9.5v-3.6h9.5V529.5L554.4,529.5
		z M582.8,533h-6.2v-14.3L582.8,533L582.8,533z M578.1,518.7h5.2v-18.6c1.7-1.2,3.5-2.1,5.3-2.7v16h2.9v-16.6c2.5-0.3,5.1,0,7.8,0.9
		v-13.5c-8-4.8-15-4.4-21.2,0V518.7L578.1,518.7z M560,513.4h-20.7v-24.9H560V513.4L560,513.4z M523.7,477.6l40.4-30.4l21,15.8
		l-2.6,2l-15.9-12l-4.5,3.4c-1.8,0.5-3.3,1.7-4.3,3.3l-33.9,25.6v-7.7H523.7z"/>
	<path class="st6" d="M591.4,496.7v16.6h-2.9h-2.7v-14.8c-0.9,0.5-1.8,1-2.6,1.6v18.6h-1.1v-31.1h13.1v9.2
		C593.9,496.6,592.7,496.6,591.4,496.7L591.4,496.7z"/>
	<path class="st2" d="M564.7,440.6c0.1,0,0.1,0.1,0.2,0.2L564.7,440.6L564.7,440.6z M589.2,459.1c0.1,0,0.1,0.1,0.2,0.2L589.2,459.1
		L589.2,459.1z M523.2,533c0,0.5-0.4,1-1,1c-0.5,0-1-0.4-1-1v-14.3c0-0.5,0.4-1,1-1h0.5v-38.2l-6.6,5c-0.4,0.3-0.8,0.4-1.3,0.3
		c-0.4-0.1-0.9-0.3-1.1-0.7l-1.9-2.5c-0.3-0.4-0.4-0.8-0.3-1.3c0.1-0.4,0.3-0.9,0.7-1.1l51.3-38.7c0.4-0.3,0.8-0.2,1.2,0l17.7,13.3
		h12v-3.5c0-0.5,0.4-1,1-1h0.3v-6.8h-0.3c-0.5,0-1-0.4-1-1v-3.6c0-0.5,0.4-1,1-1h0.3v-2.6c0-0.5,0.4-1,1-1h7.9c0.5,0,1,0.4,1,1v2.6
		h0.3c0.5,0,1,0.4,1,1v3.6c0,0.5-0.4,1-1,1h-0.3v6.8h0.3c0.5,0,1,0.4,1,1v3.5h60.7c0.5,0,1,0.4,1,1v32.6v4.6c0,0.5-0.4,1-1,1h-6
		v24.6h0.5c0.5,0,1,0.4,1,1v14.3c0,0.5-0.4,1-1,1c-0.5,0-1-0.4-1-1v-13.4h-0.5h-7.8v2.2v11.2c0,0.5-0.4,1-1,1c-0.5,0-1-0.4-1-1
		v-10.2h-36.4v10.2c0,0.5-0.4,1-1,1c-0.5,0-1-0.4-1-1v-11.2v-2.2H607v13.4c0,0.5-0.4,1-1,1c-0.5,0-1-0.4-1-1v-13.4h-0.5h-2.8v2.6
		v3.6v3.7v3.5c0,0.5-0.4,1-1,1c-0.5,0-1-0.4-1-1v-2.4h-22.1v2.5c0,0.5-0.4,1-1,1c-0.5,0-1-0.4-1-1v-3.5v-3.7v-3.6v-2.6h-2.8h-0.5
		V533c0,0.5-0.4,1-1,1c-0.5,0-1-0.4-1-1v-13.4h-46.8H523V533H523.2z M584.9,455.9l4.3,3.3l0,0l0,0l26.7,20.1
		c0.4,0.3,0.6,0.7,0.7,1.1c0.1,0.4,0,0.9-0.3,1.3l0,0l0,0l-1.9,2.5c-0.3,0.4-0.7,0.6-1.1,0.7c-0.4,0.1-0.9,0-1.3-0.3l-6.6-5v7.1h61
		V456h-59.7v4.4c0,0.5-0.4,1-1,1h-10.3c-0.5,0-1-0.4-1-1V456h-9.5V455.9z M581.5,455.7L581.5,455.7l-17.4-13.1l-50.6,38.1l1.6,2.2
		l8-6c0,0,0.1,0,0.1-0.1l40.3-30.4c0.3-0.3,0.8-0.3,1.2,0l20.2,15.2l2.3-1.7L581.5,455.7L581.5,455.7z M603.5,449.5v-6.8h-6v6.8
		H603.5L603.5,449.5z M604.7,451.4h-0.3h-7.9h-0.3v3.5v4.4h8.4v-4.4L604.7,451.4L604.7,451.4z M603.5,437.2v-1.6h-6v1.6H603.5
		L603.5,437.2z M596.3,440.8h0.3h7.9h0.3v-1.6h-0.3h-7.9h-0.3V440.8L596.3,440.8z M659.4,493.1h-54v24.6h0.5h6.4v-7v-11.2
		c0-0.5,0.4-1,1-1h38.3c0.5,0,1,0.4,1,1v11.2v7h6.9v-24.6H659.4z M666.4,488.5h-61v2.7h54.9h6L666.4,488.5L666.4,488.5z
		 M650.6,520.9v-2.2v-7h-36.4v7v2.2H650.6L650.6,520.9z M650.6,509.8v-9.3h-36.4v9.2L650.6,509.8L650.6,509.8z M586.8,512.4h3.7
		v-19.3h-3.7V512.4L586.8,512.4z M591.4,514.3h-5.6c-0.5,0-1-0.4-1-1v-21.2c0-0.5,0.4-1,1-1h5.6c0.5,0,1,0.4,1,1v21.2
		C592.4,513.9,592,514.3,591.4,514.3L591.4,514.3z M581.1,517.7v-30.2c0-0.5,0.4-1,1-1h13.1c0.5,0,1,0.4,1,1v30.2h2.1v-32.5
		c-1.3-1.1-2.7-2-4.3-2.6c-1.7-0.6-3.5-1-5.3-1s-3.6,0.3-5.3,1c-1.6,0.6-3,1.5-4.3,2.6v32.5H581.1L581.1,517.7z M594.3,517.7v-29.2
		H583v29.2H594.3L594.3,517.7z M599.8,484.1c0.2,0.2,0.4,0.4,0.4,0.7v32.9h0.5h2.8v-25.6v-4.6V478l-14.8-11.2L573.9,478v39.7h2.8
		h0.5v-32.9c0-0.3,0.1-0.6,0.4-0.7c1.5-1.4,3.3-2.4,5.2-3.2c1.9-0.7,3.9-1.1,6-1.1s4.1,0.4,6,1.1
		C596.6,481.7,598.3,482.7,599.8,484.1L599.8,484.1z M604.8,476.6c0.2,0.1,0.3,0.2,0.4,0.3l7.8,5.9l1.6-2.2l-26-19.6l-3.3,2.5l0,0
		l-22.7,17.1l1.6,2.2l8-6c0,0,0.1,0,0.1-0.1l15.7-11.9c0.3-0.3,0.8-0.3,1.2,0L604.8,476.6L604.8,476.6z M571.9,479.5l-6.6,5
		c-0.4,0.3-0.8,0.4-1.3,0.3c-0.4-0.1-0.9-0.3-1.1-0.7l-1.9-2.5c-0.3-0.4-0.4-0.8-0.3-1.3c0.1-0.4,0.3-0.9,0.7-1.1l21.9-16.5
		l-19.2-14.4L524.7,478v39.7h46.8h0.5v-38.2H571.9z M564,455.7c2.2,0,4.1,0.9,5.6,2.3c1.4,1.4,2.3,3.4,2.3,5.6s-0.9,4.1-2.3,5.6
		c-1.4,1.4-3.4,2.3-5.6,2.3c-2.2,0-4.1-0.9-5.6-2.3c-1.4-1.4-2.3-3.4-2.3-5.6s0.9-4.1,2.3-5.6C559.9,456.6,561.9,455.7,564,455.7
		L564,455.7z M568.3,459.4c-1.1-1.1-2.6-1.7-4.2-1.7c-1.6,0-3.1,0.7-4.2,1.7c-1.1,1.1-1.7,2.6-1.7,4.2s0.7,3.1,1.7,4.2
		c1.1,1.1,2.6,1.7,4.2,1.7c1.6,0,3.1-0.7,4.2-1.7c1.1-1.1,1.7-2.6,1.7-4.2C570,461.9,569.3,460.4,568.3,459.4L568.3,459.4z
		 M536.6,483.9h5.6h12.2h5.6c0.5,0,1,0.4,1,1v28.6c0,0.5-0.4,1-1,1h-5.6h-12.2h-5.6c-0.5,0-1-0.4-1-1v-28.6
		C535.7,484.3,536.1,483.9,536.6,483.9L536.6,483.9z M553.4,512.4v-26.7h-10.3v26.7H553.4L553.4,512.4z M555.4,485.8v26.7h3.7v-26.7
		H555.4L555.4,485.8z M541.2,512.4v-26.7h-3.7v26.7H541.2L541.2,512.4z M599.7,528.6v-1.8h-22.1v1.8H599.7L599.7,528.6z
		 M599.7,524.9v-1.7h-22.1v1.7H599.7L599.7,524.9z M599.7,521.3v-1.7h-0.5h-4h-13.1h-4h-0.5v1.7H599.7L599.7,521.3z M542.2,521.3
		h12.2c0.5,0,1,0.4,1,1v7.3c0,0.5-0.4,1-1,1h-12.2c-0.5,0-1-0.4-1-1v-7.3C541.2,521.8,541.7,521.3,542.2,521.3L542.2,521.3z
		 M553.4,523.2h-10.3v5.3h10.3V523.2L553.4,523.2z"/>
	<path class="st2" d="M180.7,534c-0.5,0-1-0.4-1-1c0-0.5,0.4-1,1-1h811.8c0.5,0,1,0.4,1,1c0,0.5-0.4,1-1,1H180.7L180.7,534z"/>
	<path class="st5" d="M633.7,409H683c4.9,0,8.8,4,8.8,8.8v23.4c0,4.9-4,8.8-8.8,8.8h-49.4c-4.9,0-8.8-4-8.8-8.8v-23.4
		C624.8,413,628.8,409,633.7,409L633.7,409z"/>
	<path class="st6" d="M633.7,412.8H683c2.8,0,5,2.3,5,5v23.4c0,2.8-2.3,5-5,5h-49.4c-2.8,0-5-2.3-5-5v-23.4
		C628.7,415.1,630.9,412.8,633.7,412.8L633.7,412.8z"/>
	<path class="st5" d="M652.1,419.4c0-0.2-0.2-0.4-0.4-0.4h-7.2c-0.2,0-0.4,0.2-0.4,0.4v7.6c0,0.2,0.2,0.4,0.4,0.4h1.8
		c0.2,0,0.4-0.2,0.4-0.4v-2.4h3.8c0.2,0,0.4-0.2,0.4-0.4V423c0-0.2-0.2-0.4-0.4-0.4h-3.8V421h4.9c0.2,0,0.4-0.2,0.4-0.4L652.1,419.4
		L652.1,419.4z M657.6,425.7c-1.3,0-2.2-0.8-2.2-2.5c0-1.6,0.8-2.5,2.2-2.5s2.2,0.8,2.2,2.5C659.8,424.9,659,425.7,657.6,425.7
		L657.6,425.7z M657.6,418.8c-3.2,0-5,1.8-5,4.5s1.8,4.5,5,4.5s5-1.8,5-4.5C662.6,420.5,660.8,418.8,657.6,418.8L657.6,418.8z
		 M671.2,423.7c0,0,1.6-0.4,1.6-1.9s-1.3-2.8-3.9-2.8h-4.4c-0.2,0-0.4,0.2-0.4,0.4v7.6c0,0.2,0.2,0.4,0.4,0.4h1.8
		c0.2,0,0.4-0.2,0.4-0.4v-2.5h1.6c0.7,0,0.9,0.2,1.1,0.6l1,1.9c0.1,0.2,0.3,0.4,0.8,0.4h1.9c0.3,0,0.4-0.2,0.3-0.4l-1-1.9
		c-0.6-1.1-1.2-1.3-1.2-1.3L671.2,423.7L671.2,423.7z M666.7,422.6v-1.7h2.2c0.8,0,1.2,0.4,1.2,0.8c0,0.5-0.4,0.8-1.2,0.8h-2.2
		V422.6z M642.6,434c0-0.4,0.4-0.7,1.5-0.7c0.9,0,1.3,0.4,1.4,0.5c0.2,0.3,0.4,0.5,0.7,0.5h1.5c0.3,0,0.5-0.2,0.5-0.5
		c0-1.2-1.3-2.5-4.1-2.5c-3,0-4.2,1.3-4.2,2.7c0,3.4,5.9,2.2,5.9,3.5c0,0.4-0.4,0.8-1.6,0.8s-1.6-0.4-1.8-0.7
		c-0.2-0.3-0.4-0.5-0.7-0.5H640c-0.3,0-0.5,0.2-0.5,0.5c0,1.3,1.3,2.7,4.5,2.7c3.1,0,4.4-1.3,4.4-2.8
		C648.5,434.1,642.6,435.3,642.6,434L642.6,434L642.6,434z M656.3,439.6c0.1,0.2,0.3,0.4,0.5,0.4h2.1c0.2,0,0.4-0.2,0.3-0.4
		l-3.4-7.6c-0.1-0.2-0.3-0.4-0.5-0.4h-2.5c-0.2,0-0.4,0.2-0.5,0.4l-3.4,7.6c-0.1,0.2,0.1,0.4,0.3,0.4h1.9c0.2,0,0.4-0.2,0.5-0.4
		l0.4-1.1h3.8L656.3,439.6L656.3,439.6z M653.9,434.1L653.9,434.1l1.1,2.4h-2.1L653.9,434.1L653.9,434.1z M667.8,438.4
		c0-0.2-0.2-0.4-0.4-0.4h-4.5v-6c0-0.2-0.2-0.4-0.4-0.4h-1.8c-0.2,0-0.4,0.2-0.4,0.4v7.6c0,0.2,0.2,0.4,0.4,0.4h6.8
		c0.2,0,0.4-0.2,0.4-0.4L667.8,438.4L667.8,438.4z M677.1,432c0-0.2-0.2-0.4-0.4-0.4h-7.4c-0.2,0-0.4,0.2-0.4,0.4v7.6
		c0,0.2,0.2,0.4,0.4,0.4h7.4c0.2,0,0.4-0.2,0.4-0.4v-1.2c0-0.2-0.2-0.4-0.4-0.4h-5.2v-1.2h3.8c0.2,0,0.4-0.2,0.4-0.4v-1.2
		c0-0.2-0.2-0.4-0.4-0.4h-3.8v-1.1h5.2c0.2,0,0.4-0.2,0.4-0.4V432L677.1,432z"/>
</g>
<g>
	<path class="st3" d="M827.9,483.3c9.6,0,17.3,7.8,17.3,17.3c0,9.6-7.8,17.3-17.3,17.3c-9.6,0-17.3-7.8-17.3-17.3
		C810.6,491.1,818.3,483.3,827.9,483.3L827.9,483.3z"/>
	<path class="st4" d="M826,485.2c7.3,0,13.3,5.9,13.3,13.3c0,7.3-5.9,13.3-13.3,13.3c-7.3,0-13.3-5.9-13.3-13.3
		C812.8,491.1,818.7,485.2,826,485.2L826,485.2z"/>
	<path class="st2" d="M831,503c0.3-0.3,0.8-0.3,1.2,0c0.3,0.3,0.3,0.8,0,1.2l-3.4,3.4v9.6c4.2-0.2,8-2,10.8-4.8
		c3-3,4.8-7.1,4.8-11.7s-1.8-8.7-4.8-11.7s-7.1-4.8-11.7-4.8c-4.6,0-8.7,1.8-11.7,4.8s-4.8,7.1-4.8,11.7s1.8,8.7,4.8,11.7
		c2.8,2.8,6.6,4.6,10.8,4.8v-4.1l-6.3-6.3c-0.3-0.3-0.3-0.8,0-1.2c0.3-0.3,0.8-0.3,1.2,0l5.1,5.1v-10c0-0.5,0.4-0.8,0.8-0.8
		s0.8,0.4,0.8,0.8v4.6L831,503L831,503z M828.7,518.8V532c0,0.5-0.4,0.8-0.8,0.8s-0.8-0.4-0.8-0.8v-13.2c-4.7-0.2-8.9-2.2-12-5.3
		c-3.3-3.3-5.3-7.8-5.3-12.8s2-9.5,5.3-12.8s7.8-5.3,12.8-5.3s9.5,2,12.8,5.3s5.3,7.8,5.3,12.8s-2,9.5-5.3,12.8
		C837.6,516.6,833.4,518.6,828.7,518.8L828.7,518.8z"/>
	<path class="st2" d="M859.3,532c0,0.5-0.4,0.8-0.8,0.8c-0.5,0-0.8-0.4-0.8-0.8v-4.5H842v4.5c0,0.5-0.4,0.8-0.8,0.8
		c-0.5,0-0.8-0.4-0.8-0.8v-4.5h-2.3v-1.6h2.3v-1.3h-2.3V523h2.3v-1.3h-2.3v-1.6h3.1h17.2h3.1v1.6h-2.3v1.3h2.3v1.6h-2.3v1.3h2.3v1.6
		h-2.3L859.3,532L859.3,532z M842,521.5v1.3h15.6v-1.3H842L842,521.5z M842,524.5v1.3h15.6v-1.3H842L842,524.5z"/>
</g>
<g>
	<path class="st3" d="M307.9,483.3c9.6,0,17.3,7.8,17.3,17.3c0,9.6-7.8,17.3-17.3,17.3c-9.6,0-17.3-7.8-17.3-17.3
		S298.4,483.3,307.9,483.3L307.9,483.3z"/>
	<path class="st4" d="M306.1,485.2c7.3,0,13.3,5.9,13.3,13.3c0,7.3-5.9,13.3-13.3,13.3c-7.3,0-13.3-5.9-13.3-13.3
		C292.8,491.1,298.8,485.2,306.1,485.2L306.1,485.2z"/>
	<path class="st2" d="M311,503c0.3-0.3,0.8-0.3,1.2,0c0.3,0.3,0.3,0.8,0,1.2l-3.4,3.4v9.6c4.2-0.2,8-2,10.8-4.8
		c3-3,4.8-7.1,4.8-11.7s-1.8-8.7-4.8-11.7s-7.1-4.8-11.7-4.8s-8.7,1.8-11.7,4.8s-4.8,7.1-4.8,11.7s1.8,8.7,4.8,11.7
		c2.8,2.8,6.6,4.6,10.8,4.8v-4.1l-6.3-6.3c-0.3-0.3-0.3-0.8,0-1.2c0.3-0.3,0.8-0.3,1.2,0l5.1,5.1v-10c0-0.5,0.4-0.8,0.8-0.8
		s0.8,0.4,0.8,0.8v4.6L311,503L311,503z M308.8,518.8V532c0,0.5-0.4,0.8-0.8,0.8s-0.8-0.4-0.8-0.8v-13.2c-4.7-0.2-8.9-2.2-12-5.3
		c-3.3-3.3-5.3-7.8-5.3-12.8s2-9.5,5.3-12.8s7.8-5.3,12.8-5.3s9.5,2,12.8,5.3s5.3,7.8,5.3,12.8s-2,9.5-5.3,12.8
		C317.7,516.6,313.5,518.6,308.8,518.8L308.8,518.8z"/>
	<path class="st2" d="M339.3,532c0,0.5-0.4,0.8-0.8,0.8c-0.5,0-0.8-0.4-0.8-0.8v-4.5h-15.6v4.5c0,0.5-0.4,0.8-0.8,0.8
		c-0.5,0-0.8-0.4-0.8-0.8v-4.5h-2.3v-1.6h2.3v-1.3h-2.3V523h2.3v-1.3h-2.3v-1.6h3.1h17.2h3.1v1.6h-2.3v1.3h2.3v1.6h-2.3v1.3h2.3v1.6
		h-2.3L339.3,532L339.3,532z M322.1,521.5v1.3h15.6v-1.3H322.1L322.1,521.5z M322.1,524.5v1.3h15.6v-1.3H322.1L322.1,524.5z"/>
</g>
<g>
	<polygon class="st5" points="1489.8,518.7 1522.3,534.5 1522.3,674.9 1489.8,674.9 1472.8,674.9 1472.8,518.7 	"/>
	<polygon class="st3" points="1472.8,525.8 1486.5,525.8 1486.5,674.9 1472.8,674.9 	"/>
	<path class="st3" d="M1489.8,525.8l28.2,9.4v6.8h-28.2V525.8L1489.8,525.8z M1518,543v10.1h-28.2V543H1518L1518,543z M1518,555.7
		v8.5h-28.2v-8.5H1518L1518,555.7z M1518,565.3v10.1h-28.2v-10.1H1518L1518,565.3z M1518,576.5v10.1h-28.2v-10.1H1518L1518,576.5z
		 M1518,587.6v10.1h-28.2v-10.1H1518L1518,587.6z M1518,598.8v10.1h-28.2v-10.1H1518L1518,598.8z M1518,609.9V620h-28.2v-10.1H1518
		L1518,609.9z M1518,621.1v10.1h-28.2v-10.1H1518L1518,621.1z M1518,632.2v10.1h-28.2v-10.1H1518L1518,632.2z M1518,643.4v10.1
		h-28.2v-10.1H1518L1518,643.4z M1518,654.5v10.1h-28.2v-10.1H1518L1518,654.5z M1518,665.7v9.2h-28.2v-9.2H1518L1518,665.7z"/>
	<path class="st2" d="M1472.8,517.8h17.1l32.7,15.9l0.5,0.2v0.6v140.3v0.9h-0.9h-31.7h-0.9h-0.9h-16h-0.9v-0.9V518.7v-0.9H1472.8
		L1472.8,517.8z M1518,664.6h-27.3v9.4h30.8V535.1l-30.8-14.9v20h27.3v1.8h-27.3v9.4h19.6v1.8h-19.6v9.4h2.7v1.8h-2.7v9.4h27.3v1.8
		h-27.3v9.4h27.3v1.8h-27.3v9.4h27.3v1.8h-27.3v9.4h27.3v1.8h-27.3v9.4h27.3v1.8h-27.3v9.4h27.3v1.8h-27.3v9.4h27.3v1.8h-27.3v9.4
		h27.3v1.8h-27.3v9.4h27.3V664.6L1518,664.6z M1486.5,653.4h-12.7v9.4h12.7v1.8h-12.7v9.4h15.1V519.6h-15.1v20.5h12.7v1.8h-12.7v9.4
		h12.7v1.8h-12.7v9.4h12.7v1.8h-12.7v9.4h12.7v1.8h-12.7v9.4h12.7v1.8h-12.7v9.4h12.7v1.8h-12.7v9.4h12.7v1.8h-12.7v9.4h12.7v1.8
		h-12.7v9.4h12.7v1.8h-12.7v9.4h12.7v1.8h-12.7v9.4h12.7V653.4L1486.5,653.4z M1518,553.1h-5v-1.8h5V553.1L1518,553.1z M1518,564.2
		h-18.5v-1.8h18.5V564.2L1518,564.2z"/>
	<polygon class="st5" points="1427.4,502.9 1462.6,502.9 1462.6,674.9 1430,674.9 1413.1,674.9 1413.1,518.7 	"/>
	<polygon class="st3" points="1413.1,525.8 1426.7,525.8 1426.7,674.9 1413.1,674.9 	"/>
	<path class="st3" d="M1430,525.8l28.2-18v23H1430V525.8L1430,525.8z M1458.2,531.9V542H1430v-10.1H1458.2L1458.2,531.9z
		 M1458.2,544.4v8.7H1430v-8.7H1458.2L1458.2,544.4z M1458.2,554.2v10.1H1430v-10.1H1458.2L1458.2,554.2z M1458.2,565.3v10.1H1430
		v-10.1H1458.2L1458.2,565.3z M1458.2,576.5v10.1H1430v-10.1H1458.2L1458.2,576.5z M1458.2,587.6v10.1H1430v-10.1H1458.2
		L1458.2,587.6z M1458.2,598.8v10.1H1430v-10.1H1458.2L1458.2,598.8z M1458.2,609.9V620H1430v-10.1H1458.2L1458.2,609.9z
		 M1458.2,621.1v10.1H1430v-10.1H1458.2L1458.2,621.1z M1458.2,632.2v10.1H1430v-10.1H1458.2L1458.2,632.2z M1458.2,643.4v10.1H1430
		v-10.1H1458.2L1458.2,643.4z M1458.2,654.5v10.1H1430v-10.1H1458.2L1458.2,654.5z M1458.2,665.7v9.2H1430v-9.2H1458.2L1458.2,665.7
		z"/>
	<path class="st2" d="M1415.1,517.8h14.7l28.9-14h-30.9L1415.1,517.8L1415.1,517.8z M1426.7,653.4H1414v9.4h12.7v1.8H1414v9.4h15.1
		V519.6H1414v9.4h12.7v1.8H1414v9.4h12.7v1.8H1414v9.4h12.7v1.8H1414v9.4h12.7v1.8H1414v9.4h12.7v1.8H1414v9.4h12.7v1.8H1414v9.4
		h12.7v1.8H1414v9.4h12.7v1.8H1414v9.4h12.7v1.8H1414v9.4h12.7v1.8H1414v9.4h12.7v1.8H1414v9.4h12.7V653.4L1426.7,653.4z
		 M1458.2,653.4h-27.3v9.4h27.3v1.8h-27.3v9.4h30.8V504.4l-30.8,14.9v9.7h27.3v1.8h-27.3v9.4h16.6v1.8h-16.6v9.4h27.3v1.8h-27.3v9.4
		h27.3v1.8h-27.3v9.4h27.3v1.8h-27.3v9.4h4v1.8h-4v9.4h27.3v1.8h-27.3v9.4h27.3v1.8h-27.3v9.4h27.3v1.8h-27.3v9.4h27.3v1.8h-27.3
		v9.4h27.3v1.8h-27.3v9.4h27.3V653.4L1458.2,653.4z M1458.2,541.9h-7.1v-1.8h7.1V541.9L1458.2,541.9z M1458.2,586.5h-19.6v-1.8h19.6
		V586.5L1458.2,586.5z M1463.5,502v172.8v0.9h-0.9h-31.7h-0.9h-0.9h-16h-0.9v-0.9V518.4l14.5-16.1l0.3-0.3h0.4L1463.5,502
		L1463.5,502z"/>
	<polygon class="st5" points="1414.6,554.9 1414.6,549.5 1400.1,544 1385.7,549.5 1385.7,554.9 1381.5,554.9 1381.5,674.9 
		1418.8,674.9 1418.8,554.9 	"/>
	<polygon class="st3" points="1387.2,566.1 1390.7,566.1 1390.7,650.4 1387.2,650.4 	"/>
	<polygon class="st3" points="1397.4,566.1 1401,566.1 1401,650.4 1397.4,650.4 	"/>
	<polygon class="st3" points="1407.6,566.1 1411.2,566.1 1411.2,650.4 1407.6,650.4 	"/>
	<polygon class="st3" points="1397.4,652.4 1401,652.4 1401,674.9 1397.4,674.9 	"/>
	<polygon class="st3" points="1407.6,652.4 1411.2,652.4 1411.2,674.9 1407.6,674.9 	"/>
	<polygon class="st9" points="1387.2,652.4 1390.7,652.4 1390.7,674.9 1387.2,674.9 	"/>
	<path class="st2" d="M1421.3,561.1h-1.6v88.4h1.6v1.8h-1.6v23.5v0.9h-0.9h-4.8h-0.9h-5.5h-0.9h-3h-0.9h-5.5h-0.9h-3h-0.9h-5.5h-0.9
		h-4.8h-0.9v-0.9v-23.5h-1.6v-1.8h1.6v-88.4h-1.6v-1.8h1.6v-4.4V554h0.9h3.3v-4.6v-0.6l0.6-0.2l14.4-5.5l0.3-0.1l0.3,0.1l14.4,5.5
		l0.6,0.2v0.6v4.6h3.3h0.4h0.4v0.9v4.4h1.6v1.8H1421.3z M1386.6,554h27.1v-4l-13.6-5.1l-13.6,5.1L1386.6,554L1386.6,554z
		 M1417.9,651.3h-3.9V674h3.9V651.3L1417.9,651.3z M1412.2,651.3h-3.7V674h3.7V651.3L1412.2,651.3z M1406.8,651.3h-3V674h3V651.3
		L1406.8,651.3z M1402,651.3h-3.7V674h3.7V651.3L1402,651.3z M1396.5,651.3h-3V674h3V651.3L1396.5,651.3z M1391.7,651.3h-3.7V674
		h3.7V651.3L1391.7,651.3z M1386.3,651.3h-3.9V674h3.9V651.3L1386.3,651.3z M1382.4,649.6h3.9v-85.4v-0.9h0.9h5.5h0.9v0.9v85.4h3
		v-85.4v-0.9h0.9h5.5h0.9v0.9v85.4h3v-85.4v-0.9h0.9h5.5h0.9v0.9v85.4h3.9v-88.4h-35.5v88.4H1382.4z M1388,649.6h3.7V565h-3.7V649.6
		L1388,649.6z M1398.3,649.6h3.7V565h-3.7V649.6L1398.3,649.6z M1408.5,649.6h3.7V565h-3.7V649.6L1408.5,649.6z M1382.4,559.3h35.5
		v-3.5h-2.4h-30.7h-2.4V559.3L1382.4,559.3z"/>
	<polygon class="st5" points="1446.7,674.9 1484,674.9 1484,574 1481.1,574 1481.1,569.1 1449.5,569.1 1449.5,574 1446.7,574 	"/>
	<polygon class="st3" points="1452.3,661.7 1455.9,661.7 1455.9,674.9 1452.3,674.9 	"/>
	<polygon class="st3" points="1462.6,661.7 1466.2,661.7 1466.2,674.9 1462.6,674.9 	"/>
	<polygon class="st3" points="1452.3,642.6 1455.9,642.6 1455.9,650.4 1452.3,650.4 	"/>
	<polygon class="st3" points="1462.6,642.6 1466.2,642.6 1466.2,650.4 1462.6,650.4 	"/>
	<polygon class="st3" points="1452.3,624.1 1455.9,624.1 1455.9,631.9 1452.3,631.9 	"/>
	<polygon class="st3" points="1462.6,624.1 1466.2,624.1 1466.2,631.9 1462.6,631.9 	"/>
	<polygon class="st3" points="1472.8,624.1 1476.4,624.1 1476.4,631.9 1472.8,631.9 	"/>
	<polygon class="st3" points="1452.3,605.6 1455.9,605.6 1455.9,613.5 1452.3,613.5 	"/>
	<polygon class="st3" points="1462.6,605.6 1466.2,605.6 1466.2,613.5 1462.6,613.5 	"/>
	<polygon class="st3" points="1472.8,605.6 1476.4,605.6 1476.4,613.5 1472.8,613.5 	"/>
	<polygon class="st3" points="1452.3,587.1 1455.9,587.1 1455.9,595 1452.3,595 	"/>
	<polygon class="st3" points="1462.6,587.1 1466.2,587.1 1466.2,595 1462.6,595 	"/>
	<polygon class="st3" points="1472.8,587.1 1476.4,587.1 1476.4,595 1472.8,595 	"/>
	<polygon class="st3" points="1472.8,642.6 1476.4,642.6 1476.4,650.4 1472.8,650.4 	"/>
	<polygon class="st3" points="1472.8,661.7 1476.4,661.7 1476.4,674.9 1472.8,674.9 	"/>
	<path class="st2" d="M1447.6,674h3.9v-14.3v-0.9h0.9h5.5h0.9v0.9V674h3v-14.3v-0.9h0.9h5.5h0.9v0.9V674h3v-14.3v-0.9h0.9h5.5h0.9
		v0.9V674h3.9v-17.3h-35.5V674H1447.6z M1455.9,626.8h-2.7v4.2h3.7v-8h-3.7v2.1h2.7V626.8L1455.9,626.8z M1466.2,626.8h-2.7v4.2h3.7
		v-8h-3.7v2.1h2.7V626.8L1466.2,626.8z M1476.4,626.8h-2.7v4.2h3.7v-8h-3.7v2.1h2.7V626.8L1476.4,626.8z M1455.9,608.3h-2.7v4.2h3.7
		v-8.1h-3.7v2.1h2.7V608.3L1455.9,608.3z M1466.2,608.3h-2.7v4.2h3.7v-8.1h-3.7v2.1h2.7V608.3L1466.2,608.3z M1476.4,608.3h-2.7v4.2
		h3.7v-8.1h-3.7v2.1h2.7V608.3L1476.4,608.3z M1455.9,589.8h-2.7v4.2h3.7v-8h-3.7v2.1h2.7V589.8L1455.9,589.8z M1466.2,589.8h-2.7
		v4.2h3.7v-8h-3.7v2.1h2.7V589.8L1466.2,589.8z M1476.4,589.8h-2.7v4.2h3.7v-8h-3.7v2.1h2.7V589.8L1476.4,589.8z M1457.8,595.9h-5.5
		h-0.9V595v-9.9v-0.9h0.9h5.5h0.9v0.9v9.9v0.9H1457.8L1457.8,595.9z M1468.1,595.9h-5.5h-0.9V595v-9.9v-0.9h0.9h5.5h0.9v0.9v9.9v0.9
		H1468.1L1468.1,595.9z M1478.3,595.9h-5.5h-0.9V595v-9.9v-0.9h0.9h5.5h0.9v0.9v9.9v0.9H1478.3L1478.3,595.9z M1457.8,614.3h-5.5
		h-0.9v-0.9v-9.9v-0.9h0.9h5.5h0.9v0.9v9.9v0.9H1457.8L1457.8,614.3z M1468.1,614.3h-5.5h-0.9v-0.9v-9.9v-0.9h0.9h5.5h0.9v0.9v9.9
		v0.9H1468.1L1468.1,614.3z M1478.3,614.3h-5.5h-0.9v-0.9v-9.9v-0.9h0.9h5.5h0.9v0.9v9.9v0.9H1478.3L1478.3,614.3z M1457.8,632.8
		h-5.5h-0.9v-0.9V622v-0.9h0.9h5.5h0.9v0.9v9.9v0.9H1457.8L1457.8,632.8z M1478.3,632.8h-5.5h-0.9v-0.9V622v-0.9h0.9h5.5h0.9v0.9
		v9.9v0.9H1478.3L1478.3,632.8z M1468.1,632.8h-5.5h-0.9v-0.9V622v-0.9h0.9h5.5h0.9v0.9v9.9v0.9H1468.1L1468.1,632.8z M1453.2,649.6
		h3.7v-8.1h-3.7v2.1h2.7v1.8h-2.7V649.6L1453.2,649.6z M1457.8,651.3h-5.5h-0.9v-0.9v-9.9v-0.9h0.9h5.5h0.9v0.9v9.9v0.9H1457.8
		L1457.8,651.3z M1463.5,649.6h3.7v-8.1h-3.7v2.1h2.7v1.8h-2.7V649.6L1463.5,649.6z M1468.1,651.3h-5.5h-0.9v-0.9v-9.9v-0.9h0.9h5.5
		h0.9v0.9v9.9v0.9H1468.1L1468.1,651.3z M1476.4,645.3h-2.7v4.2h3.7v-8.1h-3.7v2.1h2.7V645.3L1476.4,645.3z M1478.3,651.3h-5.5h-0.9
		v-0.9v-9.9v-0.9h0.9h5.5h0.9v0.9v9.9v0.9H1478.3L1478.3,651.3z M1476.4,670.4h-2.7v3.5h3.7v-13.4h-3.7v8.1h2.7V670.4L1476.4,670.4z
		 M1455.9,670.4h-2.7v3.5h3.7v-13.4h-3.7v8.1h2.7V670.4L1455.9,670.4z M1466.2,670.4h-2.7v3.5h3.7v-13.4h-3.7v8.1h2.7V670.4
		L1466.2,670.4z M1483.1,654.9v-74.6h-35.5v74.6H1483.1L1483.1,654.9z M1486.5,656.6h-1.6v18.2v0.9h-0.9h-5.7h-5.5h-4.8h-5.5h-4.8
		h-5.5h-5.7h-0.9v-0.9v-18.2h-1.6v-1.8h1.6v-74.6h-1.6v-1.8h1.6V574v-0.9h0.9h1.9v-4v-0.9h0.9h31.6h0.9v0.9v4h1.9h0.9v0.9v4.4h1.6
		v1.8h-1.6v74.6h1.6v1.8H1486.5z M1480.2,573.1V570h-29.8v3.2h29.8V573.1z M1483.1,578.4v-3.5h-1.1h-33.4h-1.1v3.5H1483.1
		L1483.1,578.4z"/>
	<polygon class="st5" points="1355.3,589.5 1392.6,589.5 1392.6,674.9 1355.3,674.9 	"/>
	<g>
		<polygon class="st3" points="1361,605.6 1364.6,605.6 1364.6,613.5 1361,613.5 		"/>
		<polygon class="st3" points="1371.2,605.6 1374.8,605.6 1374.8,613.5 1371.2,613.5 		"/>
		<polygon class="st3" points="1381.5,605.6 1385.1,605.6 1385.1,613.5 1381.5,613.5 		"/>
		<polygon class="st3" points="1361,624.1 1364.6,624.1 1364.6,631.9 1361,631.9 		"/>
		<polygon class="st3" points="1371.2,624.1 1374.8,624.1 1374.8,631.9 1371.2,631.9 		"/>
		<polygon class="st3" points="1381.5,624.1 1385.1,624.1 1385.1,631.9 1381.5,631.9 		"/>
		<polygon class="st3" points="1361,642.6 1364.6,642.6 1364.6,650.4 1361,650.4 		"/>
		<polygon class="st3" points="1371.2,642.6 1374.8,642.6 1374.8,650.4 1371.2,650.4 		"/>
		<polygon class="st3" points="1381.5,642.6 1385.1,642.6 1385.1,650.4 1381.5,650.4 		"/>
		<polygon class="st3" points="1361,661.7 1364.6,661.7 1364.6,674.9 1361,674.9 		"/>
		<polygon class="st3" points="1371.2,661.7 1385.1,661.7 1385.1,674.9 1371.2,674.9 		"/>
	</g>
	<path class="st2" d="M1361.9,631.1h3.7V623h-3.7v4.6h2.7v1.8h-2.7V631.1L1361.9,631.1z M1359.2,656.6h-3V674h3.9v-14.3v-0.9h0.9
		h5.5h0.9v0.9V674c1,0,2,0,3,0v-14.3v-0.9h0.9h15.7h0.9v0.9V674h3.9v-17.3h-32.6V656.6z M1354.4,656.6h-1.6v-1.8h1.6v-55.5h-1.6
		v-1.8h1.6V594h-1.6v-1.8h1.6v-2.7v-0.9h0.9h37.3h0.9v0.9v2.7h1.6v1.8h-1.6v3.5h1.6v1.8h-1.6v55.5h1.6v1.8h-1.6v18.2v0.9h-0.9h-5.7
		h-5.5h-4.8h-5.5h-4.8h-5.5h-5.7h-0.9v-0.9v-18.2H1354.4z M1356.2,654.9h3h32.5v-55.5h-35.5V654.9L1356.2,654.9z M1374.8,629.3h-2.7
		v1.7h3.7v-8h-3.7v4.6h2.7V629.3L1374.8,629.3z M1385.1,629.3h-2.7v1.7h3.7v-8h-3.7v4.6h2.7V629.3L1385.1,629.3z M1364.6,647.8h-2.7
		v1.7h3.7v-8.1h-3.7v4.6h2.7V647.8L1364.6,647.8z M1374.8,647.8h-2.7v1.7h3.7v-8.1h-3.7v4.6h2.7V647.8L1374.8,647.8z M1385.1,647.8
		h-2.7v1.7h3.7v-8.1h-3.7v4.6h2.7V647.8L1385.1,647.8z M1364.6,670.4h-2.7v3.5h3.7v-13.4h-3.7v8.1h2.7V670.4L1364.6,670.4z
		 M1385.1,670.4h-12.9v3.5h13.9v-13.4h-13.9v8.1h12.9V670.4L1385.1,670.4z M1386.9,651.3h-5.5h-0.9v-0.9v-9.9v-0.9h0.9h5.5h0.9v0.9
		v9.9v0.9H1386.9L1386.9,651.3z M1376.7,651.3h-5.5h-0.9v-0.9v-9.9v-0.9h0.9h5.5h0.9v0.9v9.9v0.9H1376.7L1376.7,651.3z
		 M1366.4,651.3h-5.5h-0.9v-0.9v-9.9v-0.9h0.9h5.5h0.9v0.9v9.9v0.9H1366.4L1366.4,651.3z M1386.9,632.8h-5.5h-0.9v-0.9V622v-0.9h0.9
		h5.5h0.9v0.9v9.9v0.9H1386.9L1386.9,632.8z M1376.7,632.8h-5.5h-0.9v-0.9V622v-0.9h0.9h5.5h0.9v0.9v9.9v0.9H1376.7L1376.7,632.8z
		 M1366.4,632.8h-5.5h-0.9v-0.9V622v-0.9h0.9h5.5h0.9v0.9v9.9v0.9H1366.4L1366.4,632.8z M1382.4,612.6h3.7v-8.1h-3.7v4.6h2.7v1.8
		h-2.7V612.6L1382.4,612.6z M1364.6,610.8h-2.7v1.7h3.7v-8.1h-3.7v4.6h2.7V610.8L1364.6,610.8z M1374.8,610.8h-2.7v1.7h3.7v-8.1
		h-3.7v4.6h2.7V610.8L1374.8,610.8z M1366.4,614.3h-5.5h-0.9v-0.9v-9.9v-0.9h0.9h5.5h0.9v0.9v9.9v0.9H1366.4L1366.4,614.3z
		 M1376.7,614.3h-5.5h-0.9v-0.9v-9.9v-0.9h0.9h5.5h0.9v0.9v9.9v0.9H1376.7L1376.7,614.3z M1386.9,614.3h-5.5h-0.9v-0.9v-9.9v-0.9
		h0.9h5.5h0.9v0.9v9.9v0.9H1386.9L1386.9,614.3z M1391.7,594h-35.5v3.5h35.5V594L1391.7,594z M1356.2,592.2h35.5v-1.8h-35.5V592.2
		L1356.2,592.2z"/>
	<path class="st3" d="M1350.1,649.3c5.3,0,9.6,4.3,9.6,9.6s-4.3,9.6-9.6,9.6c-5.3,0-9.6-4.3-9.6-9.6S1344.8,649.3,1350.1,649.3
		L1350.1,649.3z"/>
	<path class="st5" d="M1351.3,650.8c3.7,0,6.7,3,6.7,6.7s-3,6.7-6.7,6.7s-6.7-3-6.7-6.7C1344.6,653.8,1347.6,650.8,1351.3,650.8
		L1351.3,650.8z"/>
	<path class="st2" d="M1350.1,649c2.9,0,5.5,1.2,7.4,3.1c1.9,1.9,3.1,4.5,3.1,7.4s-1.2,5.5-3.1,7.4c-1.7,1.7-4,2.8-6.5,3v5.5h-1.8
		v-5.5c-2.5-0.2-4.8-1.3-6.5-3c-1.9-1.9-3.1-4.5-3.1-7.4s1.2-5.5,3.1-7.4C1344.6,650.2,1347.2,649,1350.1,649L1350.1,649z
		 M1351,663.2v4.9c2-0.2,3.9-1.1,5.3-2.5c1.6-1.6,2.6-3.8,2.6-6.2s-1-4.6-2.6-6.2c-1.6-1.6-3.8-2.6-6.2-2.6c-2.4,0-4.6,1-6.2,2.6
		s-2.6,3.8-2.6,6.2s1,4.6,2.6,6.2c1.4,1.4,3.2,2.3,5.3,2.5v-4.9H1351L1351,663.2z"/>
	<path class="st3" d="M1413.1,645.8c5.9,0,10.6,4.7,10.6,10.6c0,5.9-4.7,10.6-10.6,10.6s-10.6-4.7-10.6-10.6
		C1402.5,650.6,1407.3,645.8,1413.1,645.8L1413.1,645.8z"/>
	<path class="st5" d="M1414.4,647.3c4.2,0,7.6,3.4,7.6,7.6c0,4.2-3.4,7.6-7.6,7.6s-7.6-3.4-7.6-7.6S1410.2,647.3,1414.4,647.3
		L1414.4,647.3z"/>
	<path class="st2" d="M1414,660.9v5.2c2.3-0.2,4.4-1.2,6-2.8c1.8-1.8,2.8-4.2,2.8-6.9s-1.1-5.1-2.8-6.9c-1.8-1.8-4.2-2.8-6.9-2.8
		c-2.7,0-5.1,1.1-6.9,2.8c-1.8,1.8-2.8,4.2-2.8,6.9s1.1,5.1,2.8,6.9c1.6,1.6,3.6,2.6,6,2.8v-5.2H1414L1414,660.9z M1414,667.9v7
		h-1.8v-7c-2.8-0.2-5.3-1.4-7.2-3.3c-2.1-2.1-3.4-5-3.4-8.1c0-3.2,1.3-6,3.4-8.1s5-3.4,8.1-3.4c3.2,0,6,1.3,8.1,3.4
		c2.1,2.1,3.4,5,3.4,8.1c0,3.2-1.3,6-3.4,8.1C1419.3,666.4,1416.8,667.6,1414,667.9L1414,667.9z"/>
	<path class="st3" d="M1427.2,657.1c3.7,0,6.7,3,6.7,6.7s-3,6.7-6.7,6.7s-6.7-3-6.7-6.7S1423.5,657.1,1427.2,657.1L1427.2,657.1z"/>
	<path class="st5" d="M1427.9,658.3c2.5,0,4.6,2.1,4.6,4.6s-2.1,4.6-4.6,4.6s-4.6-2.1-4.6-4.6S1425.4,658.3,1427.9,658.3
		L1427.9,658.3z"/>
	<path class="st2" d="M1427.2,656.2c2.1,0,4,0.9,5.4,2.2c1.4,1.4,2.2,3.3,2.2,5.4c0,2.1-0.9,4-2.2,5.4c-1.2,1.2-2.7,2-4.5,2.2v3.5
		h-1.8v-3.5c-1.7-0.2-3.3-1-4.5-2.2c-1.4-1.4-2.2-3.3-2.2-5.4c0-2.1,0.9-4,2.2-5.4C1423.2,657,1425.1,656.2,1427.2,656.2
		L1427.2,656.2z M1428.1,666.6v2.9c1.3-0.2,2.4-0.8,3.2-1.6c1.1-1.1,1.7-2.5,1.7-4.1s-0.7-3.1-1.7-4.1c-1.1-1.1-2.5-1.7-4.1-1.7
		s-3.1,0.7-4.1,1.7c-1.1,1.1-1.7,2.5-1.7,4.1s0.7,3.1,1.7,4.1c0.9,0.9,2,1.4,3.2,1.6v-2.9H1428.1L1428.1,666.6z"/>
	<polygon class="st5" points="1503.3,579.3 1532.2,579.3 1532.2,576.7 1536.5,576.7 1536.5,674.9 1499.1,674.9 1499.1,576.7 
		1503.3,576.7 	"/>
	<path class="st6" d="M1509.1,579.3v11.4h-1.8v-11.4H1509.1L1509.1,579.3z M1528.3,579.3v11.6h-1.8v-11.6H1528.3L1528.3,579.3z
		 M1523.5,579.3v9.7h-1.8v-9.7H1523.5L1523.5,579.3z M1518.7,579.3v7.8h-1.8v-7.8H1518.7L1518.7,579.3z M1513.9,579.3v9.5h-1.8v-9.5
		H1513.9L1513.9,579.3z"/>
	<polygon class="st3" points="1504.8,605.6 1508.4,605.6 1508.4,613.5 1504.8,613.5 	"/>
	<polygon class="st3" points="1515.1,605.6 1518.7,605.6 1518.7,613.5 1515.1,613.5 	"/>
	<polygon class="st3" points="1525.3,605.6 1528.9,605.6 1528.9,613.5 1525.3,613.5 	"/>
	<polygon class="st3" points="1504.8,624.1 1508.4,624.1 1508.4,631.9 1504.8,631.9 	"/>
	<polygon class="st3" points="1515.1,624.1 1518.7,624.1 1518.7,631.9 1515.1,631.9 	"/>
	<polygon class="st3" points="1525.3,624.1 1528.9,624.1 1528.9,631.9 1525.3,631.9 	"/>
	<polygon class="st3" points="1504.8,642.6 1508.4,642.6 1508.4,650.4 1504.8,650.4 	"/>
	<polygon class="st3" points="1515.1,642.6 1518.7,642.6 1518.7,650.4 1515.1,650.4 	"/>
	<polygon class="st3" points="1525.3,642.6 1528.9,642.6 1528.9,650.4 1525.3,650.4 	"/>
	<polygon class="st3" points="1504.8,661.7 1508.4,661.7 1508.4,674.9 1504.8,674.9 	"/>
	<polygon class="st3" points="1515.1,661.7 1528.9,661.7 1528.9,674.9 1515.1,674.9 	"/>
	<path class="st2" d="M1539,599.3h-1.6v55.5h1.6v1.8h-1.6v18.2v0.9h-0.9h-4.8h-17.5h-3h-7.2h-4.8h-0.9v-0.9v-18.2h-1.6v-1.8h1.6
		v-55.5h-1.6v-1.8h1.6v-1.8h-1.6v-1.8h1.6v-17.2v-0.9h0.9h4.2h0.9v0.9v1.8h27.1v-1.8v-0.9h0.9h4.2h0.9v0.9v17.2h1.6v1.8h-1.6v1.8
		h1.6L1539,599.3L1539,599.3z M1529.9,674v-13.4H1516v8.1h12.9v1.8H1516v3.5L1529.9,674L1529.9,674z M1514.2,674v-14.3v-0.9h0.9
		h15.7h0.9v0.9V674h3.9v-17.3H1500V674h3.9v-14.3v-0.9h0.9h5.5h0.9v0.9V674H1514.2L1514.2,674z M1509.4,674v-13.4h-3.7v8.1h2.7v1.8
		h-2.7v3.5L1509.4,674L1509.4,674z M1526.2,649.6h3.7v-8.1h-3.7v4.6h2.7v1.8h-2.7V649.6L1526.2,649.6z M1530.8,651.3h-5.5h-0.9v-0.9
		v-9.9v-0.9h0.9h5.5h0.9v0.9v9.9v0.9H1530.8L1530.8,651.3z M1516,649.6h3.7v-8.1h-3.7v4.6h2.7v1.8h-2.7V649.6L1516,649.6z
		 M1520.5,651.3h-5.5h-0.9v-0.9v-9.9v-0.9h0.9h5.5h0.9v0.9v9.9v0.9H1520.5L1520.5,651.3z M1505.7,649.6h3.7v-8.1h-3.7v4.6h2.7v1.8
		h-2.7V649.6L1505.7,649.6z M1510.3,651.3h-5.5h-0.9v-0.9v-9.9v-0.9h0.9h5.5h0.9v0.9v9.9v0.9H1510.3L1510.3,651.3z M1508.4,629.3
		h-2.7v1.7h3.7v-8h-3.7v4.6h2.7V629.3L1508.4,629.3z M1526.2,631.1h3.7V623h-3.7v4.6h2.7v1.8h-2.7V631.1L1526.2,631.1z
		 M1530.8,632.8h-5.5h-0.9v-0.9V622v-0.9h0.9h5.5h0.9v0.9v9.9v0.9H1530.8L1530.8,632.8z M1516,631.1h3.7V623h-3.7v4.6h2.7v1.8h-2.7
		V631.1L1516,631.1z M1520.5,632.8h-5.5h-0.9v-0.9V622v-0.9h0.9h5.5h0.9v0.9v9.9v0.9H1520.5L1520.5,632.8z M1510.3,632.8h-5.5h-0.9
		v-0.9V622v-0.9h0.9h5.5h0.9v0.9v9.9v0.9H1510.3L1510.3,632.8z M1505.7,612.6h3.7v-8.1h-3.7v4.6h2.7v1.8h-2.7V612.6L1505.7,612.6z
		 M1526.2,612.6h3.7v-8.1h-3.7v4.6h2.7v1.8h-2.7V612.6L1526.2,612.6z M1530.8,614.3h-5.5h-0.9v-0.9v-9.9v-0.9h0.9h5.5h0.9v0.9v9.9
		v0.9H1530.8L1530.8,614.3z M1516,612.6h3.7v-8.1h-3.7v4.6h2.7v1.8h-2.7V612.6L1516,612.6z M1520.5,614.3h-5.5h-0.9v-0.9v-9.9v-0.9
		h0.9h5.5h0.9v0.9v9.9v0.9H1520.5L1520.5,614.3z M1510.3,614.3h-5.5h-0.9v-0.9v-9.9v-0.9h0.9h5.5h0.9v0.9v9.9v0.9H1510.3
		L1510.3,614.3z M1500,654.9h35.5v-55.5H1500V654.9L1500,654.9z M1500,597.5h35.5v-1.8h-4.2h-2.4h-0.9h-20.5h-0.9h-2.4h-4.2V597.5
		L1500,597.5z M1527.2,593.9v-2.4l-9.4-3.5l-9.4,3.5v2.4H1527.2L1527.2,593.9z M1506.7,593.9v-3v-0.6l0.6-0.2l10.2-3.9l0.3-0.1
		l0.3,0.1l10.2,3.9l0.6,0.2v0.6v3h2.4v-13.7h-27.1v13.7H1506.7L1506.7,593.9z M1502.5,593.9v-16.3h-2.4v16.3H1502.5L1502.5,593.9z
		 M1535.6,593.9v-16.3h-2.4v16.3H1535.6L1535.6,593.9z"/>
	<path class="st3" d="M1496.3,649.3c5.3,0,9.6,4.3,9.6,9.6s-4.3,9.6-9.6,9.6s-9.6-4.3-9.6-9.6C1486.7,653.6,1491,649.3,1496.3,649.3
		L1496.3,649.3z"/>
	<path class="st5" d="M1497.5,650.8c3.7,0,6.7,3,6.7,6.7s-3,6.7-6.7,6.7s-6.7-3-6.7-6.7S1493.8,650.8,1497.5,650.8L1497.5,650.8z"/>
	<path class="st2" d="M1496.3,648.4c2.9,0,5.5,1.2,7.4,3.1c1.9,1.9,3.1,4.5,3.1,7.4s-1.2,5.5-3.1,7.4c-1.7,1.7-4,2.8-6.5,3v5.5h-1.8
		v-5.5c-2.5-0.2-4.8-1.3-6.5-3c-1.9-1.9-3.1-4.5-3.1-7.4s1.2-5.5,3.1-7.4C1490.8,649.5,1493.4,648.4,1496.3,648.4L1496.3,648.4z
		 M1497.2,662.6v4.9c2-0.2,3.9-1.1,5.3-2.5c1.6-1.6,2.6-3.8,2.6-6.2s-1-4.6-2.6-6.2c-1.6-1.6-3.8-2.6-6.2-2.6c-2.4,0-4.6,1-6.2,2.6
		s-2.6,3.8-2.6,6.2s1,4.6,2.6,6.2c1.4,1.4,3.2,2.3,5.3,2.5v-4.9H1497.2L1497.2,662.6z"/>
</g>
<g>
	<polygon class="st5" points="961.6,512.4 963.3,512.4 963.3,515.6 961.6,515.6 961.6,531.8 876.6,531.8 876.6,515.6 874.9,515.6 
		874.9,512.4 876.6,512.4 876.6,474.2 874.9,474.2 874.9,469.9 876.6,469.9 876.6,438.5 874.9,438.5 874.9,434.2 876.6,434.2 
		876.6,396.7 882.8,396.7 882.8,401.8 928.7,401.8 932.3,396.7 936,401.8 955.4,401.8 955.4,396.7 961.6,396.7 961.6,434.2 
		963.3,434.2 963.3,438.5 961.6,438.5 961.6,469.9 963.3,469.9 963.3,474.2 961.6,474.2 	"/>
	<polygon class="st3" points="921.4,488.2 945.7,488.2 945.7,507.7 921.4,507.7 	"/>
	<polygon class="st4" points="921.4,504.5 945.7,490.4 945.7,495.6 924.6,507.7 921.4,507.7 	"/>
	<polygon class="st3" points="955.4,515.6 957.1,515.6 957.1,512.4 960.7,512.4 960.7,515.6 959,515.6 959,531.8 955.4,531.8 	"/>
	<polygon class="st3" points="909.3,512.4 914.9,525.8 914.9,531.8 909.3,531.8 	"/>
	<polygon class="st3" points="903.6,416.8 909.3,430.2 909.3,434.2 903.6,434.2 	"/>
	<path class="st3" d="M876.6,441.4h38.6v2.7h-38.6V441.4L876.6,441.4z M949.4,441.4h6v-2.9h1.7v-4.3h3.7v4.3H959v2.9h2.6v2.7H959
		v25.8h-3.7v-25.8h-4.8L949.4,441.4L949.4,441.4z"/>
	<polygon class="st3" points="876.6,477 955.4,477 955.4,474.2 957.1,474.2 957.1,469.9 960.7,469.9 960.7,474.2 959,474.2 959,477 
		961.6,477 961.6,479.7 959,479.7 959,512.4 955.4,512.4 955.4,479.7 876.6,479.7 	"/>
	<path class="st3" d="M892,512.4v-23.9c1.8-2.3,4.1-3.4,6.5-3.4c1.4,0,2.8,0.4,4,1.1v26.2H892L892,512.4z"/>
	<path class="st3" d="M931.6,423.4c0-1.8,1.4-3.2,3.2-3.2s3.2,1.4,3.2,3.2v14.2h-6.4V423.4L931.6,423.4z"/>
	<path class="st3" d="M949.1,419.1c0,0.5-0.4,0.8-0.8,0.8c-0.5,0-0.8-0.4-0.8-0.8v-17.3c0-0.5,0.4-0.8,0.8-0.8
		c0.5,0,0.8,0.4,0.8,0.8V419.1L949.1,419.1z M888.9,434.2c0,0.5-0.4,0.8-0.8,0.8c-0.5,0-0.8-0.4-0.8-0.8v-32.3
		c0-0.5,0.4-0.8,0.8-0.8c0.5,0,0.8,0.4,0.8,0.8V434.2L888.9,434.2z M896,416.8c0,0.5-0.4,0.8-0.8,0.8c-0.5,0-0.8-0.4-0.8-0.8v-14.9
		c0-0.5,0.4-0.8,0.8-0.8c0.5,0,0.8,0.4,0.8,0.8V416.8L896,416.8z M901.3,401.8c0-0.5,0.4-0.8,0.8-0.8c0.5,0,0.8,0.4,0.8,0.8v14.9
		c0,0.5-0.4,0.8-0.8,0.8c-0.5,0-0.8-0.4-0.8-0.8V401.8L901.3,401.8z M910.1,429.1c0,0.5-0.4,0.8-0.8,0.8c-0.5,0-0.8-0.4-0.8-0.8
		v-27.2c0-0.5,0.4-0.8,0.8-0.8c0.5,0,0.8,0.4,0.8,0.8V429.1L910.1,429.1z M917.2,419.1c0,0.5-0.4,0.8-0.8,0.8
		c-0.5,0-0.8-0.4-0.8-0.8v-17.3c0-0.5,0.4-0.8,0.8-0.8c0.5,0,0.8,0.4,0.8,0.8V419.1L917.2,419.1z M924.2,409.2
		c0,0.5-0.4,0.8-0.8,0.8c-0.5,0-0.8-0.4-0.8-0.8v-7.4c0-0.5,0.4-0.8,0.8-0.8c0.5,0,0.8,0.4,0.8,0.8V409.2L924.2,409.2z M942.1,409.2
		c0,0.5-0.4,0.8-0.8,0.8c-0.5,0-0.8-0.4-0.8-0.8v-7.4c0-0.5,0.4-0.8,0.8-0.8c0.5,0,0.8,0.4,0.8,0.8V409.2L942.1,409.2z"/>
	<polygon class="st3" points="894.1,423.7 900.4,423.7 900.4,434.2 894.1,434.2 	"/>
	<polygon class="st3" points="894.1,450.3 900.4,450.3 900.4,469.9 894.1,469.9 	"/>
	<polygon class="st3" points="923.8,450.3 930.1,450.3 930.1,469.9 923.8,469.9 	"/>
	<polygon class="st3" points="937,450.3 943.3,450.3 943.3,469.9 937,469.9 	"/>
	<polygon class="st3" points="921.4,522.4 945.7,522.4 945.7,525.4 921.4,525.4 	"/>
	<path class="st2" d="M877.4,531.8c0,0.5-0.4,0.8-0.8,0.8c-0.5,0-0.8-0.4-0.8-0.8v-15.3H875c-0.5,0-0.8-0.4-0.8-0.8v-3.2
		c0-0.5,0.4-0.8,0.8-0.8h0.8v-34.6v-2H875c-0.5,0-0.8-0.4-0.8-0.8V470c0-0.5,0.4-0.8,0.8-0.8h0.8v-29.7H875c-0.5,0-0.8-0.4-0.8-0.8
		v-4.3c0-0.5,0.4-0.8,0.8-0.8h0.8v-4.5v-32.3c0-0.5,0.4-0.8,0.8-0.8h6.2c0.5,0,0.8,0.4,0.8,0.8v4.3h44.6l3.4-4.8
		c0.3-0.4,0.8-0.5,1.2-0.2c0.1,0.1,0.2,0.1,0.2,0.2l3.4,4.8h18.1v-4.3c0-0.5,0.4-0.8,0.8-0.8h6.2c0.5,0,0.8,0.4,0.8,0.8v32.3v4.3
		h0.9c0.5,0,0.8,0.4,0.8,0.8v4.3c0,0.5-0.4,0.8-0.8,0.8h-0.9v2V469h0.9c0.5,0,0.8,0.4,0.8,0.8v4.3c0,0.5-0.4,0.8-0.8,0.8h-0.9v2
		v34.6h0.9c0.5,0,0.8,0.4,0.8,0.8v3.2c0,0.5-0.4,0.8-0.8,0.8h-0.9v15.3c0,0.5-0.4,0.8-0.8,0.8c-0.5,0-0.8-0.4-0.8-0.8v-15.3H957
		h-0.9v15.3c0,0.5-0.4,0.8-0.8,0.8c-0.5,0-0.8-0.4-0.8-0.8v-15.3h-44.4v15.3c0,0.5-0.4,0.8-0.8,0.8c-0.5,0-0.8-0.4-0.8-0.8v-16.2
		v-2.3h-2.9v2.3v3.4v3.2v3.2v3.2v3.1c0,0.5-0.4,0.8-0.8,0.8c-0.5,0-0.8-0.4-0.8-0.8v-2.3h-15.5v2.3c0,0.5-0.4,0.8-0.8,0.8
		c-0.5,0-0.8-0.4-0.8-0.8v-3.1v-3.2V522v-3.2v-3.4v-2.3H884v2.3v16.2c0,0.5-0.4,0.8-0.8,0.8c-0.5,0-0.8-0.4-0.8-0.8v-15.3h-4.5v15.5
		H877.4z M937.6,402.7l16.9,23.8v-23.8H937.6L937.6,402.7z M935.3,402.4l-0.1-0.1l-2.9-4.1l-2.9,4.1c0,0,0,0.1-0.1,0.1l-19.2,27v4
		h6.8c0.5,0,0.8,0.4,0.8,0.8v4.3c0,0.5-0.4,0.8-0.8,0.8H916v2c0,0.5-0.4,0.8-0.8,0.8h-5.1v26.8h10.4v-22c0-0.5,0.4-0.8,0.8-0.8h8.8
		c0.5,0,0.8,0.4,0.8,0.8v15.5v6.5h2.7v-22c0-0.5,0.4-0.8,0.8-0.8h8.8c0.5,0,0.8,0.4,0.8,0.8v15.5v6.5h10.4v-26.8h-5.1
		c-0.5,0-0.8-0.4-0.8-0.8v-2h-0.9c-0.5,0-0.8-0.4-0.8-0.8v-4.3c0-0.5,0.4-0.8,0.8-0.8h6.8v-4L935.3,402.4L935.3,402.4z M883.7,402.7
		v26.4v4.3h3.9v-16.6c0-0.5,0.4-0.8,0.8-0.8h15.2c0.5,0,0.8,0.4,0.8,0.8v16.6h3.1h0.9v-4.3c0-0.2,0.1-0.4,0.2-0.5l18.4-25.8h-43.3
		V402.7z M956.2,428.2h4.5v-30.7h-4.5v4.3V428.2L956.2,428.2z M960.8,429.9h-4.5v3.4h0.9h3.7v-3.4H960.8z M877.4,428.2h4.5v-26.4
		v-4.3h-4.5V428.2L877.4,428.2z M882,429.9h-4.5v3.4h4.5V429.9L882,429.9z M890.8,433.4v-13c0-0.5,0.4-0.8,0.8-0.8h8.8
		c0.5,0,0.8,0.4,0.8,0.8v13h1.5v-15.7h-13.5v15.7H890.8L890.8,433.4z M899.6,433.4v-12.2h-7.1v12.2H899.6L899.6,433.4z M937.7,439.3
		h-10.8c-0.5,0-0.8-0.4-0.8-0.8v-4.3c0-0.5,0.4-0.8,0.8-0.8h1.4V420l0,0c0-1.1,0.5-2.1,1.2-2.8c0.7-0.7,1.7-1.2,2.9-1.2
		c1.1,0,2.1,0.5,2.9,1.2c0,0,0,0,0,0.1c0.7,0.7,1.1,1.7,1.1,2.8v13.4h1.4c0.5,0,0.8,0.4,0.8,0.8v4.3
		C938.6,439,938.2,439.3,937.7,439.3L937.7,439.3z M930,433.4h4.7V420c0-0.6-0.2-1.2-0.7-1.6l0,0c-0.4-0.4-1-0.7-1.7-0.7
		s-1.2,0.3-1.7,0.7c-0.4,0.4-0.7,1-0.7,1.7l0,0v13.3H930z M927.7,437.7h9.1v-2.6h-1.4H929h-1.4v2.6H927.7z M928.3,420
		c0-0.5,0.4-0.8,0.8-0.8L928.3,420L928.3,420z M914.4,440.5v-1.2h-6.8h-30.1v1.2h31.8H914.4L914.4,440.5z M908.4,442.2h-31V469h13.4
		v-22c0-0.5,0.4-0.8,0.8-0.8h8.8c0.5,0,0.8,0.4,0.8,0.8v15.5v6.5h6.3h0.9V442.2L908.4,442.2z M950.2,439.3v1.2h5.1h5.4v-1.2H957
		H950.2L950.2,439.3z M960.8,442.2h-4.5V469h0.9h3.7v-26.8H960.8z M956.2,437.7v-2.6h-0.9h-6.8v2.6h0.9H956.2L956.2,437.7z
		 M957.9,435v2.6h3.7h0.9V435h-0.9H957.9L957.9,435z M906.7,437.7v-2.6h-3.1h-3.2h-8.8h-3.2h-5.6h-6.2h-0.9v2.6h0.9H906.7
		L906.7,437.7z M908.4,435v2.6h6.8h0.9V435h-6.8H908.4L908.4,435z M942.4,463.3h-7.1v5.7h7.1V463.3L942.4,463.3z M935.4,461.6h7.1
		v-13.8h-7.1V461.6L935.4,461.6z M929.3,463.3h-7.1v5.7h7.1V463.3L929.3,463.3z M922.2,461.6h7.1v-13.8h-7.1V461.6L922.2,461.6z
		 M899.6,463.3h-7.1v5.7h7.1V463.3L899.6,463.3z M892.5,461.6h7.1v-13.8h-7.1V461.6L892.5,461.6z M906.7,473.3v-2.6h-6.3h-8.8h-15.1
		h-0.9v2.6h0.9H906.7L906.7,473.3z M908.4,470.7v2.6h47.8v-2.6h-0.9h-12.1h-8.8H930h-8.8h-12.1H908.4L908.4,470.7z M957.9,470.7v2.6
		h3.7h0.9v-2.6h-0.9H957.9L957.9,470.7z M877.4,475v1.2h31.8h46.1h5.4V475H957h-49.5H877.4L877.4,475z M919,484h7.9h10.8h7.9
		c0.5,0,0.8,0.4,0.8,0.8v15.5v7.4c0,0.5-0.4,0.8-0.8,0.8h-7.9h-10.8H919c-0.5,0-0.8-0.4-0.8-0.8v-22.9
		C918.1,484.4,918.5,484,919,484L919,484z M926.1,506.9v-5.7h-6.3v5.7H926.1L926.1,506.9z M926.1,499.5v-13.8h-6.3v13.8H926.1
		L926.1,499.5z M927.7,485.7v13.8h9.1v-13.8H927.7L927.7,485.7z M927.7,501.2v5.7h9.1v-5.7H927.7L927.7,501.2z M938.6,485.7v13.8
		h6.3v-13.8H938.6L938.6,485.7z M938.6,501.2v5.7h6.3v-5.7H938.6L938.6,501.2z M888.9,485.7c0.9-1.2,2-2.1,3.2-2.7
		c1.2-0.7,2.6-1,3.9-1s2.7,0.3,3.9,1c1.2,0.6,2.2,1.5,3.2,2.7c0.1,0.2,0.2,0.4,0.2,0.6v25.4h1.3h3.8V478h-31v33.7h5.4l0,0l0,0h4.6
		h1.3v-25.4C888.7,486,888.8,485.8,888.9,485.7L888.9,485.7z M901.7,486.5c-0.7-0.9-1.6-1.6-2.5-2.1c-1-0.5-2.1-0.8-3.2-0.8
		c-1.1,0-2.2,0.3-3.2,0.8c-0.9,0.5-1.7,1.2-2.5,2.1v25.1h11.3v-25.1H901.7z M960.8,477.9h-4.5v33.7h0.9h3.7v-33.7H960.8z
		 M910.1,477.9v33.7h44.4v-33.7H910.1L910.1,477.9z M936.9,524.6v-4.7h-9.1v4.7H936.9L936.9,524.6z M938.6,519.8v4.7h6.3v-4.7H938.6
		L938.6,519.8z M919,518.2h7.9h10.8h7.9c0.5,0,0.8,0.4,0.8,0.8v6.4c0,0.5-0.4,0.8-0.8,0.8h-7.9h-10.8H919c-0.5,0-0.8-0.4-0.8-0.8
		V519C918.1,518.5,918.5,518.2,919,518.2L919,518.2z M926.1,519.8h-6.3v4.7h6.3V519.8L926.1,519.8z M956.2,514.8v-1.5h-0.9H910v1.5
		h45.3H956.2L956.2,514.8z M957.9,513.3v1.5h3.7h0.9v-1.5h-0.9H957.9L957.9,513.3z M903.8,513.3h-1.3h-14.3v1.5h15.5L903.8,513.3
		L903.8,513.3z M903.8,516.4h-15.5v1.7h15.5V516.4L903.8,516.4z M903.8,519.8h-15.5v1.5h15.5V519.8L903.8,519.8z M903.8,523h-15.5
		v1.6h15.5V523L903.8,523z M903.8,526.3h-15.5v1.6h15.5V526.3L903.8,526.3z M882,513.3h-5.4h-0.9v1.5h0.9h5.4V513.3L882,513.3z"/>
</g>
<g>
	<polygon class="st5" points="272.7,400.4 272.7,395.4 278.8,395.4 278.8,422.2 278.8,427.3 280.3,427.3 280.3,431.5 278.8,431.5 
		278.8,491.8 280.3,491.8 280.3,496.1 278.8,496.1 278.8,531.9 206.9,531.9 206.9,496.1 205.4,496.1 205.4,491.8 206.9,491.8 
		206.9,431.5 205.4,431.5 205.4,427.3 206.9,427.3 206.9,422.2 206.9,395.4 213,395.4 213,400.4 	"/>
	<path class="st3" d="M266.1,427.3c0,0.5-0.4,0.8-0.8,0.8c-0.5,0-0.8-0.4-0.8-0.8v-26.9c0-0.5,0.4-0.8,0.8-0.8
		c0.5,0,0.8,0.4,0.8,0.8V427.3L266.1,427.3z M221.3,427.3c0,0.5-0.4,0.8-0.8,0.8c-0.5,0-0.8-0.4-0.8-0.8v-26.9
		c0-0.5,0.4-0.8,0.8-0.8c0.5,0,0.8,0.4,0.8,0.8V427.3L221.3,427.3z M228.8,421.6c0,0.5-0.4,0.8-0.8,0.8c-0.5,0-0.8-0.4-0.8-0.8
		v-21.2c0-0.5,0.4-0.8,0.8-0.8c0.5,0,0.8,0.4,0.8,0.8V421.6L228.8,421.6z M236.2,418.2c0,0.5-0.4,0.8-0.8,0.8
		c-0.5,0-0.8-0.4-0.8-0.8v-17.8c0-0.5,0.4-0.8,0.8-0.8c0.5,0,0.8,0.4,0.8,0.8V418.2L236.2,418.2z M243.7,414.9
		c0,0.5-0.4,0.8-0.8,0.8c-0.5,0-0.8-0.4-0.8-0.8v-14.4c0-0.5,0.4-0.8,0.8-0.8c0.5,0,0.8,0.4,0.8,0.8V414.9L243.7,414.9z
		 M251.1,418.2c0,0.5-0.4,0.8-0.8,0.8c-0.5,0-0.8-0.4-0.8-0.8v-17.8c0-0.5,0.4-0.8,0.8-0.8c0.5,0,0.8,0.4,0.8,0.8V418.2L251.1,418.2
		z M258.6,421.6c0,0.5-0.4,0.8-0.8,0.8c-0.5,0-0.8-0.4-0.8-0.8v-21.2c0-0.5,0.4-0.8,0.8-0.8c0.5,0,0.8,0.4,0.8,0.8V421.6
		L258.6,421.6z"/>
	<polygon class="st3" points="206.9,434.4 278.8,434.4 278.8,437 206.9,437 	"/>
	<polygon class="st3" points="206.9,496.1 278.8,496.1 278.8,498.7 206.9,498.7 	"/>
	<polygon class="st3" points="240.7,441.6 247.5,441.6 247.5,456.2 240.7,456.2 	"/>
	<polygon class="st3" points="219.7,441.6 226.6,441.6 226.6,456.2 219.7,456.2 	"/>
	<polygon class="st3" points="261.6,473.7 268.4,473.7 268.4,488.3 261.6,488.3 	"/>
	<polygon class="st3" points="240.7,473.7 247.5,473.7 247.5,488.3 240.7,488.3 	"/>
	<polygon class="st3" points="219.7,473.7 226.6,473.7 226.6,488.3 219.7,488.3 	"/>
	<polygon class="st3" points="261.6,505.8 268.4,505.8 268.4,528.8 261.6,528.8 	"/>
	<polygon class="st3" points="219.7,505.8 247.5,505.8 247.5,528.8 219.7,528.8 	"/>
	<polygon class="st3" points="261.6,441.6 268.4,441.6 268.4,456.2 261.6,456.2 	"/>
	<path class="st5" d="M221.1,507.4c0,1-0.9,1.9-1.9,1.9s-1.9-0.8-1.9-1.9v-4.9h3.8L221.1,507.4L221.1,507.4z"/>
	<path class="st3" d="M224.8,507.4c0,1-0.9,1.9-1.9,1.9s-1.9-0.8-1.9-1.9v-4.9h3.8L224.8,507.4L224.8,507.4z"/>
	<path class="st5" d="M228.6,507.4c0,1-0.9,1.9-1.9,1.9s-1.9-0.8-1.9-1.9v-4.9h3.8L228.6,507.4L228.6,507.4z"/>
	<path class="st3" d="M232.4,507.4c0,1-0.9,1.9-1.9,1.9s-1.9-0.8-1.9-1.9v-4.9h3.8L232.4,507.4L232.4,507.4z"/>
	<path class="st5" d="M236.2,507.4c0,1-0.9,1.9-1.9,1.9s-1.9-0.8-1.9-1.9v-4.9h3.8L236.2,507.4L236.2,507.4z"/>
	<path class="st3" d="M239.9,507.4c0,1-0.9,1.9-1.9,1.9s-1.9-0.8-1.9-1.9v-4.9h3.8L239.9,507.4L239.9,507.4z"/>
	<path class="st5" d="M243.7,507.4c0,1-0.9,1.9-1.9,1.9s-1.9-0.8-1.9-1.9v-4.9h3.8L243.7,507.4L243.7,507.4z"/>
	<path class="st3" d="M247.5,507.4c0,1-0.9,1.9-1.9,1.9s-1.9-0.8-1.9-1.9v-4.9h3.8L247.5,507.4L247.5,507.4z"/>
	<path class="st2" d="M224,502.5c0-0.5,0.4-0.8,0.8-0.8c0.5,0,0.8,0.4,0.8,0.8v4.9l0,0l0,0l0,0l0,0c0,0.3,0.1,0.5,0.3,0.7
		s0.5,0.3,0.7,0.3l0,0l0,0l0,0c0.3,0,0.5-0.1,0.7-0.3c0.2-0.2,0.3-0.4,0.3-0.7l0,0l0,0v-4.9c0-0.5,0.4-0.8,0.8-0.8
		c0.5,0,0.8,0.4,0.8,0.8v4.9l0,0c0,0.3,0.1,0.6,0.3,0.7c0.2,0.2,0.5,0.3,0.7,0.3l0,0l0,0l0,0c0.3,0,0.5-0.1,0.7-0.3
		c0.2-0.2,0.3-0.4,0.3-0.7l0,0l0,0l0,0v-4.9c0-0.5,0.4-0.8,0.8-0.8c0.5,0,0.8,0.4,0.8,0.8v4.9l0,0c0,0.3,0.1,0.6,0.3,0.7l0,0l0,0
		c0.2,0.2,0.5,0.3,0.7,0.3l0,0l0,0l0,0c0.3,0,0.5-0.1,0.7-0.3c0.2-0.2,0.3-0.4,0.3-0.7l0,0l0,0l0,0v-4.9c0-0.5,0.4-0.8,0.8-0.8
		c0.5,0,0.8,0.4,0.8,0.8v4.9l0,0c0,0.3,0.1,0.5,0.3,0.7l0,0c0.2,0.2,0.5,0.3,0.7,0.3l0,0l0,0l0,0c0.3,0,0.5-0.1,0.7-0.3
		c0.2-0.2,0.3-0.4,0.3-0.7l0,0l0,0l0,0v-4.9c0-0.5,0.4-0.8,0.8-0.8c0.5,0,0.8,0.4,0.8,0.8v4.9l0,0c0,0.3,0.1,0.5,0.3,0.7l0,0
		c0.2,0.2,0.5,0.3,0.7,0.3l0,0l0,0l0,0c0.3,0,0.5-0.1,0.7-0.3c0.2-0.2,0.3-0.4,0.3-0.7l0,0l0,0l0,0v-4.9c0-0.5,0.4-0.8,0.8-0.8
		c0.5,0,0.8,0.4,0.8,0.8v4.9l0,0c0,0.3,0.1,0.5,0.3,0.7l0,0c0.2,0.2,0.5,0.3,0.7,0.3l0,0l0,0l0,0c0.3,0,0.5-0.1,0.7-0.3
		c0.2-0.2,0.3-0.4,0.3-0.7l0,0l0,0c0-0.5,0.4-0.8,0.8-0.8c0.5,0,0.8,0.4,0.8,0.8l0,0l0,0l0,0c0,0.7-0.3,1.4-0.8,1.9
		c-0.5,0.5-1.2,0.8-1.9,0.8l0,0l0,0l0,0l0,0c-0.7,0-1.4-0.3-1.9-0.8c-0.5,0.5-1.1,0.8-1.9,0.8l0,0l0,0l0,0l0,0
		c-0.7,0-1.4-0.3-1.9-0.8c-0.5,0.5-1.1,0.8-1.9,0.8l0,0l0,0l0,0l0,0c-0.7,0-1.4-0.3-1.9-0.8c-0.5,0.5-1.1,0.8-1.9,0.8l0,0l0,0l0,0
		l0,0c-0.7,0-1.4-0.3-1.9-0.8c-0.5,0.5-1.1,0.8-1.9,0.8l0,0l0,0l0,0l0,0c-0.7,0-1.4-0.3-1.9-0.8c-0.5,0.5-1.1,0.8-1.9,0.8l0,0l0,0
		l0,0l0,0c-0.7,0-1.4-0.3-1.9-0.8c-0.5,0.5-1.1,0.8-1.9,0.8l0,0l0,0l0,0l0,0c-0.7,0-1.4-0.3-1.9-0.8c-0.5,0.5-1.1,0.8-1.9,0.8l0,0
		l0,0l0,0l0,0c-0.7,0-1.4-0.3-1.9-0.8l0,0c-0.5-0.5-0.8-1.2-0.8-1.9c0-0.5,0.4-0.8,0.8-0.8c0.5,0,0.8,0.4,0.8,0.8
		c0,0.3,0.1,0.6,0.3,0.7l0,0l0,0c0.2,0.2,0.5,0.3,0.7,0.3l0,0l0,0l0,0c0.3,0,0.5-0.1,0.7-0.3c0.2-0.2,0.3-0.4,0.3-0.7l0,0l0,0l0,0
		v-4.9c0-0.5,0.4-0.8,0.8-0.8c0.5,0,0.8,0.4,0.8,0.8v4.9l0,0c0,0.3,0.1,0.5,0.3,0.7l0,0c0.2,0.2,0.5,0.3,0.7,0.3l0,0l0,0l0,0
		c0.3,0,0.5-0.1,0.7-0.3c0.2-0.2,0.3-0.4,0.3-0.7l0,0l0,0l0,0v-4.9H224z"/>
	<path class="st2" d="M248.3,531.9c0,0.5-0.4,0.8-0.8,0.8c-0.5,0-0.8-0.4-0.8-0.8v-2.3H241l0,0l0,0h-17.1l0,0l0,0h-5.7v2.2
		c0,0.5-0.4,0.8-0.8,0.8c-0.5,0-0.8-0.4-0.8-0.8v-3l0,0l0,0V522l0,0l0,0v-19.5c0-0.5,0.4-0.8,0.8-0.8h30.2c0.5,0,0.8,0.4,0.8,0.8
		v26.3L248.3,531.9L248.3,531.9z M260,521.2h7.6v-17.8H260V521.2L260,521.2z M267.6,522.8H260v5.1h7.6V522.8L267.6,522.8z
		 M267.6,529.6H260v2.2c0,0.5-0.4,0.8-0.8,0.8c-0.5,0-0.8-0.4-0.8-0.8v-3.1v-6.8v-19.5c0-0.5,0.4-0.8,0.8-0.8h9.3
		c0.5,0,0.8,0.4,0.8,0.8v19.5v6.8v3.1c0,0.5-0.4,0.8-0.8,0.8s-0.8-0.4-0.8-0.8v-2.2H267.6z M212.2,423.1h-4.5v3.4h4.5V423.1
		L212.2,423.1z M207.7,421.4h4.5v-21v-4.2h-4.5V421.4L207.7,421.4z M206,426.5v-4.2v-26.9c0-0.5,0.4-0.8,0.8-0.8h6.2
		c0.5,0,0.8,0.4,0.8,0.8v4.2h58v-4.2c0-0.5,0.4-0.8,0.8-0.8h6.2c0.5,0,0.8,0.4,0.8,0.8v26.9v4.2h0.6c0.5,0,0.8,0.4,0.8,0.8v4.2
		c0,0.5-0.4,0.8-0.8,0.8h-0.6v2l0,0l0,0v56.6h0.6c0.5,0,0.8,0.4,0.8,0.8v4.2c0,0.5-0.4,0.8-0.8,0.8h-0.6v35c0,0.5-0.4,0.8-0.8,0.8
		c-0.5,0-0.8-0.4-0.8-0.8v-35h-70.3v35c0,0.5-0.4,0.8-0.8,0.8c-0.5,0-0.8-0.4-0.8-0.8v-35h-0.6c-0.5,0-0.8-0.4-0.8-0.8v-4.2
		c0-0.5,0.4-0.8,0.8-0.8h0.6v-56.6v-2h-0.6c-0.5,0-0.8-0.4-0.8-0.8v-4.2c0-0.5,0.4-0.8,0.8-0.8H206L206,426.5z M213.8,401.3v21v4.2
		h11.9v-4.2c0-0.4,0.2-0.7,0.5-0.8l16.3-7.3c0.2-0.1,0.5-0.1,0.7,0l0,0l0,0l16.3,7.4c0.3,0.1,0.5,0.4,0.5,0.8l0,0v4.2h11.9v-4.2v-21
		h-58.1V401.3z M273.5,421.4h4.5v-25.2h-4.5v4.2V421.4L273.5,421.4z M278,423.1h-4.5v3.4h4.5V423.1L278,423.1z M258.3,426.5v-3.7
		l-15.5-7l-15.5,7v3.7H258.3L258.3,426.5z M260,448.8h7.6v-9.6H260V448.8L260,448.8z M267.6,450.4H260v5h7.6V450.4L267.6,450.4z
		 M268.4,457.1h-9.3c-0.5,0-0.8-0.4-0.8-0.8v-6.7v-11.3c0-0.5,0.4-0.8,0.8-0.8h9.3c0.5,0,0.8,0.4,0.8,0.8v11.3v6.6
		C269.2,456.7,268.9,457.1,268.4,457.1L268.4,457.1z M239,448.8h7.6v-9.6H239V448.8L239,448.8z M246.7,450.4H239v5h7.6L246.7,450.4
		L246.7,450.4z M247.5,457.1h-9.3c-0.5,0-0.8-0.4-0.8-0.8v-6.7v-11.3c0-0.5,0.4-0.8,0.8-0.8h9.3c0.5,0,0.8,0.4,0.8,0.8v11.3v6.6
		C248.3,456.7,247.9,457.1,247.5,457.1L247.5,457.1z M218.1,448.8h7.6v-9.6h-7.6V448.8L218.1,448.8z M225.7,450.4h-7.6v5h7.6V450.4
		L225.7,450.4z M226.6,457.1h-9.3c-0.5,0-0.8-0.4-0.8-0.8v-6.7v-11.3c0-0.5,0.4-0.8,0.8-0.8h9.3c0.5,0,0.8,0.4,0.8,0.8v11.3v6.6
		C227.4,456.7,227,457.1,226.6,457.1L226.6,457.1z M262.1,467.4h-3.6l0.3,2.2h0.4h9.3h0.4l0.3-2.2h-3.6c-0.5,0-0.8-0.4-0.8-0.8v-0.5
		h-1.7v0.5C262.9,467,262.5,467.4,262.1,467.4L262.1,467.4z M258.3,471.3h-0.2l0,0c-0.4,0-0.8-0.3-0.8-0.7l-0.6-3.9
		c0-0.1,0-0.1,0-0.2c0-0.5,0.4-0.8,0.8-0.8h3.8v-0.5c0-0.5,0.4-0.8,0.8-0.8h3.4c0.5,0,0.8,0.4,0.8,0.8v0.5h3.8
		c0.5,0,0.8,0.4,0.8,0.8c0,0.1,0,0.1,0,0.2l-0.6,3.9c-0.1,0.4-0.4,0.7-0.8,0.7l0,0h-0.2v10.4v6.6c0,0.5-0.4,0.8-0.8,0.8h-9.3
		c-0.5,0-0.8-0.4-0.8-0.8v-6.6L258.3,471.3L258.3,471.3z M260,480.9h7.6v-9.6H260V480.9L260,480.9z M267.6,482.5H260v5h7.6V482.5
		L267.6,482.5z M239,480.9h7.6v-9.6H239V480.9L239,480.9z M246.7,482.5H239v5h7.6L246.7,482.5L246.7,482.5z M247.5,489.2h-9.3
		c-0.5,0-0.8-0.4-0.8-0.8v-6.6v-10.4h-0.2l0,0c-0.4,0-0.8-0.3-0.8-0.7l-0.6-3.9c0-0.1,0-0.1,0-0.2c0-0.5,0.4-0.8,0.8-0.8h3.8v-0.5
		c0-0.5,0.4-0.8,0.8-0.8h3.6c0.5,0,0.8,0.4,0.8,0.8v0.5h3.5c0.5,0,0.8,0.4,0.8,0.8c0,0.1,0,0.1,0,0.2l-0.6,3.9
		c-0.1,0.4-0.4,0.7-0.8,0.7l0,0h-0.2v10.4v6.6C248.3,488.8,247.9,489.2,247.5,489.2L247.5,489.2z M238.2,469.6h9.3h0.4l0.3-2.2h-3.4
		c-0.5,0-0.8-0.4-0.8-0.8v-0.5h-2v0.5c0,0.5-0.4,0.8-0.8,0.8h-3.6l0.3,2.2H238.2L238.2,469.6z M218.1,487.5h7.6v-5h-7.6V487.5
		L218.1,487.5z M225.7,480.9v-9.6h-7.6v9.6H225.7L225.7,480.9z M221.1,466.5c0,0.5-0.4,0.8-0.8,0.8h-3.6l0.3,2.2h0.4h9.3h0.4
		l0.3-2.2h-3.6c-0.5,0-0.8-0.4-0.8-0.8V466h-1.7v0.5H221.1z M216.4,471.3h-0.2l0,0c-0.4,0-0.8-0.3-0.8-0.7l-0.6-3.9
		c0-0.1,0-0.1,0-0.2c0-0.5,0.4-0.8,0.8-0.8h3.8v-0.5c0-0.5,0.4-0.8,0.8-0.8h3.4c0.5,0,0.8,0.4,0.8,0.8v0.5h3.8
		c0.5,0,0.8,0.4,0.8,0.8c0,0.1,0,0.1,0,0.2l-0.6,3.9c-0.1,0.4-0.4,0.7-0.8,0.7l0,0h-0.2v10.4v6.6c0,0.5-0.4,0.8-0.8,0.8h-9.3
		c-0.5,0-0.8-0.4-0.8-0.8v-6.6L216.4,471.3L216.4,471.3z M278,435.2h-70.3V491H278V435.2L278,435.2z M207.7,433.5H278v-1.2h-70.3
		V433.5L207.7,433.5z M206.2,430.7h0.6h72h0.6v-2.6h-0.6h-6.2h-13.5h-32.6H213h-6.2h-0.6V430.7L206.2,430.7z M206.2,495.2h0.6h72
		h0.6v-2.6h-0.6h-72h-0.6L206.2,495.2L206.2,495.2z M240.1,528v-5.1h-15.5v5.1H240.1L240.1,528z M240.1,521.2v-12.1
		c0-0.5,0.4-0.8,0.8-0.8c0.5,0,0.8,0.4,0.8,0.8v12.1h4.9v-17.8h-28.5v17.8h4.9v-12.1c0-0.5,0.4-0.8,0.8-0.8c0.5,0,0.8,0.4,0.8,0.8
		v12.1H240.1L240.1,521.2z M241.8,522.8v5.1h4.9v-5.1H241.8L241.8,522.8z M223,528v-5.1h-4.9v5.1H223L223,528z"/>
</g>
</svg>
