<?xml version="1.0" encoding="utf-8"?>
<!-- Generator: Adobe Illustrator 21.0.0, SVG Export Plug-In . SVG Version: 6.00 Build 0)  -->
<svg version="1.1" id="Capa_1" xmlns="http://www.w3.org/2000/svg" xmlns:xlink="http://www.w3.org/1999/xlink" x="0px" y="0px"
	 viewBox="0 0 428.4 428.4" style="enable-background:new 0 0 428.4 428.4;" xml:space="preserve">
<style type="text/css">
	.st0{fill:#424242;}
</style>
<g>
	<g>
		<g>
			<circle class="st0" cx="94" cy="214.2" r="57.5"/>
			<path class="st0" d="M381.4,172.4H177.6c-5.8,0-10.4,4.7-10.4,10.4s4.7,10.4,10.4,10.4h203.8c5.8,0,10.4-4.7,10.4-10.4
				S387.2,172.4,381.4,172.4z"/>
			<path class="st0" d="M177.6,256h109.7c5.8,0,10.4-4.7,10.4-10.4s-4.7-10.4-10.4-10.4H177.6c-5.8,0-10.4,4.7-10.4,10.4
				S171.9,256,177.6,256z"/>
			<circle class="st0" cx="94" cy="57.5" r="57.5"/>
			<path class="st0" d="M177.6,36.6h203.8c5.8,0,10.4-4.7,10.4-10.4s-4.7-10.4-10.4-10.4H177.6c-5.8,0-10.4,4.7-10.4,10.4
				C167.2,31.9,171.9,36.6,177.6,36.6z"/>
			<path class="st0" d="M177.6,99.3h109.7c5.8,0,10.4-4.7,10.4-10.4s-4.7-10.4-10.4-10.4H177.6c-5.8,0-10.4,4.7-10.4,10.4
				S171.9,99.3,177.6,99.3z"/>
			<circle class="st0" cx="94" cy="370.9" r="57.5"/>
			<path class="st0" d="M381.4,329.1H177.6c-5.8,0-10.4,4.7-10.4,10.4s4.7,10.4,10.4,10.4h203.8c5.8,0,10.4-4.7,10.4-10.4
				S387.2,329.1,381.4,329.1z"/>
			<path class="st0" d="M287.3,391.8H177.6c-5.8,0-10.4,4.7-10.4,10.4s4.7,10.4,10.4,10.4h109.7c5.8,0,10.4-4.7,10.4-10.4
				S293.1,391.8,287.3,391.8z"/>
		</g>
	</g>
</g>
</svg>
