<?xml version="1.0" encoding="utf-8"?>
<!-- Generator: Adobe Illustrator 21.0.0, SVG Export Plug-In . SVG Version: 6.00 Build 0)  -->
<svg version="1.1" id="_x2014_ÎÓÈ_x5F_1" xmlns="http://www.w3.org/2000/svg" xmlns:xlink="http://www.w3.org/1999/xlink"
	 x="0px" y="0px" viewBox="0 0 103.6 136" style="enable-background:new 0 0 103.6 136;" xml:space="preserve">
<style type="text/css">
	.st0{fill:none;stroke:#EF5350;stroke-width:3;stroke-linecap:round;stroke-linejoin:round;stroke-miterlimit:10;}
</style>
<g id="XMLID_51_">
	<line id="XMLID_1969_" class="st0" x1="25.2" y1="73.6" x2="47.5" y2="73.6"/>
	<line id="XMLID_1968_" class="st0" x1="25.2" y1="90.7" x2="47.5" y2="90.7"/>
	<line id="XMLID_1967_" class="st0" x1="47.5" y1="107.8" x2="25.2" y2="107.8"/>
	<polyline id="XMLID_1966_" class="st0" points="70.3,8.1 70.3,1.5 33.9,1.5 33.9,8.1 	"/>
	<path id="XMLID_1965_" class="st0" d="M33.9,8.1c0,6.9,5.6,12.4,12.4,12.4h11.5c6.9,0,12.4-5.6,12.4-12.4"/>
	<polyline id="XMLID_1964_" class="st0" points="70.3,9.6 92.9,9.6 92.9,124.6 12.1,124.6 12.1,9.4 33.9,9.4 	"/>
	<line id="XMLID_1963_" class="st0" x1="41.4" y1="8.1" x2="63.2" y2="8.1"/>
	<polyline id="XMLID_1962_" class="st0" points="33.9,1.5 1.5,1.5 1.5,134.5 102.1,134.5 102.1,1.5 70.3,1.5 	"/>
	<rect id="XMLID_1955_" x="25.2" y="31.8" class="st0" width="54.2" height="23"/>
</g>
</svg>
