<?xml version="1.0" encoding="utf-8"?>
<!-- Generator: Adobe Illustrator 22.0.0, SVG Export Plug-In . SVG Version: 6.00 Build 0)  -->
<svg version="1.1" id="Layer_1" xmlns="http://www.w3.org/2000/svg" xmlns:xlink="http://www.w3.org/1999/xlink" x="0px" y="0px"
	 viewBox="0 0 785.7 222.1" style="enable-background:new 0 0 785.7 222.1;" xml:space="preserve">
<style type="text/css">
	.st0{fill:#EF5350;}
	.st1{fill:#AAAAAA;}
</style>
<g>
	<g>
		<g>
			<g>
				<g>
					<path class="st0" d="M199.4,49.6C175.9,22.8,143.1,0,96.7,0S25,20,25,20C-0.2,50,0,98.2,0,98.2c0,66.4,52.3,123.2,104.1,123.2
						s70.4-42,70.4-42c28.7-13.5,39.9-37.2,44.4-54.8C223.3,107.1,222.9,76.5,199.4,49.6z M151.1,171.5c-5.2,0-20.2-1.1-34-16.8
						c-13.8-15.7-14.4-39.2-13.4-47.1c0,0,23.8,5.8,38.5,22.3c14.7,16.4,18.5,33.2,19.8,39.4C162.1,169.2,156.4,171.5,151.1,171.5z
						 M173.9,159.2c0,0-15.5-59.3-79.1-64.7c0,0-3.4,11.8-3.4,24.9c0,18.3,10.4,57.3,54.1,66.1c0,0-15.1,16-42.2,16
						s-50.2-19.5-56.1-32.2c-6-12.7-10.1-47,0-72.4c10.1-25.4,11.9-29.2,11.2-48.3c0,0,7.5-6.7,21.1-6.7s23.5,7.8,26.9,16.4
						c3,7.7,3.9,12.9,12.7,18.1c0,0-1.5,4.1-11,5.4c0,0,13.6,3.5,24.6-4.1c0,0-12.7-8.5-17-19.4c-4-10.2-10.1-18.7-18.6-22.8
						c-8.6-4.2-26.8-11.2-52.5,5.3c0,0,2.2,6.5,2.2,11.4s-3.4,20.9-6.7,28.5c-3.4,7.6-11.7,17.6-14.2,54.8c0,0-6.2-15.8-6.2-38.4
						S31.9,44,39,35.3c0,0,23.2-16.4,57.7-16.4s75.2,20.5,94.4,53.5C210.3,105.4,197.4,142.9,173.9,159.2z"/>
				</g>
			</g>
			<g>
				<circle class="st0" cx="95.8" cy="56.8" r="5.3"/>
			</g>
		</g>
	</g>
	<g>
		<path class="st0" d="M360.1,45.3l-16.2,16C333.7,50.4,321.7,45,308,45c-11.9,0-21.9,3.9-29.9,11.8c-8,7.9-12.1,17.5-12.1,28.8
			c0,11.7,4.2,21.6,12.5,29.7c8.3,8.1,18.6,12.2,30.9,12.2c8,0,14.7-1.7,20.1-5c5.5-3.3,9.9-8.6,13.2-15.7h-35V85.1h60.8l0.2,5.1
			c0,10.6-2.7,20.6-8.2,30.1c-5.5,9.5-12.6,16.7-21.3,21.7c-8.7,5-18.9,7.5-30.7,7.5c-12.6,0-23.7-2.7-33.6-8.2
			c-9.8-5.5-17.6-13.2-23.3-23.3c-5.7-10.1-8.6-21-8.6-32.6c0-16,5.3-29.9,15.9-41.8c12.5-14.1,28.9-21.1,49-21.1
			c10.5,0,20.4,1.9,29.5,5.8C345.2,31.6,352.7,37.3,360.1,45.3z"/>
		<path class="st0" d="M372.3,57h19.2v11.3c2.1-4.4,4.8-7.8,8.3-10.1s7.2-3.5,11.3-3.5c2.9,0,5.9,0.8,9.1,2.3l-7,19.3
			c-2.6-1.3-4.8-2-6.5-2c-3.5,0-6.4,2.1-8.8,6.4c-2.4,4.3-3.6,12.7-3.6,25.2l0.1,4.4v36.2h-22.3V57z"/>
		<path class="st0" d="M481,57h22.4v89.4H481V137c-4.4,4.2-8.8,7.2-13.2,9c-4.4,1.8-9.2,2.8-14.3,2.8c-11.5,0-21.5-4.5-30-13.4
			c-8.4-9-12.6-20.1-12.6-33.4c0-13.8,4.1-25.1,12.2-33.9c8.2-8.8,18.1-13.2,29.7-13.2c5.4,0,10.4,1,15.1,3c4.7,2,9.1,5.1,13.1,9.1
			V57z M457.4,75.4c-6.9,0-12.7,2.5-17.3,7.4c-4.6,4.9-6.9,11.2-6.9,18.9c0,7.7,2.3,14.1,7,19.1c4.7,5,10.4,7.5,17.2,7.5
			c7,0,12.9-2.5,17.5-7.4c4.6-4.9,7-11.3,7-19.3c0-7.8-2.3-14.1-7-18.9C470.4,77.8,464.5,75.4,457.4,75.4z"/>
		<path class="st0" d="M577,57h22.4v89.4H577V137c-4.4,4.2-8.8,7.2-13.2,9c-4.4,1.8-9.2,2.8-14.3,2.8c-11.5,0-21.5-4.5-30-13.4
			c-8.4-9-12.6-20.1-12.6-33.4c0-13.8,4.1-25.1,12.2-33.9c8.2-8.8,18.1-13.2,29.7-13.2c5.4,0,10.4,1,15.1,3c4.7,2,9.1,5.1,13.1,9.1
			V57z M553.4,75.4c-6.9,0-12.7,2.5-17.3,7.4c-4.6,4.9-6.9,11.2-6.9,18.9c0,7.7,2.3,14.1,7,19.1c4.7,5,10.4,7.5,17.2,7.5
			c7,0,12.9-2.5,17.5-7.4c4.6-4.9,7-11.3,7-19.3c0-7.8-2.3-14.1-7-18.9C566.4,77.8,560.5,75.4,553.4,75.4z"/>
		<path class="st0" d="M608.7,57h22.4v9.2c5.1-4.3,9.7-7.3,13.8-9c4.1-1.7,8.4-2.5,12.7-2.5c8.9,0,16.4,3.1,22.6,9.3
			c5.2,5.3,7.8,13,7.8,23.3v59.1h-22.2v-39.2c0-10.7-0.5-17.8-1.4-21.3c-1-3.5-2.6-6.2-5-8c-2.4-1.8-5.3-2.8-8.8-2.8
			c-4.5,0-8.4,1.5-11.7,4.6c-3.3,3-5.5,7.2-6.8,12.6c-0.7,2.8-1,8.8-1,18.1v35.9h-22.4V57z"/>
		<path class="st0" d="M762.2,57h22.4v89.4h-22.4V137c-4.4,4.2-8.8,7.2-13.2,9c-4.4,1.8-9.2,2.8-14.3,2.8c-11.5,0-21.5-4.5-30-13.4
			c-8.4-9-12.6-20.1-12.6-33.4c0-13.8,4.1-25.1,12.2-33.9c8.2-8.8,18.1-13.2,29.7-13.2c5.4,0,10.4,1,15.1,3c4.7,2,9.1,5.1,13.1,9.1
			V57z M738.6,75.4c-6.9,0-12.7,2.5-17.3,7.4c-4.6,4.9-6.9,11.2-6.9,18.9c0,7.7,2.3,14.1,7,19.1c4.7,5,10.4,7.5,17.2,7.5
			c7,0,12.9-2.5,17.5-7.4c4.6-4.9,7-11.3,7-19.3c0-7.8-2.3-14.1-7-18.9C751.6,77.8,745.7,75.4,738.6,75.4z"/>
	</g>
</g>
<g>
	<g>
		<path class="st1" d="M654.6,154.3V187c3.6-3.7,7.6-5.5,12.1-5.5c5.2,0,9.5,1.9,13,5.8c3.4,3.8,5.2,8.6,5.2,14.4
			c0,5.9-1.7,10.8-5.2,14.7c-3.4,3.8-7.8,5.8-13.1,5.8c-4.4,0-8.4-1.7-11.9-5.1v4h-8.9v-66.7H654.6z M675.7,202c0-3.7-1-6.7-3-9
			c-2-2.4-4.6-3.6-7.6-3.6c-3.3,0-5.9,1.1-8,3.4c-2,2.3-3,5.2-3,8.8c0,3.7,1,6.7,3,9c2,2.3,4.6,3.4,7.9,3.4c3.1,0,5.6-1.1,7.7-3.4
			C674.7,208.4,675.7,205.5,675.7,202z"/>
		<path class="st1" d="M724.8,203.9h-27.6c0.2,3.2,1.3,5.7,3.1,7.5c1.8,1.8,4.1,2.8,7,2.8c2.2,0,4-0.5,5.5-1.6c1.4-1.1,3-3,4.9-5.8
			l7.5,4.2c-1.2,2-2.4,3.7-3.7,5.1c-1.3,1.4-2.7,2.6-4.1,3.5c-1.5,0.9-3.1,1.6-4.8,2c-1.7,0.4-3.6,0.6-5.6,0.6
			c-5.7,0-10.3-1.8-13.8-5.5c-3.5-3.7-5.2-8.6-5.2-14.8c0-6.1,1.7-11,5.1-14.8c3.4-3.7,7.9-5.6,13.5-5.6c5.7,0,10.1,1.8,13.4,5.4
			c3.3,3.6,4.9,8.5,4.9,14.9L724.8,203.9z M715.7,196.6c-1.2-4.7-4.2-7.1-9-7.1c-1.1,0-2.1,0.2-3,0.5c-0.9,0.3-1.8,0.8-2.6,1.4
			c-0.8,0.6-1.4,1.4-2,2.2c-0.6,0.9-1,1.9-1.3,3H715.7z"/>
		<path class="st1" d="M739.1,190.8V221h-8.9v-30.2h-3.8v-8.3h3.8v-14.1h8.9v14.1h6.9v8.3H739.1z"/>
		<path class="st1" d="M776.7,182.5h8.9V221h-8.9v-4c-3.7,3.4-7.6,5.1-11.8,5.1c-5.3,0-9.7-1.9-13.2-5.8c-3.4-3.9-5.2-8.8-5.2-14.7
			c0-5.8,1.7-10.6,5.2-14.4c3.4-3.8,7.8-5.8,13-5.8c4.5,0,8.5,1.8,12,5.5V182.5z M755.7,201.6c0,3.7,1,6.7,3,9
			c2,2.3,4.6,3.5,7.7,3.5c3.3,0,5.9-1.1,8-3.4c2-2.3,3-5.3,3-8.9c0-3.6-1-6.6-3-8.9c-2-2.3-4.7-3.4-7.9-3.4c-3.1,0-5.6,1.2-7.7,3.5
			C756.7,195.3,755.7,198.2,755.7,201.6z"/>
	</g>
</g>
</svg>
