<?xml version="1.0" encoding="utf-8"?>
<!-- Generator: Adobe Illustrator 22.0.0, SVG Export Plug-In . SVG Version: 6.00 Build 0)  -->
<svg version="1.1" id="Layer_1" xmlns="http://www.w3.org/2000/svg" xmlns:xlink="http://www.w3.org/1999/xlink" x="0px" y="0px"
	 viewBox="0 0 512 512" style="enable-background:new 0 0 512 512;" xml:space="preserve">
<style type="text/css">
	.st0{fill:#FFFFFF;}
</style>
<path class="st0" d="M286,241h30v60h-30V241z"/>
<path class="st0" d="M211,187.2V301h45v-75c0-8.3,6.7-15,15-15h60c8.3,0,15,6.7,15,15v75h45V187.2l-90-90L211,187.2z"/>
<path class="st0" d="M497,0H15C6.7,0,0,6.7,0,15v482c0,8.3,6.7,15,15,15h482c8.3,0,15-6.7,15-15V15C512,6.7,505.3,0,497,0z M136,331
	H76c-8.3,0-15-6.7-15-15s6.7-15,15-15h15V91H76c-8.3,0-15-6.7-15-15s6.7-15,15-15h60c8.3,0,15,6.7,15,15s-6.7,15-15,15h-15v210h15
	c8.3,0,15,6.7,15,15S144.3,331,136,331z M421,436c0,8.3-6.7,15-15,15s-15-6.7-15-15v-15H211v15c0,8.3-6.7,15-15,15s-15-6.7-15-15
	v-60c0-8.3,6.7-15,15-15s15,6.7,15,15v15h180v-15c0-8.3,6.7-15,15-15s15,6.7,15,15V436z M446.6,221.6c-5.9,5.9-15.4,5.9-21.2,0
	l-4.4-4.4V316c0,8.3-6.7,15-15,15H196c-8.3,0-15-6.7-15-15v-98.8l-4.4,4.4c-5.9,5.9-15.4,5.9-21.2,0s-5.9-15.4,0-21.2
	c4.6-4.6,142-142,135-135c5.9-5.9,15.4-5.9,21.2,0c6,6,138.5,138.5,135,135C452.5,206.3,452.5,215.7,446.6,221.6z"/>
</svg>
