<svg xmlns="http://www.w3.org/2000/svg" xmlns:xlink="http://www.w3.org/1999/xlink">
	<style type="text/css">
		<![CDATA[
		.svg-icon-sprite  { display: none; fill: #010101; }
		.svg-icon-sprite:target { display: block; }
		]]>	
	</style>
	<svg version="1.1" id="svg-map-view" xmlns="http://www.w3.org/2000/svg" xmlns:xlink="http://www.w3.org/1999/xlink" x="0px" y="0px" viewBox="0 0 32 32" style="enable-background:new 0 0 32 32;" xml:space="preserve" class="svg-icon-sprite">
		<path id="np_location_1049907_28B16D" fill="#28B16D" d="M16,0C10.6-0.1,6.2,4.1,6,9.5c0,0.3,0,0.6,0,0.9c0,2,0.5,3.9,1.5,5.6L16,32
			l8.5-16c1-1.7,1.5-3.6,1.5-5.6C26.3,5,22.2,0.4,16.9,0C16.6,0,16.3,0,16,0z M16,5.6c2.4,0,4.3,1.9,4.3,4.3s-1.9,4.3-4.3,4.3
			c-2.4,0-4.3-1.9-4.3-4.3l0,0C11.7,7.6,13.6,5.6,16,5.6z"/>
	</svg>
	<svg version="1.1" id="svg-map-view-blue" xmlns="http://www.w3.org/2000/svg" xmlns:xlink="http://www.w3.org/1999/xlink" x="0px" y="0px" viewBox="0 0 32 32" enable-background="new 0 0 32 32" xml:space="preserve" class="svg-icon-sprite">
		<g id="XMLID_27_">
			<path id="np_map-marker_888711_000000_1_" fill="#50A7DD" d="M16,0C9.9,0,5,4.9,5,10.9c0,0,0,0,0,0.1c0,6.1,11,21,11,21
				s11-14.9,11-21C27,4.9,22.1,0,16,0C16,0,16,0,16,0z M16,16c-2.8,0-5-2.2-5-5c0-2.8,2.2-5,5-5c2.8,0,5,2.2,5,5l0,0
				C21,13.7,18.8,16,16,16C16.1,16,16,16,16,16z"/>
		</g>
	</svg>
<svg version="1.1" id="svg-cross-white" xmlns="http://www.w3.org/2000/svg" xmlns:xlink="http://www.w3.org/1999/xlink" x="0px" y="0px"
		 viewBox="0 0 32 32" style="enable-background:new 0 0 32 32;" xml:space="preserve" class="svg-icon-sprite">
	<path id="np_close_1042914_000000" fill="#ffffff" d="M19.4,16L31.2,4.7c0.9-0.9,0.9-2.3,0.1-3.2c0,0,0,0-0.1-0.1c-1-0.9-2.5-0.9-3.5,0
		L16,12.7L4.2,1.4c-1-0.9-2.5-0.9-3.5,0c-0.9,0.9-0.9,2.3-0.1,3.2c0,0,0,0,0.1,0.1L12.5,16L0.7,27.3c-0.9,0.9-0.9,2.3-0.1,3.2
		c0,0,0,0,0.1,0.1c0.5,0.4,1.1,0.7,1.7,0.7c0.6,0,1.3-0.2,1.7-0.7L16,19.3l11.8,11.3c0.5,0.4,1.1,0.7,1.7,0.7c0.6,0,1.3-0.2,1.7-0.7
		c0.9-0.9,0.9-2.3,0.1-3.2c0,0,0,0-0.1-0.1L19.4,16z"/>
	</svg>
	<svg version="1.1" id="svg-print-view" xmlns="http://www.w3.org/2000/svg" xmlns:xlink="http://www.w3.org/1999/xlink" x="0px" y="0px"
	 viewBox="0 0 32 32" style="enable-background:new 0 0 32 32;" xml:space="preserve" class="svg-icon-sprite">
	<path id="np_print_1020832_000000" fill="#515151" d="M11.3,20H21c0.5,0,0.8-0.4,0.8-0.8c0-0.5-0.4-0.8-0.8-0.8h-9.7
		c-0.5,0-0.8,0.4-0.8,0.8C10.4,19.6,10.8,20,11.3,20z M11.3,23.8H21c0.5,0,0.8-0.4,0.8-0.8c0-0.5-0.4-0.8-0.8-0.8h-9.7
		c-0.5,0-0.8,0.4-0.8,0.8C10.4,23.5,10.8,23.8,11.3,23.8z M28,6.8h-2.5c-0.4-2-2.1-3.5-4.2-3.5H11.1c-2,0-3.8,1.5-4.2,3.5H4.2
		C1.9,6.8,0,8.7,0,11v5.2c0,2.3,1.9,4.2,4.2,4.2h2.4v3.8c0,0.2,0.1,0.4,0.2,0.5l3.1,3.7c0.2,0.2,0.4,0.3,0.6,0.3h10.8
		c0.2,0,0.5-0.1,0.6-0.3l3.1-3.7c0.1-0.2,0.2-0.3,0.2-0.5v-3.8h2.4c2.3,0,4.2-1.9,4.2-4.2V11C32.3,8.7,30.4,6.8,28,6.8L28,6.8z
		 M11.1,5h10.2c1.1,0,2.1,0.7,2.4,1.8h-15C9,5.7,10,5,11.1,5L11.1,5z M23.8,24l-2.6,3.2H11.1L8.4,24v-8.7h15.4V24z M30.6,16.3
		c0,1.4-1.1,2.5-2.5,2.5h-2.4v-4.4c0-0.5-0.4-0.8-0.8-0.8H7.7c-0.5,0-0.8,0.4-0.8,0.8v4.4H4.2c-1.4,0-2.5-1.1-2.5-2.5v-5.2
		c0-1.4,1.1-2.5,2.5-2.5h23.7c1.4,0,2.5,1.1,2.5,2.5L30.6,16.3z"/>
	</svg>
	<svg version="1.1" id="svg-share-view" xmlns="http://www.w3.org/2000/svg" xmlns:xlink="http://www.w3.org/1999/xlink" x="0px" y="0px"
	 viewBox="0 0 32 32" style="enable-background:new 0 0 32 32;" xml:space="preserve" class="svg-icon-sprite">
	<path id="np_share_1152304_000000" fill="#515151" d="M21.9,3v3.7c-5.5,1.4-13.4,5.2-16,13.1c6.4-5.6,15.5-5,16-5v3.7L32,10.8L21.9,3z
		 M0,7.2v21C0,28.6,0.4,29,0.8,29h21.9c0.5,0,0.8-0.4,0.8-0.8v-8.8c-0.6,0.4-1.1,0.9-1.7,1.3v6.7H1.7V8h12.4c1.2-0.6,2.4-1.2,3.6-1.7
		H0.8C0.4,6.4,0,6.7,0,7.2z"/>
	</svg>
	<svg version="1.1" id="svg-heart" xmlns="http://www.w3.org/2000/svg" xmlns:xlink="http://www.w3.org/1999/xlink" x="0px" y="0px"
		 viewBox="0 0 32 32" style="enable-background:new 0 0 32 32;" xml:space="preserve" class="svg-icon-sprite">
	<g transform="matrix(1, 0, 0, 1, 0, 0)">
		<path id="np_heart_888700_000000-2" style="fill:none;stroke:#515151;stroke-width:1.2;" d="M30.4,6.1C29.4,4.3,23.2-1.8,16,7C8.4-1.8,2.6,4.2,1.6,6.1C0,9.7,0.7,14,3.4,17
			L16,29.7L28.6,17C31.3,14,32,9.7,30.4,6.1L30.4,6.1z"/>
	</g>
	</svg>
	<svg xmlns="http://www.w3.org/2000/svg" xmlns:xlink="http://www.w3.org/1999/xlink" version="1.1" id="svg-heart-active" x="0px" y="0px" viewBox="0 0 32 32" enable-background="new 0 0 32 32" xml:space="preserve">
		<g id="XMLID_7_">
			<path id="Path_620_1_" fill="#C32C2B" d="M22.7,1.4c-2.5,0-4.9,1-6.7,2.8l0,0l0,0C12.4,0.5,6.5,0.4,2.8,4C1,5.8,0,8.2,0,10.7     c0,11.7,16,20,16,20s16-8.3,16-20C32,5.5,27.8,1.4,22.7,1.4L22.7,1.4L22.7,1.4z"></path>
		</g>
	</svg>


	<svg version="1.1" id="svg-back-to-view" xmlns="http://www.w3.org/2000/svg" xmlns:xlink="http://www.w3.org/1999/xlink" x="0px" y="0px"
	 viewBox="0 0 32 32" style="enable-background:new 0 0 32 32;" xml:space="preserve" class="svg-icon-sprite">
	<g id="np_search-back_677103_000000" transform="translate(3769.519 51.518)">
		<path id="Path_15" fill="#ffffff" d="M-3737.9-22.5l-6.1-6c4.8-6.2,3.7-15.2-2.5-20c-6.2-4.8-15.2-3.7-20,2.5s-3.7,15.2,2.5,20
			c5.1,4,12.4,4,17.5,0l6,6c0.8,0.6,1.9,0.5,2.5-0.2C-3737.4-20.8-3737.4-21.8-3737.9-22.5L-3737.9-22.5z M-3765.9-37.2
			c0-5.9,4.8-10.7,10.7-10.7c5.9,0,10.7,4.8,10.7,10.7c0,5.9-4.8,10.7-10.7,10.7c-2.8,0-5.6-1.1-7.6-3.1
			C-3764.8-31.7-3765.9-34.4-3765.9-37.2z"/>
		<path id="Path_16" fill="#ffffff" d="M-3752.2-43.9c-0.7-0.7-1.8-0.7-2.5,0c0,0,0,0,0,0l-5.4,5.4c-0.7,0.7-0.7,1.8,0,2.5l5.4,5.4
			c0.7,0.7,1.9,0.6,2.5-0.1c0.6-0.7,0.6-1.7,0-2.4l-4.1-4.1l4.1-4.1C-3751.5-42-3751.5-43.1-3752.2-43.9
			C-3752.2-43.8-3752.2-43.8-3752.2-43.9L-3752.2-43.9z"/>
	</g>
	</svg>
	<svg version="1.1" id="svg-camera-view" xmlns="http://www.w3.org/2000/svg" xmlns:xlink="http://www.w3.org/1999/xlink" x="0px" y="0px"
	 viewBox="0 0 32 32" style="enable-background:new 0 0 32 32;" xml:space="preserve" class="svg-icon-sprite">
	<g id="np_camera_888661_000000" transform="translate(30.242 4049.1)">
		<path id="Path_2" fill="#ffffff" d="M-11.6-4031.3c0,1.5-1.2,2.7-2.7,2.7s-2.7-1.2-2.7-2.7c0-1.5,1.2-2.7,2.7-2.7
			C-12.8-4034-11.6-4032.8-11.6-4031.3"/>
		<path id="Path_3" fill="#ffffff" d="M-0.9-4041.1h-7.1l-1.8-3.5h-8.9l-1.8,3.5h-7.1c-1.4,0-2.6,1.1-2.7,2.6c0,0,0,0.1,0,0.1v14.2
			c0,1.5,1.2,2.7,2.7,2.7h26.7c1.5,0,2.7-1.2,2.7-2.7v-14.2c0-1.4-1.1-2.6-2.6-2.7C-0.8-4041.1-0.9-4041.1-0.9-4041.1z M-14.3-4025.1
			c-3.4,0-6.2-2.8-6.2-6.2c0-3.4,2.8-6.2,6.2-6.2c3.4,0,6.2,2.8,6.2,6.2c0,0,0,0,0,0C-8-4027.9-10.8-4025.1-14.3-4025.1
			C-14.2-4025.1-14.2-4025.1-14.3-4025.1z"/>
	</g>
	</svg>
	
	<svg version="1.1" id="svg-video-view" xmlns="http://www.w3.org/2000/svg" xmlns:xlink="http://www.w3.org/1999/xlink" x="0px" y="0px" viewBox="0 0 32 32" enable-background="new 0 0 32 32" xml:space="preserve" class="svg-icon-sprite">
		<g id="XMLID_1_">
			<g id="XMLID_2_">
				<path id="XMLID_5_" fill="#FFFFFF" d="M25,18.5v-2c0-1.7-1.3-3-3-3H3c-1.7,0-3,1.3-3,3v10c0,1.6,1.3,3,3,3h19c1.7,0,3-1.4,3-3v-2
					l7,5v-16L25,18.5z"/>
				<path id="XMLID_4_" fill="#FFFFFF" d="M11,7c0,2.5-2,4.5-4.5,4.5S2,9.5,2,7s2-4.5,4.5-4.5S11,4.5,11,7"/>
				<path id="XMLID_3_" fill="#FFFFFF" d="M23,7c0,2.5-2,4.5-4.5,4.5S14,9.5,14,7s2-4.5,4.5-4.5S23,4.5,23,7"/>
			</g>
		</g>
	</svg>
	<svg version="1.1" id="svg_youtube" xmlns="http://www.w3.org/2000/svg" xmlns:xlink="http://www.w3.org/1999/xlink" x="0px" y="0px" viewBox="0 0 32 32" enable-background="new 0 0 32 32" xml:space="preserve" class="svg-icon-sprite">
		<path id="XMLID_3_" opacity="0.8" d="M6,4.9C2.7,4.9,0,7.5,0,10.8l0,0v10.4c0,3.3,2.7,5.9,5.9,5.9h0H26c3.3,0,5.9-2.7,5.9-5.9
			c0,0,0,0,0,0V10.8c0-3.3-2.7-5.9-5.9-5.9c0,0,0,0,0,0H6z"/>
		<polygon id="XMLID_2_" fill="#FFFFFF" points="12.6,10.8 20.8,16 12.6,21.2 "/>
	</svg>


	<svg version="1.1" id="svg-street-view" xmlns="http://www.w3.org/2000/svg" xmlns:xlink="http://www.w3.org/1999/xlink" x="0px" y="0px"
	 viewBox="0 0 32 32" style="enable-background:new 0 0 32 32;" xml:space="preserve" class="svg-icon-sprite">
	<g id="np_you-are-here_25718_000000" transform="translate(4052.063 653.977)">
		<path id="Path_65" fill="#ffffff" d="M-4031.1-636.5c4.5,1,7.7,3.3,7.7,5.9c0,3.6-5.7,6.6-12.8,6.6s-12.8-2.9-12.8-6.6
			c0-2.7,3.1-4.9,7.6-5.9c0.6-0.1-0.2-1.1-0.9-1c-5.8,1.2-9.8,4.1-9.8,7.5c0,4.5,7.2,8.1,16,8.1s16-3.7,16-8.1
			c0-3.5-4.2-6.4-10.1-7.6C-4031-637.7-4031.7-636.6-4031.1-636.5L-4031.1-636.5z"/>
		<path id="Path_66" fill="#ffffff" d="M-4032.4-634.5c1.5,0.5,2.5,1.3,2.5,2.3c0,1.5-2.7,2.9-6.1,2.9c-3.4,0-6.1-1.2-6.1-2.9
			c0-0.7,0.6-1.4,1.6-1.9c0.4-0.2-0.2-1.4-0.8-1.2c-2,0.8-3.3,2.1-3.3,3.5c0,2.4,3.8,4.3,8.4,4.3c4.6,0,8.4-1.9,8.4-4.3
			c0-1.5-1.6-3-4-3.7C-4032.4-635.7-4032.8-634.6-4032.4-634.5L-4032.4-634.5z"/>
		<path id="Path_67" fill="#ffffff" d="M-4032.6-642.7c0-0.7,0-1.3,0-2.1c0-0.9-0.5-1.7-1.3-1.9c-1.6-0.6-3.3-0.6-4.8,0
			c-0.8,0.3-1.4,1.1-1.3,1.9c0,1.4,0,2.8,0,4.2c0,0.8,0.3,1.6,0.8,2.4c0.2,0.3,0.4,0.7,0.5,1.1c0.2,1.3,0.4,2.6,0.7,3.9
			c-0.3,0.2-0.6,0.5-0.6,0.9c0,0.7,1.1,1.3,2.4,1.3s2.4-0.6,2.4-1.3c0-0.4-0.3-0.7-0.7-0.9c0.1-0.9,0.3-1.7,0.4-2.7
			c0.1-0.7,0.3-1.4,0.6-2.2c0.3-0.6,0.6-1.1,0.8-1.7C-4032.6-640.7-4032.5-641.7-4032.6-642.7L-4032.6-642.7L-4032.6-642.7z"/>
		<path id="Path_68" fill="#ffffff" d="M-4036.3-647.8c1.6,0,2.9-1.3,3-3v-0.1c0-1.6-1.3-3.1-3-3.1s-3,1.4-3,3.1
			C-4039.4-649.3-4038-647.8-4036.3-647.8C-4036.4-647.8-4036.4-647.8-4036.3-647.8z"/>
	</g>
	</svg>
	<svg version="1.1" id="svg-map-view-dark" xmlns="http://www.w3.org/2000/svg" xmlns:xlink="http://www.w3.org/1999/xlink" x="0px" y="0px"
	 viewBox="0 0 32 32" style="enable-background:new 0 0 32 32;" xml:space="preserve" class="svg-icon-sprite">
	<path id="np_map-pin_972153_000000" fill="#4e4e4e" d="M25.4,5.8c-2.6-5.2-9-7.3-14.2-4.7C6,3.8,4,10.1,6.5,15.3
		c2.5,5,8.1,15.8,8.1,15.8c0.4,0.8,1.3,1.1,2.1,0.7c0.3-0.2,0.5-0.4,0.7-0.7c0,0,6.6-12.8,8.1-15.8C26.9,12.3,26.9,8.8,25.4,5.8
		L25.4,5.8z M16,16.1c-3,0-5.5-2.5-5.5-5.5S13,5.1,16,5.1s5.5,2.5,5.5,5.5S19,16.1,16,16.1z"/>
	</svg>
	<svg version="1.1" id="svg-bath-view" xmlns="http://www.w3.org/2000/svg" xmlns:xlink="http://www.w3.org/1999/xlink" x="0px" y="0px" viewBox="0 0 32 32" enable-background="new 0 0 32 32" xml:space="preserve" class="svg-icon-sprite">
		<g id="XMLID_1_">
			<path id="np_bath_1449035_000000_1_" fill="#515151" d="M31.2,14.4H7.6V5.7c0-1,0.1-1.2,0.7-1.2c0.2,0,0.5,0.3,0.8,0.8
				C8.9,5.5,8.8,5.7,8.8,5.8C8.6,6.3,8.6,6.7,8.8,7.1L9,7.4c0.1,0.2,0.2,0.3,0.4,0.4c0.1,0,0.2,0,0.2,0c0.1,0,0.2,0,0.3-0.1l1.7-0.8
				c0.4-0.2,0.5-0.6,0.3-1l-0.1-0.3c-0.3-0.6-0.9-0.9-1.5-0.9C10,3.8,9.2,3.2,8.3,3.1c-2.2,0-2.2,2-2.2,2.6v8.7H0.8
				c-0.4,0-0.8,0.3-0.8,0.7c0,0.4,0.3,0.8,0.7,0.8c0,0,0.1,0,0.1,0h2.6v4.9c0,3.5,2.7,6.4,6.2,6.7c0.2,1,1.1,1.6,2.1,1.5
				c0.7-0.1,1.3-0.7,1.5-1.4h5.8c0.2,1,1.1,1.6,2.1,1.4c0.7-0.1,1.3-0.7,1.4-1.4c3.7,0,6.6-3,6.6-6.7v-4.9h2.3c0.4,0,0.8-0.3,0.8-0.7
				C32,14.8,31.7,14.4,31.2,14.4C31.3,14.4,31.3,14.4,31.2,14.4L31.2,14.4z M11.3,27.5c0,0-0.1,0-0.1,0h0.2
				C11.3,27.5,11.3,27.5,11.3,27.5z M20.5,27.4h0.2c0,0-0.1,0-0.1,0C20.6,27.5,20.5,27.5,20.5,27.4z M27.5,20.8c0,2.9-2.3,5.2-5.2,5.2
				H10c-2.9,0-5.2-2.3-5.2-5.2v-4.9h22.7L27.5,20.8z"/>
		</g>
	</svg>
	<svg version="1.1" id="svg-bed-view" xmlns="http://www.w3.org/2000/svg" xmlns:xlink="http://www.w3.org/1999/xlink" x="0px" y="0px" viewBox="0 0 32 32" enable-background="new 0 0 32 32" xml:space="preserve" class="svg-icon-sprite">
		<g id="XMLID_1_">
			<path id="np_single-bed_1203562_000000_1_" fill="#515151" d="M29.8,12.7c-1.2,0-2.1,0.9-2.1,2.1v1.5h-1.2v-1.9c0-1.1-0.9-2-2-2
				c0,0,0,0-0.1,0H13.6c-1.1,0-2,0.9-2,2c0,0,0,0,0,0.1v1.9h-1.2c0.3-0.5,0.4-1,0.4-1.5c0-1.6-1.3-2.9-2.9-2.9S5,13.3,5,14.8
				c0,0.5,0.2,1.1,0.4,1.5H4.2V7.4c0-1.2-1-2.1-2.1-2.1C0.9,5.3,0,6.3,0,7.4V26c0,0.4,0.3,0.7,0.7,0.7h2.9c0.4,0,0.7-0.3,0.7-0.7v-2.1
				h23.4V26c0,0.4,0.3,0.7,0.7,0.7h2.9c0.4,0,0.7-0.3,0.7-0.7V14.8C31.9,13.7,31,12.8,29.8,12.7L29.8,12.7z M12.9,14.5
				c0-0.4,0.3-0.7,0.7-0.7h10.9c0.4,0,0.7,0.3,0.7,0.7v1.9H12.9V14.5z M6.4,14.9c0-0.8,0.7-1.5,1.5-1.5s1.5,0.7,1.5,1.5
				s-0.7,1.5-1.5,1.5C7.1,16.4,6.4,15.8,6.4,14.9z M2.9,25.3H1.4V7.4c0-0.4,0.3-0.8,0.8-0.8c0.4,0,0.7,0.3,0.8,0.7c0,0,0,0,0,0.1
				L2.9,25.3L2.9,25.3z M4.2,22.5v-4.7h23.4v4.7L4.2,22.5z M30.5,25.3h-1.5V14.8c0-0.4,0.3-0.8,0.8-0.8s0.8,0.3,0.8,0.8L30.5,25.3
				L30.5,25.3z"/>
		</g>
	</svg>
<svg version="1.1" id="svg-area-view" xmlns="http://www.w3.org/2000/svg" xmlns:xlink="http://www.w3.org/1999/xlink" x="0px" y="0px" viewBox="0 0 32 32" enable-background="new 0 0 32 32" xml:space="preserve">
<g id="XMLID_1_">
	<path id="np_select-panel_1210825_000000_1_" fill="#525252" d="M1,0C0.4,0.1,0,0.6,0,1.1v13.4h2.2V2.2h26l-3.3,3.3l-1.3-1.3
		c-0.2-0.2-0.5-0.3-0.8-0.3c-0.6,0-1,0.4-1.1,1l-0.6,4.7c0,0.6,0.4,1.2,1.1,1.2c0,0,0.1,0,0.1,0l4.7-0.5c0.6-0.1,1.1-0.6,1-1.2
		c0-0.3-0.1-0.5-0.3-0.7l-1.3-1.3l3.3-3.3v26H17.5V32h13.4c0.6,0,1.1-0.5,1.1-1.1V1.1C32,0.5,31.5,0,30.9,0H1z M1.1,14.9
		C0.5,14.9,0,15.4,0,16s0.5,1.1,1.1,1.1c0.6,0,1.1-0.5,1.1-1.1C2.3,15.4,1.8,14.9,1.1,14.9L1.1,14.9z M4.1,14.9
		C3.5,14.9,3,15.4,3,16c0,0.6,0.5,1.1,1.1,1.1c0.6,0,1.1-0.5,1.1-1.1C5.2,15.4,4.7,14.9,4.1,14.9C4.1,14.9,4.1,14.9,4.1,14.9z
		 M7.1,14.9C6.5,14.9,6,15.4,6,16c0,0.6,0.5,1.1,1.1,1.1c0.6,0,1.1-0.5,1.1-1.1C8.2,15.4,7.7,14.9,7.1,14.9L7.1,14.9z M10.1,14.9
		C9.5,14.9,9,15.4,9,16c0,0.6,0.5,1.1,1.1,1.1c0.6,0,1.1-0.5,1.1-1.1C11.2,15.4,10.7,14.9,10.1,14.9L10.1,14.9z M13,14.9
		c-0.6,0-1.1,0.5-1.1,1.1c0,0.6,0.5,1.1,1.1,1.1c0.6,0,1.1-0.5,1.1-1.1C14.2,15.4,13.7,14.9,13,14.9L13,14.9z M16,14.9
		c-0.6,0-1.1,0.5-1.1,1.1c0,0.6,0.5,1.1,1.1,1.1c0.6,0,1.1-0.5,1.1-1.1C17.1,15.4,16.6,14.9,16,14.9L16,14.9z M1.1,17.9
		C0.5,17.9,0,18.4,0,19c0,0.6,0.5,1.1,1.1,1.1s1.1-0.5,1.1-1.1C2.3,18.4,1.8,17.9,1.1,17.9L1.1,17.9z M16,17.9
		c-0.6,0-1.1,0.5-1.1,1.1c0,0.6,0.5,1.1,1.1,1.1c0.6,0,1.1-0.5,1.1-1.1C17.1,18.4,16.6,17.9,16,17.9C16,17.9,16,17.9,16,17.9z
		 M1.1,20.8C0.5,20.8,0,21.3,0,22c0,0.6,0.5,1.1,1.1,1.1s1.1-0.5,1.1-1.1C2.3,21.3,1.8,20.8,1.1,20.8L1.1,20.8z M16,20.8
		c-0.6,0-1.1,0.5-1.1,1.1c0,0.6,0.5,1.1,1.1,1.1c0.6,0,1.1-0.5,1.1-1.1C17.1,21.3,16.6,20.8,16,20.8C16,20.8,16,20.8,16,20.8z
		 M1.1,23.8c-0.6,0-1.1,0.5-1.1,1.1C0,25.5,0.5,26,1.1,26s1.1-0.5,1.1-1.1C2.3,24.3,1.8,23.8,1.1,23.8L1.1,23.8z M16,23.8
		c-0.6,0-1.1,0.5-1.1,1.1c0,0.6,0.5,1.1,1.1,1.1c0.6,0,1.1-0.5,1.1-1.1C17.1,24.3,16.6,23.8,16,23.8C16,23.8,16,23.8,16,23.8z
		 M1.1,26.8c-0.6,0-1.1,0.5-1.1,1.1C0,28.5,0.5,29,1.1,29s1.1-0.5,1.1-1.1C2.3,27.3,1.8,26.8,1.1,26.8L1.1,26.8z M16,26.8
		c-0.6,0-1.1,0.5-1.1,1.1c0,0.6,0.5,1.1,1.1,1.1c0.6,0,1.1-0.5,1.1-1.1C17.1,27.3,16.6,26.8,16,26.8C16,26.8,16,26.8,16,26.8z
		 M1.1,29.8c-0.6,0-1.1,0.5-1.1,1.1C0,31.5,0.5,32,1.1,32s1.1-0.5,1.1-1.1C2.3,30.3,1.8,29.8,1.1,29.8L1.1,29.8z M4.1,29.8
		c-0.6,0-1.1,0.5-1.1,1.1C3,31.5,3.5,32,4.1,32c0.6,0,1.1-0.5,1.1-1.1C5.2,30.3,4.7,29.8,4.1,29.8C4.1,29.8,4.1,29.8,4.1,29.8z
		 M7.1,29.8c-0.6,0-1.1,0.5-1.1,1.1C6,31.5,6.5,32,7.1,32c0.6,0,1.1-0.5,1.1-1.1C8.2,30.3,7.7,29.8,7.1,29.8L7.1,29.8z M10.1,29.8
		c-0.6,0-1.1,0.5-1.1,1.1c0,0.6,0.5,1.1,1.1,1.1c0.6,0,1.1-0.5,1.1-1.1C11.2,30.3,10.7,29.8,10.1,29.8L10.1,29.8z M13,29.8
		c-0.6,0-1.1,0.5-1.1,1.1c0,0.6,0.5,1.1,1.1,1.1c0.6,0,1.1-0.5,1.1-1.1C14.2,30.3,13.7,29.8,13,29.8L13,29.8z M16,29.8
		c-0.6,0-1.1,0.5-1.1,1.1c0,0.6,0.5,1.1,1.1,1.1s1.1-0.5,1.1-1.1C17.1,30.3,16.6,29.8,16,29.8L16,29.8z"/>
</g>
</svg>

	<svg version="1.1" id="svg-more-arrow-view" xmlns="http://www.w3.org/2000/svg" xmlns:xlink="http://www.w3.org/1999/xlink" x="0px" y="0px"
	 viewBox="0 0 32 32" style="enable-background:new 0 0 32 32;" xml:space="preserve" class="svg-icon-sprite">
	<path id="np_down-arrow_602481_000000" fill="#E35867" d="M3.2,30.1V2c0-0.7,0.4-1.4,1-1.7c0.6-0.4,1.4-0.3,2,0.1L28,14.4
		c0.9,0.7,1.1,2,0.4,2.9c-0.1,0.2-0.2,0.3-0.4,0.4l-21.8,14c-0.3,0.2-0.7,0.3-1,0.3c-0.3,0-0.7-0.1-1-0.2C3.6,31.4,3.2,30.8,3.2,30.1
		L3.2,30.1z"/>
	</svg>
	<svg version="1.1" id="svg-block-arrow-view" xmlns="http://www.w3.org/2000/svg" xmlns:xlink="http://www.w3.org/1999/xlink" x="0px" y="0px"
		 viewBox="0 0 32 32" style="enable-background:new 0 0 32 32;" xml:space="preserve" class="svg-icon-sprite">
	<path id="np_up_1075392_000000" fill="#515151" d="M3.3,24.4c-0.8,0.8-2.1,0.7-2.8-0.1c-0.7-0.8-0.7-2,0-2.7l14-14c0.8-0.8,2-0.8,2.8,0
		l0,0l14,14c0.8,0.8,0.8,2,0.1,2.8c-0.8,0.8-2,0.8-2.8,0.1l-0.1-0.1L16,11.8L3.3,24.4z"/>
	</svg>

	<svg version="1.1" id="svg-block-arrow-view-white" xmlns="http://www.w3.org/2000/svg" xmlns:xlink="http://www.w3.org/1999/xlink" x="0px" y="0px"
		 viewBox="0 0 32 32" style="enable-background:new 0 0 32 32;" xml:space="preserve" class="svg-icon-sprite">
	<path id="np_up_1075392_000000" fill="#ffffff" d="M3.3,24.4c-0.8,0.8-2.1,0.7-2.8-0.1c-0.7-0.8-0.7-2,0-2.7l14-14c0.8-0.8,2-0.8,2.8,0
		l0,0l14,14c0.8,0.8,0.8,2,0.1,2.8c-0.8,0.8-2,0.8-2.8,0.1l-0.1-0.1L16,11.8L3.3,24.4z"/>
	</svg>

	<svg version="1.1" id="svg-block-arrow-active" xmlns="http://www.w3.org/2000/svg" xmlns:xlink="http://www.w3.org/1999/xlink" x="0px" y="0px"
		 viewBox="0 0 32 32" style="enable-background:new 0 0 32 32;" xml:space="preserve" class="svg-icon-sprite">
	<path id="np_up_1075392_000000" fill="#28b16d" d="M3.3,24.4c-0.8,0.8-2.1,0.7-2.8-0.1c-0.7-0.8-0.7-2,0-2.7l14-14c0.8-0.8,2-0.8,2.8,0
		l0,0l14,14c0.8,0.8,0.8,2,0.1,2.8c-0.8,0.8-2,0.8-2.8,0.1l-0.1-0.1L16,11.8L3.3,24.4z"/>
	</svg>
	<svg version="1.1" id="svg-block-arrow-commute" xmlns="http://www.w3.org/2000/svg" xmlns:xlink="http://www.w3.org/1999/xlink" x="0px" y="0px"
		 viewBox="0 0 32 32" style="enable-background:new 0 0 32 32;" xml:space="preserve" class="svg-icon-sprite">
	<path id="np_up_1075392_000000" fill="#0780CC" d="M3.3,24.4c-0.8,0.8-2.1,0.7-2.8-0.1c-0.7-0.8-0.7-2,0-2.7l14-14c0.8-0.8,2-0.8,2.8,0
		l0,0l14,14c0.8,0.8,0.8,2,0.1,2.8c-0.8,0.8-2,0.8-2.8,0.1l-0.1-0.1L16,11.8L3.3,24.4z"/>
	</svg>
	<svg version="1.1" id="svg-block-arrow-school" xmlns="http://www.w3.org/2000/svg" xmlns:xlink="http://www.w3.org/1999/xlink" x="0px" y="0px"
		 viewBox="0 0 32 32" style="enable-background:new 0 0 32 32;" xml:space="preserve" class="svg-icon-sprite">
	<path id="np_up_1075392_000000" fill="#ECBA26" d="M3.3,24.4c-0.8,0.8-2.1,0.7-2.8-0.1c-0.7-0.8-0.7-2,0-2.7l14-14c0.8-0.8,2-0.8,2.8,0
		l0,0l14,14c0.8,0.8,0.8,2,0.1,2.8c-0.8,0.8-2,0.8-2.8,0.1l-0.1-0.1L16,11.8L3.3,24.4z"/>
	</svg>
	<svg version="1.1" id="svg-block-arrow-hospital" xmlns="http://www.w3.org/2000/svg" xmlns:xlink="http://www.w3.org/1999/xlink" x="0px" y="0px"
		 viewBox="0 0 32 32" style="enable-background:new 0 0 32 32;" xml:space="preserve" class="svg-icon-sprite">
	<path id="np_up_1075392_000000" fill="#E37A44" d="M3.3,24.4c-0.8,0.8-2.1,0.7-2.8-0.1c-0.7-0.8-0.7-2,0-2.7l14-14c0.8-0.8,2-0.8,2.8,0
		l0,0l14,14c0.8,0.8,0.8,2,0.1,2.8c-0.8,0.8-2,0.8-2.8,0.1l-0.1-0.1L16,11.8L3.3,24.4z"/>
	</svg>
	<svg version="1.1" id="svg-block-arrow-restaurants" xmlns="http://www.w3.org/2000/svg" xmlns:xlink="http://www.w3.org/1999/xlink" x="0px" y="0px"
		 viewBox="0 0 32 32" style="enable-background:new 0 0 32 32;" xml:space="preserve" class="svg-icon-sprite">
	<path id="np_up_1075392_000000" fill="#28b16d" d="M3.3,24.4c-0.8,0.8-2.1,0.7-2.8-0.1c-0.7-0.8-0.7-2,0-2.7l14-14c0.8-0.8,2-0.8,2.8,0
		l0,0l14,14c0.8,0.8,0.8,2,0.1,2.8c-0.8,0.8-2,0.8-2.8,0.1l-0.1-0.1L16,11.8L3.3,24.4z"/>
	</svg>
	<svg version="1.1" id="svg-car-view" xmlns="http://www.w3.org/2000/svg" xmlns:xlink="http://www.w3.org/1999/xlink" x="0px" y="0px"
	 viewBox="0 0 32 32" style="enable-background:new 0 0 32 32;" xml:space="preserve" class="svg-icon-sprite">
	<g id="np_car_535277_28B16D" transform="translate(485.873 2072.096)">
		<path id="Path_73" fill="#ffffff" d="M-469.7-2046.5c3.3,0,9.5-0.5,9.5-0.5c0.5,0,1,0,1.5,0v1c0,0.8,0.7,1.4,1.5,1.4h1.9
			c0.8,0,1.5-0.6,1.5-1.4l0,0v-4.8c0-0.1,0-0.2,0-0.3c0-2.4-0.3-4.7-0.9-7c-0.2-0.9-0.6-1.7-1-2.5c0.1-0.2,0-0.5,0.4-0.5
			c0.7-0.1,1.7,0,1.5-1c-0.2-0.9-1-1.5-1.9-1.4c-0.1,0-0.1,0-0.2,0c-0.5,0.1-1,0.3-1.5,0.7l-0.2,0.2c-0.1,0.1-0.1,0.2-0.1,0.2
			l-0.1-0.2l-0.2-0.2l-2.6-3.6c-0.6-0.7-1.4-1.1-2.3-1.2h-6.8v0.5h6.8c0.7,0,1.4,0.4,1.9,1l2.9,4.1l0.2,0.3
			c-1.5,0.1-8.3,0.5-12.1,0.5c-3.8,0-10.2-0.4-11.6-0.5l0.2-0.3l2.9-4.1c0.5-0.6,1.2-0.9,1.9-1h6.8v-0.5h-6.8c-0.9,0-1.7,0.5-2.3,1.2
			l-2.6,3.6l-0.2,0.2l-0.1,0.2c0-0.1-0.1-0.2-0.1-0.2l-0.2-0.2c-0.4-0.4-0.9-0.6-1.5-0.7c-0.9-0.2-1.8,0.3-2.1,1.2c0,0.1,0,0.1,0,0.2
			c-0.2,0.9,0.8,0.9,1.5,1c0.3,0.1,0.3,0.3,0.4,0.5c-0.4,0.8-0.8,1.6-1,2.5c-0.6,2.5-1,5.1-0.9,7.7c0,0.9,0.4,1.8,1,2.4
			c0,0,0.9,1.1,5.3,1.1c0,0,6.2,0.5,9.5,0.5L-469.7-2046.5L-469.7-2046.5z M-475.4-2056.1c-0.2-0.6,0.2-1.2,0.8-1.4
			c0.1,0,0.2,0,0.3,0h8.7c0.6,0,1.2,0.4,1.2,1.1c0,0.1,0,0.2,0,0.3l-0.4,2c-0.2,0.8-0.9,1.4-1.7,1.4h-6.8c-0.8,0-1.5-0.6-1.7-1.4
			L-475.4-2056.1z M-473.7-2056.4c0-0.1,0.2-0.2,0.3-0.2s0.2,0.1,0.2,0.2v2.4c0,0.1-0.2,0.2-0.3,0.2s-0.2-0.1-0.2-0.2V-2056.4z
			 M-472.7-2056.4c0-0.1,0.2-0.2,0.3-0.2c0.1,0,0.2,0.1,0.2,0.2v2.4c0,0.1-0.2,0.2-0.3,0.2c-0.1,0-0.2-0.1-0.2-0.2V-2056.4z
			 M-471.7-2056.4c0-0.1,0.2-0.2,0.3-0.2c0.1,0,0.2,0.1,0.2,0.2v2.4c0,0.1-0.2,0.2-0.3,0.2c-0.1,0-0.2-0.1-0.2-0.2V-2056.4z
			 M-470.6-2056.4c0-0.1,0.2-0.2,0.3-0.2c0.1,0,0.2,0.1,0.2,0.2v2.4c0,0.1-0.2,0.2-0.3,0.2c-0.1,0-0.2-0.1-0.2-0.2V-2056.4z
			 M-469.6-2056.4c0-0.1,0.2-0.2,0.3-0.2c0.1,0,0.2,0.1,0.2,0.2v2.4c0,0.1-0.2,0.2-0.3,0.2c-0.1,0-0.2-0.1-0.2-0.2V-2056.4z
			 M-468.6-2056.4c0-0.1,0.2-0.2,0.3-0.2s0.2,0.1,0.2,0.2v2.4c0,0.1-0.2,0.2-0.3,0.2s-0.2-0.1-0.2-0.2V-2056.4z M-467.5-2056.4
			c0-0.1,0.2-0.2,0.3-0.2c0.1,0,0.2,0.1,0.2,0.2v2.4c0,0.1-0.2,0.2-0.3,0.2c-0.1,0-0.2-0.1-0.2-0.2V-2056.4z M-466.5-2056.4
			c0-0.1,0.2-0.2,0.3-0.2c0.1,0,0.2,0.1,0.2,0.2v2.4c0,0.1-0.2,0.2-0.3,0.2c-0.1,0-0.2-0.1-0.2-0.2V-2056.4z M-482.2-2054
			c0.8,0,1.4-0.7,1.4-1.5s-0.7-1.4-1.5-1.4c-0.8,0-1.4,0.7-1.4,1.4C-483.6-2054.6-482.9-2054-482.2-2054L-482.2-2054z M-482.8-2050
			c0.6-0.5,1.3-0.8,2.1-0.7c0,0,5.8,0.5,10.9,0.5s11.4-0.5,11.4-0.5c0.8,0,1.5,0.2,2.1,0.7l0.2,0.2c0.5,0.5,0.3,0.9-0.3,0.9
			c0,0-8,0.6-13.2,0.5c-5.3-0.1-12.7-0.5-12.7-0.5c-0.7,0-0.8-0.5-0.3-0.9L-482.8-2050z M-457.1-2054c0.8,0,1.4-0.7,1.4-1.5
			s-0.7-1.4-1.5-1.4s-1.4,0.7-1.4,1.4C-458.5-2054.6-457.8-2054-457.1-2054L-457.1-2054z M-460.9-2053c1.1,0,1.9-0.9,1.9-1.9
			s-0.9-1.9-1.9-1.9c-1.1,0-1.9,0.9-1.9,1.9S-462-2053-460.9-2053L-460.9-2053z M-478.4-2053c1.1,0,1.9-0.9,1.9-1.9s-0.9-1.9-1.9-1.9
			c-1.1,0-1.9,0.9-1.9,1.9S-479.4-2053-478.4-2053L-478.4-2053L-478.4-2053z M-474.9-2056.2l0.4,2c0.1,0.6,0.7,1,1.3,1h6.8
			c0.6,0,1.1-0.4,1.3-1l0.4-2c0.1-0.3-0.1-0.7-0.4-0.8c-0.1,0-0.2,0-0.2,0h-8.7c-0.4,0-0.7,0.2-0.7,0.6
			C-474.9-2056.4-474.9-2056.3-474.9-2056.2L-474.9-2056.2z M-478.6-2063.9c0.2-0.3,0.4-0.6,0.6-0.9c0.4-0.6,1-1,1.6-1.2h0.1
			c0.1,0,0.2-0.1,0.2-0.2c0-0.1-0.1-0.2-0.2-0.2s-0.1,0-0.2,0c-0.8,0.2-1.5,0.7-2,1.4c-0.2,0.3-0.5,0.6-0.7,0.9
			c-0.1,0.1-0.1,0.2-0.2,0.3c0,0.1-0.1,0.1-0.1,0.1c-0.1,0.1,0,0.2,0.1,0.3s0.3,0,0.3-0.1C-478.8-2063.6-478.7-2063.7-478.6-2063.9
			L-478.6-2063.9z"/>
			<path id="Path_74" fill="#ffffff" d="M-485.8-2050.8v4.8c0,0.8,0.6,1.4,1.4,1.5l0,0h1.9c0.8,0,1.4-0.7,1.4-1.5v-1.3l-0.5-0.1l-3.9-2.3
			l-0.3-1v-1.1C-485.7-2051.4-485.8-2051.1-485.8-2050.8L-485.8-2050.8z"/>
		</g>
	</svg>
	<svg version="1.1" id="svg-car-view-dark" xmlns="http://www.w3.org/2000/svg" xmlns:xlink="http://www.w3.org/1999/xlink" x="0px" y="0px"
	 viewBox="0 0 32 32" style="enable-background:new 0 0 32 32;" xml:space="preserve" class="svg-icon-sprite">
	<g id="np_car_535277_28B16D" transform="translate(485.873 2072.096)">
		<path id="Path_73" fill="#7d7d7d" d="M-469.7-2046.5c3.3,0,9.5-0.5,9.5-0.5c0.5,0,1,0,1.5,0v1c0,0.8,0.7,1.4,1.5,1.4h1.9
			c0.8,0,1.5-0.6,1.5-1.4l0,0v-4.8c0-0.1,0-0.2,0-0.3c0-2.4-0.3-4.7-0.9-7c-0.2-0.9-0.6-1.7-1-2.5c0.1-0.2,0-0.5,0.4-0.5
			c0.7-0.1,1.7,0,1.5-1c-0.2-0.9-1-1.5-1.9-1.4c-0.1,0-0.1,0-0.2,0c-0.5,0.1-1,0.3-1.5,0.7l-0.2,0.2c-0.1,0.1-0.1,0.2-0.1,0.2
			l-0.1-0.2l-0.2-0.2l-2.6-3.6c-0.6-0.7-1.4-1.1-2.3-1.2h-6.8v0.5h6.8c0.7,0,1.4,0.4,1.9,1l2.9,4.1l0.2,0.3
			c-1.5,0.1-8.3,0.5-12.1,0.5c-3.8,0-10.2-0.4-11.6-0.5l0.2-0.3l2.9-4.1c0.5-0.6,1.2-0.9,1.9-1h6.8v-0.5h-6.8c-0.9,0-1.7,0.5-2.3,1.2
			l-2.6,3.6l-0.2,0.2l-0.1,0.2c0-0.1-0.1-0.2-0.1-0.2l-0.2-0.2c-0.4-0.4-0.9-0.6-1.5-0.7c-0.9-0.2-1.8,0.3-2.1,1.2c0,0.1,0,0.1,0,0.2
			c-0.2,0.9,0.8,0.9,1.5,1c0.3,0.1,0.3,0.3,0.4,0.5c-0.4,0.8-0.8,1.6-1,2.5c-0.6,2.5-1,5.1-0.9,7.7c0,0.9,0.4,1.8,1,2.4
			c0,0,0.9,1.1,5.3,1.1c0,0,6.2,0.5,9.5,0.5L-469.7-2046.5L-469.7-2046.5z M-475.4-2056.1c-0.2-0.6,0.2-1.2,0.8-1.4
			c0.1,0,0.2,0,0.3,0h8.7c0.6,0,1.2,0.4,1.2,1.1c0,0.1,0,0.2,0,0.3l-0.4,2c-0.2,0.8-0.9,1.4-1.7,1.4h-6.8c-0.8,0-1.5-0.6-1.7-1.4
			L-475.4-2056.1z M-473.7-2056.4c0-0.1,0.2-0.2,0.3-0.2s0.2,0.1,0.2,0.2v2.4c0,0.1-0.2,0.2-0.3,0.2s-0.2-0.1-0.2-0.2V-2056.4z
			 M-472.7-2056.4c0-0.1,0.2-0.2,0.3-0.2c0.1,0,0.2,0.1,0.2,0.2v2.4c0,0.1-0.2,0.2-0.3,0.2c-0.1,0-0.2-0.1-0.2-0.2V-2056.4z
			 M-471.7-2056.4c0-0.1,0.2-0.2,0.3-0.2c0.1,0,0.2,0.1,0.2,0.2v2.4c0,0.1-0.2,0.2-0.3,0.2c-0.1,0-0.2-0.1-0.2-0.2V-2056.4z
			 M-470.6-2056.4c0-0.1,0.2-0.2,0.3-0.2c0.1,0,0.2,0.1,0.2,0.2v2.4c0,0.1-0.2,0.2-0.3,0.2c-0.1,0-0.2-0.1-0.2-0.2V-2056.4z
			 M-469.6-2056.4c0-0.1,0.2-0.2,0.3-0.2c0.1,0,0.2,0.1,0.2,0.2v2.4c0,0.1-0.2,0.2-0.3,0.2c-0.1,0-0.2-0.1-0.2-0.2V-2056.4z
			 M-468.6-2056.4c0-0.1,0.2-0.2,0.3-0.2s0.2,0.1,0.2,0.2v2.4c0,0.1-0.2,0.2-0.3,0.2s-0.2-0.1-0.2-0.2V-2056.4z M-467.5-2056.4
			c0-0.1,0.2-0.2,0.3-0.2c0.1,0,0.2,0.1,0.2,0.2v2.4c0,0.1-0.2,0.2-0.3,0.2c-0.1,0-0.2-0.1-0.2-0.2V-2056.4z M-466.5-2056.4
			c0-0.1,0.2-0.2,0.3-0.2c0.1,0,0.2,0.1,0.2,0.2v2.4c0,0.1-0.2,0.2-0.3,0.2c-0.1,0-0.2-0.1-0.2-0.2V-2056.4z M-482.2-2054
			c0.8,0,1.4-0.7,1.4-1.5s-0.7-1.4-1.5-1.4c-0.8,0-1.4,0.7-1.4,1.4C-483.6-2054.6-482.9-2054-482.2-2054L-482.2-2054z M-482.8-2050
			c0.6-0.5,1.3-0.8,2.1-0.7c0,0,5.8,0.5,10.9,0.5s11.4-0.5,11.4-0.5c0.8,0,1.5,0.2,2.1,0.7l0.2,0.2c0.5,0.5,0.3,0.9-0.3,0.9
			c0,0-8,0.6-13.2,0.5c-5.3-0.1-12.7-0.5-12.7-0.5c-0.7,0-0.8-0.5-0.3-0.9L-482.8-2050z M-457.1-2054c0.8,0,1.4-0.7,1.4-1.5
			s-0.7-1.4-1.5-1.4s-1.4,0.7-1.4,1.4C-458.5-2054.6-457.8-2054-457.1-2054L-457.1-2054z M-460.9-2053c1.1,0,1.9-0.9,1.9-1.9
			s-0.9-1.9-1.9-1.9c-1.1,0-1.9,0.9-1.9,1.9S-462-2053-460.9-2053L-460.9-2053z M-478.4-2053c1.1,0,1.9-0.9,1.9-1.9s-0.9-1.9-1.9-1.9
			c-1.1,0-1.9,0.9-1.9,1.9S-479.4-2053-478.4-2053L-478.4-2053L-478.4-2053z M-474.9-2056.2l0.4,2c0.1,0.6,0.7,1,1.3,1h6.8
			c0.6,0,1.1-0.4,1.3-1l0.4-2c0.1-0.3-0.1-0.7-0.4-0.8c-0.1,0-0.2,0-0.2,0h-8.7c-0.4,0-0.7,0.2-0.7,0.6
			C-474.9-2056.4-474.9-2056.3-474.9-2056.2L-474.9-2056.2z M-478.6-2063.9c0.2-0.3,0.4-0.6,0.6-0.9c0.4-0.6,1-1,1.6-1.2h0.1
			c0.1,0,0.2-0.1,0.2-0.2c0-0.1-0.1-0.2-0.2-0.2s-0.1,0-0.2,0c-0.8,0.2-1.5,0.7-2,1.4c-0.2,0.3-0.5,0.6-0.7,0.9
			c-0.1,0.1-0.1,0.2-0.2,0.3c0,0.1-0.1,0.1-0.1,0.1c-0.1,0.1,0,0.2,0.1,0.3s0.3,0,0.3-0.1C-478.8-2063.6-478.7-2063.7-478.6-2063.9
			L-478.6-2063.9z"/>
			<path id="Path_74" fill="#7d7d7d" d="M-485.8-2050.8v4.8c0,0.8,0.6,1.4,1.4,1.5l0,0h1.9c0.8,0,1.4-0.7,1.4-1.5v-1.3l-0.5-0.1l-3.9-2.3
			l-0.3-1v-1.1C-485.7-2051.4-485.8-2051.1-485.8-2050.8L-485.8-2050.8z"/>
		</g>
	</svg>
	<svg version="1.1" id="svg-bus-view" xmlns="http://www.w3.org/2000/svg" xmlns:xlink="http://www.w3.org/1999/xlink" x="0px" y="0px"
	 viewBox="0 0 32 32" style="enable-background:new 0 0 32 32;" xml:space="preserve" class="svg-icon-sprite">
	<path id="np_bus_888652_28B16D" fill="#ffffff" d="M29.8,7.2V4.1c0-2-2.2-4.1-13.8-4.1S2.2,2.1,2.2,4.1v3.1C1,7.2,0,8,0,9.2v2.1
	c0,1.1,0.9,2.1,2.2,2.1v11.3c0,1.1,0.6,2.1,1.5,2.7v2C3.7,30.8,5,32,6.4,32s2.7-1.2,2.7-2.6v-1.5h13.8v1.5c0,1.4,1.2,2.6,2.7,2.6
	c1.4,0,2.7-1.2,2.7-2.6l0,0v-1.9c1-0.6,1.5-1.6,1.5-2.7V13.3c1.1,0,2.2-0.9,2.2-2.1v-2C32,8.1,31.1,7.3,29.8,7.2L29.8,7.2z M8.6,3.1
	h15c0.6,0,1,0.5,1,1s-0.5,1-1,1h-15c-0.6,0-1-0.5-1-1S7.9,3.1,8.6,3.1z M6.4,25.6c-1.1,0-2.2-0.9-2.2-2.1s0.9-2.1,2.2-2.1
	c1.1,0,2.2,0.9,2.2,2.1C8.6,24.7,7.5,25.6,6.4,25.6L6.4,25.6z M25.6,25.6c-1.1,0-2.2-0.9-2.2-2.1s0.9-2.1,2.2-2.1
	c1.1,0,2.2,0.9,2.2,2.1S26.7,25.6,25.6,25.6L25.6,25.6z M27.8,15.4c0,1.7-1.4,3.1-3.2,3.1H7.4c-1.8,0-3.2-1.4-3.2-3.1v-5.2
	c0-1.7,1.3-3.1,3.1-3.1h0.1h17c1.8,0,3.2,1.3,3.2,3v0.1L27.8,15.4z"/>
	</svg>
	<svg version="1.1" id="svg-bus-view-dark" xmlns="http://www.w3.org/2000/svg" xmlns:xlink="http://www.w3.org/1999/xlink" x="0px" y="0px"
		 viewBox="0 0 32 32" style="enable-background:new 0 0 32 32;" xml:space="preserve" class="svg-icon-sprite">
	<path id="np_bus_888652_28B16D" fill="#7D7D7D" d="M29.8,7.2V4.1c0-2-2.2-4.1-13.8-4.1S2.2,2.1,2.2,4.1v3.1C1,7.2,0,8,0,9.2v2.1
		c0,1.1,0.9,2.1,2.2,2.1v11.3c0,1.1,0.6,2.1,1.5,2.7v2C3.7,30.8,5,32,6.4,32s2.7-1.2,2.7-2.6v-1.5h13.8v1.5c0,1.4,1.2,2.6,2.7,2.6
		c1.4,0,2.7-1.2,2.7-2.6l0,0v-1.9c1-0.6,1.5-1.6,1.5-2.7V13.3c1.1,0,2.2-0.9,2.2-2.1v-2C32,8.1,31.1,7.3,29.8,7.2L29.8,7.2z M8.6,3.1
		h15c0.6,0,1,0.5,1,1s-0.5,1-1,1h-15c-0.6,0-1-0.5-1-1S7.9,3.1,8.6,3.1z M6.4,25.6c-1.1,0-2.2-0.9-2.2-2.1s0.9-2.1,2.2-2.1
		c1.1,0,2.2,0.9,2.2,2.1C8.6,24.7,7.5,25.6,6.4,25.6L6.4,25.6z M25.6,25.6c-1.1,0-2.2-0.9-2.2-2.1s0.9-2.1,2.2-2.1
		c1.1,0,2.2,0.9,2.2,2.1S26.7,25.6,25.6,25.6L25.6,25.6z M27.8,15.4c0,1.7-1.4,3.1-3.2,3.1H7.4c-1.8,0-3.2-1.4-3.2-3.1v-5.2
		c0-1.7,1.3-3.1,3.1-3.1h0.1h17c1.8,0,3.2,1.3,3.2,3v0.1L27.8,15.4z"/>
	</svg>
	<svg version="1.1" id="svg-bicycle-view" xmlns="http://www.w3.org/2000/svg" xmlns:xlink="http://www.w3.org/1999/xlink" x="0px" y="0px"
	 viewBox="0 0 32 32" style="enable-background:new 0 0 32 32;" xml:space="preserve" class="svg-icon-sprite">
	<g id="np_bicycle_799900_28B16D" transform="translate(646.439 2072.096)">
		<path id="Path_75" fill="#ffffff" d="M-620.9-2056.1c-0.1,0-0.3,0-0.4,0l-1.1-3.3l1.5-7.6c0.2-0.9-0.4-1.7-1.3-1.9c-0.1,0-0.2,0-0.3,0
			h-4.8c-0.9,0-1.6,0.7-1.6,1.6c0,0.9,0.7,1.6,1.6,1.6h2.8l-1,4.8h-11.4c-0.7,0-1.3,0.4-1.5,1.1l-1.2,3.7c-0.1,0-0.3,0-0.4,0
			c-3.5,0-6.4,2.8-6.5,6.4c0,3.5,2.8,6.4,6.4,6.5c3.5,0,6.4-2.8,6.5-6.4c0-2.2-1.1-4.2-2.9-5.4l0.9-2.6h10.4l0.9,2.6
			c-2.9,1.9-3.8,5.9-1.8,8.8s5.9,3.8,8.8,1.8c2.9-1.9,3.8-5.9,1.8-8.8C-616.8-2055.1-618.8-2056.1-620.9-2056.1L-620.9-2056.1z
			 M-640.7-2046.6c-1.7-0.4-2.8-2.1-2.4-3.8c0.3-1.2,1.2-2.2,2.5-2.5l-0.8,2.3c-0.1,0.2,0,0.3,0.2,0.4l2.4,0.8c0.2,0.1,0.3,0,0.4-0.2
			l0.8-2.3c1.2,1.3,1,3.3-0.3,4.5C-638.6-2046.7-639.7-2046.4-640.7-2046.6z M-617.8-2049c-0.4,1.7-2.2,2.8-3.9,2.3
			c-1.7-0.4-2.8-2.2-2.3-3.9c0.1-0.5,0.4-1,0.7-1.4l0.8,2.3c0.1,0.2,0.2,0.3,0.4,0.2l0,0l2.4-0.8c0.2-0.1,0.3-0.2,0.2-0.4l0,0
			l-0.8-2.3c1.7,0.4,2.9,2.1,2.5,3.8C-617.8-2049.1-617.8-2049-617.8-2049L-617.8-2049z"/>
		<path id="Path_76" fill="#ffffff" d="M-640-2062.5h4.8c0.9,0,1.6-0.7,1.6-1.6c0-0.9-0.7-1.6-1.6-1.6h-4.8c-0.9,0-1.6,0.7-1.6,1.6
			S-640.9-2062.5-640-2062.5z"/>
	</g>
	</svg>
	<svg version="1.1" id="svg-bicycle-view-dark" xmlns="http://www.w3.org/2000/svg" xmlns:xlink="http://www.w3.org/1999/xlink" x="0px" y="0px"
	 viewBox="0 0 32 32" style="enable-background:new 0 0 32 32;" xml:space="preserve" class="svg-icon-sprite">
	<g id="np_bicycle_799900_28B16D" transform="translate(646.439 2072.096)">
		<path id="Path_75" fill="#7d7d7d" d="M-620.9-2056.1c-0.1,0-0.3,0-0.4,0l-1.1-3.3l1.5-7.6c0.2-0.9-0.4-1.7-1.3-1.9c-0.1,0-0.2,0-0.3,0
			h-4.8c-0.9,0-1.6,0.7-1.6,1.6c0,0.9,0.7,1.6,1.6,1.6h2.8l-1,4.8h-11.4c-0.7,0-1.3,0.4-1.5,1.1l-1.2,3.7c-0.1,0-0.3,0-0.4,0
			c-3.5,0-6.4,2.8-6.5,6.4c0,3.5,2.8,6.4,6.4,6.5c3.5,0,6.4-2.8,6.5-6.4c0-2.2-1.1-4.2-2.9-5.4l0.9-2.6h10.4l0.9,2.6
			c-2.9,1.9-3.8,5.9-1.8,8.8s5.9,3.8,8.8,1.8c2.9-1.9,3.8-5.9,1.8-8.8C-616.8-2055.1-618.8-2056.1-620.9-2056.1L-620.9-2056.1z
			 M-640.7-2046.6c-1.7-0.4-2.8-2.1-2.4-3.8c0.3-1.2,1.2-2.2,2.5-2.5l-0.8,2.3c-0.1,0.2,0,0.3,0.2,0.4l2.4,0.8c0.2,0.1,0.3,0,0.4-0.2
			l0.8-2.3c1.2,1.3,1,3.3-0.3,4.5C-638.6-2046.7-639.7-2046.4-640.7-2046.6z M-617.8-2049c-0.4,1.7-2.2,2.8-3.9,2.3
			c-1.7-0.4-2.8-2.2-2.3-3.9c0.1-0.5,0.4-1,0.7-1.4l0.8,2.3c0.1,0.2,0.2,0.3,0.4,0.2l0,0l2.4-0.8c0.2-0.1,0.3-0.2,0.2-0.4l0,0
			l-0.8-2.3c1.7,0.4,2.9,2.1,2.5,3.8C-617.8-2049.1-617.8-2049-617.8-2049L-617.8-2049z"/>
		<path id="Path_76" fill="#7d7d7d" d="M-640-2062.5h4.8c0.9,0,1.6-0.7,1.6-1.6c0-0.9-0.7-1.6-1.6-1.6h-4.8c-0.9,0-1.6,0.7-1.6,1.6
			S-640.9-2062.5-640-2062.5z"/>
	</g>
	</svg>
	<svg version="1.1" id="svg-walk-view" xmlns="http://www.w3.org/2000/svg" xmlns:xlink="http://www.w3.org/1999/xlink" x="0px" y="0px"
	 viewBox="0 0 32 32" style="enable-background:new 0 0 32 32;" xml:space="preserve" class="svg-icon-sprite">
<g id="np_walk_1069714_28B16D" transform="translate(733.568 2072.096)">
	<path id="Path_77" fill="#ffffff" d="M-712.2-2068.1c-0.2,1.9-2,3.3-3.9,3c-1.9-0.2-3.3-2-3-3.9c0.2-1.9,2-3.3,3.9-3
		C-713.3-2071.9-712-2070.1-712.2-2068.1C-712.2-2068.2-712.2-2068.2-712.2-2068.1"/>
	<path id="Path_78" fill="#ffffff" d="M-718.2-2064.5l4.1,0.5c0.8,0.1,1.4,0.8,1.4,1.6c-0.4,3.3-0.3,5.4,2.5,7.4
		c0.6,0.4,0.8,1.2,0.4,1.8c-0.4,0.6-1.2,0.8-1.8,0.4l-0.1-0.1c-0.7-0.5-1.4-1.2-1.9-1.9c-0.1,0.8-0.3,1.6-1.2,1.9
		c2.8,3,4.6,6.8,5.2,10.9c0.1,0.9-0.6,1.7-1.5,1.8c-0.8,0.1-1.6-0.5-1.8-1.4c-0.3-2.9-1.5-5.7-3.3-8c-1.2,3.2-2.9,6.1-5.1,8.8
		c-0.5,0.7-1.5,0.9-2.3,0.3c-0.7-0.5-0.9-1.5-0.3-2.3l0.1-0.1c2.2-2.8,3.9-6,5.1-9.4c-0.8-0.8-2.3-1.8-2.2-2.9l0.7-5.5
		c-1.7,1.3-2.7,3.3-2.7,5.4c0,0.7-0.6,1.3-1.3,1.3s-1.3-0.6-1.3-1.3v-0.1c0.3-4,2.8-7.5,6.5-9.1
		C-718.9-2064.6-718.6-2064.6-718.2-2064.5L-718.2-2064.5z"/>
</g>
</svg>
	<svg version="1.1" id="svg-walk-view-dark" xmlns="http://www.w3.org/2000/svg" xmlns:xlink="http://www.w3.org/1999/xlink" x="0px" y="0px" viewBox="0 0 32 32" style="enable-background:new 0 0 32 32;" xml:space="preserve" class="svg-icon-sprite">
		<g id="np_walk_1069714_28B16D" transform="translate(733.568 2072.096)">
			<path id="Path_77" fill="#7d7d7d" d="M-712.2-2068.1c-0.2,1.9-2,3.3-3.9,3c-1.9-0.2-3.3-2-3-3.9c0.2-1.9,2-3.3,3.9-3
				C-713.3-2071.9-712-2070.1-712.2-2068.1C-712.2-2068.2-712.2-2068.2-712.2-2068.1"/>
			<path id="Path_78" fill="#7d7d7d" d="M-718.2-2064.5l4.1,0.5c0.8,0.1,1.4,0.8,1.4,1.6c-0.4,3.3-0.3,5.4,2.5,7.4
				c0.6,0.4,0.8,1.2,0.4,1.8c-0.4,0.6-1.2,0.8-1.8,0.4l-0.1-0.1c-0.7-0.5-1.4-1.2-1.9-1.9c-0.1,0.8-0.3,1.6-1.2,1.9
				c2.8,3,4.6,6.8,5.2,10.9c0.1,0.9-0.6,1.7-1.5,1.8c-0.8,0.1-1.6-0.5-1.8-1.4c-0.3-2.9-1.5-5.7-3.3-8c-1.2,3.2-2.9,6.1-5.1,8.8
				c-0.5,0.7-1.5,0.9-2.3,0.3c-0.7-0.5-0.9-1.5-0.3-2.3l0.1-0.1c2.2-2.8,3.9-6,5.1-9.4c-0.8-0.8-2.3-1.8-2.2-2.9l0.7-5.5
				c-1.7,1.3-2.7,3.3-2.7,5.4c0,0.7-0.6,1.3-1.3,1.3s-1.3-0.6-1.3-1.3v-0.1c0.3-4,2.8-7.5,6.5-9.1
				C-718.9-2064.6-718.6-2064.6-718.2-2064.5L-718.2-2064.5z"/>
		</g>
	</svg>
	<svg version="1.1" id="svg-commute-view" xmlns="http://www.w3.org/2000/svg" xmlns:xlink="http://www.w3.org/1999/xlink" x="0px" y="0px" viewBox="0 0 32 32" style="enable-background:new 0 0 32 32;" xml:space="preserve" class="svg-icon-sprite">
		<g id="Group_180" transform="translate(1 4)">
			<g id="Group_179">
				<circle id="Ellipse_45" fill="#ffffff" cx="15" cy="12" r="16"/>
			</g>
			<path id="Path_189" fill="#1F80C3" d="M14.8-1.5c7.5,0,13.6,6.1,13.6,13.6s-6.1,13.6-13.6,13.6S1.2,19.6,1.2,12.1c0,0,0,0,0,0
				C1.2,4.6,7.3-1.5,14.8-1.5z"/>
			<g id="np_clock_62823_28B16D" transform="translate(142.693 150.313)">
				<path id="Path_71" fill="#ffffff" d="M-127.9-147.7c-4.9,0.1-8.9,4.2-8.8,9.1c-0.1,4.9,3.9,9,8.8,9.1c4.9-0.1,8.9-4.2,8.8-9.1
					C-119-143.6-122.9-147.6-127.9-147.7z M-126.9-131.5v-0.7c0-0.5-0.4-0.9-0.9-0.9s-0.9,0.4-0.9,0.9c0,0,0,0,0,0v0.7
					c-3.2-0.4-5.7-3-6.1-6.2c0.5-0.2,0.7-0.8,0.5-1.3c-0.1-0.2-0.3-0.4-0.5-0.5c0.3-3.3,2.8-5.9,6.1-6.4v0.3c0,0.5,0.4,0.9,0.9,0.9
					c0.5,0,0.9-0.4,0.9-0.9c0,0,0,0,0,0v-0.3c3.2,0.5,5.6,3.1,5.9,6.3h-0.1c-0.5,0-1,0.4-1,1c0,0.5,0.4,1,1,1h0
					C-121.4-134.5-123.8-132-126.9-131.5L-126.9-131.5z"/>
				<path id="Path_72" fill="#ffffff" d="M-125.8-141.4l-1.6,1.3l-1.9-3.7c-0.2-0.4-0.8-0.6-1.2-0.4c0,0,0,0,0,0
					c-0.5,0.3-0.6,0.8-0.4,1.3l2.4,4.8c0.1,0.2,0.4,0.4,0.6,0.5c0.3,0.1,0.6,0,0.8-0.2l2.5-2c0.4-0.3,0.5-0.9,0.1-1.3
					C-124.8-141.7-125.3-141.7-125.8-141.4C-125.7-141.4-125.8-141.4-125.8-141.4L-125.8-141.4z"/>
			</g>
		</g>
	</svg>
	<svg version="1.1" id="svg-hospital-view" xmlns="http://www.w3.org/2000/svg" xmlns:xlink="http://www.w3.org/1999/xlink" x="0px" y="0px" viewBox="0 0 32 32" style="enable-background:new 0 0 32 32;" xml:space="preserve" class="svg-icon-sprite">
		<g id="XMLID_27_">
			<g id="Group_157_1_" transform="translate(1317 1826)">
				<path id="Path_208_2_" fill="#E37A44" stroke="#FFFFFF" stroke-width="2" d="M-1301-1824.8c8.2,0,14.8,6.6,14.8,14.8
					s-6.6,14.8-14.8,14.8s-14.8-6.6-14.8-14.8S-1309.2-1824.8-1301-1824.8z"/>
				<path id="np_add_672484_000000_2_" fill="#FFFFFF" d="M-1303.9-1818.1v5.7h-5.7v5.3h5.7v5.7h5.3v-5.7h5.7v-5.3h-5.7v-5.7H-1303.9z
					"/>
			</g>
		</g>
	</svg>
	<svg version="1.1" id="svg-restaurants-view" xmlns="http://www.w3.org/2000/svg" xmlns:xlink="http://www.w3.org/1999/xlink" x="0px" y="0px" viewBox="0 0 32 32" style="enable-background:new 0 0 32 32;" xml:space="preserve" class="svg-icon-sprite">
		<g id="Group_180" transform="translate(-1)">
			<g id="Group_179">
				<circle id="Ellipse_45" fill="#ffffff" cx="17" cy="16" r="16"/>
			</g>
			<path id="Path_189" fill="#28b16d" d="M16.8,2.5c7.5,0,13.6,6.1,13.6,13.6s-6.1,13.6-13.6,13.6S3.2,23.6,3.2,16.1c0,0,0,0,0,0
				C3.2,8.6,9.3,2.5,16.8,2.5z"/>
			<path id="np_restaurant_1012350_28B16D" fill="#ffffff" d="M10.8,8.4c0-0.3,0.2-0.5,0.5-0.5c0.3,0,0.5,0.2,0.5,0.5V12h1V8.4
				c0-0.3,0.2-0.5,0.5-0.5c0.3,0,0.5,0.2,0.5,0.5V12h1V8.4c0-0.3,0.2-0.5,0.5-0.5s0.5,0.2,0.5,0.5v6.1c0,0.8-0.7,1.5-1.5,1.5
				c0,0,0,0,0,0h-0.2l0.3,4l0.2,2.6c0.1,0.8-0.5,1.4-1.3,1.5c-0.8,0.1-1.4-0.5-1.5-1.3c0-0.1,0-0.1,0-0.2l0.6-6.6h-0.2
				c-0.8,0-1.5-0.7-1.5-1.5c0,0,0,0,0,0V8.4z M23,12c0-2.2-1.1-4.1-2.5-4.1S18,9.7,18,12c-0.1,1.5,0.5,2.9,1.7,3.8l-0.6,6.8
				c-0.1,0.8,0.5,1.4,1.3,1.5c0.8,0.1,1.4-0.5,1.5-1.3c0-0.1,0-0.1,0-0.2l-0.6-6.8C22.5,14.9,23.1,13.5,23,12z"/>
		</g>
	</svg>
	<svg version="1.1" id="svg-parks-view" xmlns="http://www.w3.org/2000/svg" xmlns:xlink="http://www.w3.org/1999/xlink" x="0px" y="0px" viewBox="0 0 32 32" enable-background="new 0 0 32 32" xml:space="preserve">
		<g id="XMLID_1_">
			<g id="Group_772_1_" transform="translate(13126 -1980)">
				<g id="Group_770_1_" transform="translate(14.018 3043)">
					<path id="Path_476_1_" fill="#7E54A2" stroke="#FFFFFF" stroke-width="2" d="M-13124-1062c8.3,0,15,6.7,15,15c0,8.3-6.7,15-15,15
						c-8.3,0-15-6.7-15-15C-13139-1055.3-13132.3-1062-13124-1062C-13124-1062-13124-1062-13124-1062z"/>
				</g>
				<path id="np_parks_781456_000000_1_" fill="#FFFFFF" d="M-13103.4,2000.4h-1.8v-1.8c0.2,0,0.4,0.1,0.5,0.1c1.2,0,2.2-1,2.2-2.2
					c0-0.8-0.5-1.6-1.2-1.9c-0.3-1.2-1.5-1.9-2.7-1.6c-0.3,0.1-0.5,0.2-0.8,0.3c0.1,0.3,0.1,0.5,0.1,0.8c0,1.4-0.7,2.6-1.9,3.3
					c0.4,0.8,1.1,1.3,2,1.3c0.2,0,0.4,0,0.6-0.1v1.9h-5.4c0,0,0-0.1,0-0.1v-3c1.8,0.4,3.6-0.6,4-2.4c0.1-0.3,0.1-0.5,0.1-0.8
					c0-1.2-0.7-2.4-1.8-2.9c-0.4-1.8-2.2-2.9-3.9-2.5c-1.3,0.3-2.3,1.3-2.6,2.6c-1,0.6-1.7,1.7-1.7,2.9c0,1.8,1.5,3.3,3.3,3.3
					c0,0,0,0,0,0c0.3,0,0.6,0,0.9-0.1v3.1c0,0,0,0.1,0,0.1h-3.3c-0.4,0-0.7,0.3-0.7,0.7c0,0.4,0.3,0.7,0.7,0.7h13.3
					c0.4,0,0.7-0.3,0.7-0.7C-13102.7,2000.7-13103,2000.4-13103.4,2000.4L-13103.4,2000.4z"/>
			</g>
		</g>
	</svg>
	<svg version="1.1" id="svg-mosques-view" xmlns="http://www.w3.org/2000/svg" xmlns:xlink="http://www.w3.org/1999/xlink" x="0px" y="0px" viewBox="0 0 32 32" enable-background="new 0 0 32 32" xml:space="preserve">
		<g id="Group_771_1_" transform="translate(13134.018 1116)">
			<g id="Ellipse_44_1_">
				<ellipse id="XMLID_44_" fill="#2A99AD" cx="-13118" cy="-1100" rx="15.8" ry="15.7"/>
				<ellipse id="XMLID_43_" fill="none" stroke="#FFFFFF" stroke-width="2" cx="-13118" cy="-1100" rx="15" ry="15"/>
			</g>
			<path id="np_mosque_1394987_000000_1_" fill="#FFFFFF" d="M-13117.9-1106.3c0,0-0.1,0-0.1,0.1l-0.4,0.8c-0.3,0.4-0.7,0.7-1.1,1
				c-0.5,0.3-0.9,0.9-0.9,1.5c0,0.2,0.1,0.5,0.2,0.7l-0.8,0.6c0,0-0.1,0.1-0.1,0.1v7.1h-1v-8.4c0-0.3-0.2-0.6-0.5-0.8
				c-0.1-0.4-0.3-0.8-0.4-1.1c0-0.1-0.1-0.1-0.1-0.1c-0.1,0-0.1,0-0.1,0.1c-0.1,0.4-0.3,0.8-0.4,1.1c-0.3,0.2-0.5,0.4-0.5,0.8v9.8
				c0,0.1,0.1,0.2,0.2,0.2h1.8c0,0,0.1,0,0.1,0h8.7c0,0,0.1,0,0.1,0h1.8c0.1,0,0.2-0.1,0.2-0.2v-9.8c0-0.3-0.2-0.6-0.5-0.8
				c-0.1-0.4-0.3-0.8-0.4-1.1c0-0.1-0.1-0.1-0.2-0.1c0,0-0.1,0.1-0.1,0.1c-0.1,0.4-0.3,0.8-0.4,1.1c-0.3,0.1-0.5,0.4-0.5,0.8v8.4h-1
				v-7.1c0,0,0-0.1-0.1-0.1l-0.8-0.6c0.1-0.2,0.1-0.5,0.1-0.7c0-0.6-0.3-1.2-0.9-1.5c-0.5-0.2-0.9-0.5-1.1-1l-0.4-0.8
				C-13117.8-1106.2-13117.8-1106.3-13117.9-1106.3C-13117.9-1106.3-13117.9-1106.3-13117.9-1106.3L-13117.9-1106.3z M-13117.9-1098.4
				c0.7,0,1.3,0.5,1.3,1.2v2.8h-2.6v-2.8C-13119.2-1097.9-13118.6-1098.4-13117.9-1098.4z"/>
		</g>
	</svg>
	<svg version="1.1" id="svg-school-view" xmlns="http://www.w3.org/2000/svg" xmlns:xlink="http://www.w3.org/1999/xlink" x="0px" y="0px"	 viewBox="0 0 32 32" style="enable-background:new 0 0 32 32;" xml:space="preserve" class="svg-icon-sprite">
		<g id="Group_180" transform="translate(-1)">
			<g id="Group_179">
				<circle id="Ellipse_45" fill="#ffffff" cx="17" cy="16" r="16"/>
			</g>
			<path id="Path_189" fill="#ECBA26" d="M16.8,2.5c7.5,0,13.6,6.1,13.6,13.6s-6.1,13.6-13.6,13.6S3.2,23.6,3.2,16.1c0,0,0,0,0,0
				C3.2,8.6,9.3,2.5,16.8,2.5z"/>
			<path id="np_graduation-cap_103252_000000" fill="#ffffff" d="M17.6,10.7c1.4,0.4,8,2.2,9.4,2.6c0.4,0.1,0.3,0,0.1,0.1
				c-1.2,0.4-7.7,2.2-9.3,2.6c-0.2,0.1-0.5,0.1-0.7,0c-1.5-0.4-8-2.2-9.4-2.6c-0.4-0.1-0.4,0,0-0.1c1.4-0.4,8.1-2.2,9.4-2.6
				C17.4,10.6,17.2,10.6,17.6,10.7L17.6,10.7z M12.2,15.6c0,0-1.6,2-0.6,2.8c1.6,1,3.3,1.7,5.1,2.1c0.4,0.1,0.8,0.1,1.2,0
				c1.8-0.5,3.6-1.2,5.2-2.2c0,0,0.5-0.4,0.2-1.4c-0.2-0.5-0.4-1-0.8-1.4l-4.7,1.3c-0.3,0-0.7,0-1-0.1C16.3,16.7,12.2,15.6,12.2,15.6
				L12.2,15.6z"/>
		</g>
	</svg>
	<svg version="1.1" id="svg-school-loc-view" xmlns="http://www.w3.org/2000/svg" xmlns:xlink="http://www.w3.org/1999/xlink" x="0px" y="0px" viewBox="0 0 32 32" style="enable-background:new 0 0 32 32;" xml:space="preserve" class="svg-icon-sprite">
		<g id="np_school_368080_000000" transform="translate(901.425 2398.931)">
			<g transform="matrix(1, 0, 0, 1, -901.42, -2398.93)">
				<path id="Path_164-2" fill="#E35867" d="M16,0C8.7,0,2.8,5.9,2.8,13.2l0,0C2.8,23.3,16,32,16,32s13.2-8.7,13.2-18.8
					C29.2,5.9,23.3,0,16,0C16,0,16,0,16,0z M16,23.5c-5.7,0-10.3-4.6-10.3-10.3C5.7,7.5,10.3,2.9,16,2.9c5.7,0,10.3,4.6,10.3,10.3
					C26.3,18.9,21.7,23.5,16,23.5C16,23.5,16,23.5,16,23.5z"/>
			</g>
			<ellipse id="Ellipse_4" fill="#FFFFFF" cx="-885.4" cy="-2385.7" rx="10" ry="10"/>
			<path id="Path_165" fill="#E35867" d="M-891.3-2386.7l6.1,2.6l6.1-2.5l-6.1-2.5L-891.3-2386.7z"/>
			<path id="Path_166" fill="#E35867" d="M-888.9-2385v2.7c0,0.7,1.6,1.2,3.7,1.2s3.7-0.5,3.7-1.2v-2.7l-3.7,1.5L-888.9-2385z"/>
		</g>
	</svg>
	<svg version="1.1" id="svg-hospital-pin" xmlns="http://www.w3.org/2000/svg" xmlns:xlink="http://www.w3.org/1999/xlink" x="0px" y="0px" viewBox="0 0 32 32" enable-background="new 0 0 32 32" xml:space="preserve" class="svg-icon-sprite">
		<g id="XMLID_1_">
			<g id="Group_1026_1_" transform="translate(-2404 2367)">
				<path id="Union_30_1_" fill="#FFFFFF" d="M2406.8-2353.8c0-7.3,5.9-13.2,13.2-13.2h0c7.3,0,13.2,5.9,13.2,13.2v0
					c0,10-13.2,18.8-13.2,18.8S2406.8-2343.7,2406.8-2353.8z"/>
				<path id="Union_27_1_" fill="#E37A44" d="M2406.8-2353.8c0-7.3,5.9-13.2,13.2-13.2h0c7.3,0,13.2,5.9,13.2,13.2v0
					c0,10-13.2,18.8-13.2,18.8S2406.8-2343.7,2406.8-2353.8z M2409.7-2353.8c0,5.7,4.6,10.3,10.3,10.3c0,0,0,0,0,0
					c5.7,0,10.3-4.6,10.3-10.3c0-5.7-4.6-10.3-10.3-10.3C2414.3-2364.1,2409.7-2359.5,2409.7-2353.8
					C2409.7-2353.8,2409.7-2353.8,2409.7-2353.8z M2418.6-2348.9v-3.1h-3.1v-3.1h3.1v-3.1h3.1v3.1h3.1v3.1h-3.1v3.1H2418.6z"/>
			</g>
		</g>
	</svg>
	<svg version="1.1" id="svg-restaurants-pin" xmlns="http://www.w3.org/2000/svg" xmlns:xlink="http://www.w3.org/1999/xlink" x="0px" y="0px" viewBox="0 0 32 32" enable-background="new 0 0 32 32" xml:space="preserve" class="svg-icon-sprite">
		<g id="XMLID_1_">
			<path id="Path_642_1_" fill="#FFFFFF" d="M16,0C8.7,0,2.8,5.9,2.8,13.2l0,0C2.8,23.3,16,32,16,32s13.2-8.7,13.2-18.8
				C29.2,5.9,23.3,0,16,0C16,0,16,0,16,0z"/>
			<g id="Group_1027_1_" transform="translate(-2369 2349)">
				<path id="Union_29_1_" fill="#29AD6A" d="M2371.8-2335.8c0-7.3,5.9-13.2,13.2-13.2h0c7.3,0,13.2,5.9,13.2,13.2v0
					c0,10-13.2,18.8-13.2,18.8S2371.8-2325.7,2371.8-2335.8z M2374.7-2335.8c0,5.7,4.6,10.3,10.3,10.3c0,0,0,0,0,0
					c5.7,0,10.3-4.6,10.3-10.3c0-5.7-4.6-10.3-10.3-10.3C2379.3-2346.1,2374.7-2341.5,2374.7-2335.8
					C2374.7-2335.8,2374.7-2335.8,2374.7-2335.8z M2387-2330.1c-0.2-0.2-0.3-0.5-0.3-0.8l0.4-4.9c-0.8-0.6-1.3-1.7-1.2-2.7
					c0-1.6,0.8-2.9,1.8-2.9c1,0,1.8,1.3,1.8,2.9c0.1,1.1-0.4,2.1-1.2,2.7l0.4,4.9c0,0.3-0.1,0.6-0.3,0.8c-0.2,0.2-0.5,0.3-0.7,0.3
					C2387.4-2329.8,2387.2-2329.9,2387-2330.1L2387-2330.1z M2381.9-2330.1c-0.2-0.2-0.3-0.5-0.3-0.8l0.4-4.7h-0.1
					c-0.6,0-1.1-0.5-1.1-1.1l0,0v-4.3c0-0.2,0.2-0.4,0.4-0.4c0,0,0,0,0,0c0.2,0,0.4,0.2,0.4,0.4v2.5h0.7v-2.5c0-0.2,0.2-0.4,0.4-0.4
					c0,0,0,0,0,0c0.2,0,0.4,0.2,0.4,0.4c0,0,0,0,0,0v2.5h0.7v-2.5c0-0.2,0.2-0.4,0.4-0.4c0,0,0,0,0,0c0.2,0,0.4,0.2,0.4,0.4
					c0,0,0,0,0,0v4.3c0,0.6-0.5,1.1-1.1,1.1l0,0h-0.1l0.2,2.9l0.2,1.8c0,0.3-0.1,0.6-0.3,0.8c-0.2,0.2-0.4,0.3-0.7,0.3
					C2382.4-2329.8,2382.1-2329.9,2381.9-2330.1L2381.9-2330.1z"/>
			</g>
		</g>
	</svg>
	<svg version="1.1" id="svg-school-pin" xmlns="http://www.w3.org/2000/svg" xmlns:xlink="http://www.w3.org/1999/xlink" x="0px" y="0px" viewBox="0 0 32 32" enable-background="new 0 0 32 32" xml:space="preserve" class="svg-icon-sprite">
		<g id="XMLID_1_">
			<path id="Path_641_1_" fill="#FFFFFF" d="M16,0C8.7,0,2.8,5.9,2.8,13.2l0,0C2.8,23.3,16,32,16,32s13.2-8.7,13.2-18.8
				C29.2,5.9,23.3,0,16,0C16,0,16,0,16,0z"/>
			<g id="np_school_368080_000000_1_" transform="translate(2178 2252.802)">
				<path id="Union_28_1_" fill="#ECBA23" d="M-2175.2-2239.6c0-7.3,5.9-13.2,13.2-13.2h0c7.3,0,13.2,5.9,13.2,13.2v0
					c0,10-13.2,18.8-13.2,18.8S-2175.2-2229.5-2175.2-2239.6z M-2172.3-2239.6c0,5.7,4.6,10.3,10.3,10.3s10.3-4.6,10.3-10.3
					s-4.6-10.3-10.3-10.3S-2172.3-2245.3-2172.3-2239.6z M-2165.4-2236.1v-2.7l3.7,1.5l3.7-1.5v2.7c0,0.7-1.6,1.2-3.7,1.2
					C-2163.8-2234.9-2165.4-2235.5-2165.4-2236.1L-2165.4-2236.1z M-2167.9-2240.5l6.1-2.3l6.1,2.5l-6.1,2.5L-2167.9-2240.5z"/>
			</g>
		</g>
	</svg>
	<svg version="1.1" id="svg-parks-pin" xmlns="http://www.w3.org/2000/svg" xmlns:xlink="http://www.w3.org/1999/xlink" x="0px" y="0px" viewBox="0 0 32 32" enable-background="new 0 0 32 32" xml:space="preserve" class="svg-icon-sprite">
		<g id="XMLID_1_">
			<g id="Group_1052_1_" transform="translate(6213 1828)">
				<g id="Group_1050_1_" transform="translate(-4451 142)">
					<path id="Path_158_1_" fill="#7E54A2" d="M-1746-1970c-7.3,0-13.2,5.9-13.2,13.2l0,0c0,10,13.2,18.8,13.2,18.8
						s13.2-8.7,13.2-18.8C-1732.8-1964.1-1738.7-1970-1746-1970C-1746-1970-1746-1970-1746-1970z M-1746-1946.5
						c-5.7,0-10.3-4.6-10.3-10.3c0-5.7,4.6-10.3,10.3-10.3c5.7,0,10.3,4.6,10.3,10.3C-1735.7-1951.1-1740.3-1946.5-1746-1946.5
						C-1746-1946.5-1746-1946.5-1746-1946.5z"/>
					<ellipse id="Ellipse_2_1_" fill="#FFFFFF" cx="-1745.8" cy="-1956.6" rx="10.2" ry="10.2"/>
				</g>
				<path id="np_parks_781456_000000_1_" fill="#7E54A2" d="M-6190.9-1811.7h-1.6v-1.6c0.1,0,0.3,0.1,0.5,0.1c1,0,1.9-0.8,1.9-1.9
					c0-0.7-0.4-1.3-1-1.7c-0.2-1-1.3-1.6-2.3-1.4c-0.2,0.1-0.4,0.2-0.6,0.3c0,0.2,0.1,0.5,0.1,0.7c0,1.2-0.6,2.2-1.6,2.8
					c0.3,0.7,1,1.1,1.7,1.1c0.2,0,0.3,0,0.5-0.1v1.6h-4.6c0,0,0-0.1,0-0.1v-2.6c1.5,0.4,3.1-0.5,3.4-2.1c0.1-0.2,0.1-0.5,0.1-0.7
					c0-1.1-0.6-2-1.5-2.5c-0.3-1.5-1.8-2.5-3.4-2.2c-1.1,0.2-2,1.1-2.2,2.2c-0.9,0.5-1.4,1.4-1.4,2.4c0,1.6,1.3,2.8,2.8,2.8
					c0.3,0,0.5,0,0.7-0.1v2.6c0,0,0,0.1,0,0.1h-2.8c-0.3,0-0.6,0.3-0.6,0.6c0,0.3,0.3,0.6,0.6,0.6l0,0h11.3c0.3,0,0.6-0.3,0.6-0.6
					C-6190.3-1811.5-6190.6-1811.7-6190.9-1811.7L-6190.9-1811.7z"/>
			</g>
		</g>
	</svg>
	<svg version="1.1" id="svg-mosques-pin" xmlns="http://www.w3.org/2000/svg" xmlns:xlink="http://www.w3.org/1999/xlink" x="0px" y="0px" viewBox="0 0 32 32" enable-background="new 0 0 32 32" xml:space="preserve" class="svg-icon-sprite">
		<g id="XMLID_1_">
			<g id="Group_1053_1_" transform="translate(6213 1828)">
				<g id="Group_1051_1_" transform="translate(-4421 142)">
					<path id="Path_158_1_" fill="#2A99AD" d="M-1776-1970c-7.3,0-13.2,5.9-13.2,13.2l0,0c0,10,13.2,18.8,13.2,18.8
						s13.2-8.7,13.2-18.8C-1762.8-1964.1-1768.7-1970-1776-1970C-1776-1970-1776-1970-1776-1970z M-1776-1946.5
						c-5.7,0-10.3-4.6-10.3-10.3c0-5.7,4.6-10.3,10.3-10.3c5.7,0,10.3,4.6,10.3,10.3C-1765.7-1951.1-1770.3-1946.5-1776-1946.5
						C-1776-1946.5-1776-1946.5-1776-1946.5z"/>
					<ellipse id="Ellipse_2_1_" fill="#FFFFFF" cx="-1775.8" cy="-1956.6" rx="10.2" ry="10.2"/>
				</g>
				<path id="np_mosque_1394987_000000_1_" fill="#2A99AD" d="M-6197.2-1821.3C-6197.2-1821.3-6197.3-1821.2-6197.2-1821.3l-0.5,0.8
					c-0.3,0.4-0.6,0.7-1,0.9c-0.5,0.3-0.8,0.8-0.8,1.4c0,0.2,0.1,0.4,0.1,0.7l-0.8,0.5c0,0-0.1,0.1-0.1,0.1v6.4h-0.9v-7.6
					c0-0.3-0.2-0.6-0.5-0.7c-0.1-0.3-0.2-0.7-0.4-1c0-0.1-0.1-0.1-0.1-0.1c-0.1,0-0.1,0-0.1,0.1c-0.1,0.3-0.2,0.7-0.4,1
					c-0.3,0.1-0.4,0.4-0.5,0.7v8.9c0,0.1,0.1,0.1,0.1,0.1l0,0h1.6c0,0,0.1,0,0.1,0h7.9c0,0,0.1,0,0.1,0h1.6c0.1,0,0.1-0.1,0.1-0.1l0,0
					v-8.9c0-0.3-0.2-0.6-0.5-0.7c-0.1-0.3-0.2-0.7-0.4-1c0-0.1-0.1-0.1-0.2-0.1c0,0-0.1,0-0.1,0.1c-0.1,0.3-0.2,0.7-0.4,1
					c-0.3,0.1-0.4,0.4-0.5,0.7v7.6h-0.9v-6.4c0,0,0-0.1-0.1-0.1l-0.8-0.5c0.1-0.2,0.1-0.4,0.1-0.6c0-0.6-0.3-1.1-0.8-1.4
					c-0.4-0.2-0.8-0.5-1-0.9l-0.4-0.7C-6197.1-1821.2-6197.1-1821.3-6197.2-1821.3C-6197.2-1821.3-6197.2-1821.3-6197.2-1821.3
					L-6197.2-1821.3z M-6197.2-1814.1c0.6,0,1.2,0.5,1.2,1.1v2.5h-2.4v-2.5C-6198.3-1813.7-6197.8-1814.1-6197.2-1814.1z"/>
			</g>
		</g>
	</svg>

<svg version="1.1" id="svg-close-view" xmlns="http://www.w3.org/2000/svg" xmlns:xlink="http://www.w3.org/1999/xlink" x="0px" y="0px"
	 viewBox="0 0 32 32" style="enable-background:new 0 0 32 32;" xml:space="preserve" class="svg-icon-sprite">
<path id="np_close_1042910_000000" style="fill:#525252;stroke:#E3E3E3;stroke-width:2;" d="M21.7,15.9l8.2-8.7c1.5-1.8,1.3-4.5-0.3-6.1c-1.5-1.5-3.8-1.5-5.3,0L16,9.9
	L7.8,1.1C6.2-0.5,3.6-0.3,2.2,1.4c-1.4,1.6-1.4,4,0,5.6l8.2,8.7l-8.2,8.7c-1.5,1.7-1.5,4.4,0,6.1C2.9,31.6,3.9,32,5,32
	s2.1-0.4,2.8-1.3L16,22l8.2,8.7C24.9,31.6,26,32,27,32c1.1,0,2.1-0.4,2.8-1.3c1.5-1.7,1.5-4.4,0-6.1L21.7,15.9z"/>
</svg>
<svg version="1.1" id="svg-property-green-view" xmlns="http://www.w3.org/2000/svg" xmlns:xlink="http://www.w3.org/1999/xlink" x="0px" y="0px"
	 viewBox="0 0 32 32" style="enable-background:new 0 0 32 32;" xml:space="preserve" class="svg-icon-sprite">
<path id="Path_181" style="fill:#010101;stroke:#29B3A0;stroke-width:2;" d="M16,0v32"/>
<path id="Path_182" style="fill:#FFFFFF;stroke:#29B3A0;stroke-width:2;" d="M16,12.1c2.1-0.1,3.9,1.6,3.9,3.7c-0.1,2.1-1.8,3.8-3.9,3.7c-2.1,0.1-3.9-1.6-3.9-3.7
	C12.1,13.7,13.9,12,16,12.1z"/>
</svg>
<svg version="1.1" id="svg-property-pink-view" xmlns="http://www.w3.org/2000/svg" xmlns:xlink="http://www.w3.org/1999/xlink" x="0px" y="0px"
	 viewBox="0 0 32 32" style="enable-background:new 0 0 32 32;" xml:space="preserve" class="svg-icon-sprite">
<path id="Path_181" style="fill:#010101;stroke:#E35767;stroke-width:2;" d="M16,0v32"/>
<path id="Path_182" style="fill:#FFFFFF;stroke:#E35767;stroke-width:2;" d="M16,12.1c2.1-0.1,3.9,1.6,3.9,3.7c-0.1,2.1-1.8,3.8-3.9,3.7c-2.1,0.1-3.9-1.6-3.9-3.7
	C12.1,13.7,13.9,12,16,12.1z"/>
</svg>
<svg version="1.1" id="svg-placeholder-view" xmlns="http://www.w3.org/2000/svg" xmlns:xlink="http://www.w3.org/1999/xlink" x="0px" y="0px"
	 viewBox="0 0 32 32" style="enable-background:new 0 0 32 32;" xml:space="preserve" class="svg-icon-sprite">
<g id="np_elevator_499751_000000" transform="translate(132.5 916.5)">
	<path id="Path_109" fill="#515151" d="M-102.8-914.8H-130c-1.4,0-2.5,1.1-2.5,2.5v23.7c0,1.4,1.1,2.5,2.5,2.5h3.7c1.1,0,2-0.7,2.3-1.7
		h14.9c0.4,1,1.3,1.7,2.3,1.7h3.7c1.4,0,2.5-1.1,2.5-2.5v-23.7C-100.3-913.8-101.4-914.8-102.8-914.8z M-109.1-889.6h-6.5V-905
		c0-0.3-0.2-0.5-0.5-0.5s-0.5,0.2-0.5,0.5v15.4h-7v-17c0-0.5,0.4-0.8,0.8-0.8h13c0.2,0,0.4,0.1,0.6,0.2c0.2,0.2,0.2,0.4,0.2,0.6
		V-889.6z M-102-888.8c0,0.5-0.4,0.8-0.8,0.8h-3.7c-0.2,0-0.4-0.1-0.6-0.2c-0.2-0.2-0.2-0.4-0.2-0.6v-17.8c0-1.4-1.1-2.5-2.5-2.5
		h-13c-1.4,0-2.5,1.1-2.5,2.5v17.8c0,0.5-0.4,0.8-0.8,0.8h-3.7c-0.2,0-0.4-0.1-0.6-0.2c-0.2-0.2-0.2-0.4-0.2-0.6v-23.7
		c0-0.5,0.4-0.8,0.8-0.8h27.1c0.2,0,0.4,0.1,0.6,0.2c0.2,0.2,0.2,0.4,0.2,0.6v23.7H-102z"/>
	<path id="Path_110" fill="#515151" d="M-103.6-899.5l-1.1,1.1l-1.1-1.1c-0.2-0.2-0.5-0.2-0.7,0c-0.2,0.2-0.2,0.5,0,0.7l0,0l1.3,1.3
		c0.1,0.1,0.3,0.2,0.5,0.2c0.2,0,0.4-0.1,0.5-0.2l1.3-1.3c0.2-0.2,0.2-0.5,0-0.7C-103-899.7-103.4-899.7-103.6-899.5L-103.6-899.5z"
		/>
	<path id="Path_111" fill="#515151" d="M-105.2-897.5L-105.2-897.5z"/>
	<path id="Path_112" fill="#515151" d="M-102.8-901.8l-1.3-1.3c-0.3-0.3-0.7-0.3-1,0l-1.3,1.3c-0.2,0.2-0.2,0.5,0,0.7
		c0.2,0.2,0.5,0.2,0.7,0l1.1-1.1l1.1,1.1c0.2,0.2,0.5,0.2,0.7,0C-102.6-901.2-102.6-901.6-102.8-901.8L-102.8-901.8z"/>
	<path id="Path_113" fill="#515151" d="M-119.5-911.7h-0.8c-0.3,0-0.5,0.2-0.5,0.5c0,0.3,0.2,0.5,0.5,0.5h0.8c0.3,0,0.5-0.2,0.5-0.5
		S-119.2-911.7-119.5-911.7z"/>
	<path id="Path_114" fill="#515151" d="M-116.2-911.7h-0.8c-0.3,0-0.5,0.2-0.5,0.5c0,0.3,0.2,0.5,0.5,0.5h0.8c0.3,0,0.5-0.2,0.5-0.5
		S-115.9-911.7-116.2-911.7L-116.2-911.7z"/>
	<path id="Path_115" fill="#515151" d="M-112.9-911.7h-0.8c-0.3,0-0.5,0.2-0.5,0.5c0,0.3,0.2,0.5,0.5,0.5h0.8c0.3,0,0.5-0.2,0.5-0.5
		C-112.3-911.5-112.6-911.7-112.9-911.7L-112.9-911.7z"/>
</g>
</svg>
<svg version="1.1" id="svg-overview-view" xmlns="http://www.w3.org/2000/svg" xmlns:xlink="http://www.w3.org/1999/xlink" x="0px" y="0px"
	 viewBox="0 0 32 32" style="enable-background:new 0 0 32 32;" xml:space="preserve" class="svg-icon-sprite">
<g id="np_dot-matrix_145292_000000" transform="translate(35.957 352.371)">
	<path id="Path_153" fill="#94989A" d="M-27.9-348.4c0,2.2-1.8,4-4,4s-4-1.8-4-4s1.8-4,4-4S-27.9-350.6-27.9-348.4"/>
	<path id="Path_154" fill="#94989A" d="M-15.9-348.4c0,2.2-1.8,4-4,4s-4-1.8-4-4s1.8-4,4-4l0,0C-17.7-352.4-15.9-350.6-15.9-348.4"/>
	<path id="Path_155" fill="#94989A" d="M-4-348.4c0,2.2-1.8,4-4,4s-4-1.8-4-4s1.8-4,4-4l0,0C-5.8-352.4-4-350.6-4-348.4"/>
	<path id="Path_156" fill="#94989A" d="M-27.9-324.4c0,2.2-1.8,4-4,4s-4-1.8-4-4s1.8-4,4-4S-27.9-326.6-27.9-324.4L-27.9-324.4"/>
	<path id="Path_157" fill="#94989A" d="M-15.9-324.4c0,2.2-1.8,4-4,4s-4-1.8-4-4s1.8-4,4-4l0,0C-17.7-328.4-15.9-326.6-15.9-324.4
		L-15.9-324.4"/>
	<path id="Path_158" fill="#94989A" d="M-4-324.4c0,2.2-1.8,4-4,4s-4-1.8-4-4s1.8-4,4-4S-4-326.6-4-324.4L-4-324.4"/>
	<path id="Path_159" fill="#94989A" d="M-27.9-336.4c0,2.2-1.8,4-4,4s-4-1.8-4-4s1.8-4,4-4S-27.9-338.6-27.9-336.4L-27.9-336.4"/>
	<path id="Path_160" fill="#94989A" d="M-15.9-336.4c0,2.2-1.8,4-4,4s-4-1.8-4-4s1.8-4,4-4S-15.9-338.6-15.9-336.4L-15.9-336.4"/>
	<path id="Path_161" fill="#94989A" d="M-4-336.4c0,2.2-1.8,4-4,4s-4-1.8-4-4s1.8-4,4-4S-4-338.6-4-336.4L-4-336.4"/>
</g>
</svg>
<svg version="1.1" id="svg-overview-active" xmlns="http://www.w3.org/2000/svg" xmlns:xlink="http://www.w3.org/1999/xlink" x="0px" y="0px"
	 viewBox="0 0 32 32" style="enable-background:new 0 0 32 32;" xml:space="preserve" class="svg-icon-sprite">
<g id="np_dot-matrix_145292_000000" transform="translate(35.957 352.371)">
	<path id="Path_153" fill="#33A137" d="M-27.9-348.4c0,2.2-1.8,4-4,4s-4-1.8-4-4s1.8-4,4-4S-27.9-350.6-27.9-348.4"/>
	<path id="Path_154" fill="#33A137" d="M-15.9-348.4c0,2.2-1.8,4-4,4s-4-1.8-4-4s1.8-4,4-4l0,0C-17.7-352.4-15.9-350.6-15.9-348.4"/>
	<path id="Path_155" fill="#33A137" d="M-4-348.4c0,2.2-1.8,4-4,4s-4-1.8-4-4s1.8-4,4-4l0,0C-5.8-352.4-4-350.6-4-348.4"/>
	<path id="Path_156" fill="#33A137" d="M-27.9-324.4c0,2.2-1.8,4-4,4s-4-1.8-4-4s1.8-4,4-4S-27.9-326.6-27.9-324.4L-27.9-324.4"/>
	<path id="Path_157" fill="#33A137" d="M-15.9-324.4c0,2.2-1.8,4-4,4s-4-1.8-4-4s1.8-4,4-4l0,0C-17.7-328.4-15.9-326.6-15.9-324.4
		L-15.9-324.4"/>
	<path id="Path_158" fill="#33A137" d="M-4-324.4c0,2.2-1.8,4-4,4s-4-1.8-4-4s1.8-4,4-4S-4-326.6-4-324.4L-4-324.4"/>
	<path id="Path_159" fill="#33A137" d="M-27.9-336.4c0,2.2-1.8,4-4,4s-4-1.8-4-4s1.8-4,4-4S-27.9-338.6-27.9-336.4L-27.9-336.4"/>
	<path id="Path_160" fill="#33A137" d="M-15.9-336.4c0,2.2-1.8,4-4,4s-4-1.8-4-4s1.8-4,4-4S-15.9-338.6-15.9-336.4L-15.9-336.4"/>
	<path id="Path_161" fill="#33A137" d="M-4-336.4c0,2.2-1.8,4-4,4s-4-1.8-4-4s1.8-4,4-4S-4-338.6-4-336.4L-4-336.4"/>
</g>
</svg>
<svg version="1.1" id="svg-nearby-view" xmlns="http://www.w3.org/2000/svg" xmlns:xlink="http://www.w3.org/1999/xlink" x="0px" y="0px"
	 viewBox="0 0 32 32" style="enable-background:new 0 0 32 32;" xml:space="preserve" class="svg-icon-sprite">
<path id="np_location_1063529_000000" fill="#94989A" d="M16,26.6c0,0,9.4-6.8,9.4-17.3C25.4,4.2,21.2,0,16,0S6.6,4.2,6.6,9.4
	C6.6,19.8,16,26.6,16,26.6z M10.7,10.1c0-2.9,2.4-5.3,5.3-5.3s5.3,2.4,5.3,5.3s-2.4,5.3-5.3,5.3c0,0,0,0,0,0
	C13.1,15.4,10.7,13.1,10.7,10.1z M30.6,26.7c0,3.4-7.4,5.3-14.6,5.3c-7.3,0-14.6-1.8-14.6-5.3c0-2.4,3.8-4.1,8.6-4.8
	c0.3,0.5,0.7,1,1.1,1.4C6,24,2.9,25.5,2.9,26.7c0,1.6,5,3.7,13.1,3.7s13.1-2.1,13.1-3.7c0-1.2-3-2.8-8.2-3.4
	c0.4-0.5,0.7-0.9,1.1-1.4C26.8,22.6,30.6,24.2,30.6,26.7L30.6,26.7z"/>
</svg>
<svg version="1.1" id="svg-nearby-active" xmlns="http://www.w3.org/2000/svg" xmlns:xlink="http://www.w3.org/1999/xlink" x="0px" y="0px"
	 viewBox="0 0 32 32" style="enable-background:new 0 0 32 32;" xml:space="preserve" class="svg-icon-sprite">
<path id="np_location_1063529_000000" fill="#33A137" d="M16,26.6c0,0,9.4-6.8,9.4-17.3C25.4,4.2,21.2,0,16,0S6.6,4.2,6.6,9.4
	C6.6,19.8,16,26.6,16,26.6z M10.7,10.1c0-2.9,2.4-5.3,5.3-5.3s5.3,2.4,5.3,5.3s-2.4,5.3-5.3,5.3c0,0,0,0,0,0
	C13.1,15.4,10.7,13.1,10.7,10.1z M30.6,26.7c0,3.4-7.4,5.3-14.6,5.3c-7.3,0-14.6-1.8-14.6-5.3c0-2.4,3.8-4.1,8.6-4.8
	c0.3,0.5,0.7,1,1.1,1.4C6,24,2.9,25.5,2.9,26.7c0,1.6,5,3.7,13.1,3.7s13.1-2.1,13.1-3.7c0-1.2-3-2.8-8.2-3.4
	c0.4-0.5,0.7-0.9,1.1-1.4C26.8,22.6,30.6,24.2,30.6,26.7L30.6,26.7z"/>
</svg>
<svg version="1.1" id="svg-floorplans-view" xmlns="http://www.w3.org/2000/svg" xmlns:xlink="http://www.w3.org/1999/xlink" x="0px" y="0px"
	 viewBox="0 0 32 32" style="enable-background:new 0 0 32 32;" xml:space="preserve" class="svg-icon-sprite">
<path id="np_floorplan_679461_000000" fill="#94989A" d="M0,0v32h22.8V17H32V0H0z M1.9,30.1V17h18.9v13.2L1.9,30.1z M20.8,15.1h-6.8
	V9.4h16v5.6H20.8z M30.1,1.9v5.6H14.1V1.9H30.1z M12.2,9.4v5.6H1.9V1.9h10.3V9.4z"/>
</svg>
<svg version="1.1" id="svg-floorplans-active" xmlns="http://www.w3.org/2000/svg" xmlns:xlink="http://www.w3.org/1999/xlink" x="0px" y="0px"
	 viewBox="0 0 32 32" style="enable-background:new 0 0 32 32;" xml:space="preserve" class="svg-icon-sprite">
<path id="np_floorplan_679461_000000" fill="#33A137" d="M0,0v32h22.8V17H32V0H0z M1.9,30.1V17h18.9v13.2L1.9,30.1z M20.8,15.1h-6.8
	V9.4h16v5.6H20.8z M30.1,1.9v5.6H14.1V1.9H30.1z M12.2,9.4v5.6H1.9V1.9h10.3V9.4z"/>
</svg>
<svg version="1.1" id="svg-trends-view" xmlns="http://www.w3.org/2000/svg" xmlns:xlink="http://www.w3.org/1999/xlink" x="0px" y="0px"
	 viewBox="0 0 32 32" style="enable-background:new 0 0 32 32;" xml:space="preserve" class="svg-icon-sprite">
<path id="np_trending_1050654_000000" fill="#94989A" d="M32,6.7L21.8,7.8l3.6,3.6l-7,7l-6.7-6.6L0,23.4l2,2l9.8-9.7l6.7,6.6l9-9
	l3.4,3.4L32,6.7z"/>
</svg>
<svg version="1.1" id="svg-trends-active" xmlns="http://www.w3.org/2000/svg" xmlns:xlink="http://www.w3.org/1999/xlink" x="0px" y="0px"
	 viewBox="0 0 32 32" style="enable-background:new 0 0 32 32;" xml:space="preserve" class="svg-icon-sprite">
<path id="np_trending_1050654_000000" fill="#33A137" d="M32,6.7L21.8,7.8l3.6,3.6l-7,7l-6.7-6.6L0,23.4l2,2l9.8-9.7l6.7,6.6l9-9
	l3.4,3.4L32,6.7z"/>
</svg>
<svg version="1.1" id="svg-finance-view" xmlns="http://www.w3.org/2000/svg" xmlns:xlink="http://www.w3.org/1999/xlink" x="0px" y="0px"
	 viewBox="0 0 32 32" style="enable-background:new 0 0 32 32;" xml:space="preserve" class="svg-icon-sprite">
<path id="np_coins_1008905_000000" fill="#94989A" d="M28.4,14v4.1c2.3,0.9,3.7,2.3,3.7,3.8v4.7c0,0.4-0.1,0.8-0.3,1.1
	c-1,1.6-2.6,2.7-4.5,3.1c-6,1.6-12.3,1.6-18.3,0.1c-2-0.4-3.7-1.5-4.8-3.1c-0.3-0.4-0.4-1-0.4-1.5v-4.2c-1.4-0.5-2.5-1.4-3.3-2.5
	c-0.3-0.4-0.4-1-0.4-1.5v-4.5c0-1.5,1.4-2.8,3.6-3.8V5.5c0-1.7,1.8-3.2,4.5-4.1c6.3-1.8,12.9-1.8,19.2,0c2.8,1,4.5,2.4,4.5,4.1v4.7
	c0,0.4-0.1,0.8-0.3,1.1C30.9,12.5,29.7,13.5,28.4,14L28.4,14z M8.8,9.8v2.5c0.3,0.1,0.5,0.2,0.7,0.2c0.5,0.2,1.2,0.3,1.9,0.4v-2.6
	C10.4,10.3,9.6,10.1,8.8,9.8L8.8,9.8z M7.4,11.8V9.4C6.9,9.1,6.2,8.9,5.7,8.6v1.6C5.8,10.8,6.6,11.3,7.4,11.8L7.4,11.8z M28.2,9.3
	v2.4c0.5-0.3,0.9-0.7,1.4-1.1c0.1-0.1,0.2-0.3,0.2-0.5V8.6C29.2,8.9,28.7,9.1,28.2,9.3z M26.8,12.3V9.8c-0.8,0.3-1.7,0.5-2.5,0.6V13
	c0.7-0.1,1.5-0.3,2.1-0.5C26.6,12.4,26.7,12.4,26.8,12.3L26.8,12.3z M22.9,13.2v-2.6c-0.8,0.1-1.7,0.2-2.5,0.3v2.6
	C21.2,13.4,22.2,13.4,22.9,13.2L22.9,13.2z M19,13.6V11c-2.2,0.1-4.3,0-6.4-0.3v2.6c0.8,0.1,1.7,0.2,2.5,0.3V11h1.4v2.6
	C17.4,13.6,18.2,13.6,19,13.6L19,13.6z M5.3,18v2.5c0.2,0.1,0.4,0.1,0.5,0.2c0.7,0.2,1.4,0.3,2.1,0.5v-2.6C7,18.4,6.1,18.2,5.3,18
	L5.3,18z M4,20v-2.4c-0.6-0.3-1.3-0.6-1.9-0.9v1.6C2.3,18.9,3.1,19.5,4,20L4,20z M24.8,17.4v2.4c0.4-0.3,0.8-0.6,1.2-1
	c0.1-0.1,0.2-0.3,0.2-0.5v-1.6C25.8,16.9,25.2,17.2,24.8,17.4z M23.4,20.4v-2.5c-0.8,0.3-1.7,0.5-2.5,0.6v2.6c0.6-0.1,1.3-0.3,2-0.5
	C23,20.5,23.2,20.5,23.4,20.4L23.4,20.4z M19.9,21.3h-0.3v-2.5c-0.8,0.1-1.7,0.2-2.5,0.3v2.6C18,21.5,18.9,21.4,19.9,21.3L19.9,21.3
	z M15.7,21.7v-2.6c-0.8,0-1.7,0-2.5,0v2.6C13.9,21.7,14.8,21.7,15.7,21.7z M11.8,21.6V19c-0.8-0.1-1.7-0.1-2.5-0.3v2.6
	C10,21.5,10.9,21.6,11.8,21.6L11.8,21.6z M8.8,26.2v2.5c0.3,0.1,0.5,0.2,0.7,0.3c0.5,0.2,1.2,0.3,1.8,0.4v-2.6
	C10.4,26.6,9.6,26.4,8.8,26.2L8.8,26.2z M7.4,28.1v-2.4c-0.5-0.2-1-0.5-1.6-0.8v1.6C5.9,27.1,6.6,27.7,7.4,28.1L7.4,28.1z
	 M28.2,25.7v2.4c0.5-0.3,1-0.7,1.5-1.2c0.1-0.1,0.2-0.3,0.2-0.5v-1.6C29.3,25.2,28.8,25.5,28.2,25.7z M26.8,28.7v-2.5
	c-0.8,0.3-1.7,0.5-2.5,0.6v2.6c0.7-0.1,1.5-0.3,2.2-0.5C26.6,28.8,26.7,28.7,26.8,28.7L26.8,28.7z M22.9,29.6V27
	c-0.8,0.1-1.7,0.2-2.5,0.3v2.6C21.2,29.8,22.2,29.7,22.9,29.6L22.9,29.6z M19,29.9v-2.6c-0.8,0-1.7,0-2.5,0v2.6
	C17.4,30,18.2,30,19,29.9L19,29.9z M15.2,27.3h0.3c-0.9-0.1-2-0.2-2.9-0.3v2.6c0.8,0.1,1.7,0.2,2.5,0.3L15.2,27.3z M4.2,11.9
	c-1.3,0.6-2.1,1.2-2.1,1.8c0,0.7,1.2,1.5,3.1,2.2c5.8,1.7,12,1.7,17.7,0c0.6-0.2,1.3-0.5,1.9-0.8c-5.4,1-10.9,0.9-16.2-0.4
	C7.1,14.1,5.4,13.2,4.2,11.9L4.2,11.9z M26.6,3.3c-5.8-1.7-12-1.7-17.7,0C7,4,5.7,4.7,5.7,5.5S6.9,7,8.9,7.7c5.8,1.7,12,1.7,17.7,0
	c1.9-0.7,3.1-1.4,3.1-2.2S28.6,4,26.6,3.3z M27.6,20c-1,1.2-2.5,2.1-4.1,2.5c-5.5,1.4-11.2,1.6-16.8,0.5c0.6,0.4,1.4,0.7,2.2,1
	c5.8,1.7,12,1.7,17.7,0c1.9-0.7,3.1-1.4,3.1-2.2C29.8,21.2,29,20.6,27.6,20L27.6,20z"/>
</svg>
<svg version="1.1" id="svg-finance-active" xmlns="http://www.w3.org/2000/svg" xmlns:xlink="http://www.w3.org/1999/xlink" x="0px" y="0px"
	 viewBox="0 0 32 32" style="enable-background:new 0 0 32 32;" xml:space="preserve" class="svg-icon-sprite">
<path id="np_coins_1008905_000000" fill="#33A137" d="M28.4,14v4.1c2.3,0.9,3.7,2.3,3.7,3.8v4.7c0,0.4-0.1,0.8-0.3,1.1
	c-1,1.6-2.6,2.7-4.5,3.1c-6,1.6-12.3,1.6-18.3,0.1c-2-0.4-3.7-1.5-4.8-3.1c-0.3-0.4-0.4-1-0.4-1.5v-4.2c-1.4-0.5-2.5-1.4-3.3-2.5
	c-0.3-0.4-0.4-1-0.4-1.5v-4.5c0-1.5,1.4-2.8,3.6-3.8V5.5c0-1.7,1.8-3.2,4.5-4.1c6.3-1.8,12.9-1.8,19.2,0c2.8,1,4.5,2.4,4.5,4.1v4.7
	c0,0.4-0.1,0.8-0.3,1.1C30.9,12.5,29.7,13.5,28.4,14L28.4,14z M8.8,9.8v2.5c0.3,0.1,0.5,0.2,0.7,0.2c0.5,0.2,1.2,0.3,1.9,0.4v-2.6
	C10.4,10.3,9.6,10.1,8.8,9.8L8.8,9.8z M7.4,11.8V9.4C6.9,9.1,6.2,8.9,5.7,8.6v1.6C5.8,10.8,6.6,11.3,7.4,11.8L7.4,11.8z M28.2,9.3
	v2.4c0.5-0.3,0.9-0.7,1.4-1.1c0.1-0.1,0.2-0.3,0.2-0.5V8.6C29.2,8.9,28.7,9.1,28.2,9.3z M26.8,12.3V9.8c-0.8,0.3-1.7,0.5-2.5,0.6V13
	c0.7-0.1,1.5-0.3,2.1-0.5C26.6,12.4,26.7,12.4,26.8,12.3L26.8,12.3z M22.9,13.2v-2.6c-0.8,0.1-1.7,0.2-2.5,0.3v2.6
	C21.2,13.4,22.2,13.4,22.9,13.2L22.9,13.2z M19,13.6V11c-2.2,0.1-4.3,0-6.4-0.3v2.6c0.8,0.1,1.7,0.2,2.5,0.3V11h1.4v2.6
	C17.4,13.6,18.2,13.6,19,13.6L19,13.6z M5.3,18v2.5c0.2,0.1,0.4,0.1,0.5,0.2c0.7,0.2,1.4,0.3,2.1,0.5v-2.6C7,18.4,6.1,18.2,5.3,18
	L5.3,18z M4,20v-2.4c-0.6-0.3-1.3-0.6-1.9-0.9v1.6C2.3,18.9,3.1,19.5,4,20L4,20z M24.8,17.4v2.4c0.4-0.3,0.8-0.6,1.2-1
	c0.1-0.1,0.2-0.3,0.2-0.5v-1.6C25.8,16.9,25.2,17.2,24.8,17.4z M23.4,20.4v-2.5c-0.8,0.3-1.7,0.5-2.5,0.6v2.6c0.6-0.1,1.3-0.3,2-0.5
	C23,20.5,23.2,20.5,23.4,20.4L23.4,20.4z M19.9,21.3h-0.3v-2.5c-0.8,0.1-1.7,0.2-2.5,0.3v2.6C18,21.5,18.9,21.4,19.9,21.3L19.9,21.3
	z M15.7,21.7v-2.6c-0.8,0-1.7,0-2.5,0v2.6C13.9,21.7,14.8,21.7,15.7,21.7z M11.8,21.6V19c-0.8-0.1-1.7-0.1-2.5-0.3v2.6
	C10,21.5,10.9,21.6,11.8,21.6L11.8,21.6z M8.8,26.2v2.5c0.3,0.1,0.5,0.2,0.7,0.3c0.5,0.2,1.2,0.3,1.8,0.4v-2.6
	C10.4,26.6,9.6,26.4,8.8,26.2L8.8,26.2z M7.4,28.1v-2.4c-0.5-0.2-1-0.5-1.6-0.8v1.6C5.9,27.1,6.6,27.7,7.4,28.1L7.4,28.1z
	 M28.2,25.7v2.4c0.5-0.3,1-0.7,1.5-1.2c0.1-0.1,0.2-0.3,0.2-0.5v-1.6C29.3,25.2,28.8,25.5,28.2,25.7z M26.8,28.7v-2.5
	c-0.8,0.3-1.7,0.5-2.5,0.6v2.6c0.7-0.1,1.5-0.3,2.2-0.5C26.6,28.8,26.7,28.7,26.8,28.7L26.8,28.7z M22.9,29.6V27
	c-0.8,0.1-1.7,0.2-2.5,0.3v2.6C21.2,29.8,22.2,29.7,22.9,29.6L22.9,29.6z M19,29.9v-2.6c-0.8,0-1.7,0-2.5,0v2.6
	C17.4,30,18.2,30,19,29.9L19,29.9z M15.2,27.3h0.3c-0.9-0.1-2-0.2-2.9-0.3v2.6c0.8,0.1,1.7,0.2,2.5,0.3L15.2,27.3z M4.2,11.9
	c-1.3,0.6-2.1,1.2-2.1,1.8c0,0.7,1.2,1.5,3.1,2.2c5.8,1.7,12,1.7,17.7,0c0.6-0.2,1.3-0.5,1.9-0.8c-5.4,1-10.9,0.9-16.2-0.4
	C7.1,14.1,5.4,13.2,4.2,11.9L4.2,11.9z M26.6,3.3c-5.8-1.7-12-1.7-17.7,0C7,4,5.7,4.7,5.7,5.5S6.9,7,8.9,7.7c5.8,1.7,12,1.7,17.7,0
	c1.9-0.7,3.1-1.4,3.1-2.2S28.6,4,26.6,3.3z M27.6,20c-1,1.2-2.5,2.1-4.1,2.5c-5.5,1.4-11.2,1.6-16.8,0.5c0.6,0.4,1.4,0.7,2.2,1
	c5.8,1.7,12,1.7,17.7,0c1.9-0.7,3.1-1.4,3.1-2.2C29.8,21.2,29,20.6,27.6,20L27.6,20z"/>
</svg>
<svg version="1.1" id="svg-amenities-view" xmlns="http://www.w3.org/2000/svg" xmlns:xlink="http://www.w3.org/1999/xlink" x="0px" y="0px" viewBox="0 0 32 32" enable-background="new 0 0 32 32" xml:space="preserve" class="svg-icon-sprite">
<g id="XMLID_1_">
	<path id="Union_13_1_" fill="#94989A" d="M22,28.1c-1-0.7-2.4-0.7-3.4,0c-1.6,1.2-3.7,1.2-5.3,0c-1-0.7-2.4-0.7-3.4,0
		c-1.6,1.2-3.7,1.2-5.3,0c-1-0.7-2.4-0.7-3.4,0c-0.4,0.3-0.8,0.2-1.1-0.2C-0.1,27.5,0,27,0.3,26.8c1.6-1.2,3.7-1.2,5.3,0
		c1,0.7,2.4,0.7,3.4,0c1.6-1.2,3.7-1.2,5.3,0c1,0.7,2.4,0.7,3.4,0c1.6-1.2,3.7-1.2,5.3,0c1,0.7,2.4,0.7,3.4,0c1.6-1.2,3.7-1.2,5.3,0
		c0.4,0.3,0.4,0.8,0.2,1.1c-0.3,0.4-0.8,0.4-1.1,0.2c-1-0.7-2.4-0.7-3.4,0C25.7,29.2,23.6,29.2,22,28.1L22,28.1z M22,24.8
		c-1-0.7-2.4-0.7-3.4,0c-1.6,1.2-3.7,1.2-5.3,0c-1-0.7-2.4-0.7-3.4,0c-1.6,1.2-3.7,1.2-5.3,0c-1-0.7-2.4-0.7-3.4,0
		c-0.4,0.3-0.8,0.2-1.1-0.2c-0.3-0.4-0.2-0.8,0.2-1.1c1.6-1.2,3.7-1.2,5.3,0c1,0.7,2.4,0.7,3.4,0c1.6-1.2,3.7-1.2,5.3,0
		c1,0.7,2.4,0.7,3.4,0c1.6-1.2,3.7-1.2,5.3,0c1,0.7,2.4,0.7,3.4,0c1.6-1.2,3.7-1.2,5.3,0c0.4,0.3,0.4,0.8,0.2,1.1
		c-0.3,0.4-0.8,0.4-1.1,0.2l0,0c-1-0.7-2.4-0.7-3.4,0C25.7,26,23.6,26,22,24.8L22,24.8z M24,22.2c-0.2-0.2-0.4-0.3-0.7-0.4v-1.4
		h-8.1v1.8c-0.5-0.4-1-0.6-1.6-0.8V7.2c0-0.3-0.1-0.7-0.2-1c-0.1-0.3-0.3-0.6-0.5-0.8c-0.2-0.2-0.5-0.4-0.8-0.5
		c-0.6-0.3-1.3-0.3-1.9,0C9.9,5,9.6,5.2,9.4,5.4C9.1,5.7,9,5.9,8.8,6.2c-0.1,0.3-0.2,0.6-0.2,1C8.6,7.6,8.3,8,7.9,8
		C7.4,8,7.1,7.7,7.1,7.2c0,0,0,0,0,0c0-2.3,1.8-4.1,4-4.1s4.1,1.8,4.1,4c0,0,0,0.1,0,0.1v3.2h8V7.2c0-0.3-0.1-0.7-0.2-1
		c-0.1-0.3-0.3-0.6-0.5-0.8C22.3,5.2,22,5,21.7,4.9c-0.6-0.3-1.3-0.3-1.9,0C19.5,5,19.2,5.2,19,5.4c-0.2,0.2-0.4,0.5-0.5,0.8
		c-0.1,0.3-0.2,0.6-0.2,1c0,0.4-0.4,0.8-0.8,0.8c-0.4,0-0.8-0.3-0.8-0.8c0,0,0,0,0,0c0-2.3,1.8-4.1,4-4.1s4.1,1.8,4.1,4
		c0,0,0,0.1,0,0.1v15.2c-0.1,0-0.2,0-0.2,0C24.4,22.4,24.2,22.3,24,22.2z M15.2,18.8h8.1v-2.6h-8.1L15.2,18.8z M15.2,14.6h8.1V12
		h-8.1L15.2,14.6z M26.7,20.3L26.7,20.3l-0.1-1.6h4.6c0.4,0,0.8,0.4,0.8,0.8c0,0.4-0.4,0.8-0.8,0.8c0,0,0,0,0,0L26.7,20.3z
		 M11.9,20.3H1.2c-0.4,0-0.8-0.4-0.8-0.8c0-0.4,0.4-0.8,0.8-0.8H12L11.9,20.3L11.9,20.3z"/>
</g>
</svg>
<svg version="1.1" id="svg-amenities-active" xmlns="http://www.w3.org/2000/svg" xmlns:xlink="http://www.w3.org/1999/xlink" x="0px" y="0px" viewBox="0 0 32 32" enable-background="new 0 0 32 32" xml:space="preserve" class="svg-icon-sprite">
<g id="XMLID_1_">
	<path id="Union_13_1_" fill="#33A137" d="M22,28.1c-1-0.7-2.4-0.7-3.4,0c-1.6,1.2-3.7,1.2-5.3,0c-1-0.7-2.4-0.7-3.4,0
		c-1.6,1.2-3.7,1.2-5.3,0c-1-0.7-2.4-0.7-3.4,0c-0.4,0.3-0.8,0.2-1.1-0.2C-0.1,27.5,0,27,0.3,26.8c1.6-1.2,3.7-1.2,5.3,0
		c1,0.7,2.4,0.7,3.4,0c1.6-1.2,3.7-1.2,5.3,0c1,0.7,2.4,0.7,3.4,0c1.6-1.2,3.7-1.2,5.3,0c1,0.7,2.4,0.7,3.4,0c1.6-1.2,3.7-1.2,5.3,0
		c0.4,0.3,0.4,0.8,0.2,1.1c-0.3,0.4-0.8,0.4-1.1,0.2c-1-0.7-2.4-0.7-3.4,0C25.7,29.2,23.6,29.2,22,28.1L22,28.1z M22,24.8
		c-1-0.7-2.4-0.7-3.4,0c-1.6,1.2-3.7,1.2-5.3,0c-1-0.7-2.4-0.7-3.4,0c-1.6,1.2-3.7,1.2-5.3,0c-1-0.7-2.4-0.7-3.4,0
		c-0.4,0.3-0.8,0.2-1.1-0.2c-0.3-0.4-0.2-0.8,0.2-1.1c1.6-1.2,3.7-1.2,5.3,0c1,0.7,2.4,0.7,3.4,0c1.6-1.2,3.7-1.2,5.3,0
		c1,0.7,2.4,0.7,3.4,0c1.6-1.2,3.7-1.2,5.3,0c1,0.7,2.4,0.7,3.4,0c1.6-1.2,3.7-1.2,5.3,0c0.4,0.3,0.4,0.8,0.2,1.1
		c-0.3,0.4-0.8,0.4-1.1,0.2l0,0c-1-0.7-2.4-0.7-3.4,0C25.7,26,23.6,26,22,24.8L22,24.8z M24,22.2c-0.2-0.2-0.4-0.3-0.7-0.4v-1.4
		h-8.1v1.8c-0.5-0.4-1-0.6-1.6-0.8V7.2c0-0.3-0.1-0.7-0.2-1c-0.1-0.3-0.3-0.6-0.5-0.8c-0.2-0.2-0.5-0.4-0.8-0.5
		c-0.6-0.3-1.3-0.3-1.9,0C9.9,5,9.6,5.2,9.4,5.4C9.1,5.7,9,5.9,8.8,6.2c-0.1,0.3-0.2,0.6-0.2,1C8.6,7.6,8.3,8,7.9,8
		C7.4,8,7.1,7.7,7.1,7.2c0,0,0,0,0,0c0-2.3,1.8-4.1,4-4.1s4.1,1.8,4.1,4c0,0,0,0.1,0,0.1v3.2h8V7.2c0-0.3-0.1-0.7-0.2-1
		c-0.1-0.3-0.3-0.6-0.5-0.8C22.3,5.2,22,5,21.7,4.9c-0.6-0.3-1.3-0.3-1.9,0C19.5,5,19.2,5.2,19,5.4c-0.2,0.2-0.4,0.5-0.5,0.8
		c-0.1,0.3-0.2,0.6-0.2,1c0,0.4-0.4,0.8-0.8,0.8c-0.4,0-0.8-0.3-0.8-0.8c0,0,0,0,0,0c0-2.3,1.8-4.1,4-4.1s4.1,1.8,4.1,4
		c0,0,0,0.1,0,0.1v15.2c-0.1,0-0.2,0-0.2,0C24.4,22.4,24.2,22.3,24,22.2z M15.2,18.8h8.1v-2.6h-8.1L15.2,18.8z M15.2,14.6h8.1V12
		h-8.1L15.2,14.6z M26.7,20.3L26.7,20.3l-0.1-1.6h4.6c0.4,0,0.8,0.4,0.8,0.8c0,0.4-0.4,0.8-0.8,0.8c0,0,0,0,0,0L26.7,20.3z
		 M11.9,20.3H1.2c-0.4,0-0.8-0.4-0.8-0.8c0-0.4,0.4-0.8,0.8-0.8H12L11.9,20.3L11.9,20.3z"/>
</g>
</svg>
<svg version="1.1" id="svg-index-view" xmlns="http://www.w3.org/2000/svg" xmlns:xlink="http://www.w3.org/1999/xlink" x="0px" y="0px" viewBox="0 0 32 32" enable-background="new 0 0 32 32" xml:space="preserve" class="svg-icon-sprite">
<g id="XMLID_1_">
	<path id="np_chart_739926_000000_1_" fill="#94989A" d="M26.5,3.8c-0.7,0.1-1.2,0.6-1.3,1.3v21.9c0,0.7,0.6,1.2,1.3,1.3h4.2
		c0.7,0,1.2-0.6,1.3-1.3V5.1c0-0.7-0.6-1.2-1.3-1.3H26.5z M27.8,6.3h1.7v19.4h-1.7V6.3z M9.7,7.2C9,7.2,8.5,7.7,8.4,8.4v18.5
		c0,0.7,0.6,1.2,1.3,1.3h4.2c0.7,0,1.2-0.6,1.3-1.3V8.4c0-0.7-0.6-1.2-1.3-1.3L9.7,7.2z M10.9,9.7h1.7v16h-1.7L10.9,9.7z M18.1,10.5
		c-0.7,0.1-1.2,0.6-1.3,1.3v15.2c0,0.7,0.6,1.2,1.3,1.3h4.2c0.7,0,1.2-0.6,1.3-1.3V11.8c0-0.7-0.6-1.2-1.3-1.3L18.1,10.5z
		 M19.4,13.1h1.7v12.6h-1.7L19.4,13.1z M1.3,13.9C0.6,14,0.1,14.5,0,15.2v11.8c0,0.7,0.6,1.2,1.3,1.3h4.2c0.7,0,1.2-0.6,1.3-1.3
		V15.2c0-0.7-0.6-1.2-1.3-1.3L1.3,13.9z M2.5,16.4h1.7v9.3H2.5L2.5,16.4z"/>
</g>
</svg>
<svg version="1.1" id="svg-index-active" xmlns="http://www.w3.org/2000/svg" xmlns:xlink="http://www.w3.org/1999/xlink" x="0px" y="0px" viewBox="0 0 32 32" enable-background="new 0 0 32 32" xml:space="preserve" class="svg-icon-sprite">
<g id="XMLID_1_">
	<path id="np_chart_739926_000000_1_" fill="#33A137" d="M26.5,3.8c-0.7,0.1-1.2,0.6-1.3,1.3v21.9c0,0.7,0.6,1.2,1.3,1.3h4.2
		c0.7,0,1.2-0.6,1.3-1.3V5.1c0-0.7-0.6-1.2-1.3-1.3H26.5z M27.8,6.3h1.7v19.4h-1.7V6.3z M9.7,7.2C9,7.2,8.5,7.7,8.4,8.4v18.5
		c0,0.7,0.6,1.2,1.3,1.3h4.2c0.7,0,1.2-0.6,1.3-1.3V8.4c0-0.7-0.6-1.2-1.3-1.3L9.7,7.2z M10.9,9.7h1.7v16h-1.7L10.9,9.7z M18.1,10.5
		c-0.7,0.1-1.2,0.6-1.3,1.3v15.2c0,0.7,0.6,1.2,1.3,1.3h4.2c0.7,0,1.2-0.6,1.3-1.3V11.8c0-0.7-0.6-1.2-1.3-1.3L18.1,10.5z
		 M19.4,13.1h1.7v12.6h-1.7L19.4,13.1z M1.3,13.9C0.6,14,0.1,14.5,0,15.2v11.8c0,0.7,0.6,1.2,1.3,1.3h4.2c0.7,0,1.2-0.6,1.3-1.3
		V15.2c0-0.7-0.6-1.2-1.3-1.3L1.3,13.9z M2.5,16.4h1.7v9.3H2.5L2.5,16.4z"/>
</g>
</svg>



<svg version="1.1" id="svg-calander-view" xmlns="http://www.w3.org/2000/svg" xmlns:xlink="http://www.w3.org/1999/xlink" x="0px" y="0px"
	 viewBox="0 0 32 32" style="enable-background:new 0 0 32 32;" xml:space="preserve" class="svg-icon-sprite">
<path id="np_calendar_1144617_000000" style="opacity:0.605;fill:#525252;enable-background:new;" d="M29.8,2.9h-2.2V0.7c0-0.4-0.3-0.7-0.7-0.7s-0.7,0.3-0.7,0.7v2.2h-2.9V0.7
	c0-0.4-0.3-0.7-0.7-0.7c-0.4,0-0.7,0.3-0.7,0.7v2.2h-2.9V0.7c0-0.4-0.3-0.7-0.7-0.7c-0.4,0-0.7,0.3-0.7,0.7v2.2h-2.9V0.7
	c0-0.4-0.3-0.7-0.7-0.7c-0.4,0-0.7,0.3-0.7,0.7v2.2h-2.9V0.7C10.2,0.3,9.9,0,9.5,0C9.1,0,8.7,0.3,8.7,0.7v2.2H5.8V0.7
	C5.8,0.3,5.5,0,5.1,0C4.7,0,4.4,0.3,4.4,0.7v2.2H2.2C1,2.9,0,3.8,0,5c0,0,0,0.1,0,0.1v24.7C0,31,0.9,32,2.1,32c0,0,0.1,0,0.1,0h27.6
	c1.2,0,2.2-0.9,2.2-2.1c0,0,0-0.1,0-0.1V5.1C32,3.9,31.1,2.9,29.8,2.9C29.9,2.9,29.8,2.9,29.8,2.9z M2.2,4.4h2.2v0.7
	c0,0.4,0.3,0.7,0.7,0.7c0.4,0,0.7-0.3,0.7-0.7V4.4h2.9v0.7c0,0.4,0.3,0.7,0.7,0.7c0.4,0,0.7-0.3,0.7-0.7V4.4h2.9v0.7
	c0,0.4,0.3,0.7,0.7,0.7c0.4,0,0.7-0.3,0.7-0.7V4.4h2.9v0.7c0,0.4,0.3,0.7,0.7,0.7s0.7-0.3,0.7-0.7V4.4h2.9v0.7
	c0,0.4,0.3,0.7,0.7,0.7s0.7-0.3,0.7-0.7V4.4h2.9v0.7c0,0.4,0.3,0.7,0.7,0.7c0.4,0,0.7-0.3,0.7-0.7V4.4h2.2c0.4,0,0.7,0.3,0.7,0.6
	c0,0,0,0.1,0,0.1v5.1H1.5V5.1C1.4,4.7,1.7,4.4,2.2,4.4C2.1,4.4,2.2,4.4,2.2,4.4z M29.8,30.5H2.2c-0.4,0-0.7-0.3-0.7-0.6
	c0,0,0-0.1,0-0.1V11.6h29.1v18.2C30.6,30.2,30.3,30.5,29.8,30.5C29.9,30.5,29.8,30.5,29.8,30.5L29.8,30.5z M18.2,14.5h-4.4
	c-0.4,0-0.7,0.3-0.7,0.6c0,0,0,0.1,0,0.1v4.4c0,0.4,0.3,0.7,0.6,0.7c0,0,0.1,0,0.1,0h4.4c0.4,0,0.7-0.3,0.7-0.6c0,0,0-0.1,0-0.1
	v-4.4C18.9,14.9,18.7,14.6,18.2,14.5C18.2,14.5,18.2,14.5,18.2,14.5L18.2,14.5z M17.5,18.9h-2.9V16h2.9V18.9z M18.2,21.8h-4.4
	c-0.4,0-0.7,0.3-0.7,0.6c0,0,0,0.1,0,0.1v4.4c0,0.4,0.3,0.7,0.6,0.7c0,0,0.1,0,0.1,0h4.4c0.4,0,0.7-0.3,0.7-0.6c0,0,0-0.1,0-0.1
	v-4.4C18.9,22.2,18.6,21.8,18.2,21.8C18.2,21.8,18.2,21.8,18.2,21.8L18.2,21.8z M17.5,26.2h-2.9v-2.9h2.9V26.2z M9.5,14.6H5.1
	c-0.4,0-0.7,0.3-0.7,0.6c0,0,0,0.1,0,0.1v4.4c0,0.4,0.3,0.7,0.6,0.7c0,0,0.1,0,0.1,0h4.4c0.4,0,0.7-0.3,0.7-0.6c0,0,0-0.1,0-0.1
	v-4.4C10.2,14.9,9.9,14.6,9.5,14.6C9.5,14.5,9.5,14.5,9.5,14.6L9.5,14.6z M8.7,18.9H5.8V16h2.9V18.9z M9.5,21.8H5.1
	c-0.4,0-0.7,0.3-0.7,0.6c0,0,0,0.1,0,0.1v4.4c0,0.4,0.3,0.7,0.6,0.7c0,0,0.1,0,0.1,0h4.4c0.4,0,0.7-0.3,0.7-0.6c0,0,0-0.1,0-0.1
	v-4.4C10.2,22.2,9.9,21.8,9.5,21.8C9.5,21.8,9.5,21.8,9.5,21.8L9.5,21.8z M8.7,26.2H5.8v-2.9h2.9V26.2z M26.9,14.6h-4.4
	c-0.4,0-0.7,0.3-0.7,0.6c0,0,0,0.1,0,0.1v4.4c0,0.4,0.3,0.7,0.6,0.7c0,0,0.1,0,0.1,0h4.4c0.4,0,0.7-0.3,0.7-0.6c0,0,0-0.1,0-0.1
	v-4.4C27.7,14.9,27.4,14.6,26.9,14.6C27,14.5,26.9,14.5,26.9,14.6L26.9,14.6z M26.2,18.9h-2.9V16h2.9V18.9z M26.9,21.8h-4.4
	c-0.4,0-0.7,0.3-0.7,0.6c0,0,0,0.1,0,0.1v4.4c0,0.4,0.3,0.7,0.6,0.7c0,0,0.1,0,0.1,0h4.4c0.4,0,0.7-0.3,0.7-0.6c0,0,0-0.1,0-0.1
	v-4.4C27.7,22.2,27.4,21.8,26.9,21.8C27,21.8,26.9,21.8,26.9,21.8L26.9,21.8z M26.2,26.2h-2.9v-2.9h2.9V26.2z"/>
</svg>
<svg version="1.1" id="svg-locality-view" xmlns="http://www.w3.org/2000/svg" xmlns:xlink="http://www.w3.org/1999/xlink" x="0px" y="0px"
	 viewBox="0 0 32 32" style="enable-background:new 0 0 32 32;" xml:space="preserve" class="svg-icon-sprite">
<g id="np_map-pin_514105_000000" transform="translate(136.25 730.003)">
	<path id="Path_151" fill="#525252" d="M-120.3-714.9c-2.4,0-4.3-1.9-4.3-4.3c0-2.4,1.9-4.3,4.3-4.3c2.4,0,4.3,1.9,4.3,4.3
		C-115.9-716.9-117.8-714.9-120.3-714.9z M-120.3-722.3c-1.7,0-3,1.3-3,3s1.3,3,3,3s3-1.3,3-3C-117.2-721-118.6-722.3-120.3-722.3
		C-120.2-722.3-120.2-722.3-120.3-722.3L-120.3-722.3z M-120.3-698l-0.5-0.6c-0.4-0.4-9.5-11-9.5-21.1c-0.3-5.4,3.8-10,9.1-10.3
		c0.3,0,0.6,0,0.9,0c5.3-0.2,9.8,3.9,10.1,9.2c0,0.4,0,0.7,0,1.1c0,9.9-9.1,20.6-9.5,21.1L-120.3-698L-120.3-698z M-120.3-728.7
		c-4.6-0.2-8.5,3.4-8.7,8c0,0.3,0,0.6,0,1c0,8.2,6.8,17.2,8.7,19.6c1.9-2.4,8.7-11.5,8.7-19.6c0.4-4.6-3-8.6-7.5-9
		C-119.5-728.7-119.9-728.7-120.3-728.7L-120.3-728.7z"/>
</g>
</svg>
<svg version="1.1" id="svg-type-view" xmlns="http://www.w3.org/2000/svg" xmlns:xlink="http://www.w3.org/1999/xlink" x="0px" y="0px" viewBox="0 0 32 32" enable-background="new 0 0 32 32" xml:space="preserve">
<g id="XMLID_1_">
	<path id="np_house_945388_000000_1_" fill="#272727" stroke="#000000" stroke-miterlimit="10" d="M21.9,3.8c-0.2,0-0.4,0.2-0.4,0.4
		v3.8l-5.2-4.1c-0.1-0.1-0.3-0.1-0.5,0L0.9,15.7c-0.2,0.1-0.3,0.4-0.1,0.5c0.1,0.2,0.4,0.3,0.5,0.1c0,0,0.1,0,0.1-0.1L16,4.7
		l14.7,11.6c0.2,0.1,0.4,0.1,0.6-0.1c0.1-0.2,0.1-0.4-0.1-0.6l-5.7-4.5V4.2c0-0.2-0.2-0.4-0.4-0.4H21.9z M22.3,4.6h2.4v5.9l-2.4-1.9
		L22.3,4.6z M5.8,13.7L5,14.3v13.5c0,0.2,0.2,0.4,0.4,0.4h7.1c0.2,0,0.4-0.2,0.4-0.4v-7.5h6.3v7.5c0,0.2,0.2,0.4,0.4,0.4h7.1
		c0.2,0,0.4-0.2,0.4-0.4V14.3l-0.8-0.6v13.7h-6.3v-7.5c0-0.2-0.2-0.4-0.4-0.4c0,0,0,0,0,0h-7.1c-0.2,0-0.4,0.2-0.4,0.4l0,0v7.5H5.8
		V13.7z"/>
</g>
</svg>





<svg version="1.1" id="svg-price-view" xmlns="http://www.w3.org/2000/svg" xmlns:xlink="http://www.w3.org/1999/xlink" x="0px" y="0px"
	 viewBox="0 0 32 32" style="enable-background:new 0 0 32 32;" xml:space="preserve" class="svg-icon-sprite">
<path id="np_price-tag_1015084_000000" style="fill:#525252;enable-background:new;" d="M12.1,32c-0.3,0-0.6-0.1-0.8-0.3l-11-11.1c-0.4-0.4-0.4-1.2,0-1.6L19,0.3
	C19.3,0.1,19.6,0,19.9,0l10.2,0.9c0.5,0,1,0.5,1,1L32,12.1c0,0.3-0.1,0.7-0.3,0.9L12.9,31.7C12.7,31.9,12.4,32,12.1,32L12.1,32z
	 M2.6,19.8l9.4,9.4l17.6-17.5L28.9,3l-8.7-0.8L2.6,19.8z M24.3,11.5c-1,0-2-0.4-2.7-1.1c-1.5-1.5-1.5-3.9,0-5.4
	c0.7-0.7,1.7-1.1,2.7-1.1c2.1,0,3.8,1.7,3.8,3.8C28.1,9.8,26.4,11.5,24.3,11.5z M24.3,6.2c-0.9,0-1.5,0.7-1.5,1.5
	c0,0.4,0.2,0.8,0.4,1.1c0.6,0.6,1.6,0.6,2.2,0s0.6-1.6,0-2.2C25.1,6.3,24.7,6.2,24.3,6.2L24.3,6.2z"/>
</svg>
<svg version="1.1" id="svg-purpose-view" xmlns="http://www.w3.org/2000/svg" xmlns:xlink="http://www.w3.org/1999/xlink" x="0px" y="0px"
	 viewBox="0 0 32 32" style="enable-background:new 0 0 32 32;" xml:space="preserve" class="svg-icon-sprite">
<path id="XMLID_4_" fill="#515151" d="M16,0C7.2,0,0,7.2,0,16s7.2,16,16,16s16-7.2,16-16c0-3.1-0.9-6.1-2.5-8.5l2.1-2.1
	C31.9,5.2,32,4.9,32,4.6c0-0.2,0-0.3-0.1-0.5c-0.2-0.4-0.6-0.7-1.1-0.6c-0.2,0-0.5,0.1-0.6,0.3l-1.9,1.9C25.3,2.2,20.9,0,16,0L16,0z
	 M16,2.1c4.3,0,8.2,2,10.7,5.1L14.2,19.5l-5.3-5c-0.4-0.4-1.2-0.4-1.6,0C7,14.9,7,15.7,7.4,16.1l6,5.7c0.4,0.4,1.1,0.4,1.5,0L28,9
	c1.2,2.1,1.9,4.4,1.9,7c0,7.7-6.2,13.9-13.9,13.9S2.1,23.7,2.1,16S8.3,2.1,16,2.1L16,2.1z"/>
</svg>
<svg version="1.1" id="svg-call-view" xmlns="http://www.w3.org/2000/svg" xmlns:xlink="http://www.w3.org/1999/xlink" x="0px" y="0px"
	 viewBox="0 0 32 32" style="enable-background:new 0 0 32 32;" xml:space="preserve" class="svg-icon-sprite">
<g id="np_phone-call_884212_000000" transform="translate(579.043 3242)">
	<path id="Path_164" fill="#ffffff" d="M-568.1-3223.6c-0.7-0.6-1.2-1.4-1.3-2.5c-0.1-1,0.4-2.1,1.3-2.7c0.5-0.4,0.9-0.9,1.1-1.4
		c0.2-0.8,0.1-1.6-0.4-2.4c-1.2-1.5-2.3-3.3-3.5-4.6c-0.7-0.7-1.7-1-2.7-0.7c-0.7,0.3-1.3,0.7-1.9,1.2c-2.5,2.2-3.8,5.4-3.5,8.7
		c0.9,3.4,2.8,6.5,5.5,8.8l3.5,3.6c2.2,2.7,5.2,4.6,8.6,5.6c3.2,0.4,6.5-0.9,8.5-3.5c0.6-0.5,1-1.1,1.2-1.9c0.3-1,0-2.1-0.7-2.7
		c-1.3-1.1-3-2.3-4.5-3.5c-0.7-0.4-1.5-0.6-2.3-0.4c-0.6,0.2-1.1,0.6-1.5,1.1c-0.6,0.8-1.6,1.3-2.6,1.3c-0.9-0.2-1.8-0.6-2.4-1.3
		 M-572.4-3235.6l3.1,4.1c0.2,0.5,0.2,0.6,0.2,0.6c-0.1,0.2-0.3,0.4-0.5,0.5c-1.3,1.1-2.1,2.8-2,4.5c0.2,1.4,0.9,2.8,1.9,3.7
		l2.5,2.6c1,1.1,2.3,1.8,3.7,2c1.7,0.1,3.3-0.6,4.4-2.1c0.1-0.2,0.3-0.4,0.5-0.5c0,0,0.2,0,0.6,0.2l4.1,3.2c0.3,0.3,0.3,0.3,0.2,0.5
		c-0.2,0.4-0.4,0.7-0.7,1c-1.6,2.1-4.1,3.1-6.7,2.9c-2.9-0.9-5.5-2.6-7.4-4.9l-3.5-3.6c-2.3-2-4-4.6-4.9-7.6
		c-0.2-2.6,0.9-5.1,2.9-6.8c0.3-0.3,0.6-0.5,1-0.7C-572.7-3235.9-572.6-3235.9-572.4-3235.6L-572.4-3235.6z"/>
	<path id="Path_165" fill="#ffffff" d="M-564.9-3240.8c0.1,0.6,0.5,1,1.1,1c8,0,14.5,6.7,14.5,14.8l0,0c0,0.6,0.5,1.1,1.1,1.1
		c0.6,0,1.1-0.5,1.1-1.1c0-9.5-7.5-17.1-16.6-17.1C-564.4-3241.9-564.9-3241.4-564.9-3240.8z M-564.9-3236.4c0.1,0.6,0.5,1,1.1,1
		c5.7,0,10.3,4.7,10.3,10.5l0,0c0,0.6,0.5,1.1,1.1,1.1c0.6,0,1.1-0.5,1.1-1.1c0-7-5.6-12.7-12.4-12.7
		C-564.4-3237.6-564.9-3237.1-564.9-3236.4L-564.9-3236.4z"/>
</g>
</svg>
<svg version="1.1" id="svg-email-view" xmlns="http://www.w3.org/2000/svg" xmlns:xlink="http://www.w3.org/1999/xlink" x="0px" y="0px"
	 viewBox="0 0 32 32" style="enable-background:new 0 0 32 32;" xml:space="preserve" class="svg-icon-sprite">
<path id="np_email_1042994_000000" fill="#33A137" d="M2.3,5.5C1.1,5.5,0,6.5,0,7.8l0,0v16.4c0,1.3,1,2.3,2.3,2.3l0,0h27.4
	c1.3,0,2.3-1,2.3-2.3l0,0V7.8c0-1.3-1-2.3-2.3-2.3l0,0H2.3z M4,9.4c0.2,0,0.5,0.1,0.6,0.2l10.3,9.5c0.6,0.6,1.6,0.6,2.2,0l10.3-9.5
	c0.3-0.3,0.8-0.2,1.1,0.1c0.2,0.3,0.2,0.7,0,1l-5.8,5.4l5.8,5.2c0.3,0.3,0.4,0.8,0.1,1.1c-0.3,0.3-0.8,0.4-1.1,0.1l-0.1-0.1
	l-5.9-5.3l-3.3,3.1c-1.2,1.1-3.1,1.1-4.3,0l-3.3-3.1l-5.9,5.3c-0.3,0.3-0.8,0.3-1.1,0s-0.3-0.8,0-1.1l0.1-0.1L9.5,16l-5.8-5.4
	c-0.3-0.3-0.4-0.8-0.1-1.1C3.6,9.5,3.8,9.4,4,9.4L4,9.4z"/>
</svg>
<svg version="1.1" id="svg-sms-view" xmlns="http://www.w3.org/2000/svg" xmlns:xlink="http://www.w3.org/1999/xlink" x="0px" y="0px"
	 viewBox="0 0 32 32" style="enable-background:new 0 0 32 32;" xml:space="preserve" class="svg-icon-sprite">
<path id="np_chat_802760_000000" fill="#33A137" d="M25.2,1.8H6.7C3,1.8,0,4.8,0,8.4l0,0v9.3c0,3.7,3,6.7,6.6,6.7c0,0,0,0,0.1,0
	c0.9,0,1.7,0.7,1.7,1.6l0,0v3c0,0.7,0.6,1.3,1.3,1.3c0.4,0,0.7-0.1,0.9-0.4l4.9-4.8c0.5-0.5,1.2-0.8,1.9-0.8h8c3.7,0,6.7-3,6.7-6.6
	l0,0V8.4C31.9,4.8,28.9,1.8,25.2,1.8L25.2,1.8z M9.3,15.1c-1.1,0-2-0.9-2-2s0.9-2,2-2s2,0.9,2,2S10.4,15.1,9.3,15.1z M16,15.1
	c-1.1,0-2-0.9-2-2s0.9-2,2-2s2,0.9,2,2S17,15.1,16,15.1z M22.6,15.1c-1.1,0-2-0.9-2-2s0.9-2,2-2c1.1,0,2,0.9,2,2
	C24.5,14.2,23.7,15.1,22.6,15.1L22.6,15.1L22.6,15.1z"/>
</svg>
<svg version="1.1" id="svg-back-arrow-green" xmlns="http://www.w3.org/2000/svg" xmlns:xlink="http://www.w3.org/1999/xlink" x="0px" y="0px"
	 viewBox="0 0 32 32" style="enable-background:new 0 0 32 32;" xml:space="preserve" class="svg-icon-sprite">
<path id="np_back_1135495_000000" fill="#28B16D" d="M24.6,28c0.9,1,0.8,2.5-0.2,3.4c-0.9,0.8-2.3,0.8-3.2,0L7.7,17.9
	c-1.1-1.1-1.1-2.8,0-3.9l0,0L21.1,0.6c1-0.9,2.5-0.8,3.4,0.2c0.8,0.9,0.8,2.3,0,3.2l-12,12L24.6,28z"/>
</svg>
<svg version="1.1" id="svg-back-arrow-view" xmlns="http://www.w3.org/2000/svg" xmlns:xlink="http://www.w3.org/1999/xlink" x="0px" y="0px"
	 viewBox="0 0 32 32" style="enable-background:new 0 0 32 32;" xml:space="preserve" class="svg-icon-sprite">
<path id="np_back_1135495_000000" fill="#515151" d="M24.6,28c0.9,1,0.8,2.5-0.2,3.4c-0.9,0.8-2.3,0.8-3.2,0L7.7,17.9
	c-1.1-1.1-1.1-2.8,0-3.9l0,0L21.1,0.6c1-0.9,2.5-0.8,3.4,0.2c0.8,0.9,0.8,2.3,0,3.2l-12,12L24.6,28z"/>
</svg>
<svg version="1.1" id="svg-star-view" xmlns="http://www.w3.org/2000/svg" xmlns:xlink="http://www.w3.org/1999/xlink" x="0px" y="0px"
	 viewBox="0 0 32 32" style="enable-background:new 0 0 32 32;" xml:space="preserve" class="svg-icon-sprite">
<path id="XMLID_1_" fill="#CCCCCC" d="M16,0.8l3.8,11.6H32l-9.9,7.2l3.8,11.6L16,24l-9.9,7.2l3.8-11.6L0,12.4h12.2L16,0.8z"/>
</svg>
<svg version="1.1" id="svg-star-filled" xmlns="http://www.w3.org/2000/svg" xmlns:xlink="http://www.w3.org/1999/xlink" x="0px" y="0px"
	 viewBox="0 0 32 32" style="enable-background:new 0 0 32 32;" xml:space="preserve" class="svg-icon-sprite">
<path id="XMLID_1_" fill="#328EDD" d="M16,0.8l3.8,11.6H32l-9.9,7.2l3.8,11.6L16,24l-9.9,7.2l3.8-11.6L0,12.4h12.2L16,0.8z"/>
</svg>
<svg version="1.1" id="svg-facebook" xmlns="http://www.w3.org/2000/svg" xmlns:xlink="http://www.w3.org/1999/xlink" x="0px" y="0px"
	 viewBox="0 0 32 32" style="enable-background:new 0 0 32 32;" xml:space="preserve" class="svg-icon-sprite">
	<path id="Blue_1_" fill="#3C5A99" d="M30.2,32c1,0,1.8-0.8,1.8-1.8V1.7c0-1-0.8-1.8-1.8-1.8H1.7c-1,0-1.8,0.8-1.8,1.8v28.6
		c0,1,0.8,1.8,1.8,1.8L30.2,32L30.2,32z"/>
	<path id="f" fill="#ffffff" d="M22.1,32V19.6h4.2l0.6-4.8h-4.8v-3.1c0-1.4,0.4-2.4,2.4-2.4H27V5c-0.4-0.1-2-0.2-3.7-0.2
		c-3.7,0-6.2,2.3-6.2,6.4v3.6h-4.2v4.8H17V32L22.1,32L22.1,32z"/>
	</svg>
	<svg version="1.1" id="svg-messenger" xmlns="http://www.w3.org/2000/svg" xmlns:xlink="http://www.w3.org/1999/xlink" x="0px" y="0px"
	 viewBox="0 0 32 32" style="enable-background:new 0 0 32 32;" xml:space="preserve" class="svg-icon-sprite">
	<path id="XMLID_3_" fill="#339DFF" d="M6,26.3V32l5.3-3c1.5,0.4,3.1,0.7,4.7,0.7c8.8,0,15.9-6.6,15.9-14.8C31.9,6.6,24.8,0,16,0
		S0.1,6.6,0.1,14.8C0.1,19.4,2.4,23.6,6,26.3L6,26.3z"/>
	<path id="XMLID_2_" fill="#ffffff" d="M14.3,10.8l-8.6,9.1l7.8-4.3l4.1,4.3l8.5-9.1L18.4,15C18.4,14.9,14.3,10.8,14.3,10.8z"/>
	</svg>
	<svg version="1.1" id="svg-gmail" xmlns="http://www.w3.org/2000/svg" xmlns:xlink="http://www.w3.org/1999/xlink" x="0px" y="0px"
	 viewBox="0 0 32 32" style="enable-background:new 0 0 32 32;" xml:space="preserve" class="svg-icon-sprite">
	<path id="XMLID_11_" fill="#EAEAEA" d="M30,28H2c-1.1,0-2-0.9-2-2V6c0-1.1,0.9-2,2-2h28c1.1,0,2,0.9,2,2v20C32,27.1,31.1,28,30,28z"/>
	<path fill="#D54C3F" d="M30,4c-0.1,0-0.3,0-0.4,0c0,0,0,0-0.1,0c-0.1,0-0.1,0-0.2,0.1c-0.3,0.1-0.6,0.3-0.8,0.6l-12.5,9L3.2,4.4
		c0,0,0,0-0.1,0c0,0,0,0-0.1,0C3,4.3,2.9,4.2,2.8,4.2c0,0,0,0,0,0C2.6,4.1,2.5,4.1,2.4,4c0,0,0,0,0,0C2.3,4,2.1,4,2,4
		C0.9,4,0,4.9,0,6v20c0,1.1,0.9,2,2,2h2V9.9l12,8.8l12-8.8V28h2c1.1,0,2-0.9,2-2V6C32,4.9,31.1,4,30,4z"/>
	</svg>
	<svg version="1.1" id="svg-email" xmlns="http://www.w3.org/2000/svg" xmlns:xlink="http://www.w3.org/1999/xlink" x="0px" y="0px"
	 viewBox="0 0 32 32" style="enable-background:new 0 0 32 32;" xml:space="preserve" class="svg-icon-sprite">
	<path id="XMLID_3_" fill="#444444" d="M2.3,5.5C1,5.5,0,6.5,0,7.8v16.4c0,1.3,1,2.3,2.3,2.3h27.3c1.3,0,2.3-1,2.3-2.3V7.8
		c0-1.3-1-2.3-2.3-2.3H2.3z M4,9.4c0.3,0,0.5,0.1,0.6,0.2l10.3,9.5c0.6,0.6,1.5,0.6,2.2,0l10.3-9.5c0.3-0.3,0.8-0.3,1.1,0
		c0.3,0.3,0.3,0.8,0,1.1l-5.8,5.4l5.8,5.2c0.4,0.3,0.4,0.8,0.1,1.1c-0.3,0.3-0.9,0.3-1.2,0l-5.9-5.3l-3.3,3.1c-1.2,1.1-3.1,1.1-4.3,0
		l-3.3-3.1l-5.9,5.3c-0.3,0.3-0.9,0.3-1.2,0c-0.3-0.3-0.2-0.9,0.1-1.1l5.8-5.2l-5.8-5.4c-0.2-0.2-0.3-0.5-0.2-0.8
		C3.4,9.6,3.7,9.4,4,9.4L4,9.4z"/>
	</svg>
	<svg version="1.1" id="svg-copy" xmlns="http://www.w3.org/2000/svg" xmlns:xlink="http://www.w3.org/1999/xlink" x="0px" y="0px"
	 viewBox="0 0 32 32" style="enable-background:new 0 0 32 32;" xml:space="preserve" class="svg-icon-sprite">
		<g id="XMLID_9_">
			<path id="XMLID_11_" fill="#444444" d="M20.2,21.2c0.6,0,1-0.5,1-1V1.6c0-0.6-0.5-1-1-1H1.6c-0.6,0-1,0.5-1,1v18.6c0,0.6,0.5,1,1,1
				L20.2,21.2L20.2,21.2z M2.6,2.6h16.6v16.6H2.6V2.6z"/>
			<path id="XMLID_2_" fill="#444444" d="M31.4,30.4V11.8c0-0.6-0.5-1-1-1h-6.1v2h5.1v16.6H12.8v-5.1h-2v6.1c0,0.6,0.5,1,1,1h18.6
				C30.9,31.4,31.4,30.9,31.4,30.4z"/>
		</g>
	</svg>
	<svg version="1.1" id="svg-whatsapp" xmlns="http://www.w3.org/2000/svg" xmlns:xlink="http://www.w3.org/1999/xlink" x="0px" y="0px"
	 viewBox="0 0 32 32" style="enable-background:new 0 0 32 32;" xml:space="preserve" class="svg-icon-sprite">
	<polygon fill="#1BD741" points="2.6,28.9 3.4,23.9 1.3,15.8 4.3,6.3 11.7,1.8 20.3,2.2 27,5.4 29.8,10.6 30.1,17.2 28.6,22.8 
		23.1,28.9 17.3,30.2 7.3,28.5 "/>
	<g>
		<path fill="#F4F4F4" d="M0,32l2.2-8C0.8,21.6,0,18.8,0,15.9c0-8.8,7.2-16,16-16s16,7.2,16,16s-7.2,16-16,16c-2.7,0-5.4-0.7-7.8-2L0,32
			z M8.7,27l0.5,0.3c2.1,1.3,4.5,1.9,6.9,1.9c7.3,0,13.3-5.9,13.3-13.3S23.3,2.7,16,2.7S2.8,8.7,2.8,16c0,2.5,0.7,5,2.1,7.2l0.3,0.5
			l-1.3,4.6L8.7,27z"/>
		<path fill="#F4F4F4" d="M11.6,8.5l-1-0.1c-0.3,0-0.6,0.1-0.9,0.3C9.2,9.1,8.4,10,8.1,11.1c-0.4,1.6,0.2,3.6,1.7,5.6s4.2,5.2,9.1,6.6
			c1.6,0.4,2.8,0.1,3.7-0.5c0.8-0.5,1.3-1.3,1.5-2.1l0.2-0.8c0.1-0.2-0.1-0.5-0.3-0.6l-3.5-1.6c-0.2-0.1-0.5,0-0.6,0.2l-1.4,1.8
			c-0.1,0.1-0.3,0.2-0.4,0.1c-0.9-0.3-4.1-1.7-5.8-5c-0.1-0.1-0.1-0.3,0.1-0.4l1.3-1.5c0.1-0.2,0.2-0.4,0.1-0.6L12,8.9
			C11.9,8.7,11.8,8.5,11.6,8.5z"/>
	</g>
	</svg>
	<svg version="1.1" id="svg-sms" xmlns="http://www.w3.org/2000/svg" xmlns:xlink="http://www.w3.org/1999/xlink" x="0px" y="0px"
	 viewBox="0 0 32 32" style="enable-background:new 0 0 32 32;" xml:space="preserve" class="svg-icon-sprite">
	<path id="np_chat_802760_000000" fill="#4A4A4A" d="M25.3,1.9H6.7C3,1.9,0,4.9,0,8.6c0,0,0,0,0,0v9.3c0,3.7,3,6.7,6.6,6.7c0,0,0,0,0,0
		c0.9,0,1.7,0.7,1.7,1.6c0,0,0,0,0,0v3c0,0.7,0.6,1.3,1.3,1.3c0.4,0,0.7-0.1,0.9-0.4l4.9-4.8c0.5-0.5,1.2-0.8,1.9-0.8h8
		c3.7,0,6.7-3,6.7-6.6c0,0,0,0,0,0V8.6C32,4.9,29,1.9,25.3,1.9C25.4,1.9,25.3,1.9,25.3,1.9z M9.3,15.3c-1.1,0-2-0.9-2-2
		c0-1.1,0.9-2,2-2s2,0.9,2,2C11.3,14.3,10.4,15.3,9.3,15.3z M16,15.3c-1.1,0-2-0.9-2-2c0-1.1,0.9-2,2-2c1.1,0,2,0.9,2,2
		S17.1,15.2,16,15.3C16,15.3,16,15.3,16,15.3L16,15.3z M22.7,15.3c-1.1,0-2-0.9-2-2c0-1.1,0.9-2,2-2c1.1,0,2,0.9,2,2
		C24.6,14.4,23.8,15.3,22.7,15.3C22.7,15.3,22.7,15.3,22.7,15.3L22.7,15.3z"/>
	</svg>
	<svg version="1.1" id="svg_edit_values" xmlns="http://www.w3.org/2000/svg" xmlns:xlink="http://www.w3.org/1999/xlink" x="0px" y="0px" viewBox="0 0 32 32" enable-background="new 0 0 32 32" xml:space="preserve" class="svg-icon-sprite">
		<g id="XMLID_1_">
		<path id="np_right_421377_000000_1_" fill="#FFFFFF" d="M24.5,14.1L11.3,0.8c-1-1-2.7-1-3.7,0c0,0,0,0,0,0c-1,1-1,2.7,0,3.7
		L18.9,16L7.5,27.5c-1,1-1,2.7,0,3.7c1,1,2.7,1,3.7,0c0,0,0,0,0,0l13.2-13.4C25.5,16.8,25.5,15.2,24.5,14.1L24.5,14.1z"/>
		</g>
	</svg>
	<svg version="1.1" id="svg_trends_arrow" xmlns="http://www.w3.org/2000/svg" xmlns:xlink="http://www.w3.org/1999/xlink" x="0px" y="0px" viewBox="0 0 32 32" enable-background="new 0 0 32 32" xml:space="preserve" class="svg-icon-sprite">
		<g id="XMLID_28_">
			<path id="np_up_1075392_28B16D_1_" fill="#272727" stroke="#272727" d="M7.3,3.8C6.5,3.1,6.5,1.9,7.2,1.2c0,0,0.1-0.1,0.1-0.1
				c0.8-0.8,2.1-0.8,2.9,0l14.5,13.6c0.8,0.7,0.8,1.9,0.1,2.6c0,0-0.1,0.1-0.1,0.1L10.2,31c-0.8,0.8-2.1,0.8-2.9,0
				c-0.8-0.7-0.8-1.9-0.1-2.6c0,0,0.1-0.1,0.1-0.1l13-12.2L7.3,3.8z"/>
		</g>
	</svg>
	<svg version="1.1" id="svg-inc-arrow-view" xmlns="http://www.w3.org/2000/svg" xmlns:xlink="http://www.w3.org/1999/xlink" x="0px" y="0px"
	 viewBox="0 0 32 32" style="enable-background:new 0 0 32 32;" xml:space="preserve" class="svg-icon-sprite">
	<path id="np_down-arrow_602481_000000" fill="#33A137" d="M3.2,30.1V2c0-0.7,0.4-1.4,1-1.7c0.6-0.4,1.4-0.3,2,0.1L28,14.4
		c0.9,0.7,1.1,2,0.4,2.9c-0.1,0.2-0.2,0.3-0.4,0.4l-21.8,14c-0.3,0.2-0.7,0.3-1,0.3c-0.3,0-0.7-0.1-1-0.2C3.6,31.4,3.2,30.8,3.2,30.1
		L3.2,30.1z"/>
	</svg>
	<svg version="1.1" id="svg-dec-arrow-view" xmlns="http://www.w3.org/2000/svg" xmlns:xlink="http://www.w3.org/1999/xlink" x="0px" y="0px"
	 viewBox="0 0 32 32" style="enable-background:new 0 0 32 32;" xml:space="preserve" class="svg-icon-sprite">
	<path id="np_down-arrow_602481_000000" fill="#d14242" d="M3.2,30.1V2c0-0.7,0.4-1.4,1-1.7c0.6-0.4,1.4-0.3,2,0.1L28,14.4
		c0.9,0.7,1.1,2,0.4,2.9c-0.1,0.2-0.2,0.3-0.4,0.4l-21.8,14c-0.3,0.2-0.7,0.3-1,0.3c-0.3,0-0.7-0.1-1-0.2C3.6,31.4,3.2,30.8,3.2,30.1
		L3.2,30.1z"/>
	</svg>
	<svg id="svg-twitter" xmlns="http://www.w3.org/2000/svg" viewBox="18338.99 5898.747 18.818 15.199" class="svg-icon-sprite">
	  <path id="twitter" fill="#65bbf2" d="M13.132,49.172a4.058,4.058,0,0,0-3.9,4.1V53.8c-3.9-.694-5.815-1.751-7.93-3.965-1.256,2.445.132,4.494,1.652,5.617a3.591,3.591,0,0,1-2.544-.727c-.066-.033-.132,0-.1.066a6.141,6.141,0,0,0,3.965,3.965c-1.355,0-2.247.2-3.205-.4-.066-.033-.132,0-.1.066.727,2.016,2.181,2.643,4.3,2.643A8.194,8.194,0,0,1,.114,62.719a.109.109,0,0,0-.066.2c.991.826,3.436,1.454,6.873,1.454,5.65,0,10.243-5.022,10.243-11.234v-.33a2.89,2.89,0,0,0,1.652-1.916.071.071,0,0,0-.066-.066l-1.883.661a.063.063,0,0,1-.033-.1,5.055,5.055,0,0,0,1.652-2.181.115.115,0,0,0-.066-.033c-.892.363-1.751.727-2.412.925a.391.391,0,0,1-.33-.033,6.952,6.952,0,0,0-2.544-.892" transform="translate(18338.991 5849.575)"/>
	</svg>
	<svg version="1.1" id="svg-addedby" xmlns="http://www.w3.org/2000/svg" xmlns:xlink="http://www.w3.org/1999/xlink" x="0px" y="0px" viewBox="0 0 32 32" enable-background="new 0 0 32 32" xml:space="preserve">
		<g id="XMLID_49_">
			<g id="XMLID_50_">
				<path id="XMLID_52_" fill="#010101" d="M3.3,21.1l-2.1,0.8l0,0C2.6,26,5.9,29.4,10,31c4.2,1.6,8.8,1.3,12.7-0.7
					c3.9-2.1,6.7-5.8,7.7-10.1c1-4.3,0.1-8.9-2.5-12.5s-6.7-5.9-11.1-6.3s-8.8,1.2-12,4.3V0H2.6l0,9.9l9.9,0V7.6H6.1
					c0.1-0.1,0.1-0.2,0.2-0.2C8.7,5,12,3.6,15.5,3.6s6.8,1.4,9.3,3.9c2.4,2.4,3.8,5.8,3.8,9.2s-1.4,6.8-3.8,9.2s-5.8,3.8-9.2,3.8
					s-6.8-1.4-9.2-3.8C4.9,24.6,3.9,22.9,3.3,21.1L3.3,21.1z"/>
				<path id="XMLID_51_" fill="#010101" d="M17.7,10.1h-2.3v7.2h-5.1v2.3h7.4V10.1z"/>
			</g>
		</g>
	</svg>
</svg>
