<?xml version="1.0" encoding="utf-8"?>
<!-- Generator: Adobe Illustrator 22.0.0, SVG Export Plug-In . SVG Version: 6.00 Build 0)  -->
<svg version="1.1" id="Capa_1" xmlns="http://www.w3.org/2000/svg" xmlns:xlink="http://www.w3.org/1999/xlink" x="0px" y="0px"
	 viewBox="0 0 512 384" style="enable-background:new 0 0 512 384;" xml:space="preserve">
<style type="text/css">
	.st0{fill:#FFFFFF;}
</style>
<g>
	<g>
		<g>
			<path class="st0" d="M480,277.3h-74.7c-47.1,0-85.3-38.3-85.3-85.3s38.3-85.3,85.3-85.3H480c5.9,0,10.7-4.8,10.7-10.7V42.7
				C490.7,19.1,471.5,0,448,0H42.7C19.1,0,0,19.1,0,42.7v298.7C0,364.9,19.1,384,42.7,384H448c23.5,0,42.7-19.1,42.7-42.7V288
				C490.7,282.1,485.9,277.3,480,277.3z"/>
			<path class="st0" d="M480,128h-74.7c-35.3,0-64,28.7-64,64s28.7,64,64,64H480c17.6,0,32-14.4,32-32v-64
				C512,142.4,497.6,128,480,128z M405.3,213.3c-11.8,0-21.3-9.6-21.3-21.3s9.6-21.3,21.3-21.3s21.3,9.6,21.3,21.3
				S417.1,213.3,405.3,213.3z"/>
		</g>
	</g>
</g>
</svg>
