<?xml version="1.0" encoding="utf-8"?>
<!-- Generator: Adobe Illustrator 22.0.0, SVG Export Plug-In . SVG Version: 6.00 Build 0)  -->
<svg version="1.1" id="Layer_1" xmlns="http://www.w3.org/2000/svg" xmlns:xlink="http://www.w3.org/1999/xlink" x="0px" y="0px"
	 viewBox="0 0 315 270" style="enable-background:new 0 0 315 270;" xml:space="preserve">
<style type="text/css">
	.st0{fill:url(#SVGID_1_);}
	.st1{fill:#FFFFFF;}
	.st2{fill:#B5B5B5;}
	.st3{enable-background:new    ;}
	.st4{fill:#AAAAAA;}
	.st5{fill:#EF5350;}
</style>
<linearGradient id="SVGID_1_" gradientUnits="userSpaceOnUse" x1="157.5" y1="272" x2="157.5" y2="2" gradientTransform="matrix(1 0 0 -1 0 272)">
	<stop  offset="5.008013e-04" style="stop-color:#FFFFFF"/>
	<stop  offset="0.302" style="stop-color:#FBFBFB"/>
	<stop  offset="0.6092" style="stop-color:#EFEFEF"/>
	<stop  offset="0.918" style="stop-color:#DADADA"/>
	<stop  offset="1" style="stop-color:#D4D4D4"/>
</linearGradient>
<rect class="st0" width="315" height="270"/>
<g>
	<g>
		<path class="st1" d="M194.6,148.9h-74.1c-6.1,0-11.1-5-11.1-11.1V92.6c0-6.1,5-11.1,11.1-11.1h15.1l1.3-4.5
			c0.5-2.4,2.8-4.2,5.4-4.2h30.4c2.6,0,4.8,1.8,5.4,4.3v0.2l1.2,4.3h15.2c6.1,0,11.1,5,11.1,11.1v45.1
			C205.8,143.9,200.8,148.9,194.6,148.9z M120.6,85.2c-4.1,0-7.4,3.3-7.4,7.4v45.1c0,4.1,3.3,7.4,7.4,7.4h74.1
			c4.1,0,7.4-3.3,7.4-7.4V92.6c0-4.1-3.3-7.4-7.4-7.4h-18l-2-7.2c-0.2-0.8-0.9-1.5-1.8-1.5h-30.4c-0.9,0-1.6,0.6-1.8,1.5l-2.1,7.2
			H120.6z M157.6,137.7c-13,0-23.5-10.6-23.5-23.5c0-13,10.6-23.5,23.5-23.5c13,0,23.5,10.6,23.5,23.5S170.6,137.7,157.6,137.7z
			 M157.6,94.3c-10.9,0-19.8,8.9-19.8,19.8s8.9,19.8,19.8,19.8c10.9,0,19.8-8.9,19.8-19.8S168.5,94.3,157.6,94.3z M192.2,92.1
			c-1.9,0-3.4,1.5-3.4,3.4s1.5,3.4,3.4,3.4s3.4-1.5,3.4-3.4C195.7,93.6,194.1,92.1,192.2,92.1z"/>
	</g>
	<g>
		<path class="st2" d="M194.6,148.2h-74.1c-6.1,0-11.1-5-11.1-11.1V91.9c0-6.1,5-11.1,11.1-11.1h15.1l1.3-4.5
			c0.5-2.4,2.8-4.2,5.4-4.2h30.4c2.6,0,4.8,1.8,5.4,4.3v0.2l1.2,4.3h15.2c6.1,0,11.1,5,11.1,11.1v45.1
			C205.8,143.2,200.8,148.2,194.6,148.2z M120.6,84.5c-4.1,0-7.4,3.3-7.4,7.4V137c0,4.1,3.3,7.4,7.4,7.4h74.1c4.1,0,7.4-3.3,7.4-7.4
			V91.9c0-4.1-3.3-7.4-7.4-7.4h-18l-2-7.2c-0.2-0.8-0.9-1.5-1.8-1.5h-30.4c-0.9,0-1.6,0.6-1.8,1.5l-2.1,7.2H120.6z M157.6,137
			c-13,0-23.5-10.6-23.5-23.5c0-13,10.6-23.5,23.5-23.5c13,0,23.5,10.6,23.5,23.5S170.6,137,157.6,137z M157.6,93.6
			c-10.9,0-19.8,8.9-19.8,19.8s8.9,19.8,19.8,19.8c10.9,0,19.8-8.9,19.8-19.8S168.5,93.6,157.6,93.6z M192.2,91.4
			c-1.9,0-3.4,1.5-3.4,3.4s1.5,3.4,3.4,3.4s3.4-1.5,3.4-3.4C195.7,92.9,194.1,91.4,192.2,91.4z"/>
	</g>
	<g>
		<g class="st3">
			<path class="st4" d="M134.3,163.9h1.1v11h-1.1V163.9z"/>
			<path class="st4" d="M137.7,166.8h1v1.4c0.4-0.5,0.7-0.9,1.1-1.1c0.5-0.3,1.1-0.5,1.7-0.5c0.4,0,0.8,0.1,1.1,0.2s0.6,0.4,0.9,0.6
				c0.2,0.3,0.4,0.6,0.6,1.1c0.3-0.6,0.8-1.1,1.3-1.5c0.5-0.3,1.1-0.5,1.7-0.5c0.6,0,1.1,0.1,1.5,0.4s0.7,0.7,1,1.2
				c0.2,0.5,0.3,1.3,0.3,2.3v4.4h-1.1v-4.4c0-0.9-0.1-1.5-0.2-1.8c-0.1-0.3-0.3-0.6-0.6-0.8c-0.3-0.2-0.7-0.3-1.1-0.3
				c-0.5,0-1,0.1-1.4,0.4c-0.4,0.3-0.7,0.7-0.9,1.2c-0.2,0.5-0.3,1.3-0.3,2.5v3.2h-1v-4.2c0-1-0.1-1.6-0.2-2
				c-0.1-0.4-0.3-0.6-0.6-0.8c-0.3-0.2-0.7-0.3-1.1-0.3c-0.5,0-0.9,0.1-1.4,0.4c-0.4,0.3-0.7,0.7-0.9,1.2c-0.2,0.5-0.3,1.2-0.3,2.3
				v3.4h-1V166.8z"/>
			<path class="st4" d="M160.1,166.8v8.1h-1v-1.4c-0.4,0.5-0.9,0.9-1.5,1.2c-0.5,0.3-1.1,0.4-1.8,0.4c-1.1,0-2.1-0.4-2.9-1.2
				c-0.8-0.8-1.2-1.8-1.2-3c0-1.2,0.4-2.2,1.2-3s1.8-1.2,3-1.2c0.7,0,1.3,0.1,1.8,0.4s1,0.7,1.4,1.3v-1.5H160.1z M155.9,167.6
				c-0.6,0-1.1,0.1-1.6,0.4c-0.5,0.3-0.9,0.7-1.2,1.2s-0.4,1.1-0.4,1.6c0,0.6,0.1,1.1,0.4,1.6s0.7,0.9,1.2,1.2
				c0.5,0.3,1,0.4,1.6,0.4c0.6,0,1.1-0.1,1.6-0.4c0.5-0.3,0.9-0.7,1.2-1.2c0.3-0.5,0.4-1,0.4-1.7c0-0.9-0.3-1.7-0.9-2.4
				C157.6,167.9,156.9,167.6,155.9,167.6z"/>
			<path class="st4" d="M169.5,166.8h1v6.5c0,1.1-0.1,2-0.3,2.5c-0.3,0.7-0.7,1.3-1.4,1.7c-0.7,0.4-1.5,0.6-2.4,0.6
				c-0.7,0-1.3-0.1-1.9-0.3c-0.6-0.2-1-0.5-1.4-0.8c-0.3-0.3-0.7-0.8-1-1.5h1.1c0.3,0.5,0.7,0.9,1.2,1.2c0.5,0.3,1.1,0.4,1.8,0.4
				c0.7,0,1.3-0.1,1.8-0.4c0.5-0.3,0.8-0.6,1-1s0.3-1,0.3-1.9v-0.4c-0.4,0.5-0.9,0.9-1.4,1.1c-0.6,0.3-1.2,0.4-1.8,0.4
				c-0.7,0-1.4-0.2-2.1-0.6s-1.2-0.9-1.5-1.5c-0.4-0.6-0.5-1.3-0.5-2.1s0.2-1.5,0.6-2.1c0.4-0.6,0.9-1.2,1.5-1.5
				c0.7-0.4,1.4-0.6,2.1-0.6c0.6,0,1.2,0.1,1.7,0.4s1,0.7,1.5,1.2V166.8z M166.4,167.6c-0.6,0-1.1,0.1-1.6,0.4
				c-0.5,0.3-0.9,0.7-1.2,1.2c-0.3,0.5-0.4,1.1-0.4,1.6c0,0.9,0.3,1.6,0.9,2.2c0.6,0.6,1.4,0.9,2.3,0.9c1,0,1.7-0.3,2.3-0.9
				c0.6-0.6,0.9-1.3,0.9-2.3c0-0.6-0.1-1.2-0.4-1.6s-0.6-0.9-1.1-1.1S167,167.6,166.4,167.6z"/>
			<path class="st4" d="M179.6,172.2l0.9,0.5c-0.3,0.6-0.6,1-1,1.4c-0.4,0.3-0.8,0.6-1.3,0.8s-1,0.3-1.6,0.3c-1.3,0-2.4-0.4-3.1-1.3
				c-0.7-0.9-1.1-1.8-1.1-2.9c0-1,0.3-1.9,0.9-2.8c0.8-1,1.9-1.5,3.2-1.5c1.4,0,2.5,0.5,3.3,1.6c0.6,0.7,0.9,1.7,0.9,2.8h-7.3
				c0,0.9,0.3,1.7,0.9,2.3c0.6,0.6,1.3,0.9,2.2,0.9c0.4,0,0.8-0.1,1.2-0.2c0.4-0.1,0.7-0.3,1-0.6C179,173.1,179.3,172.7,179.6,172.2
				z M179.6,170c-0.1-0.6-0.3-1-0.6-1.3s-0.6-0.6-1.1-0.8s-0.9-0.3-1.4-0.3c-0.8,0-1.5,0.3-2.1,0.8c-0.4,0.4-0.7,0.9-0.9,1.7H179.6z
				"/>
		</g>
		<g class="st3">
			<path class="st4" d="M116.8,184.3l-0.9,0.7c-0.5-0.6-1.1-1.1-1.7-1.4c-0.7-0.3-1.4-0.5-2.2-0.5c-0.9,0-1.7,0.2-2.4,0.6
				c-0.7,0.4-1.3,1-1.7,1.7c-0.4,0.7-0.6,1.5-0.6,2.4c0,1.3,0.5,2.5,1.4,3.3c0.9,0.9,2.1,1.3,3.5,1.3c1.5,0,2.8-0.6,3.9-1.8l0.9,0.7
				c-0.5,0.7-1.2,1.2-2,1.6c-0.8,0.4-1.7,0.6-2.7,0.6c-1.9,0-3.4-0.6-4.5-1.9c-0.9-1.1-1.4-2.4-1.4-3.9c0-1.6,0.6-3,1.7-4.1
				c1.1-1.1,2.5-1.6,4.2-1.6c1,0,1.9,0.2,2.8,0.6C115.6,183,116.2,183.5,116.8,184.3z"/>
			<path class="st4" d="M122.6,184.9c1.2,0,2.3,0.5,3.1,1.4c0.7,0.8,1.1,1.8,1.1,2.9c0,1.1-0.4,2.1-1.2,3s-1.8,1.3-3,1.3
				c-1.2,0-2.3-0.4-3.1-1.3s-1.2-1.8-1.2-3c0-1.1,0.4-2.1,1.1-2.9C120.4,185.3,121.4,184.9,122.6,184.9z M122.6,185.9
				c-0.9,0-1.6,0.3-2.2,1c-0.6,0.6-0.9,1.4-0.9,2.3c0,0.6,0.1,1.1,0.4,1.6c0.3,0.5,0.7,0.9,1.2,1.2c0.5,0.3,1,0.4,1.6,0.4
				s1.1-0.1,1.6-0.4c0.5-0.3,0.9-0.7,1.2-1.2c0.3-0.5,0.4-1.1,0.4-1.6c0-0.9-0.3-1.7-0.9-2.3C124.3,186.2,123.5,185.9,122.6,185.9z"
				/>
			<path class="st4" d="M128.8,185.1h1v1.4c0.4-0.5,0.7-0.9,1.1-1.1c0.5-0.3,1.1-0.5,1.7-0.5c0.4,0,0.8,0.1,1.1,0.2s0.6,0.4,0.9,0.6
				c0.2,0.3,0.4,0.6,0.6,1.1c0.3-0.6,0.8-1.1,1.3-1.5c0.5-0.3,1.1-0.5,1.7-0.5c0.6,0,1.1,0.1,1.5,0.4s0.7,0.7,1,1.2
				c0.2,0.5,0.3,1.3,0.3,2.3v4.4h-1.1v-4.4c0-0.9-0.1-1.5-0.2-1.8c-0.1-0.3-0.3-0.6-0.6-0.8c-0.3-0.2-0.7-0.3-1.1-0.3
				c-0.5,0-1,0.1-1.4,0.4c-0.4,0.3-0.7,0.7-0.9,1.2c-0.2,0.5-0.3,1.3-0.3,2.5v3.2h-1V189c0-1-0.1-1.6-0.2-2
				c-0.1-0.4-0.3-0.6-0.6-0.8c-0.3-0.2-0.7-0.3-1.1-0.3c-0.5,0-0.9,0.1-1.4,0.4c-0.4,0.3-0.7,0.7-0.9,1.2c-0.2,0.5-0.3,1.2-0.3,2.3
				v3.4h-1V185.1z"/>
			<path class="st4" d="M143.5,181.7c0.2,0,0.4,0.1,0.6,0.3s0.3,0.4,0.3,0.6c0,0.2-0.1,0.4-0.3,0.6s-0.4,0.3-0.6,0.3
				c-0.2,0-0.4-0.1-0.6-0.3c-0.2-0.2-0.3-0.4-0.3-0.6c0-0.2,0.1-0.4,0.3-0.6C143.1,181.8,143.3,181.7,143.5,181.7z M143,185.1h1v8.1
				h-1V185.1z"/>
			<path class="st4" d="M146.2,185.1h1v1.5c0.4-0.6,0.9-1,1.4-1.2c0.5-0.3,1.1-0.4,1.7-0.4c0.6,0,1.1,0.2,1.6,0.5
				c0.5,0.3,0.8,0.7,1,1.2c0.2,0.5,0.3,1.3,0.3,2.4v4.2h-1v-3.9c0-0.9,0-1.6-0.1-1.9c-0.1-0.5-0.4-0.9-0.7-1.2
				c-0.3-0.3-0.8-0.4-1.3-0.4c-0.6,0-1.2,0.2-1.7,0.6c-0.5,0.4-0.8,0.9-1,1.6c-0.1,0.4-0.1,1.1-0.1,2.2v3h-1V185.1z"/>
			<path class="st4" d="M162.5,185.1h1v6.5c0,1.1-0.1,2-0.3,2.5c-0.3,0.7-0.7,1.3-1.4,1.7s-1.5,0.6-2.4,0.6c-0.7,0-1.3-0.1-1.9-0.3
				c-0.6-0.2-1-0.5-1.4-0.8s-0.7-0.8-1-1.5h1.1c0.3,0.5,0.7,0.9,1.2,1.2s1.1,0.4,1.8,0.4c0.7,0,1.3-0.1,1.8-0.4c0.5-0.3,0.8-0.6,1-1
				s0.3-1,0.3-1.9v-0.4c-0.4,0.5-0.9,0.9-1.4,1.1c-0.6,0.3-1.2,0.4-1.8,0.4c-0.7,0-1.4-0.2-2.1-0.6c-0.7-0.4-1.2-0.9-1.5-1.5
				c-0.4-0.6-0.5-1.3-0.5-2.1s0.2-1.5,0.6-2.1c0.4-0.6,0.9-1.2,1.5-1.5s1.4-0.6,2.1-0.6c0.6,0,1.2,0.1,1.7,0.4
				c0.5,0.3,1,0.7,1.5,1.2V185.1z M159.4,185.9c-0.6,0-1.1,0.1-1.6,0.4c-0.5,0.3-0.9,0.7-1.2,1.2c-0.3,0.5-0.4,1.1-0.4,1.6
				c0,0.9,0.3,1.6,0.9,2.2c0.6,0.6,1.4,0.9,2.3,0.9c1,0,1.7-0.3,2.3-0.9s0.9-1.3,0.9-2.3c0-0.6-0.1-1.2-0.4-1.6s-0.6-0.9-1.1-1.1
				S160,185.9,159.4,185.9z"/>
			<path class="st4" d="M169.1,191.1l0.9-0.6c0.7,1.2,1.4,1.8,2.3,1.8c0.4,0,0.7-0.1,1-0.3s0.6-0.4,0.7-0.7c0.2-0.3,0.3-0.6,0.3-0.9
				c0-0.4-0.1-0.7-0.4-1.1c-0.3-0.5-1-1.1-1.9-1.8c-0.9-0.7-1.5-1.2-1.7-1.5c-0.4-0.5-0.6-1.1-0.6-1.7c0-0.5,0.1-0.9,0.3-1.3
				c0.2-0.4,0.5-0.7,1-0.9c0.4-0.2,0.9-0.3,1.4-0.3c0.5,0,1,0.1,1.5,0.4c0.4,0.3,0.9,0.7,1.4,1.4l-0.9,0.7c-0.4-0.5-0.8-0.9-1.1-1.1
				s-0.6-0.3-1-0.3c-0.4,0-0.8,0.1-1.1,0.4s-0.4,0.6-0.4,1c0,0.2,0.1,0.5,0.1,0.7c0.1,0.2,0.3,0.5,0.5,0.7c0.1,0.1,0.6,0.5,1.4,1.1
				c0.9,0.7,1.6,1.3,2,1.9s0.5,1.1,0.5,1.6c0,0.8-0.3,1.5-0.9,2.1c-0.6,0.6-1.3,0.9-2.2,0.9c-0.7,0-1.3-0.2-1.8-0.5
				C170,192.6,169.5,192,169.1,191.1z"/>
			<path class="st4" d="M181.5,184.9c1.2,0,2.3,0.5,3.1,1.4c0.7,0.8,1.1,1.8,1.1,2.9c0,1.1-0.4,2.1-1.2,3c-0.8,0.8-1.8,1.3-3,1.3
				c-1.2,0-2.3-0.4-3.1-1.3c-0.8-0.8-1.2-1.8-1.2-3c0-1.1,0.4-2.1,1.1-2.9C179.2,185.3,180.2,184.9,181.5,184.9z M181.5,185.9
				c-0.9,0-1.6,0.3-2.2,1c-0.6,0.6-0.9,1.4-0.9,2.3c0,0.6,0.1,1.1,0.4,1.6c0.3,0.5,0.7,0.9,1.2,1.2c0.5,0.3,1,0.4,1.6,0.4
				s1.1-0.1,1.6-0.4c0.5-0.3,0.9-0.7,1.2-1.2c0.3-0.5,0.4-1.1,0.4-1.6c0-0.9-0.3-1.7-0.9-2.3C183.1,186.2,182.3,185.9,181.5,185.9z"
				/>
			<path class="st4" d="M191.5,184.9c1.2,0,2.3,0.5,3.1,1.4c0.7,0.8,1.1,1.8,1.1,2.9c0,1.1-0.4,2.1-1.2,3c-0.8,0.8-1.8,1.3-3,1.3
				c-1.2,0-2.3-0.4-3.1-1.3c-0.8-0.8-1.2-1.8-1.2-3c0-1.1,0.4-2.1,1.1-2.9C189.2,185.3,190.2,184.9,191.5,184.9z M191.5,185.9
				c-0.9,0-1.6,0.3-2.2,1c-0.6,0.6-0.9,1.4-0.9,2.3c0,0.6,0.1,1.1,0.4,1.6c0.3,0.5,0.7,0.9,1.2,1.2c0.5,0.3,1,0.4,1.6,0.4
				s1.1-0.1,1.6-0.4c0.5-0.3,0.9-0.7,1.2-1.2c0.3-0.5,0.4-1.1,0.4-1.6c0-0.9-0.3-1.7-0.9-2.3C193.1,186.2,192.3,185.9,191.5,185.9z"
				/>
			<path class="st4" d="M197.6,185.1h1v1.5c0.4-0.6,0.9-1,1.4-1.2c0.5-0.3,1.1-0.4,1.7-0.4c0.6,0,1.1,0.2,1.6,0.5
				c0.5,0.3,0.8,0.7,1,1.2c0.2,0.5,0.3,1.3,0.3,2.4v4.2h-1v-3.9c0-0.9,0-1.6-0.1-1.9c-0.1-0.5-0.4-0.9-0.7-1.2
				c-0.3-0.3-0.8-0.4-1.3-0.4c-0.6,0-1.2,0.2-1.7,0.6c-0.5,0.4-0.8,0.9-1,1.6c-0.1,0.4-0.1,1.1-0.1,2.2v3h-1V185.1z"/>
			<path class="st4" d="M208,191.6c0.3,0,0.5,0.1,0.6,0.3c0.2,0.2,0.3,0.4,0.3,0.7c0,0.3-0.1,0.5-0.3,0.7c-0.2,0.2-0.4,0.3-0.6,0.3
				s-0.5-0.1-0.6-0.3c-0.2-0.2-0.3-0.4-0.3-0.7c0-0.3,0.1-0.5,0.3-0.7C207.6,191.6,207.8,191.6,208,191.6z M208.6,181.9v8.5h-1.1
				v-8.5H208.6z"/>
		</g>
	</g>
	<g>
		<path class="st1" d="M145.1,113.2c0.1-2.9,0.7-5.5,2.2-7.9c0.2-0.4,0.8-1.1,0.8-1.1s0.8-0.4,1.2-0.6c5.9-2.6,11.4-1.9,16.4,2.3
			c2.2,1.8,3.7,4.1,4.1,6.9c0.6,3.6-1.8,7.8-5.1,9.5c-0.1,0-0.1,0-0.2,0.1c-2.5,4.4-9,6.3-13.9,2.2
			C147,121.6,145.2,117.7,145.1,113.2z M157.3,111.4c0.4-0.2,0.6-0.3,0.9-0.4c0.2-0.1,0.3-0.2,0-0.4c-0.6-0.4-0.9-1.1-1.2-1.7
			c-0.2-0.5-0.5-1-1-1.3c-1.2-0.8-2.5-0.8-3.8-0.2c-0.2,0.1-0.5,0.2-0.5,0.2s0,0.4,0,0.7c0.1,1.2-0.1,2.3-0.7,3.3
			c-1.2,2.5-1.6,5.1-1,7.8c0.3,1.3,0.7,2.5,1.7,3.4c2,1.7,4.3,2.4,6.9,1.8c1.1-0.3,2.1-0.8,3-1.6c-0.2,0-0.3-0.1-0.3-0.1
			c-4.1-0.8-6.9-5.1-5.7-9.5c0.1-0.3,0.3-0.7,0.3-0.7s0.4,0,0.7,0.1c3.9,0.8,6.6,3,7.9,6.8c0.2,0.6,0.2,0.6,0.7,0.2
			c2.7-2.2,3.5-6.3,1.7-9.3c-3.4-5.9-10.5-7.7-16.3-5.1c-0.3,0.1-1,0.4-1,0.4s-0.1,0.2-0.2,0.4c-1.6,2.5-2.2,5.2-2,8.1
			c0.1,0.9,0.2,1.9,0.6,2.8c0-0.1,0.1-0.1,0.1-0.1c0.1-2.2,0.7-4.2,1.7-6.1c0.6-1.2,0.8-2.5,0.5-3.9c0-0.2-0.1-0.5-0.1-0.5
			s0.3-0.1,0.4-0.1c1.1-0.6,2.3-0.9,3.5-0.8c1.6,0.2,3.1,0.8,3.9,2.4c0.5,1,0.9,2,1.9,2.6c0.2,0.2,0.2,0.2,0.2,0.2s-0.1,0.1-0.2,0.2
			C159,111.3,158.2,111.6,157.3,111.4z M156.8,115.5c0,1,0.2,2,0.7,2.9c1.1,1.9,2.6,3,4.9,2.9c0.3,0,0.7-0.1,0.7-0.1s0-0.4,0-0.7
			c-0.7-2.8-2.5-4.7-5.1-5.7c-0.6-0.2-1-0.2-1-0.2S156.8,114.9,156.8,115.5z"/>
		<path class="st1" d="M156.4,108.5c0,0.4-0.2,0.6-0.6,0.6c-0.4,0-0.6-0.2-0.6-0.6s0.2-0.6,0.6-0.6S156.4,108.2,156.4,108.5z"/>
	</g>
	<g>
		<path class="st5" d="M145.1,112.9c0.1-2.9,0.7-5.5,2.2-7.9c0.2-0.4,0.8-1.1,0.8-1.1s0.8-0.4,1.2-0.6c5.9-2.6,11.4-1.9,16.4,2.3
			c2.2,1.8,3.7,4.1,4.1,6.9c0.6,3.6-1.8,7.8-5.1,9.5c-0.1,0-0.1,0-0.2,0.1c-2.5,4.4-9,6.3-13.9,2.2
			C147,121.3,145.2,117.4,145.1,112.9z M157.3,111c0.4-0.2,0.6-0.3,0.9-0.4c0.2-0.1,0.3-0.2,0-0.4c-0.6-0.4-0.9-1.1-1.2-1.7
			c-0.2-0.5-0.5-1-1-1.3c-1.2-0.8-2.5-0.8-3.8-0.2c-0.2,0.1-0.5,0.2-0.5,0.2s0,0.4,0,0.7c0.1,1.2-0.1,2.3-0.7,3.3
			c-1.2,2.5-1.6,5.1-1,7.8c0.3,1.3,0.7,2.5,1.7,3.4c2,1.7,4.3,2.4,6.9,1.8c1.1-0.3,2.1-0.8,3-1.6c-0.2,0-0.3-0.1-0.3-0.1
			c-4.1-0.8-6.9-5.1-5.7-9.5c0.1-0.3,0.3-0.7,0.3-0.7s0.4,0,0.7,0.1c3.9,0.8,6.6,3,7.9,6.8c0.2,0.6,0.2,0.6,0.7,0.2
			c2.7-2.2,3.5-6.3,1.7-9.3c-3.4-5.9-10.5-7.7-16.3-5.1c-0.3,0.1-1,0.4-1,0.4s-0.1,0.2-0.2,0.4c-1.6,2.5-2.2,5.2-2,8.1
			c0.1,0.9,0.2,1.9,0.6,2.8c0-0.1,0.1-0.1,0.1-0.1c0.1-2.2,0.7-4.2,1.7-6.1c0.6-1.2,0.8-2.5,0.5-3.9c0-0.2-0.1-0.5-0.1-0.5
			s0.3-0.1,0.4-0.1c1.1-0.6,2.3-0.9,3.5-0.8c1.6,0.2,3.1,0.8,3.9,2.4c0.5,1,0.9,2,1.9,2.6c0.2,0.2,0.2,0.2,0.2,0.2s-0.1,0.1-0.2,0.2
			C159,111,158.2,111.2,157.3,111z M156.8,115.1c0,1,0.2,2,0.7,2.9c1.1,1.9,2.6,3,4.9,2.9c0.3,0,0.7-0.1,0.7-0.1s0-0.4,0-0.7
			c-0.7-2.8-2.5-4.7-5.1-5.7c-0.6-0.2-1-0.2-1-0.2S156.8,114.6,156.8,115.1z"/>
		<path class="st5" d="M156.4,108.2c0,0.4-0.2,0.6-0.6,0.6c-0.4,0-0.6-0.2-0.6-0.6s0.2-0.6,0.6-0.6S156.4,107.8,156.4,108.2z"/>
	</g>
</g>
<circle class="st5" cx="192.1" cy="94.7" r="3.5"/>
</svg>
