<?xml version="1.0" encoding="utf-8"?>
<!-- Generator: Adobe Illustrator 22.0.0, SVG Export Plug-In . SVG Version: 6.00 Build 0)  -->
<svg version="1.1" id="Layer_1" xmlns="http://www.w3.org/2000/svg" xmlns:xlink="http://www.w3.org/1999/xlink" x="0px" y="0px"
	 viewBox="0 0 413.8 198" style="enable-background:new 0 0 413.8 198;" xml:space="preserve">
<style type="text/css">
	.st0{fill:#F2F2F2;}
	.st1{fill:#424242;}
	.st2{fill:#DDDDDD;}
	.st3{fill:#F9F9F9;}
	.st4{fill:#FFFFFF;}
	.st5{fill:#EF5350;}
	.st6{fill:#D85681;}
	.st7{fill:#F7F8F9;stroke:#EF5451;stroke-width:2;stroke-miterlimit:10;}
	.st8{enable-background:new    ;}
	.st9{fill:#EE5451;}
	.st10{fill:#F7F8F9;stroke:#0AA699;stroke-width:2;stroke-miterlimit:10;}
	.st11{fill:#0AA699;}
</style>
<g>
	<path class="st0" d="M310.3,21.8c0,7.8-36.9,19-48,29.2c-5.7,5.1-3.4,9.3,4.6,6.9c6.2-2,22.1-6.4,40.2-8.6
		c7.8-0.9,12.8,1.5,16.5,5.1c32.5,30.5,38.2,98.3,16.4,142.7H107.7c-15.6-37.2-20.6-79.1-5-117.2c1-2.5,4.6-6.9,6.4-8.7
		c5.6-5.8,15.4-12,21-15.1c1.4-0.8,1-2.4-0.6-1.9c-1.7,0.5-7.4,2.5-10.4,2.5c-1.9,0-2.9-1.5-1-3.9c30.9-41.4,82.2-57.4,131-51.5
		c14.6,1.9-3.6,7.3-13.6,15.4c-6.4,5.1-0.4,4,3.2,3.4C278.2,13,310.3,12.6,310.3,21.8L310.3,21.8z"/>
	<path class="st1" d="M381.8,197c0,0.5-0.4,1-1,1c-0.5,0-1-0.4-1-1v-5.2h-18v5.2c0,0.5-0.4,1-1,1c-0.5,0-1-0.4-1-1v-5.2h-2.5v-1.9
		h2.6v-1.6h-2.6v-1.8h2.6v-1.6h-2.6V183h3.6h19.9h3.6v1.9h-2.6v1.6h2.6v1.9h-2.6v1.6h2.6v1.9h-2.6V197L381.8,197z M361.9,184.9v1.6
		h18v-1.6H361.9L361.9,184.9z M361.9,188.4v1.6h18v-1.6H361.9L361.9,188.4z"/>
	<path class="st2" d="M377.4,140.8c11.1,0,20,9,20,20c0,11.1-9,20-20,20c-11.1,0-20-9-20-20C357.3,149.8,366.3,140.8,377.4,140.8
		L377.4,140.8z"/>
	<path class="st3" d="M375.2,142.9c8.5,0,15.3,6.9,15.3,15.3s-6.9,15.3-15.3,15.3c-8.5,0-15.3-6.9-15.3-15.3
		S366.8,142.9,375.2,142.9L375.2,142.9z"/>
	<path class="st1" d="M377.4,139.9c5.8,0,11,2.3,14.8,6.1c3.8,3.8,6.1,9,6.1,14.8s-2.3,11-6.1,14.8c-3.6,3.6-8.5,5.9-13.9,6.1v15.2
		c0,0.5-0.4,1-1,1c-0.5,0-1-0.4-1-1v-15.2c-5.4-0.2-10.3-2.5-13.9-6.1c-3.8-3.8-6.1-9-6.1-14.8s2.3-11,6.1-14.8
		C366.3,142.2,371.6,139.9,377.4,139.9L377.4,139.9z M380.9,163.5c0.4-0.4,1-0.4,1.3,0c0.4,0.4,0.4,1,0,1.3l-4,4v11.1
		c4.9-0.2,9.3-2.3,12.5-5.6c3.5-3.5,5.6-8.2,5.6-13.5s-2.1-10-5.6-13.5s-8.2-5.6-13.5-5.6s-10,2.1-13.5,5.6s-5.6,8.2-5.6,13.5
		s2.1,10,5.6,13.5c3.2,3.2,7.6,5.3,12.5,5.6v-4.8l-7.2-7.2c-0.4-0.4-0.4-1,0-1.3c0.4-0.4,1-0.4,1.3,0l5.9,5.9v-11.6c0-0.5,0.4-1,1-1
		c0.5,0,1,0.4,1,1v5.3L380.9,163.5L380.9,163.5z"/>
	<path class="st2" d="M160.3,140.8c11.1,0,20,9,20,20c0,11.1-9,20-20,20c-11.1,0-20-9-20-20S149.3,140.8,160.3,140.8L160.3,140.8z"
		/>
	<path class="st3" d="M158.2,142.9c8.5,0,15.3,6.9,15.3,15.3c0,8.5-6.9,15.3-15.3,15.3c-8.5,0-15.3-6.9-15.3-15.3
		C142.8,149.8,149.7,142.9,158.2,142.9L158.2,142.9z"/>
	<path class="st1" d="M163.9,163.5c0.4-0.4,1-0.4,1.3,0c0.4,0.4,0.4,1,0,1.3l-4,4v11.1c4.9-0.2,9.3-2.3,12.5-5.6
		c3.5-3.5,5.6-8.2,5.6-13.5s-2.1-10-5.6-13.5s-8.2-5.6-13.5-5.6s-10,2.1-13.5,5.6s-5.6,8.2-5.6,13.5s2.1,10,5.6,13.5
		c3.2,3.2,7.6,5.3,12.5,5.6v-4.8l-7.2-7.2c-0.4-0.4-0.4-1,0-1.3c0.4-0.4,1-0.4,1.3,0l5.9,5.9v-11.6c0-0.5,0.4-1,1-1c0.5,0,1,0.4,1,1
		v5.3L163.9,163.5L163.9,163.5z M161.3,181.8V197c0,0.5-0.4,1-1,1c-0.5,0-1-0.4-1-1v-15.2c-5.4-0.2-10.3-2.5-13.9-6.1
		c-3.8-3.8-6.1-9-6.1-14.8s2.3-11,6.1-14.8c3.8-3.8,9-6.1,14.8-6.1s11,2.3,14.8,6.1c3.8,3.8,6.1,9,6.1,14.8s-2.3,11-6.1,14.8
		C171.6,179.3,166.7,181.6,161.3,181.8L161.3,181.8z"/>
	<path class="st2" d="M198.8,56.4H192c-5.8-3.6-13.1-11.4-13.1-19.9c0-11,8.9-19.9,19.9-19.9s19.9,8.9,19.9,19.9
		c0,8.6-7.3,16.3-13.1,19.9H198.8L198.8,56.4z"/>
	<path class="st4" d="M198.8,56.4h-5.5c-4.7-3.6-10.6-11.4-10.6-19.9c0-11,7.2-19.9,16.1-19.9c8.9,0,16.1,8.9,16.1,19.9
		c0,8.6-5.9,16.3-10.6,19.9H198.8L198.8,56.4z"/>
	<path class="st2" d="M198.8,56.4h-3.9c-3.3-3.6-7.5-11.4-7.5-19.9c0-11,5.1-19.9,11.4-19.9c6.3,0,11.4,8.9,11.4,19.9
		c0,8.6-4.2,16.3-7.5,19.9H198.8L198.8,56.4z"/>
	<path class="st4" d="M203.6,67.6v6.1c0,0.7-0.5,1.2-1.2,1.2h-7.2c-0.7,0-1.2-0.5-1.2-1.2v-6.1H203.6L203.6,67.6z"/>
	<path class="st4" d="M194,64.6h9.6c0.3,0,0.6,0.3,0.6,0.6v1.7c0,0.3-0.3,0.6-0.6,0.6H194c-0.3,0-0.6-0.3-0.6-0.6v-1.7
		C193.4,64.9,193.7,64.6,194,64.6L194,64.6z"/>
	<path class="st4" d="M192,56.4h13.6v2.3c0,0.3-0.3,0.6-0.6,0.6h-12.4c-0.3,0-0.6-0.3-0.6-0.6V56.4L192,56.4z"/>
	<path class="st4" d="M198.8,56.4h-1.6c-1.4-3.6-3-11.4-3-19.9c0-11,2.1-19.9,4.6-19.9c2.6,0,4.6,8.9,4.6,19.9
		c0,8.6-1.7,16.3-3,19.9H198.8L198.8,56.4z"/>
	<path class="st2" d="M203.6,67.6v6.1c0,0.7-0.5,1.2-1.2,1.2h-2.6c0.7,0,1.2-0.5,1.2-1.2v-6.1l0,0H203.6L203.6,67.6z"/>
	<path class="st2" d="M201,64.6h2.6c0.3,0,0.6,0.3,0.6,0.6v1.7c0,0.3-0.3,0.6-0.6,0.6H201c0.3,0,0.6-0.3,0.6-0.6v-1.7
		C201.7,64.9,201.4,64.6,201,64.6L201,64.6z"/>
	<path class="st2" d="M203,56.4h2.6v2.3c0,0.3-0.3,0.6-0.6,0.6h-2.6c0.3,0,0.6-0.3,0.6-0.6V56.4L203,56.4z"/>
	<path class="st1" d="M198.8,57.3h-5.9v1.1h3.3h5.1h3.3v-1.1H198.8L198.8,57.3z M194.8,63.7h0.5v-3.4h-1.4L194.8,63.7L194.8,63.7z
		 M197.2,63.7h3.2v-3.4h-3.2V63.7L197.2,63.7z M202.3,63.7h0.5l0.9-3.4h-1.4V63.7L202.3,63.7z M204.7,64.1L204.7,64.1
		C204.7,64.2,204.8,64.2,204.7,64.1c0.3,0.4,0.5,0.7,0.5,1.1v1.7c0,0.4-0.2,0.8-0.5,1.1c-0.1,0.1-0.1,0.1-0.2,0.1v5.5
		c0,0.6-0.2,1.1-0.6,1.5c0,0,0,0-0.1,0.1c-0.4,0.3-0.9,0.6-1.4,0.6h-7.2c-0.6,0-1.1-0.2-1.5-0.6l0,0l0,0l0,0
		c-0.4-0.4-0.6-0.9-0.6-1.5v-5.5c-0.1,0-0.1-0.1-0.2-0.1l0,0c-0.3-0.3-0.5-0.7-0.5-1.1v-1.7c0-0.4,0.2-0.8,0.5-1.1l0,0l0,0l0,0l0,0
		l-1.1-4c-0.1-0.1-0.2-0.2-0.3-0.3l0,0l0,0l0,0c-0.3-0.3-0.5-0.7-0.5-1.1V57c-3.2-2.1-6.8-5.4-9.4-9.3c-2.2-3.3-3.7-7.1-3.7-11.1
		c0-5.8,2.3-11,6.1-14.8c3.8-3.8,9-6.1,14.8-6.1s11,2.3,14.8,6.1c3.8,3.8,6.1,9,6.1,14.8c0,4-1.5,7.8-3.7,11.1
		c-2.6,3.9-6.2,7.2-9.4,9.3v1.8c0,0.4-0.2,0.8-0.5,1.1l0,0c-0.1,0.1-0.2,0.2-0.3,0.3L204.7,64.1L204.7,64.1z M202.6,68.5h-7.7v5.2
		c0,0.1,0,0.1,0.1,0.2l0,0c0,0,0.1,0.1,0.2,0.1h7.2c0.1,0,0.1,0,0.1,0l0,0c0,0,0.1-0.1,0.1-0.2L202.6,68.5L202.6,68.5z M203.3,65.6
		h-1.9h-5.1h-2v1.1h8.9L203.3,65.6L203.3,65.6z M192.3,55.4h6.5h6.5c3.1-2,6.6-5.1,9.1-8.9c2-3,3.4-6.5,3.4-10.1
		c0-5.2-2.1-10-5.6-13.4c-3.4-3.4-8.2-5.6-13.4-5.6s-10,2.1-13.4,5.6c-3.4,3.4-5.6,8.2-5.6,13.4c0,3.6,1.4,7,3.4,10.1
		C185.7,50.3,189.2,53.5,192.3,55.4L192.3,55.4z"/>
	<polygon class="st4" points="84.4,66 136.2,66 136.2,196.1 38.4,196.1 38.4,163.8 30.5,163.8 30.5,195.9 27.3,195.9 27.3,163.8 
		23.9,163.8 23.9,145.4 38.4,145.4 38.4,58.1 84.4,58.1 	"/>
	<path class="st2" d="M68,136.5c0.5,0,1,0.4,1,1c0,0.5-0.4,1-1,1H55c-0.5,0-1-0.4-1-1c0-0.5,0.4-1,1-1H68L68,136.5z M43,80.9
		c0.5,0,1,0.4,1,1c0,0.5-0.4,1-1,1h-4.6c-0.5,0-1-0.4-1-1c0-0.5,0.4-1,1-1H43L43,80.9z M43,88.9c0.5,0,1,0.4,1,1c0,0.5-0.4,1-1,1
		h-4.6c-0.5,0-1-0.4-1-1c0-0.5,0.4-1,1-1H43L43,88.9z M43,96.8c0.5,0,1,0.4,1,1c0,0.5-0.4,1-1,1h-4.6c-0.5,0-1-0.4-1-1
		c0-0.5,0.4-1,1-1H43L43,96.8z M43,104.7c0.5,0,1,0.4,1,1c0,0.5-0.4,1-1,1h-4.6c-0.5,0-1-0.4-1-1c0-0.5,0.4-1,1-1H43L43,104.7z
		 M43,112.7c0.5,0,1,0.4,1,1c0,0.5-0.4,1-1,1h-4.6c-0.5,0-1-0.4-1-1c0-0.5,0.4-1,1-1H43L43,112.7z M43,120.6c0.5,0,1,0.4,1,1
		c0,0.5-0.4,1-1,1h-4.6c-0.5,0-1-0.4-1-1c0-0.5,0.4-1,1-1H43L43,120.6z M43,128.6c0.5,0,1,0.4,1,1c0,0.5-0.4,1-1,1h-4.6
		c-0.5,0-1-0.4-1-1c0-0.5,0.4-1,1-1H43L43,128.6z M43,136.5c0.5,0,1,0.4,1,1c0,0.5-0.4,1-1,1h-4.6c-0.5,0-1-0.4-1-1c0-0.5,0.4-1,1-1
		H43L43,136.5z M68,65.1c0.5,0,1,0.4,1,1c0,0.5-0.4,1-1,1H38.4c-0.5,0-1-0.4-1-1c0-0.5,0.4-1,1-1H68L68,65.1z M68,73
		c0.5,0,1,0.4,1,1c0,0.5-0.4,1-1,1H38.4c-0.5,0-1-0.4-1-1c0-0.5,0.4-1,1-1H68L68,73z M68,80.9c0.5,0,1,0.4,1,1c0,0.5-0.4,1-1,1H55
		c-0.5,0-1-0.4-1-1c0-0.5,0.4-1,1-1H68L68,80.9z M68,88.9c0.5,0,1,0.4,1,1c0,0.5-0.4,1-1,1H55c-0.5,0-1-0.4-1-1c0-0.5,0.4-1,1-1H68
		L68,88.9z M68,96.8c0.5,0,1,0.4,1,1c0,0.5-0.4,1-1,1H55c-0.5,0-1-0.4-1-1c0-0.5,0.4-1,1-1H68L68,96.8z M68,104.7c0.5,0,1,0.4,1,1
		c0,0.5-0.4,1-1,1H55c-0.5,0-1-0.4-1-1c0-0.5,0.4-1,1-1H68L68,104.7z M68,112.7c0.5,0,1,0.4,1,1c0,0.5-0.4,1-1,1H55
		c-0.5,0-1-0.4-1-1c0-0.5,0.4-1,1-1H68L68,112.7z M68,120.6c0.5,0,1,0.4,1,1c0,0.5-0.4,1-1,1H55c-0.5,0-1-0.4-1-1c0-0.5,0.4-1,1-1
		H68L68,120.6z M68,128.6c0.5,0,1,0.4,1,1c0,0.5-0.4,1-1,1H55c-0.5,0-1-0.4-1-1c0-0.5,0.4-1,1-1H68L68,128.6z"/>
	<polygon class="st2" points="123.6,163.8 123.6,169.4 55,169.4 55,196.1 45.7,196.1 45.7,169.4 38.4,169.4 38.4,163.8 	"/>
	<polygon class="st2" points="45.7,85.5 55,85.5 55,145.4 45.7,145.4 	"/>
	<polygon class="st2" points="87,85.5 123.6,85.5 123.6,160.3 87,160.3 	"/>
	<polygon class="st0" points="87,145.1 123.6,124 123.6,134 87,155.1 	"/>
	<polygon class="st0" points="87,158 123.6,136.9 123.6,142.7 93.1,160.3 87,160.3 	"/>
	<path class="st5" d="M69,172.8c-0.5,0-1-0.4-1-1c0-0.5,0.4-1,1-1h2.6c0.5,0,1,0.4,1,1c0,0.1,0,0.2,0,0.3l-1.8,7.3
		c-0.1,0.5-0.6,0.8-1.2,0.7c-0.5-0.1-0.8-0.6-0.7-1.2l1.6-6.2H69V172.8z M59.3,172.8c-0.5,0-1-0.4-1-1c0-0.5,0.4-1,1-1h1.8
		c0.5,0,1,0.4,1,1v7.4c0,0.5-0.4,1-1,1c-0.5,0-1-0.4-1-1v-6.4L59.3,172.8L59.3,172.8z M64.7,170.9h1.4c0.4,0,0.8,0.2,1.1,0.5l0,0
		l0,0c0.3,0.3,0.5,0.7,0.5,1.1v6.2c0,0.4-0.2,0.8-0.5,1.1s-0.7,0.5-1.1,0.5h-1.4c-0.4,0-0.8-0.2-1.1-0.5l-0.1-0.1
		c-0.2-0.3-0.4-0.6-0.4-1v-6.2c0-0.4,0.2-0.8,0.5-1.1l0,0l0,0C63.9,171.1,64.3,170.9,64.7,170.9L64.7,170.9z M65.7,172.8H65v5.5h0.7
		V172.8L65.7,172.8z"/>
	<polygon class="st5" points="55,163.8 55,196.1 45.7,196.1 45.7,169.4 43,169.4 43,163.8 	"/>
	<path class="st1" d="M44,196.1c0,0.5-0.4,1-1,1c-0.5,0-1-0.4-1-1v-3.5v-20.7v-7.1h-2.7v31.3c0,0.5-0.4,1-1,1c-0.5,0-1-0.4-1-1
		v-31.3h-5.9v31.3c0,0.5-0.4,1-1,1c-0.5,0-1-0.4-1-1v-31.3H28v31.3c0,0.5-0.4,1-1,1c-0.5,0-1-0.4-1-1v-31.3h-2.4c-0.5,0-1-0.4-1-1
		v-18.4c0-0.5,0.4-1,1-1h13.5V58c0-0.5,0.4-1,1-1h46c0.5,0,1,0.4,1,1v7H136c0.5,0,1,0.4,1,1v130.1c0,0.5-0.4,1-1,1c-0.5,0-1-0.4-1-1
		V67H84.1H72.3v78.4c0,0.5-0.4,1-1,1H54.7h-12h-4.6H24.6v16.5H27l0,0l0,0h3.2l0,0l0,0H38h4.6l0,0l0,0h12l0,0l0,0H84l0,0l0,0h39.2
		c0.5,0,1,0.4,1,1v8.1l0,0l0,0v16.1l0,0l0,0v8.1c0,0.5-0.4,1-1,1c-0.5,0-1-0.4-1-1v-7.1H85.3v7.1c0,0.5-0.4,1-1,1c-0.5,0-1-0.4-1-1
		v-8.1V180v-8.1v-7.1H55.8v7.1v20.7v3.5c0,0.5-0.4,1-1,1c-0.5,0-1-0.4-1-1v-2.6H43.7v2.6H44z M123.6,161.2h-7.9H92.3h-7.9
		c-0.5,0-1-0.4-1-1v-38.7v-7.9V81.8c0-0.5,0.4-1,1-1h7.9h23.4h7.9c0.5,0,1,0.4,1,1v39.7l0,0l0,0v23.8v14.9
		C124.5,160.8,124.1,161.2,123.6,161.2L123.6,161.2z M85.3,159.3h6v-36.8h-6V159.3L85.3,159.3z M93.2,159.3h21.5v-13.9v-22.9H93.2
		V159.3L93.2,159.3z M116.6,159.3h6v-13h-6V159.3L116.6,159.3z M122.6,144.4v-21.9h-6v21.9H122.6L122.6,144.4z M122.6,120.6V82.8h-6
		v30.8v7H122.6L122.6,120.6z M114.7,82.8H93.2v29.9h21.5V82.8L114.7,82.8z M91.3,82.8h-6v29.9h6V82.8L91.3,82.8z M85.3,114.6v6h6v-6
		H85.3L85.3,114.6z M114.7,114.6H93.2v6h21.5V114.6L114.7,114.6z M42.1,144.4v-30.8V81.8c0-0.5,0.4-1,1-1h12c0.5,0,1,0.4,1,1v31.8
		v30.8h14.7V66c0-0.5,0.4-1,1-1h11.8v-6H39.3v85.4H42.1L42.1,144.4z M54,144.4v-29.9H43.9v29.9H54L54,144.4z M54,112.7V82.8H43.9
		v29.9H54L54,112.7z M122.6,187.1v-6.2H85.3v6.2H122.6L122.6,187.1z M122.6,179v-6.2H85.3v6.2H122.6L122.6,179z M122.6,170.9v-6.2
		H85.3v6.2H122.6L122.6,170.9z M44,164.7v6.2h10.1v-6.2H44L44,164.7z M54,191.6v-18.8H43.9v18.8H54L54,191.6z"/>
	<path class="st4" d="M337.6,118.9v37.3h-7v26.5h1.4V197H192.6v-14.3h1.4v-41.1l-8.2,6.2c-0.3,0.3-0.8,0.2-1.1-0.2l-1.9-2.5
		c-0.3-0.3-0.2-0.8,0.2-1.1l51.3-38.7l18,13.5h13.3v-4.5h1.2v-8.7h-1.2V102h1.2v-3.6h7.9v3.6h1.2v3.6h-1.2v8.7h1.2v4.5L337.6,118.9
		L337.6,118.9L337.6,118.9z"/>
	<path class="st5" d="M266.7,129c0,0.5-0.4,1-1,1c-0.5,0-1-0.4-1-1v-4.8c0-0.5,0.4-1,1-1c0.5,0,1,0.4,1,1V129L266.7,129z"/>
	<path class="st6" d="M257.7,122.3c0,0.5-0.4,1-1,1c-0.5,0-1-0.4-1-1V119c0-0.5,0.4-1,1-1c0.5,0,1,0.4,1,1V122.3L257.7,122.3z"/>
	<path class="st5" d="M329.6,147.9c0,0.5-0.4,1-1,1c-0.5,0-1-0.4-1-1v-29c0-0.5,0.4-1,1-1c0.5,0,1,0.4,1,1V147.9L329.6,147.9z"/>
	<path class="st5" d="M320.6,147.9c0,0.5-0.4,1-1,1c-0.5,0-1-0.4-1-1v-29c0-0.5,0.4-1,1-1c0.5,0,1,0.4,1,1V147.9L320.6,147.9z"/>
	<path class="st5" d="M311.6,147.9c0,0.5-0.4,1-1,1c-0.5,0-1-0.4-1-1v-29c0-0.5,0.4-1,1-1c0.5,0,1,0.4,1,1V147.9L311.6,147.9z"/>
	<path class="st5" d="M302.6,147.9c0,0.5-0.4,1-1,1c-0.5,0-1-0.4-1-1v-29c0-0.5,0.4-1,1-1c0.5,0,1,0.4,1,1V147.9L302.6,147.9z"/>
	<path class="st5" d="M293.7,147.9c0,0.5-0.4,1-1,1c-0.5,0-1-0.4-1-1v-29c0-0.5,0.4-1,1-1c0.5,0,1,0.4,1,1V147.9L293.7,147.9z"/>
	<path class="st5" d="M284.7,142.6c0,0.5-0.4,1-1,1c-0.5,0-1-0.4-1-1V119c0-0.5,0.4-1,1-1c0.5,0,1,0.4,1,1V142.6L284.7,142.6z"/>
	<path class="st5" d="M275.7,135.8c0,0.5-0.4,1-1,1c-0.5,0-1-0.4-1-1v-11.6c0-0.5,0.4-1,1-1c0.5,0,1,0.4,1,1V135.8L275.7,135.8z"/>
	<path class="st2" d="M235.7,123.9c3.8,0,6.9,3.1,6.9,6.9s-3.1,6.9-6.9,6.9c-3.8,0-6.9-3.1-6.9-6.9S231.9,123.9,235.7,123.9
		L235.7,123.9z M330.6,156.2v4.8h-37.7l3.3,7.5l-2.8,3.7h-4.1v24.9h-13.1v-14.3h-1.4v-37.3l-13.3-10l-18.2,13.8V172l-11.4-27.1
		l2.6,3.5l8.8-6.6l15.8-11.9l15.8,11.8l8.2,6.2l2.8-3.7l3.2,7.5h48.7v4.6L330.6,156.2L330.6,156.2L330.6,156.2z M224.7,193.5h-9.5
		v-3.6h9.5V193.5L224.7,193.5z M253.1,197h-6.2v-14.3L253.1,197L253.1,197z M248.4,182.7h5.2v-18.6c1.7-1.2,3.5-2.1,5.3-2.7v16h2.9
		v-16.6c2.5-0.3,5.1,0,7.8,0.9v-13.5c-8-4.8-15-4.4-21.2,0V182.7L248.4,182.7z M230.3,177.4h-20.7v-24.9h20.7V177.4L230.3,177.4z
		 M194,141.6l40.4-30.4l21,15.8l-2.6,2l-15.9-12l-4.5,3.4c-1.8,0.5-3.3,1.7-4.3,3.3l-33.9,25.6v-7.7L194,141.6L194,141.6z"/>
	<path class="st5" d="M261.7,160.7v16.6h-2.9h-2.7v-14.8c-0.9,0.5-1.8,1-2.6,1.6v18.6h-1.1v-31.1h13.1v9.2
		C264.2,160.6,263,160.6,261.7,160.7L261.7,160.7z"/>
	<path class="st1" d="M235,104.6c0.1,0,0.1,0.1,0.2,0.2L235,104.6L235,104.6z M259.5,123.1c0.1,0,0.1,0.1,0.2,0.2L259.5,123.1
		L259.5,123.1z M193.5,197c0,0.5-0.4,1-1,1c-0.5,0-1-0.4-1-1v-14.3c0-0.5,0.4-1,1-1h0.5v-38.2l-6.6,5c-0.4,0.3-0.8,0.4-1.3,0.3
		c-0.4-0.1-0.9-0.3-1.1-0.7l-1.9-2.5c-0.3-0.4-0.4-0.8-0.3-1.3c0.1-0.4,0.3-0.9,0.7-1.1l51.3-38.7c0.4-0.3,0.8-0.2,1.2,0l17.7,13.3
		h12v-3.5c0-0.5,0.4-1,1-1h0.3v-6.8h-0.3c-0.5,0-1-0.4-1-1v-3.6c0-0.5,0.4-1,1-1h0.3v-2.6c0-0.5,0.4-1,1-1h7.9c0.5,0,1,0.4,1,1v2.6
		h0.3c0.5,0,1,0.4,1,1v3.6c0,0.5-0.4,1-1,1h-0.3v6.8h0.3c0.5,0,1,0.4,1,1v3.5h60.7c0.5,0,1,0.4,1,1v32.6v4.6c0,0.5-0.4,1-1,1h-6
		v24.6h0.5c0.5,0,1,0.4,1,1v14.3c0,0.5-0.4,1-1,1c-0.5,0-1-0.4-1-1v-13.4h-0.5h-7.8v2.2v11.2c0,0.5-0.4,1-1,1c-0.5,0-1-0.4-1-1
		v-10.2h-36.4v10.2c0,0.5-0.4,1-1,1c-0.5,0-1-0.4-1-1v-11.2v-2.2h-5.4v13.4c0,0.5-0.4,1-1,1c-0.5,0-1-0.4-1-1v-13.4h-0.5H272v2.6
		v3.6v3.7v3.5c0,0.5-0.4,1-1,1c-0.5,0-1-0.4-1-1v-2.4h-22.1v2.5c0,0.5-0.4,1-1,1c-0.5,0-1-0.4-1-1v-3.5v-3.7v-3.6v-2.6h-2.8h-0.5
		V197c0,0.5-0.4,1-1,1c-0.5,0-1-0.4-1-1v-13.4h-46.8h-0.5V197H193.5z M255.2,119.9l4.3,3.3l0,0l0,0l26.7,20.1
		c0.4,0.3,0.6,0.7,0.7,1.1c0.1,0.4,0,0.9-0.3,1.3l0,0l0,0l-1.9,2.5c-0.3,0.4-0.7,0.6-1.1,0.7c-0.4,0.1-0.9,0-1.3-0.3l-6.6-5v7.1h61
		V120H277v4.4c0,0.5-0.4,1-1,1h-10.3c-0.5,0-1-0.4-1-1V120h-9.5L255.2,119.9L255.2,119.9z M251.8,119.7L251.8,119.7l-17.4-13.1
		l-50.6,38.1l1.6,2.2l8-6c0,0,0.1,0,0.1-0.1l40.3-30.4c0.3-0.3,0.8-0.3,1.2,0l20.2,15.2l2.3-1.7L251.8,119.7L251.8,119.7z
		 M273.8,113.5v-6.8h-6v6.8H273.8L273.8,113.5z M275,115.4h-0.3h-7.9h-0.3v3.5v4.4h8.4v-4.4L275,115.4L275,115.4z M273.8,101.2v-1.6
		h-6v1.6H273.8L273.8,101.2z M266.6,104.8h0.3h7.9h0.3v-1.6h-0.3h-7.9h-0.3V104.8L266.6,104.8z M329.7,157.1h-54v24.6h0.5h6.4v-7
		v-11.2c0-0.5,0.4-1,1-1h38.3c0.5,0,1,0.4,1,1v11.2v7h6.9v-24.6H329.7z M336.7,152.5h-61v2.7h54.9h6L336.7,152.5L336.7,152.5z
		 M320.9,184.9v-2.2v-7h-36.4v7v2.2H320.9L320.9,184.9z M320.9,173.8v-9.3h-36.4v9.2L320.9,173.8L320.9,173.8z M257.1,176.4h3.7
		v-19.3h-3.7V176.4L257.1,176.4z M261.7,178.3h-5.6c-0.5,0-1-0.4-1-1v-21.2c0-0.5,0.4-1,1-1h5.6c0.5,0,1,0.4,1,1v21.2
		C262.7,177.9,262.3,178.3,261.7,178.3L261.7,178.3z M251.4,181.7v-30.2c0-0.5,0.4-1,1-1h13.1c0.5,0,1,0.4,1,1v30.2h2.1v-32.5
		c-1.3-1.1-2.7-2-4.3-2.6c-1.7-0.6-3.5-1-5.3-1s-3.6,0.3-5.3,1c-1.6,0.6-3,1.5-4.3,2.6v32.5H251.4L251.4,181.7z M264.6,181.7v-29.2
		h-11.3v29.2H264.6L264.6,181.7z M270.1,148.1c0.2,0.2,0.4,0.4,0.4,0.7v32.9h0.5h2.8v-25.6v-4.6V142L259,130.8L244.2,142v39.7h2.8
		h0.5v-32.9c0-0.3,0.1-0.6,0.4-0.7c1.5-1.4,3.3-2.4,5.2-3.2c1.9-0.7,3.9-1.1,6-1.1s4.1,0.4,6,1.1
		C266.9,145.7,268.6,146.7,270.1,148.1L270.1,148.1z M275.1,140.6c0.2,0.1,0.3,0.2,0.4,0.3l7.8,5.9l1.6-2.2l-26-19.6l-3.3,2.5l0,0
		l-22.7,17.1l1.6,2.2l8-6c0,0,0.1,0,0.1-0.1l15.7-11.9c0.3-0.3,0.8-0.3,1.2,0L275.1,140.6L275.1,140.6z M242.2,143.5l-6.6,5
		c-0.4,0.3-0.8,0.4-1.3,0.3c-0.4-0.1-0.9-0.3-1.1-0.7l-1.9-2.5c-0.3-0.4-0.4-0.8-0.3-1.3c0.1-0.4,0.3-0.9,0.7-1.1l21.9-16.5
		l-19.2-14.4L195,142v39.7h46.8h0.5L242.2,143.5L242.2,143.5z M234.3,119.7c2.2,0,4.1,0.9,5.6,2.3c1.4,1.4,2.3,3.4,2.3,5.6
		s-0.9,4.1-2.3,5.6c-1.4,1.4-3.4,2.3-5.6,2.3c-2.2,0-4.1-0.9-5.6-2.3c-1.4-1.4-2.3-3.4-2.3-5.6s0.9-4.1,2.3-5.6
		C230.2,120.6,232.2,119.7,234.3,119.7L234.3,119.7z M238.6,123.4c-1.1-1.1-2.6-1.7-4.2-1.7c-1.6,0-3.1,0.7-4.2,1.7
		c-1.1,1.1-1.7,2.6-1.7,4.2s0.7,3.1,1.7,4.2c1.1,1.1,2.6,1.7,4.2,1.7c1.6,0,3.1-0.7,4.2-1.7c1.1-1.1,1.7-2.6,1.7-4.2
		C240.3,125.9,239.6,124.4,238.6,123.4L238.6,123.4z M206.9,147.9h5.6h12.2h5.6c0.5,0,1,0.4,1,1v28.6c0,0.5-0.4,1-1,1h-5.6h-12.2
		h-5.6c-0.5,0-1-0.4-1-1v-28.6C206,148.3,206.4,147.9,206.9,147.9L206.9,147.9z M223.7,176.4v-26.7h-10.3v26.7H223.7L223.7,176.4z
		 M225.7,149.8v26.7h3.7v-26.7H225.7L225.7,149.8z M211.5,176.4v-26.7h-3.7v26.7H211.5L211.5,176.4z M270,192.6v-1.8h-22.1v1.8H270
		L270,192.6z M270,188.9v-1.7h-22.1v1.7H270L270,188.9z M270,185.3v-1.7h-0.5h-4h-13.1h-4h-0.5v1.7H270L270,185.3z M212.5,185.3
		h12.2c0.5,0,1,0.4,1,1v7.3c0,0.5-0.4,1-1,1h-12.2c-0.5,0-1-0.4-1-1v-7.3C211.5,185.8,212,185.3,212.5,185.3L212.5,185.3z
		 M223.7,187.2h-10.3v5.3h10.3V187.2L223.7,187.2z"/>
	<path class="st1" d="M1,198c-0.5,0-1-0.4-1-1c0-0.5,0.4-1,1-1h411.8c0.5,0,1,0.4,1,1c0,0.5-0.4,1-1,1H1L1,198z"/>
	<g>
		<path class="st7" d="M322.6,91.6h34.8c2.5,0,4.6,2,4.6,4.6v10.3c0,2.5-2,4.6-4.6,4.6h-34.8c-2.5,0-4.6-2-4.6-4.6V96.2
			C318.1,93.7,320.2,91.6,322.6,91.6L322.6,91.6z"/>
		<g class="st8">
			<path class="st9" d="M329.5,99.8c-0.3-0.1-0.6-0.2-0.8-0.2c-0.2,0-0.3,0-0.4,0.1s-0.2,0.2-0.2,0.3c0,0.1,0,0.2,0.1,0.3
				s0.2,0.1,0.3,0.2c0.1,0,0.3,0.1,0.6,0.2c0.4,0.1,0.7,0.2,0.9,0.3c0.2,0.1,0.5,0.3,0.6,0.5c0.2,0.2,0.3,0.5,0.3,0.9
				c0,0.4-0.1,0.7-0.3,0.9s-0.5,0.4-0.8,0.6c-0.3,0.1-0.7,0.2-1.1,0.2c-0.5,0-0.9-0.1-1.3-0.2c-0.4-0.2-0.8-0.4-1.2-0.6l0.5-1.1
				c0.3,0.2,0.6,0.4,1,0.6c0.4,0.2,0.7,0.2,1,0.2c0.2,0,0.4,0,0.5-0.1c0.1-0.1,0.2-0.2,0.2-0.3c0-0.1,0-0.2-0.1-0.3
				c-0.1-0.1-0.2-0.1-0.3-0.2c-0.1,0-0.3-0.1-0.6-0.2c-0.4-0.1-0.7-0.2-0.9-0.3c-0.2-0.1-0.5-0.3-0.6-0.5c-0.2-0.2-0.3-0.5-0.3-0.9
				c0-0.3,0.1-0.6,0.3-0.9s0.4-0.4,0.8-0.6s0.7-0.2,1.1-0.2c0.4,0,0.8,0.1,1.2,0.2c0.4,0.1,0.7,0.3,1,0.4l-0.5,1.1
				C330.2,100.1,329.9,99.9,329.5,99.8z"/>
			<path class="st9" d="M337.3,98.9c0.4,0.2,0.8,0.6,1.1,1s0.4,0.9,0.4,1.4c0,0.5-0.1,1-0.4,1.4c-0.3,0.4-0.6,0.8-1.1,1
				c-0.4,0.2-0.9,0.4-1.5,0.4c-0.6,0-1.1-0.1-1.5-0.4c-0.4-0.2-0.8-0.6-1.1-1c-0.3-0.4-0.4-0.9-0.4-1.4c0-0.5,0.1-1,0.4-1.4
				s0.6-0.8,1.1-1c0.4-0.2,0.9-0.4,1.5-0.4C336.3,98.5,336.8,98.6,337.3,98.9z M335.1,99.9c-0.2,0.1-0.4,0.3-0.5,0.6
				c-0.1,0.2-0.2,0.5-0.2,0.8c0,0.3,0.1,0.6,0.2,0.8c0.1,0.2,0.3,0.4,0.5,0.6c0.2,0.1,0.5,0.2,0.7,0.2s0.5-0.1,0.7-0.2
				c0.2-0.1,0.4-0.3,0.5-0.6c0.1-0.2,0.2-0.5,0.2-0.8c0-0.3-0.1-0.6-0.2-0.8s-0.3-0.4-0.5-0.6c-0.2-0.1-0.5-0.2-0.7-0.2
				S335.3,99.8,335.1,99.9z"/>
			<path class="st9" d="M340.9,98.6h1.4v4.2h2.3v1.2h-3.7V98.6z"/>
			<path class="st9" d="M350.6,98.9c0.4,0.2,0.8,0.5,1,1c0.2,0.4,0.4,0.9,0.4,1.4s-0.1,1-0.4,1.4c-0.2,0.4-0.6,0.7-1,1
				c-0.4,0.2-1,0.3-1.5,0.3h-2.3v-5.4h2.3C349.7,98.6,350.2,98.7,350.6,98.9z M349.9,102.7c0.2-0.1,0.4-0.3,0.5-0.6
				c0.1-0.2,0.2-0.5,0.2-0.8c0-0.3-0.1-0.6-0.2-0.8c-0.1-0.2-0.3-0.4-0.5-0.6c-0.2-0.1-0.5-0.2-0.8-0.2h-0.9v3.1h1
				C349.4,102.9,349.7,102.8,349.9,102.7z"/>
		</g>
	</g>
	<g>
		<path class="st10" d="M134.1,72.5H172c2.5,0,4.7,2.1,4.7,4.7v10.6c0,2.5-2.1,4.7-4.7,4.7h-37.8c-2.5,0-4.7-2.1-4.7-4.7V77.2
			C129.5,74.6,131.6,72.5,134.1,72.5L134.1,72.5z"/>
		<g class="st8">
			<path class="st11" d="M142.6,85.3l-0.8-1.5h0h-1.1v1.5h-1.5v-5.6h2.5c0.7,0,1.3,0.2,1.7,0.5c0.4,0.3,0.6,0.8,0.6,1.4
				c0,0.4-0.1,0.8-0.3,1.1s-0.4,0.5-0.7,0.7l1.2,1.8H142.6z M140.7,82.6h1.1c0.3,0,0.5-0.1,0.7-0.2s0.2-0.4,0.2-0.6
				c0-0.3-0.1-0.5-0.2-0.6c-0.2-0.1-0.4-0.2-0.7-0.2h-1.1V82.6z"/>
			<path class="st11" d="M146.5,79.7h4.4v1.2H148v1h2.7v1.2l-2.7,0v1.1h3v1.2h-4.5V79.7z"/>
			<path class="st11" d="M157.3,79.7h1.4v5.6h-1.3l-2.5-3.3v3.3h-1.4v-5.6h1.3l2.5,3.4L157.3,79.7z"/>
			<path class="st11" d="M160.7,79.7h4.8v1.2h-1.7v4.4h-1.5v-4.4h-1.7V79.7z"/>
		</g>
	</g>
</g>
</svg>
