<?xml version="1.0" encoding="utf-8"?>
<!-- Generator: Adobe Illustrator 22.0.0, SVG Export Plug-In . SVG Version: 6.00 Build 0)  -->
<svg version="1.1" id="Layer_1" xmlns="http://www.w3.org/2000/svg" xmlns:xlink="http://www.w3.org/1999/xlink" x="0px" y="0px"
	 viewBox="0 0 749.6 937" style="enable-background:new 0 0 749.6 937;" xml:space="preserve">
<style type="text/css">
	.st0{fill:#454545;}
	.st1{fill:#EF5350;}
</style>
<g id="surface1">
	<path class="st0" d="M608.2,363.3l-21.1,23l95.8,87.8c22.5,20.7,35.4,50,35.4,80.6V937h31.2V554.7c0-39.4-16.6-77-45.6-103.6
		L608.2,363.3z"/>
	<path class="st0" d="M484.1,0h-406C35,0.1,0.1,35,0,78.1v780.8c0.1,43.1,35,78,78.1,78.1h390.4v-27.9
		c-0.1-70.3,20.8-139.2,59.8-197.6c4.1-6.2,3.3-14.4-2-19.7L417.1,582.4c-10.1-10.1-15.5-24-14.8-38.3c0.7-14.3,7.4-27.6,18.5-36.7
		c21.3-16.3,51.4-13.9,69.9,5.4L644.9,667l22.1-22.1L562.2,540.1v-462C562.1,35,527.2,0.1,484.1,0z M531,508.9l-18.2-18.2
		c-30-30.6-78.1-33.8-111.9-7.4c-17.8,14.7-28.7,36.2-29.8,59.3c-1.1,23.1,7.5,45.5,23.9,61.9l100.4,100.4
		c-37.4,60.3-57.5,129.9-58,200.9H78.1c-25.9,0-46.9-21-46.9-46.8v-46.9h390.4v-31.2H31.2V124.9H531V508.9z M531,93.7H31.2V78.1
		c0-25.9,21-46.9,46.9-46.9h406c25.9,0,46.9,21,46.9,46.9V93.7z"/>
	<path class="st1" d="M93.7,281.1h62.5c17.3,0,31.2-14,31.2-31.2v-62.5c0-17.3-14-31.2-31.2-31.2H93.7c-17.3,0-31.2,14-31.2,31.2
		v62.5C62.5,267.1,76.4,281.1,93.7,281.1z M93.7,187.4h62.5v62.5H93.7V187.4z"/>
	<path class="st1" d="M249.9,281.1h62.5c17.3,0,31.2-14,31.2-31.2v-62.5c0-17.3-14-31.2-31.2-31.2h-62.5c-17.3,0-31.2,14-31.2,31.2
		v62.5C218.6,267.1,232.6,281.1,249.9,281.1z M249.9,187.4h62.5v62.5h-62.5V187.4z"/>
	<path class="st1" d="M406,281.1h62.5c17.3,0,31.2-14,31.2-31.2v-62.5c0-17.3-14-31.2-31.2-31.2H406c-17.3,0-31.2,14-31.2,31.2v62.5
		C374.8,267.1,388.8,281.1,406,281.1z M406,187.4h62.5v62.5H406V187.4z"/>
	<path class="st1" d="M93.7,437.3h62.5c17.3,0,31.2-14,31.2-31.2v-62.5c0-17.3-14-31.2-31.2-31.2H93.7c-17.3,0-31.2,14-31.2,31.2
		V406C62.5,423.3,76.4,437.3,93.7,437.3z M93.7,343.6h62.5V406H93.7V343.6z"/>
	<path class="st1" d="M93.7,593.4h62.5c17.3,0,31.2-14,31.2-31.2v-62.5c0-17.3-14-31.2-31.2-31.2H93.7c-17.3,0-31.2,14-31.2,31.2
		v62.5C62.5,579.5,76.4,593.4,93.7,593.4z M93.7,499.7h62.5v62.5H93.7V499.7z"/>
	<path class="st1" d="M249.9,437.3h62.5c17.3,0,31.2-14,31.2-31.2v-62.5c0-17.3-14-31.2-31.2-31.2h-62.5c-17.3,0-31.2,14-31.2,31.2
		V406C218.6,423.3,232.6,437.3,249.9,437.3z M249.9,343.6h62.5V406h-62.5V343.6z"/>
	<path class="st1" d="M406,437.3h62.5c17.3,0,31.2-14,31.2-31.2v-62.5c0-17.3-14-31.2-31.2-31.2H406c-17.3,0-31.2,14-31.2,31.2V406
		C374.8,423.3,388.8,437.3,406,437.3z M406,343.6h62.5V406H406V343.6z"/>
	<path class="st1" d="M249.9,593.4h62.5c17.3,0,31.2-14,31.2-31.2v-62.5c0-17.3-14-31.2-31.2-31.2h-62.5c-17.3,0-31.2,14-31.2,31.2
		v62.5C218.6,579.5,232.6,593.4,249.9,593.4z M249.9,499.7h62.5v62.5h-62.5V499.7z"/>
	<path class="st1" d="M93.7,749.6h62.5c17.3,0,31.2-14,31.2-31.2v-62.5c0-17.3-14-31.2-31.2-31.2H93.7c-17.3,0-31.2,14-31.2,31.2
		v62.5C62.5,735.6,76.4,749.6,93.7,749.6z M93.7,655.9h62.5v62.5H93.7V655.9z"/>
	<path class="st1" d="M249.9,749.6h62.5c17.3,0,31.2-14,31.2-31.2v-62.5c0-17.3-14-31.2-31.2-31.2h-62.5c-17.3,0-31.2,14-31.2,31.2
		v62.5C218.6,735.6,232.6,749.6,249.9,749.6z M249.9,655.9h62.5v62.5h-62.5V655.9z"/>
	<path class="st0" d="M265.5,843.3h31.2v31.2h-31.2V843.3z"/>
</g>
</svg>
